%TF.GenerationSoftware,KiCad,Pcbnew,7.0.10*%
%TF.CreationDate,2024-03-12T19:05:46-04:00*%
%TF.ProjectId,current_controller,63757272-656e-4745-9f63-6f6e74726f6c,rev?*%
%TF.SameCoordinates,Original*%
%TF.FileFunction,Drillmap*%
%TF.FilePolarity,Positive*%
%FSLAX45Y45*%
G04 Gerber Fmt 4.5, Leading zero omitted, Abs format (unit mm)*
G04 Created by KiCad (PCBNEW 7.0.10) date 2024-03-12 19:05:46*
%MOMM*%
%LPD*%
G01*
G04 APERTURE LIST*
%ADD10C,0.100000*%
%ADD11C,0.200000*%
%ADD12C,0.120000*%
%ADD13C,0.201000*%
%ADD14C,0.280000*%
%ADD15C,0.304800*%
G04 APERTURE END LIST*
D10*
X4826000Y-3810000D02*
X14986000Y-3810000D01*
X14986000Y-11430000D01*
X4826000Y-11430000D01*
X4826000Y-3810000D01*
D11*
D10*
X5123500Y-7028500D02*
X5163500Y-7068500D01*
X5163500Y-7028500D02*
X5123500Y-7068500D01*
X5123500Y-7282500D02*
X5163500Y-7322500D01*
X5163500Y-7282500D02*
X5123500Y-7322500D01*
X5123500Y-9632000D02*
X5163500Y-9672000D01*
X5163500Y-9632000D02*
X5123500Y-9672000D01*
X5123500Y-9886000D02*
X5163500Y-9926000D01*
X5163500Y-9886000D02*
X5123500Y-9926000D01*
X5129208Y-9756299D02*
X5169208Y-9796299D01*
X5169208Y-9756299D02*
X5129208Y-9796299D01*
X5134822Y-7160020D02*
X5174822Y-7200020D01*
X5174822Y-7160020D02*
X5134822Y-7200020D01*
X5885500Y-8108000D02*
X5925500Y-8148000D01*
X5925500Y-8108000D02*
X5885500Y-8148000D01*
X5885500Y-8489000D02*
X5925500Y-8529000D01*
X5925500Y-8489000D02*
X5885500Y-8529000D01*
X5885500Y-8870000D02*
X5925500Y-8910000D01*
X5925500Y-8870000D02*
X5885500Y-8910000D01*
X6711000Y-7854000D02*
X6751000Y-7894000D01*
X6751000Y-7854000D02*
X6711000Y-7894000D01*
X6814230Y-8437650D02*
X6854230Y-8477650D01*
X6854230Y-8437650D02*
X6814230Y-8477650D01*
X6814230Y-8640850D02*
X6854230Y-8680850D01*
X6854230Y-8640850D02*
X6814230Y-8680850D01*
X6838000Y-7600000D02*
X6878000Y-7640000D01*
X6878000Y-7600000D02*
X6838000Y-7640000D01*
X6838000Y-8171500D02*
X6878000Y-8211500D01*
X6878000Y-8171500D02*
X6838000Y-8211500D01*
X6965000Y-7536500D02*
X7005000Y-7576500D01*
X7005000Y-7536500D02*
X6965000Y-7576500D01*
X6965000Y-7917500D02*
X7005000Y-7957500D01*
X7005000Y-7917500D02*
X6965000Y-7957500D01*
X7017430Y-8183650D02*
X7057430Y-8223650D01*
X7057430Y-8183650D02*
X7017430Y-8223650D01*
X7017430Y-8640850D02*
X7057430Y-8680850D01*
X7057430Y-8640850D02*
X7017430Y-8680850D01*
X7064831Y-5878210D02*
X7104831Y-5918210D01*
X7104831Y-5878210D02*
X7064831Y-5918210D01*
X7092000Y-7409500D02*
X7132000Y-7449500D01*
X7132000Y-7409500D02*
X7092000Y-7449500D01*
X7219000Y-7536500D02*
X7259000Y-7576500D01*
X7259000Y-7536500D02*
X7219000Y-7576500D01*
X7219000Y-7917500D02*
X7259000Y-7957500D01*
X7259000Y-7917500D02*
X7219000Y-7957500D01*
X7220630Y-8183650D02*
X7260630Y-8223650D01*
X7260630Y-8183650D02*
X7220630Y-8223650D01*
X7220630Y-8640850D02*
X7260630Y-8680850D01*
X7260630Y-8640850D02*
X7220630Y-8680850D01*
X7249872Y-10072706D02*
X7289872Y-10112706D01*
X7289872Y-10072706D02*
X7249872Y-10112706D01*
X7346000Y-7727000D02*
X7386000Y-7767000D01*
X7386000Y-7727000D02*
X7346000Y-7767000D01*
X7409500Y-7917500D02*
X7449500Y-7957500D01*
X7449500Y-7917500D02*
X7409500Y-7957500D01*
X7423830Y-8183650D02*
X7463830Y-8223650D01*
X7463830Y-8183650D02*
X7423830Y-8223650D01*
X7423830Y-8386850D02*
X7463830Y-8426850D01*
X7463830Y-8386850D02*
X7423830Y-8426850D01*
X7423830Y-8640850D02*
X7463830Y-8680850D01*
X7463830Y-8640850D02*
X7423830Y-8680850D01*
X7473000Y-7790500D02*
X7513000Y-7830500D01*
X7513000Y-7790500D02*
X7473000Y-7830500D01*
X8044500Y-6965000D02*
X8084500Y-7005000D01*
X8084500Y-6965000D02*
X8044500Y-7005000D01*
X8044500Y-7346000D02*
X8084500Y-7386000D01*
X8084500Y-7346000D02*
X8044500Y-7386000D01*
X8111214Y-9183593D02*
X8151214Y-9223593D01*
X8151214Y-9183593D02*
X8111214Y-9223593D01*
X8111214Y-9525234D02*
X8151214Y-9565234D01*
X8151214Y-9525234D02*
X8111214Y-9565234D01*
X8431608Y-7807612D02*
X8471608Y-7847612D01*
X8471608Y-7807612D02*
X8431608Y-7847612D01*
X8602750Y-6620470D02*
X8642750Y-6660470D01*
X8642750Y-6620470D02*
X8602750Y-6660470D01*
X8679500Y-7219000D02*
X8719500Y-7259000D01*
X8719500Y-7219000D02*
X8679500Y-7259000D01*
X8729750Y-5159970D02*
X8769750Y-5199970D01*
X8769750Y-5159970D02*
X8729750Y-5199970D01*
X8731130Y-5773345D02*
X8771130Y-5813345D01*
X8771130Y-5773345D02*
X8731130Y-5813345D01*
X8882543Y-7773611D02*
X8922543Y-7813611D01*
X8922543Y-7773611D02*
X8882543Y-7813611D01*
X8960024Y-7993745D02*
X9000024Y-8033745D01*
X9000024Y-7993745D02*
X8960024Y-8033745D01*
X8979156Y-6606679D02*
X9019156Y-6646679D01*
X9019156Y-6606679D02*
X8979156Y-6646679D01*
X9080524Y-6370504D02*
X9120524Y-6410504D01*
X9120524Y-6370504D02*
X9080524Y-6410504D01*
X9224407Y-9529894D02*
X9264407Y-9569894D01*
X9264407Y-9529894D02*
X9224407Y-9569894D01*
X9364025Y-9842447D02*
X9404025Y-9882447D01*
X9404025Y-9842447D02*
X9364025Y-9882447D01*
X9378000Y-8652470D02*
X9418000Y-8692470D01*
X9418000Y-8652470D02*
X9378000Y-8692470D01*
X9441500Y-8525470D02*
X9481500Y-8565470D01*
X9481500Y-8525470D02*
X9441500Y-8565470D01*
X9449083Y-8027212D02*
X9489083Y-8067212D01*
X9489083Y-8027212D02*
X9449083Y-8067212D01*
X9555250Y-7724649D02*
X9595250Y-7764649D01*
X9595250Y-7724649D02*
X9555250Y-7764649D01*
X9618750Y-8271470D02*
X9658750Y-8311470D01*
X9658750Y-8271470D02*
X9618750Y-8311470D01*
X9618750Y-8398470D02*
X9658750Y-8438470D01*
X9658750Y-8398470D02*
X9618750Y-8438470D01*
X9745750Y-8271470D02*
X9785750Y-8311470D01*
X9785750Y-8271470D02*
X9745750Y-8311470D01*
X9745750Y-8398470D02*
X9785750Y-8438470D01*
X9785750Y-8398470D02*
X9745750Y-8438470D01*
X9892095Y-7298849D02*
X9932095Y-7338849D01*
X9932095Y-7298849D02*
X9892095Y-7338849D01*
X9983367Y-9363272D02*
X10023367Y-9403272D01*
X10023367Y-9363272D02*
X9983367Y-9403272D01*
X10114050Y-10112970D02*
X10154050Y-10152970D01*
X10154050Y-10112970D02*
X10114050Y-10152970D01*
X10232785Y-10762937D02*
X10272785Y-10802937D01*
X10272785Y-10762937D02*
X10232785Y-10802937D01*
X10253750Y-9033470D02*
X10293750Y-9073470D01*
X10293750Y-9033470D02*
X10253750Y-9073470D01*
X10253750Y-9160470D02*
X10293750Y-9200470D01*
X10293750Y-9160470D02*
X10253750Y-9200470D01*
X10253750Y-9287470D02*
X10293750Y-9327470D01*
X10293750Y-9287470D02*
X10253750Y-9327470D01*
X10253750Y-9414470D02*
X10293750Y-9454470D01*
X10293750Y-9414470D02*
X10253750Y-9454470D01*
X10265729Y-7725370D02*
X10305729Y-7765370D01*
X10305729Y-7725370D02*
X10265729Y-7765370D01*
X10910358Y-10645491D02*
X10950358Y-10685491D01*
X10950358Y-10645491D02*
X10910358Y-10685491D01*
X11029000Y-10965500D02*
X11069000Y-11005500D01*
X11069000Y-10965500D02*
X11029000Y-11005500D01*
X12374736Y-6726395D02*
X12414736Y-6766395D01*
X12414736Y-6726395D02*
X12374736Y-6766395D01*
X12487264Y-7091667D02*
X12527264Y-7131667D01*
X12527264Y-7091667D02*
X12487264Y-7131667D01*
X13057059Y-8054433D02*
X13097059Y-8094433D01*
X13097059Y-8054433D02*
X13057059Y-8094433D01*
X13258084Y-6977622D02*
X13298084Y-7017622D01*
X13298084Y-6977622D02*
X13258084Y-7017622D01*
X13315000Y-6731978D02*
X13355000Y-6771978D01*
X13355000Y-6731978D02*
X13315000Y-6771978D01*
X12925500Y-7778873D02*
G75*
G03*
X12855500Y-7778873I-35000J0D01*
G01*
X12855500Y-7778873D02*
G75*
G03*
X12925500Y-7778873I35000J0D01*
G01*
X12925500Y-7958478D02*
G75*
G03*
X12855500Y-7958478I-35000J0D01*
G01*
X12855500Y-7958478D02*
G75*
G03*
X12925500Y-7958478I35000J0D01*
G01*
X13105105Y-7778873D02*
G75*
G03*
X13035105Y-7778873I-35000J0D01*
G01*
X13035105Y-7778873D02*
G75*
G03*
X13105105Y-7778873I35000J0D01*
G01*
X13105105Y-7958478D02*
G75*
G03*
X13035105Y-7958478I-35000J0D01*
G01*
X13035105Y-7958478D02*
G75*
G03*
X13105105Y-7958478I35000J0D01*
G01*
X7710530Y-9979750D02*
X7710530Y-10059750D01*
X7670530Y-10019750D02*
X7750530Y-10019750D01*
X7710530Y-10233750D02*
X7710530Y-10313750D01*
X7670530Y-10273750D02*
X7750530Y-10273750D01*
X7710530Y-10487750D02*
X7710530Y-10567750D01*
X7670530Y-10527750D02*
X7750530Y-10527750D01*
X7874000Y-5992500D02*
X7874000Y-6072500D01*
X7834000Y-6032500D02*
X7914000Y-6032500D01*
X7874000Y-6246500D02*
X7874000Y-6326500D01*
X7834000Y-6286500D02*
X7914000Y-6286500D01*
X7874000Y-6500500D02*
X7874000Y-6580500D01*
X7834000Y-6540500D02*
X7914000Y-6540500D01*
X7143467Y-5111467D02*
X7143467Y-5048533D01*
X7080533Y-5048533D01*
X7080533Y-5111467D01*
X7143467Y-5111467D01*
X7397467Y-5111467D02*
X7397467Y-5048533D01*
X7334533Y-5048533D01*
X7334533Y-5111467D01*
X7397467Y-5111467D01*
X9683467Y-5111467D02*
X9683467Y-5048533D01*
X9620533Y-5048533D01*
X9620533Y-5111467D01*
X9683467Y-5111467D01*
X9937467Y-5111467D02*
X9937467Y-5048533D01*
X9874533Y-5048533D01*
X9874533Y-5111467D01*
X9937467Y-5111467D01*
D12*
X8761500Y-10855000D02*
X8821500Y-10795000D01*
X8761500Y-10735000D01*
X8701500Y-10795000D01*
X8761500Y-10855000D01*
X9111500Y-10855000D02*
X9171500Y-10795000D01*
X9111500Y-10735000D01*
X9051500Y-10795000D01*
X9111500Y-10855000D01*
X9461500Y-10855000D02*
X9521500Y-10795000D01*
X9461500Y-10735000D01*
X9401500Y-10795000D01*
X9461500Y-10855000D01*
D13*
X6757500Y-4471500D02*
X6958500Y-4672500D01*
X6958500Y-4471500D02*
X6757500Y-4672500D01*
X6958500Y-4572000D02*
G75*
G03*
X6757500Y-4572000I-100500J0D01*
G01*
X6757500Y-4572000D02*
G75*
G03*
X6958500Y-4572000I100500J0D01*
G01*
X7773500Y-4471500D02*
X7974500Y-4672500D01*
X7974500Y-4471500D02*
X7773500Y-4672500D01*
X7974500Y-4572000D02*
G75*
G03*
X7773500Y-4572000I-100500J0D01*
G01*
X7773500Y-4572000D02*
G75*
G03*
X7974500Y-4572000I100500J0D01*
G01*
X9297500Y-4471500D02*
X9498500Y-4672500D01*
X9498500Y-4471500D02*
X9297500Y-4672500D01*
X9498500Y-4572000D02*
G75*
G03*
X9297500Y-4572000I-100500J0D01*
G01*
X9297500Y-4572000D02*
G75*
G03*
X9498500Y-4572000I100500J0D01*
G01*
X10313500Y-4471500D02*
X10514500Y-4672500D01*
X10514500Y-4471500D02*
X10313500Y-4672500D01*
X10514500Y-4572000D02*
G75*
G03*
X10313500Y-4572000I-100500J0D01*
G01*
X10313500Y-4572000D02*
G75*
G03*
X10514500Y-4572000I100500J0D01*
G01*
D14*
X11602000Y-5164614D02*
X11882000Y-5444614D01*
X11882000Y-5164614D02*
X11602000Y-5444614D01*
X11742000Y-5164614D02*
X11742000Y-5444614D01*
X11602000Y-5304614D02*
X11882000Y-5304614D01*
X12306000Y-3964614D02*
X12586000Y-4244614D01*
X12586000Y-3964614D02*
X12306000Y-4244614D01*
X12446000Y-3964614D02*
X12446000Y-4244614D01*
X12306000Y-4104614D02*
X12586000Y-4104614D01*
X12306000Y-4594614D02*
X12586000Y-4874614D01*
X12586000Y-4594614D02*
X12306000Y-4874614D01*
X12446000Y-4594614D02*
X12446000Y-4874614D01*
X12306000Y-4734614D02*
X12586000Y-4734614D01*
D15*
X5308600Y-4292600D02*
X5613400Y-4597400D01*
X5613400Y-4292600D02*
X5308600Y-4597400D01*
X5568764Y-4552764D02*
X5568764Y-4337236D01*
X5353236Y-4337236D01*
X5353236Y-4552764D01*
X5568764Y-4552764D01*
X5308600Y-10642600D02*
X5613400Y-10947400D01*
X5613400Y-10642600D02*
X5308600Y-10947400D01*
X5568764Y-10902764D02*
X5568764Y-10687236D01*
X5353236Y-10687236D01*
X5353236Y-10902764D01*
X5568764Y-10902764D01*
X14198600Y-4292600D02*
X14503400Y-4597400D01*
X14503400Y-4292600D02*
X14198600Y-4597400D01*
X14458764Y-4552764D02*
X14458764Y-4337236D01*
X14243236Y-4337236D01*
X14243236Y-4552764D01*
X14458764Y-4552764D01*
X14198600Y-10642600D02*
X14503400Y-10947400D01*
X14503400Y-10642600D02*
X14198600Y-10947400D01*
X14458764Y-10902764D02*
X14458764Y-10687236D01*
X14243236Y-10687236D01*
X14243236Y-10902764D01*
X14458764Y-10902764D01*
D11*
X5081777Y-11746484D02*
X5081777Y-11546484D01*
X5081777Y-11546484D02*
X5129396Y-11546484D01*
X5129396Y-11546484D02*
X5157967Y-11556008D01*
X5157967Y-11556008D02*
X5177015Y-11575055D01*
X5177015Y-11575055D02*
X5186539Y-11594103D01*
X5186539Y-11594103D02*
X5196063Y-11632198D01*
X5196063Y-11632198D02*
X5196063Y-11660769D01*
X5196063Y-11660769D02*
X5186539Y-11698865D01*
X5186539Y-11698865D02*
X5177015Y-11717912D01*
X5177015Y-11717912D02*
X5157967Y-11736960D01*
X5157967Y-11736960D02*
X5129396Y-11746484D01*
X5129396Y-11746484D02*
X5081777Y-11746484D01*
X5281777Y-11746484D02*
X5281777Y-11613150D01*
X5281777Y-11651246D02*
X5291301Y-11632198D01*
X5291301Y-11632198D02*
X5300824Y-11622674D01*
X5300824Y-11622674D02*
X5319872Y-11613150D01*
X5319872Y-11613150D02*
X5338920Y-11613150D01*
X5405586Y-11746484D02*
X5405586Y-11613150D01*
X5405586Y-11546484D02*
X5396063Y-11556008D01*
X5396063Y-11556008D02*
X5405586Y-11565531D01*
X5405586Y-11565531D02*
X5415110Y-11556008D01*
X5415110Y-11556008D02*
X5405586Y-11546484D01*
X5405586Y-11546484D02*
X5405586Y-11565531D01*
X5529396Y-11746484D02*
X5510348Y-11736960D01*
X5510348Y-11736960D02*
X5500824Y-11717912D01*
X5500824Y-11717912D02*
X5500824Y-11546484D01*
X5634158Y-11746484D02*
X5615110Y-11736960D01*
X5615110Y-11736960D02*
X5605586Y-11717912D01*
X5605586Y-11717912D02*
X5605586Y-11546484D01*
X5862729Y-11746484D02*
X5862729Y-11546484D01*
X5862729Y-11546484D02*
X5929396Y-11689341D01*
X5929396Y-11689341D02*
X5996062Y-11546484D01*
X5996062Y-11546484D02*
X5996062Y-11746484D01*
X6177015Y-11746484D02*
X6177015Y-11641722D01*
X6177015Y-11641722D02*
X6167491Y-11622674D01*
X6167491Y-11622674D02*
X6148443Y-11613150D01*
X6148443Y-11613150D02*
X6110348Y-11613150D01*
X6110348Y-11613150D02*
X6091301Y-11622674D01*
X6177015Y-11736960D02*
X6157967Y-11746484D01*
X6157967Y-11746484D02*
X6110348Y-11746484D01*
X6110348Y-11746484D02*
X6091301Y-11736960D01*
X6091301Y-11736960D02*
X6081777Y-11717912D01*
X6081777Y-11717912D02*
X6081777Y-11698865D01*
X6081777Y-11698865D02*
X6091301Y-11679817D01*
X6091301Y-11679817D02*
X6110348Y-11670293D01*
X6110348Y-11670293D02*
X6157967Y-11670293D01*
X6157967Y-11670293D02*
X6177015Y-11660769D01*
X6272253Y-11613150D02*
X6272253Y-11813150D01*
X6272253Y-11622674D02*
X6291301Y-11613150D01*
X6291301Y-11613150D02*
X6329396Y-11613150D01*
X6329396Y-11613150D02*
X6348443Y-11622674D01*
X6348443Y-11622674D02*
X6357967Y-11632198D01*
X6357967Y-11632198D02*
X6367491Y-11651246D01*
X6367491Y-11651246D02*
X6367491Y-11708388D01*
X6367491Y-11708388D02*
X6357967Y-11727436D01*
X6357967Y-11727436D02*
X6348443Y-11736960D01*
X6348443Y-11736960D02*
X6329396Y-11746484D01*
X6329396Y-11746484D02*
X6291301Y-11746484D01*
X6291301Y-11746484D02*
X6272253Y-11736960D01*
X6453205Y-11727436D02*
X6462729Y-11736960D01*
X6462729Y-11736960D02*
X6453205Y-11746484D01*
X6453205Y-11746484D02*
X6443682Y-11736960D01*
X6443682Y-11736960D02*
X6453205Y-11727436D01*
X6453205Y-11727436D02*
X6453205Y-11746484D01*
X6453205Y-11622674D02*
X6462729Y-11632198D01*
X6462729Y-11632198D02*
X6453205Y-11641722D01*
X6453205Y-11641722D02*
X6443682Y-11632198D01*
X6443682Y-11632198D02*
X6453205Y-11622674D01*
X6453205Y-11622674D02*
X6453205Y-11641722D01*
D10*
X4781000Y-12055000D02*
X4821000Y-12095000D01*
X4821000Y-12055000D02*
X4781000Y-12095000D01*
D11*
X5119872Y-11966484D02*
X5138920Y-11966484D01*
X5138920Y-11966484D02*
X5157967Y-11976008D01*
X5157967Y-11976008D02*
X5167491Y-11985531D01*
X5167491Y-11985531D02*
X5177015Y-12004579D01*
X5177015Y-12004579D02*
X5186539Y-12042674D01*
X5186539Y-12042674D02*
X5186539Y-12090293D01*
X5186539Y-12090293D02*
X5177015Y-12128388D01*
X5177015Y-12128388D02*
X5167491Y-12147436D01*
X5167491Y-12147436D02*
X5157967Y-12156960D01*
X5157967Y-12156960D02*
X5138920Y-12166484D01*
X5138920Y-12166484D02*
X5119872Y-12166484D01*
X5119872Y-12166484D02*
X5100824Y-12156960D01*
X5100824Y-12156960D02*
X5091301Y-12147436D01*
X5091301Y-12147436D02*
X5081777Y-12128388D01*
X5081777Y-12128388D02*
X5072253Y-12090293D01*
X5072253Y-12090293D02*
X5072253Y-12042674D01*
X5072253Y-12042674D02*
X5081777Y-12004579D01*
X5081777Y-12004579D02*
X5091301Y-11985531D01*
X5091301Y-11985531D02*
X5100824Y-11976008D01*
X5100824Y-11976008D02*
X5119872Y-11966484D01*
X5272253Y-12147436D02*
X5281777Y-12156960D01*
X5281777Y-12156960D02*
X5272253Y-12166484D01*
X5272253Y-12166484D02*
X5262729Y-12156960D01*
X5262729Y-12156960D02*
X5272253Y-12147436D01*
X5272253Y-12147436D02*
X5272253Y-12166484D01*
X5453205Y-12033150D02*
X5453205Y-12166484D01*
X5405586Y-11956960D02*
X5357967Y-12099817D01*
X5357967Y-12099817D02*
X5481777Y-12099817D01*
X5596062Y-11966484D02*
X5615110Y-11966484D01*
X5615110Y-11966484D02*
X5634158Y-11976008D01*
X5634158Y-11976008D02*
X5643682Y-11985531D01*
X5643682Y-11985531D02*
X5653205Y-12004579D01*
X5653205Y-12004579D02*
X5662729Y-12042674D01*
X5662729Y-12042674D02*
X5662729Y-12090293D01*
X5662729Y-12090293D02*
X5653205Y-12128388D01*
X5653205Y-12128388D02*
X5643682Y-12147436D01*
X5643682Y-12147436D02*
X5634158Y-12156960D01*
X5634158Y-12156960D02*
X5615110Y-12166484D01*
X5615110Y-12166484D02*
X5596062Y-12166484D01*
X5596062Y-12166484D02*
X5577015Y-12156960D01*
X5577015Y-12156960D02*
X5567491Y-12147436D01*
X5567491Y-12147436D02*
X5557967Y-12128388D01*
X5557967Y-12128388D02*
X5548444Y-12090293D01*
X5548444Y-12090293D02*
X5548444Y-12042674D01*
X5548444Y-12042674D02*
X5557967Y-12004579D01*
X5557967Y-12004579D02*
X5567491Y-11985531D01*
X5567491Y-11985531D02*
X5577015Y-11976008D01*
X5577015Y-11976008D02*
X5596062Y-11966484D01*
X5786539Y-11966484D02*
X5805586Y-11966484D01*
X5805586Y-11966484D02*
X5824634Y-11976008D01*
X5824634Y-11976008D02*
X5834158Y-11985531D01*
X5834158Y-11985531D02*
X5843682Y-12004579D01*
X5843682Y-12004579D02*
X5853205Y-12042674D01*
X5853205Y-12042674D02*
X5853205Y-12090293D01*
X5853205Y-12090293D02*
X5843682Y-12128388D01*
X5843682Y-12128388D02*
X5834158Y-12147436D01*
X5834158Y-12147436D02*
X5824634Y-12156960D01*
X5824634Y-12156960D02*
X5805586Y-12166484D01*
X5805586Y-12166484D02*
X5786539Y-12166484D01*
X5786539Y-12166484D02*
X5767491Y-12156960D01*
X5767491Y-12156960D02*
X5757967Y-12147436D01*
X5757967Y-12147436D02*
X5748443Y-12128388D01*
X5748443Y-12128388D02*
X5738920Y-12090293D01*
X5738920Y-12090293D02*
X5738920Y-12042674D01*
X5738920Y-12042674D02*
X5748443Y-12004579D01*
X5748443Y-12004579D02*
X5757967Y-11985531D01*
X5757967Y-11985531D02*
X5767491Y-11976008D01*
X5767491Y-11976008D02*
X5786539Y-11966484D01*
X5938920Y-12166484D02*
X5938920Y-12033150D01*
X5938920Y-12052198D02*
X5948443Y-12042674D01*
X5948443Y-12042674D02*
X5967491Y-12033150D01*
X5967491Y-12033150D02*
X5996063Y-12033150D01*
X5996063Y-12033150D02*
X6015110Y-12042674D01*
X6015110Y-12042674D02*
X6024634Y-12061722D01*
X6024634Y-12061722D02*
X6024634Y-12166484D01*
X6024634Y-12061722D02*
X6034158Y-12042674D01*
X6034158Y-12042674D02*
X6053205Y-12033150D01*
X6053205Y-12033150D02*
X6081777Y-12033150D01*
X6081777Y-12033150D02*
X6100824Y-12042674D01*
X6100824Y-12042674D02*
X6110348Y-12061722D01*
X6110348Y-12061722D02*
X6110348Y-12166484D01*
X6205586Y-12166484D02*
X6205586Y-12033150D01*
X6205586Y-12052198D02*
X6215110Y-12042674D01*
X6215110Y-12042674D02*
X6234158Y-12033150D01*
X6234158Y-12033150D02*
X6262729Y-12033150D01*
X6262729Y-12033150D02*
X6281777Y-12042674D01*
X6281777Y-12042674D02*
X6291301Y-12061722D01*
X6291301Y-12061722D02*
X6291301Y-12166484D01*
X6291301Y-12061722D02*
X6300824Y-12042674D01*
X6300824Y-12042674D02*
X6319872Y-12033150D01*
X6319872Y-12033150D02*
X6348443Y-12033150D01*
X6348443Y-12033150D02*
X6367491Y-12042674D01*
X6367491Y-12042674D02*
X6377015Y-12061722D01*
X6377015Y-12061722D02*
X6377015Y-12166484D01*
X6767491Y-11956960D02*
X6596063Y-12214103D01*
X7024634Y-11966484D02*
X7043682Y-11966484D01*
X7043682Y-11966484D02*
X7062729Y-11976008D01*
X7062729Y-11976008D02*
X7072253Y-11985531D01*
X7072253Y-11985531D02*
X7081777Y-12004579D01*
X7081777Y-12004579D02*
X7091301Y-12042674D01*
X7091301Y-12042674D02*
X7091301Y-12090293D01*
X7091301Y-12090293D02*
X7081777Y-12128388D01*
X7081777Y-12128388D02*
X7072253Y-12147436D01*
X7072253Y-12147436D02*
X7062729Y-12156960D01*
X7062729Y-12156960D02*
X7043682Y-12166484D01*
X7043682Y-12166484D02*
X7024634Y-12166484D01*
X7024634Y-12166484D02*
X7005586Y-12156960D01*
X7005586Y-12156960D02*
X6996063Y-12147436D01*
X6996063Y-12147436D02*
X6986539Y-12128388D01*
X6986539Y-12128388D02*
X6977015Y-12090293D01*
X6977015Y-12090293D02*
X6977015Y-12042674D01*
X6977015Y-12042674D02*
X6986539Y-12004579D01*
X6986539Y-12004579D02*
X6996063Y-11985531D01*
X6996063Y-11985531D02*
X7005586Y-11976008D01*
X7005586Y-11976008D02*
X7024634Y-11966484D01*
X7177015Y-12147436D02*
X7186539Y-12156960D01*
X7186539Y-12156960D02*
X7177015Y-12166484D01*
X7177015Y-12166484D02*
X7167491Y-12156960D01*
X7167491Y-12156960D02*
X7177015Y-12147436D01*
X7177015Y-12147436D02*
X7177015Y-12166484D01*
X7310348Y-11966484D02*
X7329396Y-11966484D01*
X7329396Y-11966484D02*
X7348444Y-11976008D01*
X7348444Y-11976008D02*
X7357967Y-11985531D01*
X7357967Y-11985531D02*
X7367491Y-12004579D01*
X7367491Y-12004579D02*
X7377015Y-12042674D01*
X7377015Y-12042674D02*
X7377015Y-12090293D01*
X7377015Y-12090293D02*
X7367491Y-12128388D01*
X7367491Y-12128388D02*
X7357967Y-12147436D01*
X7357967Y-12147436D02*
X7348444Y-12156960D01*
X7348444Y-12156960D02*
X7329396Y-12166484D01*
X7329396Y-12166484D02*
X7310348Y-12166484D01*
X7310348Y-12166484D02*
X7291301Y-12156960D01*
X7291301Y-12156960D02*
X7281777Y-12147436D01*
X7281777Y-12147436D02*
X7272253Y-12128388D01*
X7272253Y-12128388D02*
X7262729Y-12090293D01*
X7262729Y-12090293D02*
X7262729Y-12042674D01*
X7262729Y-12042674D02*
X7272253Y-12004579D01*
X7272253Y-12004579D02*
X7281777Y-11985531D01*
X7281777Y-11985531D02*
X7291301Y-11976008D01*
X7291301Y-11976008D02*
X7310348Y-11966484D01*
X7567491Y-12166484D02*
X7453206Y-12166484D01*
X7510348Y-12166484D02*
X7510348Y-11966484D01*
X7510348Y-11966484D02*
X7491301Y-11995055D01*
X7491301Y-11995055D02*
X7472253Y-12014103D01*
X7472253Y-12014103D02*
X7453206Y-12023627D01*
X7748444Y-11966484D02*
X7653206Y-11966484D01*
X7653206Y-11966484D02*
X7643682Y-12061722D01*
X7643682Y-12061722D02*
X7653206Y-12052198D01*
X7653206Y-12052198D02*
X7672253Y-12042674D01*
X7672253Y-12042674D02*
X7719872Y-12042674D01*
X7719872Y-12042674D02*
X7738920Y-12052198D01*
X7738920Y-12052198D02*
X7748444Y-12061722D01*
X7748444Y-12061722D02*
X7757967Y-12080769D01*
X7757967Y-12080769D02*
X7757967Y-12128388D01*
X7757967Y-12128388D02*
X7748444Y-12147436D01*
X7748444Y-12147436D02*
X7738920Y-12156960D01*
X7738920Y-12156960D02*
X7719872Y-12166484D01*
X7719872Y-12166484D02*
X7672253Y-12166484D01*
X7672253Y-12166484D02*
X7653206Y-12156960D01*
X7653206Y-12156960D02*
X7643682Y-12147436D01*
X7824634Y-11966484D02*
X7957967Y-11966484D01*
X7957967Y-11966484D02*
X7872253Y-12166484D01*
X8024634Y-11966484D02*
X8024634Y-12004579D01*
X8100825Y-11966484D02*
X8100825Y-12004579D01*
X8396063Y-12242674D02*
X8386539Y-12233150D01*
X8386539Y-12233150D02*
X8367491Y-12204579D01*
X8367491Y-12204579D02*
X8357968Y-12185531D01*
X8357968Y-12185531D02*
X8348444Y-12156960D01*
X8348444Y-12156960D02*
X8338920Y-12109341D01*
X8338920Y-12109341D02*
X8338920Y-12071246D01*
X8338920Y-12071246D02*
X8348444Y-12023627D01*
X8348444Y-12023627D02*
X8357968Y-11995055D01*
X8357968Y-11995055D02*
X8367491Y-11976008D01*
X8367491Y-11976008D02*
X8386539Y-11947436D01*
X8386539Y-11947436D02*
X8396063Y-11937912D01*
X8453206Y-11966484D02*
X8586539Y-11966484D01*
X8586539Y-11966484D02*
X8500825Y-12166484D01*
X8700825Y-11966484D02*
X8719872Y-11966484D01*
X8719872Y-11966484D02*
X8738920Y-11976008D01*
X8738920Y-11976008D02*
X8748444Y-11985531D01*
X8748444Y-11985531D02*
X8757968Y-12004579D01*
X8757968Y-12004579D02*
X8767491Y-12042674D01*
X8767491Y-12042674D02*
X8767491Y-12090293D01*
X8767491Y-12090293D02*
X8757968Y-12128388D01*
X8757968Y-12128388D02*
X8748444Y-12147436D01*
X8748444Y-12147436D02*
X8738920Y-12156960D01*
X8738920Y-12156960D02*
X8719872Y-12166484D01*
X8719872Y-12166484D02*
X8700825Y-12166484D01*
X8700825Y-12166484D02*
X8681777Y-12156960D01*
X8681777Y-12156960D02*
X8672253Y-12147436D01*
X8672253Y-12147436D02*
X8662730Y-12128388D01*
X8662730Y-12128388D02*
X8653206Y-12090293D01*
X8653206Y-12090293D02*
X8653206Y-12042674D01*
X8653206Y-12042674D02*
X8662730Y-12004579D01*
X8662730Y-12004579D02*
X8672253Y-11985531D01*
X8672253Y-11985531D02*
X8681777Y-11976008D01*
X8681777Y-11976008D02*
X8700825Y-11966484D01*
X9005587Y-12166484D02*
X9005587Y-11966484D01*
X9091301Y-12166484D02*
X9091301Y-12061722D01*
X9091301Y-12061722D02*
X9081777Y-12042674D01*
X9081777Y-12042674D02*
X9062730Y-12033150D01*
X9062730Y-12033150D02*
X9034158Y-12033150D01*
X9034158Y-12033150D02*
X9015111Y-12042674D01*
X9015111Y-12042674D02*
X9005587Y-12052198D01*
X9215111Y-12166484D02*
X9196063Y-12156960D01*
X9196063Y-12156960D02*
X9186539Y-12147436D01*
X9186539Y-12147436D02*
X9177015Y-12128388D01*
X9177015Y-12128388D02*
X9177015Y-12071246D01*
X9177015Y-12071246D02*
X9186539Y-12052198D01*
X9186539Y-12052198D02*
X9196063Y-12042674D01*
X9196063Y-12042674D02*
X9215111Y-12033150D01*
X9215111Y-12033150D02*
X9243682Y-12033150D01*
X9243682Y-12033150D02*
X9262730Y-12042674D01*
X9262730Y-12042674D02*
X9272253Y-12052198D01*
X9272253Y-12052198D02*
X9281777Y-12071246D01*
X9281777Y-12071246D02*
X9281777Y-12128388D01*
X9281777Y-12128388D02*
X9272253Y-12147436D01*
X9272253Y-12147436D02*
X9262730Y-12156960D01*
X9262730Y-12156960D02*
X9243682Y-12166484D01*
X9243682Y-12166484D02*
X9215111Y-12166484D01*
X9396063Y-12166484D02*
X9377015Y-12156960D01*
X9377015Y-12156960D02*
X9367492Y-12137912D01*
X9367492Y-12137912D02*
X9367492Y-11966484D01*
X9548444Y-12156960D02*
X9529396Y-12166484D01*
X9529396Y-12166484D02*
X9491301Y-12166484D01*
X9491301Y-12166484D02*
X9472253Y-12156960D01*
X9472253Y-12156960D02*
X9462730Y-12137912D01*
X9462730Y-12137912D02*
X9462730Y-12061722D01*
X9462730Y-12061722D02*
X9472253Y-12042674D01*
X9472253Y-12042674D02*
X9491301Y-12033150D01*
X9491301Y-12033150D02*
X9529396Y-12033150D01*
X9529396Y-12033150D02*
X9548444Y-12042674D01*
X9548444Y-12042674D02*
X9557968Y-12061722D01*
X9557968Y-12061722D02*
X9557968Y-12080769D01*
X9557968Y-12080769D02*
X9462730Y-12099817D01*
X9634158Y-12156960D02*
X9653206Y-12166484D01*
X9653206Y-12166484D02*
X9691301Y-12166484D01*
X9691301Y-12166484D02*
X9710349Y-12156960D01*
X9710349Y-12156960D02*
X9719873Y-12137912D01*
X9719873Y-12137912D02*
X9719873Y-12128388D01*
X9719873Y-12128388D02*
X9710349Y-12109341D01*
X9710349Y-12109341D02*
X9691301Y-12099817D01*
X9691301Y-12099817D02*
X9662730Y-12099817D01*
X9662730Y-12099817D02*
X9643682Y-12090293D01*
X9643682Y-12090293D02*
X9634158Y-12071246D01*
X9634158Y-12071246D02*
X9634158Y-12061722D01*
X9634158Y-12061722D02*
X9643682Y-12042674D01*
X9643682Y-12042674D02*
X9662730Y-12033150D01*
X9662730Y-12033150D02*
X9691301Y-12033150D01*
X9691301Y-12033150D02*
X9710349Y-12042674D01*
X9786539Y-12242674D02*
X9796063Y-12233150D01*
X9796063Y-12233150D02*
X9815111Y-12204579D01*
X9815111Y-12204579D02*
X9824634Y-12185531D01*
X9824634Y-12185531D02*
X9834158Y-12156960D01*
X9834158Y-12156960D02*
X9843682Y-12109341D01*
X9843682Y-12109341D02*
X9843682Y-12071246D01*
X9843682Y-12071246D02*
X9834158Y-12023627D01*
X9834158Y-12023627D02*
X9824634Y-11995055D01*
X9824634Y-11995055D02*
X9815111Y-11976008D01*
X9815111Y-11976008D02*
X9796063Y-11947436D01*
X9796063Y-11947436D02*
X9786539Y-11937912D01*
D10*
X4821000Y-12339000D02*
G75*
G03*
X4751000Y-12339000I-35000J0D01*
G01*
X4751000Y-12339000D02*
G75*
G03*
X4821000Y-12339000I35000J0D01*
G01*
D11*
X5119872Y-12230484D02*
X5138920Y-12230484D01*
X5138920Y-12230484D02*
X5157967Y-12240008D01*
X5157967Y-12240008D02*
X5167491Y-12249531D01*
X5167491Y-12249531D02*
X5177015Y-12268579D01*
X5177015Y-12268579D02*
X5186539Y-12306674D01*
X5186539Y-12306674D02*
X5186539Y-12354293D01*
X5186539Y-12354293D02*
X5177015Y-12392388D01*
X5177015Y-12392388D02*
X5167491Y-12411436D01*
X5167491Y-12411436D02*
X5157967Y-12420960D01*
X5157967Y-12420960D02*
X5138920Y-12430484D01*
X5138920Y-12430484D02*
X5119872Y-12430484D01*
X5119872Y-12430484D02*
X5100824Y-12420960D01*
X5100824Y-12420960D02*
X5091301Y-12411436D01*
X5091301Y-12411436D02*
X5081777Y-12392388D01*
X5081777Y-12392388D02*
X5072253Y-12354293D01*
X5072253Y-12354293D02*
X5072253Y-12306674D01*
X5072253Y-12306674D02*
X5081777Y-12268579D01*
X5081777Y-12268579D02*
X5091301Y-12249531D01*
X5091301Y-12249531D02*
X5100824Y-12240008D01*
X5100824Y-12240008D02*
X5119872Y-12230484D01*
X5272253Y-12411436D02*
X5281777Y-12420960D01*
X5281777Y-12420960D02*
X5272253Y-12430484D01*
X5272253Y-12430484D02*
X5262729Y-12420960D01*
X5262729Y-12420960D02*
X5272253Y-12411436D01*
X5272253Y-12411436D02*
X5272253Y-12430484D01*
X5348444Y-12230484D02*
X5481777Y-12230484D01*
X5481777Y-12230484D02*
X5396063Y-12430484D01*
X5596062Y-12230484D02*
X5615110Y-12230484D01*
X5615110Y-12230484D02*
X5634158Y-12240008D01*
X5634158Y-12240008D02*
X5643682Y-12249531D01*
X5643682Y-12249531D02*
X5653205Y-12268579D01*
X5653205Y-12268579D02*
X5662729Y-12306674D01*
X5662729Y-12306674D02*
X5662729Y-12354293D01*
X5662729Y-12354293D02*
X5653205Y-12392388D01*
X5653205Y-12392388D02*
X5643682Y-12411436D01*
X5643682Y-12411436D02*
X5634158Y-12420960D01*
X5634158Y-12420960D02*
X5615110Y-12430484D01*
X5615110Y-12430484D02*
X5596062Y-12430484D01*
X5596062Y-12430484D02*
X5577015Y-12420960D01*
X5577015Y-12420960D02*
X5567491Y-12411436D01*
X5567491Y-12411436D02*
X5557967Y-12392388D01*
X5557967Y-12392388D02*
X5548444Y-12354293D01*
X5548444Y-12354293D02*
X5548444Y-12306674D01*
X5548444Y-12306674D02*
X5557967Y-12268579D01*
X5557967Y-12268579D02*
X5567491Y-12249531D01*
X5567491Y-12249531D02*
X5577015Y-12240008D01*
X5577015Y-12240008D02*
X5596062Y-12230484D01*
X5786539Y-12230484D02*
X5805586Y-12230484D01*
X5805586Y-12230484D02*
X5824634Y-12240008D01*
X5824634Y-12240008D02*
X5834158Y-12249531D01*
X5834158Y-12249531D02*
X5843682Y-12268579D01*
X5843682Y-12268579D02*
X5853205Y-12306674D01*
X5853205Y-12306674D02*
X5853205Y-12354293D01*
X5853205Y-12354293D02*
X5843682Y-12392388D01*
X5843682Y-12392388D02*
X5834158Y-12411436D01*
X5834158Y-12411436D02*
X5824634Y-12420960D01*
X5824634Y-12420960D02*
X5805586Y-12430484D01*
X5805586Y-12430484D02*
X5786539Y-12430484D01*
X5786539Y-12430484D02*
X5767491Y-12420960D01*
X5767491Y-12420960D02*
X5757967Y-12411436D01*
X5757967Y-12411436D02*
X5748443Y-12392388D01*
X5748443Y-12392388D02*
X5738920Y-12354293D01*
X5738920Y-12354293D02*
X5738920Y-12306674D01*
X5738920Y-12306674D02*
X5748443Y-12268579D01*
X5748443Y-12268579D02*
X5757967Y-12249531D01*
X5757967Y-12249531D02*
X5767491Y-12240008D01*
X5767491Y-12240008D02*
X5786539Y-12230484D01*
X5938920Y-12430484D02*
X5938920Y-12297150D01*
X5938920Y-12316198D02*
X5948443Y-12306674D01*
X5948443Y-12306674D02*
X5967491Y-12297150D01*
X5967491Y-12297150D02*
X5996063Y-12297150D01*
X5996063Y-12297150D02*
X6015110Y-12306674D01*
X6015110Y-12306674D02*
X6024634Y-12325722D01*
X6024634Y-12325722D02*
X6024634Y-12430484D01*
X6024634Y-12325722D02*
X6034158Y-12306674D01*
X6034158Y-12306674D02*
X6053205Y-12297150D01*
X6053205Y-12297150D02*
X6081777Y-12297150D01*
X6081777Y-12297150D02*
X6100824Y-12306674D01*
X6100824Y-12306674D02*
X6110348Y-12325722D01*
X6110348Y-12325722D02*
X6110348Y-12430484D01*
X6205586Y-12430484D02*
X6205586Y-12297150D01*
X6205586Y-12316198D02*
X6215110Y-12306674D01*
X6215110Y-12306674D02*
X6234158Y-12297150D01*
X6234158Y-12297150D02*
X6262729Y-12297150D01*
X6262729Y-12297150D02*
X6281777Y-12306674D01*
X6281777Y-12306674D02*
X6291301Y-12325722D01*
X6291301Y-12325722D02*
X6291301Y-12430484D01*
X6291301Y-12325722D02*
X6300824Y-12306674D01*
X6300824Y-12306674D02*
X6319872Y-12297150D01*
X6319872Y-12297150D02*
X6348443Y-12297150D01*
X6348443Y-12297150D02*
X6367491Y-12306674D01*
X6367491Y-12306674D02*
X6377015Y-12325722D01*
X6377015Y-12325722D02*
X6377015Y-12430484D01*
X6767491Y-12220960D02*
X6596063Y-12478103D01*
X7024634Y-12230484D02*
X7043682Y-12230484D01*
X7043682Y-12230484D02*
X7062729Y-12240008D01*
X7062729Y-12240008D02*
X7072253Y-12249531D01*
X7072253Y-12249531D02*
X7081777Y-12268579D01*
X7081777Y-12268579D02*
X7091301Y-12306674D01*
X7091301Y-12306674D02*
X7091301Y-12354293D01*
X7091301Y-12354293D02*
X7081777Y-12392388D01*
X7081777Y-12392388D02*
X7072253Y-12411436D01*
X7072253Y-12411436D02*
X7062729Y-12420960D01*
X7062729Y-12420960D02*
X7043682Y-12430484D01*
X7043682Y-12430484D02*
X7024634Y-12430484D01*
X7024634Y-12430484D02*
X7005586Y-12420960D01*
X7005586Y-12420960D02*
X6996063Y-12411436D01*
X6996063Y-12411436D02*
X6986539Y-12392388D01*
X6986539Y-12392388D02*
X6977015Y-12354293D01*
X6977015Y-12354293D02*
X6977015Y-12306674D01*
X6977015Y-12306674D02*
X6986539Y-12268579D01*
X6986539Y-12268579D02*
X6996063Y-12249531D01*
X6996063Y-12249531D02*
X7005586Y-12240008D01*
X7005586Y-12240008D02*
X7024634Y-12230484D01*
X7177015Y-12411436D02*
X7186539Y-12420960D01*
X7186539Y-12420960D02*
X7177015Y-12430484D01*
X7177015Y-12430484D02*
X7167491Y-12420960D01*
X7167491Y-12420960D02*
X7177015Y-12411436D01*
X7177015Y-12411436D02*
X7177015Y-12430484D01*
X7310348Y-12230484D02*
X7329396Y-12230484D01*
X7329396Y-12230484D02*
X7348444Y-12240008D01*
X7348444Y-12240008D02*
X7357967Y-12249531D01*
X7357967Y-12249531D02*
X7367491Y-12268579D01*
X7367491Y-12268579D02*
X7377015Y-12306674D01*
X7377015Y-12306674D02*
X7377015Y-12354293D01*
X7377015Y-12354293D02*
X7367491Y-12392388D01*
X7367491Y-12392388D02*
X7357967Y-12411436D01*
X7357967Y-12411436D02*
X7348444Y-12420960D01*
X7348444Y-12420960D02*
X7329396Y-12430484D01*
X7329396Y-12430484D02*
X7310348Y-12430484D01*
X7310348Y-12430484D02*
X7291301Y-12420960D01*
X7291301Y-12420960D02*
X7281777Y-12411436D01*
X7281777Y-12411436D02*
X7272253Y-12392388D01*
X7272253Y-12392388D02*
X7262729Y-12354293D01*
X7262729Y-12354293D02*
X7262729Y-12306674D01*
X7262729Y-12306674D02*
X7272253Y-12268579D01*
X7272253Y-12268579D02*
X7281777Y-12249531D01*
X7281777Y-12249531D02*
X7291301Y-12240008D01*
X7291301Y-12240008D02*
X7310348Y-12230484D01*
X7453206Y-12249531D02*
X7462729Y-12240008D01*
X7462729Y-12240008D02*
X7481777Y-12230484D01*
X7481777Y-12230484D02*
X7529396Y-12230484D01*
X7529396Y-12230484D02*
X7548444Y-12240008D01*
X7548444Y-12240008D02*
X7557967Y-12249531D01*
X7557967Y-12249531D02*
X7567491Y-12268579D01*
X7567491Y-12268579D02*
X7567491Y-12287627D01*
X7567491Y-12287627D02*
X7557967Y-12316198D01*
X7557967Y-12316198D02*
X7443682Y-12430484D01*
X7443682Y-12430484D02*
X7567491Y-12430484D01*
X7634158Y-12230484D02*
X7767491Y-12230484D01*
X7767491Y-12230484D02*
X7681777Y-12430484D01*
X7929396Y-12230484D02*
X7891301Y-12230484D01*
X7891301Y-12230484D02*
X7872253Y-12240008D01*
X7872253Y-12240008D02*
X7862729Y-12249531D01*
X7862729Y-12249531D02*
X7843682Y-12278103D01*
X7843682Y-12278103D02*
X7834158Y-12316198D01*
X7834158Y-12316198D02*
X7834158Y-12392388D01*
X7834158Y-12392388D02*
X7843682Y-12411436D01*
X7843682Y-12411436D02*
X7853206Y-12420960D01*
X7853206Y-12420960D02*
X7872253Y-12430484D01*
X7872253Y-12430484D02*
X7910348Y-12430484D01*
X7910348Y-12430484D02*
X7929396Y-12420960D01*
X7929396Y-12420960D02*
X7938920Y-12411436D01*
X7938920Y-12411436D02*
X7948444Y-12392388D01*
X7948444Y-12392388D02*
X7948444Y-12344769D01*
X7948444Y-12344769D02*
X7938920Y-12325722D01*
X7938920Y-12325722D02*
X7929396Y-12316198D01*
X7929396Y-12316198D02*
X7910348Y-12306674D01*
X7910348Y-12306674D02*
X7872253Y-12306674D01*
X7872253Y-12306674D02*
X7853206Y-12316198D01*
X7853206Y-12316198D02*
X7843682Y-12325722D01*
X7843682Y-12325722D02*
X7834158Y-12344769D01*
X8024634Y-12230484D02*
X8024634Y-12268579D01*
X8100825Y-12230484D02*
X8100825Y-12268579D01*
X8396063Y-12506674D02*
X8386539Y-12497150D01*
X8386539Y-12497150D02*
X8367491Y-12468579D01*
X8367491Y-12468579D02*
X8357968Y-12449531D01*
X8357968Y-12449531D02*
X8348444Y-12420960D01*
X8348444Y-12420960D02*
X8338920Y-12373341D01*
X8338920Y-12373341D02*
X8338920Y-12335246D01*
X8338920Y-12335246D02*
X8348444Y-12287627D01*
X8348444Y-12287627D02*
X8357968Y-12259055D01*
X8357968Y-12259055D02*
X8367491Y-12240008D01*
X8367491Y-12240008D02*
X8386539Y-12211436D01*
X8386539Y-12211436D02*
X8396063Y-12201912D01*
X8557968Y-12297150D02*
X8557968Y-12430484D01*
X8510349Y-12220960D02*
X8462730Y-12363817D01*
X8462730Y-12363817D02*
X8586539Y-12363817D01*
X8815111Y-12430484D02*
X8815111Y-12230484D01*
X8900825Y-12430484D02*
X8900825Y-12325722D01*
X8900825Y-12325722D02*
X8891301Y-12306674D01*
X8891301Y-12306674D02*
X8872253Y-12297150D01*
X8872253Y-12297150D02*
X8843682Y-12297150D01*
X8843682Y-12297150D02*
X8824634Y-12306674D01*
X8824634Y-12306674D02*
X8815111Y-12316198D01*
X9024634Y-12430484D02*
X9005587Y-12420960D01*
X9005587Y-12420960D02*
X8996063Y-12411436D01*
X8996063Y-12411436D02*
X8986539Y-12392388D01*
X8986539Y-12392388D02*
X8986539Y-12335246D01*
X8986539Y-12335246D02*
X8996063Y-12316198D01*
X8996063Y-12316198D02*
X9005587Y-12306674D01*
X9005587Y-12306674D02*
X9024634Y-12297150D01*
X9024634Y-12297150D02*
X9053206Y-12297150D01*
X9053206Y-12297150D02*
X9072253Y-12306674D01*
X9072253Y-12306674D02*
X9081777Y-12316198D01*
X9081777Y-12316198D02*
X9091301Y-12335246D01*
X9091301Y-12335246D02*
X9091301Y-12392388D01*
X9091301Y-12392388D02*
X9081777Y-12411436D01*
X9081777Y-12411436D02*
X9072253Y-12420960D01*
X9072253Y-12420960D02*
X9053206Y-12430484D01*
X9053206Y-12430484D02*
X9024634Y-12430484D01*
X9205587Y-12430484D02*
X9186539Y-12420960D01*
X9186539Y-12420960D02*
X9177015Y-12401912D01*
X9177015Y-12401912D02*
X9177015Y-12230484D01*
X9357968Y-12420960D02*
X9338920Y-12430484D01*
X9338920Y-12430484D02*
X9300825Y-12430484D01*
X9300825Y-12430484D02*
X9281777Y-12420960D01*
X9281777Y-12420960D02*
X9272253Y-12401912D01*
X9272253Y-12401912D02*
X9272253Y-12325722D01*
X9272253Y-12325722D02*
X9281777Y-12306674D01*
X9281777Y-12306674D02*
X9300825Y-12297150D01*
X9300825Y-12297150D02*
X9338920Y-12297150D01*
X9338920Y-12297150D02*
X9357968Y-12306674D01*
X9357968Y-12306674D02*
X9367492Y-12325722D01*
X9367492Y-12325722D02*
X9367492Y-12344769D01*
X9367492Y-12344769D02*
X9272253Y-12363817D01*
X9443682Y-12420960D02*
X9462730Y-12430484D01*
X9462730Y-12430484D02*
X9500825Y-12430484D01*
X9500825Y-12430484D02*
X9519873Y-12420960D01*
X9519873Y-12420960D02*
X9529396Y-12401912D01*
X9529396Y-12401912D02*
X9529396Y-12392388D01*
X9529396Y-12392388D02*
X9519873Y-12373341D01*
X9519873Y-12373341D02*
X9500825Y-12363817D01*
X9500825Y-12363817D02*
X9472253Y-12363817D01*
X9472253Y-12363817D02*
X9453206Y-12354293D01*
X9453206Y-12354293D02*
X9443682Y-12335246D01*
X9443682Y-12335246D02*
X9443682Y-12325722D01*
X9443682Y-12325722D02*
X9453206Y-12306674D01*
X9453206Y-12306674D02*
X9472253Y-12297150D01*
X9472253Y-12297150D02*
X9500825Y-12297150D01*
X9500825Y-12297150D02*
X9519873Y-12306674D01*
X9596063Y-12506674D02*
X9605587Y-12497150D01*
X9605587Y-12497150D02*
X9624634Y-12468579D01*
X9624634Y-12468579D02*
X9634158Y-12449531D01*
X9634158Y-12449531D02*
X9643682Y-12420960D01*
X9643682Y-12420960D02*
X9653206Y-12373341D01*
X9653206Y-12373341D02*
X9653206Y-12335246D01*
X9653206Y-12335246D02*
X9643682Y-12287627D01*
X9643682Y-12287627D02*
X9634158Y-12259055D01*
X9634158Y-12259055D02*
X9624634Y-12240008D01*
X9624634Y-12240008D02*
X9605587Y-12211436D01*
X9605587Y-12211436D02*
X9596063Y-12201912D01*
D10*
X4781000Y-12563000D02*
X4781000Y-12643000D01*
X4741000Y-12603000D02*
X4821000Y-12603000D01*
D11*
X5119872Y-12494484D02*
X5138920Y-12494484D01*
X5138920Y-12494484D02*
X5157967Y-12504008D01*
X5157967Y-12504008D02*
X5167491Y-12513531D01*
X5167491Y-12513531D02*
X5177015Y-12532579D01*
X5177015Y-12532579D02*
X5186539Y-12570674D01*
X5186539Y-12570674D02*
X5186539Y-12618293D01*
X5186539Y-12618293D02*
X5177015Y-12656388D01*
X5177015Y-12656388D02*
X5167491Y-12675436D01*
X5167491Y-12675436D02*
X5157967Y-12684960D01*
X5157967Y-12684960D02*
X5138920Y-12694484D01*
X5138920Y-12694484D02*
X5119872Y-12694484D01*
X5119872Y-12694484D02*
X5100824Y-12684960D01*
X5100824Y-12684960D02*
X5091301Y-12675436D01*
X5091301Y-12675436D02*
X5081777Y-12656388D01*
X5081777Y-12656388D02*
X5072253Y-12618293D01*
X5072253Y-12618293D02*
X5072253Y-12570674D01*
X5072253Y-12570674D02*
X5081777Y-12532579D01*
X5081777Y-12532579D02*
X5091301Y-12513531D01*
X5091301Y-12513531D02*
X5100824Y-12504008D01*
X5100824Y-12504008D02*
X5119872Y-12494484D01*
X5272253Y-12675436D02*
X5281777Y-12684960D01*
X5281777Y-12684960D02*
X5272253Y-12694484D01*
X5272253Y-12694484D02*
X5262729Y-12684960D01*
X5262729Y-12684960D02*
X5272253Y-12675436D01*
X5272253Y-12675436D02*
X5272253Y-12694484D01*
X5396063Y-12580198D02*
X5377015Y-12570674D01*
X5377015Y-12570674D02*
X5367491Y-12561150D01*
X5367491Y-12561150D02*
X5357967Y-12542103D01*
X5357967Y-12542103D02*
X5357967Y-12532579D01*
X5357967Y-12532579D02*
X5367491Y-12513531D01*
X5367491Y-12513531D02*
X5377015Y-12504008D01*
X5377015Y-12504008D02*
X5396063Y-12494484D01*
X5396063Y-12494484D02*
X5434158Y-12494484D01*
X5434158Y-12494484D02*
X5453205Y-12504008D01*
X5453205Y-12504008D02*
X5462729Y-12513531D01*
X5462729Y-12513531D02*
X5472253Y-12532579D01*
X5472253Y-12532579D02*
X5472253Y-12542103D01*
X5472253Y-12542103D02*
X5462729Y-12561150D01*
X5462729Y-12561150D02*
X5453205Y-12570674D01*
X5453205Y-12570674D02*
X5434158Y-12580198D01*
X5434158Y-12580198D02*
X5396063Y-12580198D01*
X5396063Y-12580198D02*
X5377015Y-12589722D01*
X5377015Y-12589722D02*
X5367491Y-12599246D01*
X5367491Y-12599246D02*
X5357967Y-12618293D01*
X5357967Y-12618293D02*
X5357967Y-12656388D01*
X5357967Y-12656388D02*
X5367491Y-12675436D01*
X5367491Y-12675436D02*
X5377015Y-12684960D01*
X5377015Y-12684960D02*
X5396063Y-12694484D01*
X5396063Y-12694484D02*
X5434158Y-12694484D01*
X5434158Y-12694484D02*
X5453205Y-12684960D01*
X5453205Y-12684960D02*
X5462729Y-12675436D01*
X5462729Y-12675436D02*
X5472253Y-12656388D01*
X5472253Y-12656388D02*
X5472253Y-12618293D01*
X5472253Y-12618293D02*
X5462729Y-12599246D01*
X5462729Y-12599246D02*
X5453205Y-12589722D01*
X5453205Y-12589722D02*
X5434158Y-12580198D01*
X5596062Y-12494484D02*
X5615110Y-12494484D01*
X5615110Y-12494484D02*
X5634158Y-12504008D01*
X5634158Y-12504008D02*
X5643682Y-12513531D01*
X5643682Y-12513531D02*
X5653205Y-12532579D01*
X5653205Y-12532579D02*
X5662729Y-12570674D01*
X5662729Y-12570674D02*
X5662729Y-12618293D01*
X5662729Y-12618293D02*
X5653205Y-12656388D01*
X5653205Y-12656388D02*
X5643682Y-12675436D01*
X5643682Y-12675436D02*
X5634158Y-12684960D01*
X5634158Y-12684960D02*
X5615110Y-12694484D01*
X5615110Y-12694484D02*
X5596062Y-12694484D01*
X5596062Y-12694484D02*
X5577015Y-12684960D01*
X5577015Y-12684960D02*
X5567491Y-12675436D01*
X5567491Y-12675436D02*
X5557967Y-12656388D01*
X5557967Y-12656388D02*
X5548444Y-12618293D01*
X5548444Y-12618293D02*
X5548444Y-12570674D01*
X5548444Y-12570674D02*
X5557967Y-12532579D01*
X5557967Y-12532579D02*
X5567491Y-12513531D01*
X5567491Y-12513531D02*
X5577015Y-12504008D01*
X5577015Y-12504008D02*
X5596062Y-12494484D01*
X5786539Y-12494484D02*
X5805586Y-12494484D01*
X5805586Y-12494484D02*
X5824634Y-12504008D01*
X5824634Y-12504008D02*
X5834158Y-12513531D01*
X5834158Y-12513531D02*
X5843682Y-12532579D01*
X5843682Y-12532579D02*
X5853205Y-12570674D01*
X5853205Y-12570674D02*
X5853205Y-12618293D01*
X5853205Y-12618293D02*
X5843682Y-12656388D01*
X5843682Y-12656388D02*
X5834158Y-12675436D01*
X5834158Y-12675436D02*
X5824634Y-12684960D01*
X5824634Y-12684960D02*
X5805586Y-12694484D01*
X5805586Y-12694484D02*
X5786539Y-12694484D01*
X5786539Y-12694484D02*
X5767491Y-12684960D01*
X5767491Y-12684960D02*
X5757967Y-12675436D01*
X5757967Y-12675436D02*
X5748443Y-12656388D01*
X5748443Y-12656388D02*
X5738920Y-12618293D01*
X5738920Y-12618293D02*
X5738920Y-12570674D01*
X5738920Y-12570674D02*
X5748443Y-12532579D01*
X5748443Y-12532579D02*
X5757967Y-12513531D01*
X5757967Y-12513531D02*
X5767491Y-12504008D01*
X5767491Y-12504008D02*
X5786539Y-12494484D01*
X5938920Y-12694484D02*
X5938920Y-12561150D01*
X5938920Y-12580198D02*
X5948443Y-12570674D01*
X5948443Y-12570674D02*
X5967491Y-12561150D01*
X5967491Y-12561150D02*
X5996063Y-12561150D01*
X5996063Y-12561150D02*
X6015110Y-12570674D01*
X6015110Y-12570674D02*
X6024634Y-12589722D01*
X6024634Y-12589722D02*
X6024634Y-12694484D01*
X6024634Y-12589722D02*
X6034158Y-12570674D01*
X6034158Y-12570674D02*
X6053205Y-12561150D01*
X6053205Y-12561150D02*
X6081777Y-12561150D01*
X6081777Y-12561150D02*
X6100824Y-12570674D01*
X6100824Y-12570674D02*
X6110348Y-12589722D01*
X6110348Y-12589722D02*
X6110348Y-12694484D01*
X6205586Y-12694484D02*
X6205586Y-12561150D01*
X6205586Y-12580198D02*
X6215110Y-12570674D01*
X6215110Y-12570674D02*
X6234158Y-12561150D01*
X6234158Y-12561150D02*
X6262729Y-12561150D01*
X6262729Y-12561150D02*
X6281777Y-12570674D01*
X6281777Y-12570674D02*
X6291301Y-12589722D01*
X6291301Y-12589722D02*
X6291301Y-12694484D01*
X6291301Y-12589722D02*
X6300824Y-12570674D01*
X6300824Y-12570674D02*
X6319872Y-12561150D01*
X6319872Y-12561150D02*
X6348443Y-12561150D01*
X6348443Y-12561150D02*
X6367491Y-12570674D01*
X6367491Y-12570674D02*
X6377015Y-12589722D01*
X6377015Y-12589722D02*
X6377015Y-12694484D01*
X6767491Y-12484960D02*
X6596063Y-12742103D01*
X7024634Y-12494484D02*
X7043682Y-12494484D01*
X7043682Y-12494484D02*
X7062729Y-12504008D01*
X7062729Y-12504008D02*
X7072253Y-12513531D01*
X7072253Y-12513531D02*
X7081777Y-12532579D01*
X7081777Y-12532579D02*
X7091301Y-12570674D01*
X7091301Y-12570674D02*
X7091301Y-12618293D01*
X7091301Y-12618293D02*
X7081777Y-12656388D01*
X7081777Y-12656388D02*
X7072253Y-12675436D01*
X7072253Y-12675436D02*
X7062729Y-12684960D01*
X7062729Y-12684960D02*
X7043682Y-12694484D01*
X7043682Y-12694484D02*
X7024634Y-12694484D01*
X7024634Y-12694484D02*
X7005586Y-12684960D01*
X7005586Y-12684960D02*
X6996063Y-12675436D01*
X6996063Y-12675436D02*
X6986539Y-12656388D01*
X6986539Y-12656388D02*
X6977015Y-12618293D01*
X6977015Y-12618293D02*
X6977015Y-12570674D01*
X6977015Y-12570674D02*
X6986539Y-12532579D01*
X6986539Y-12532579D02*
X6996063Y-12513531D01*
X6996063Y-12513531D02*
X7005586Y-12504008D01*
X7005586Y-12504008D02*
X7024634Y-12494484D01*
X7177015Y-12675436D02*
X7186539Y-12684960D01*
X7186539Y-12684960D02*
X7177015Y-12694484D01*
X7177015Y-12694484D02*
X7167491Y-12684960D01*
X7167491Y-12684960D02*
X7177015Y-12675436D01*
X7177015Y-12675436D02*
X7177015Y-12694484D01*
X7310348Y-12494484D02*
X7329396Y-12494484D01*
X7329396Y-12494484D02*
X7348444Y-12504008D01*
X7348444Y-12504008D02*
X7357967Y-12513531D01*
X7357967Y-12513531D02*
X7367491Y-12532579D01*
X7367491Y-12532579D02*
X7377015Y-12570674D01*
X7377015Y-12570674D02*
X7377015Y-12618293D01*
X7377015Y-12618293D02*
X7367491Y-12656388D01*
X7367491Y-12656388D02*
X7357967Y-12675436D01*
X7357967Y-12675436D02*
X7348444Y-12684960D01*
X7348444Y-12684960D02*
X7329396Y-12694484D01*
X7329396Y-12694484D02*
X7310348Y-12694484D01*
X7310348Y-12694484D02*
X7291301Y-12684960D01*
X7291301Y-12684960D02*
X7281777Y-12675436D01*
X7281777Y-12675436D02*
X7272253Y-12656388D01*
X7272253Y-12656388D02*
X7262729Y-12618293D01*
X7262729Y-12618293D02*
X7262729Y-12570674D01*
X7262729Y-12570674D02*
X7272253Y-12532579D01*
X7272253Y-12532579D02*
X7281777Y-12513531D01*
X7281777Y-12513531D02*
X7291301Y-12504008D01*
X7291301Y-12504008D02*
X7310348Y-12494484D01*
X7443682Y-12494484D02*
X7567491Y-12494484D01*
X7567491Y-12494484D02*
X7500825Y-12570674D01*
X7500825Y-12570674D02*
X7529396Y-12570674D01*
X7529396Y-12570674D02*
X7548444Y-12580198D01*
X7548444Y-12580198D02*
X7557967Y-12589722D01*
X7557967Y-12589722D02*
X7567491Y-12608769D01*
X7567491Y-12608769D02*
X7567491Y-12656388D01*
X7567491Y-12656388D02*
X7557967Y-12675436D01*
X7557967Y-12675436D02*
X7548444Y-12684960D01*
X7548444Y-12684960D02*
X7529396Y-12694484D01*
X7529396Y-12694484D02*
X7472253Y-12694484D01*
X7472253Y-12694484D02*
X7453206Y-12684960D01*
X7453206Y-12684960D02*
X7443682Y-12675436D01*
X7757967Y-12694484D02*
X7643682Y-12694484D01*
X7700825Y-12694484D02*
X7700825Y-12494484D01*
X7700825Y-12494484D02*
X7681777Y-12523055D01*
X7681777Y-12523055D02*
X7662729Y-12542103D01*
X7662729Y-12542103D02*
X7643682Y-12551627D01*
X7938920Y-12494484D02*
X7843682Y-12494484D01*
X7843682Y-12494484D02*
X7834158Y-12589722D01*
X7834158Y-12589722D02*
X7843682Y-12580198D01*
X7843682Y-12580198D02*
X7862729Y-12570674D01*
X7862729Y-12570674D02*
X7910348Y-12570674D01*
X7910348Y-12570674D02*
X7929396Y-12580198D01*
X7929396Y-12580198D02*
X7938920Y-12589722D01*
X7938920Y-12589722D02*
X7948444Y-12608769D01*
X7948444Y-12608769D02*
X7948444Y-12656388D01*
X7948444Y-12656388D02*
X7938920Y-12675436D01*
X7938920Y-12675436D02*
X7929396Y-12684960D01*
X7929396Y-12684960D02*
X7910348Y-12694484D01*
X7910348Y-12694484D02*
X7862729Y-12694484D01*
X7862729Y-12694484D02*
X7843682Y-12684960D01*
X7843682Y-12684960D02*
X7834158Y-12675436D01*
X8024634Y-12494484D02*
X8024634Y-12532579D01*
X8100825Y-12494484D02*
X8100825Y-12532579D01*
X8396063Y-12770674D02*
X8386539Y-12761150D01*
X8386539Y-12761150D02*
X8367491Y-12732579D01*
X8367491Y-12732579D02*
X8357968Y-12713531D01*
X8357968Y-12713531D02*
X8348444Y-12684960D01*
X8348444Y-12684960D02*
X8338920Y-12637341D01*
X8338920Y-12637341D02*
X8338920Y-12599246D01*
X8338920Y-12599246D02*
X8348444Y-12551627D01*
X8348444Y-12551627D02*
X8357968Y-12523055D01*
X8357968Y-12523055D02*
X8367491Y-12504008D01*
X8367491Y-12504008D02*
X8386539Y-12475436D01*
X8386539Y-12475436D02*
X8396063Y-12465912D01*
X8557968Y-12494484D02*
X8519872Y-12494484D01*
X8519872Y-12494484D02*
X8500825Y-12504008D01*
X8500825Y-12504008D02*
X8491301Y-12513531D01*
X8491301Y-12513531D02*
X8472253Y-12542103D01*
X8472253Y-12542103D02*
X8462730Y-12580198D01*
X8462730Y-12580198D02*
X8462730Y-12656388D01*
X8462730Y-12656388D02*
X8472253Y-12675436D01*
X8472253Y-12675436D02*
X8481777Y-12684960D01*
X8481777Y-12684960D02*
X8500825Y-12694484D01*
X8500825Y-12694484D02*
X8538920Y-12694484D01*
X8538920Y-12694484D02*
X8557968Y-12684960D01*
X8557968Y-12684960D02*
X8567491Y-12675436D01*
X8567491Y-12675436D02*
X8577015Y-12656388D01*
X8577015Y-12656388D02*
X8577015Y-12608769D01*
X8577015Y-12608769D02*
X8567491Y-12589722D01*
X8567491Y-12589722D02*
X8557968Y-12580198D01*
X8557968Y-12580198D02*
X8538920Y-12570674D01*
X8538920Y-12570674D02*
X8500825Y-12570674D01*
X8500825Y-12570674D02*
X8481777Y-12580198D01*
X8481777Y-12580198D02*
X8472253Y-12589722D01*
X8472253Y-12589722D02*
X8462730Y-12608769D01*
X8815111Y-12694484D02*
X8815111Y-12494484D01*
X8900825Y-12694484D02*
X8900825Y-12589722D01*
X8900825Y-12589722D02*
X8891301Y-12570674D01*
X8891301Y-12570674D02*
X8872253Y-12561150D01*
X8872253Y-12561150D02*
X8843682Y-12561150D01*
X8843682Y-12561150D02*
X8824634Y-12570674D01*
X8824634Y-12570674D02*
X8815111Y-12580198D01*
X9024634Y-12694484D02*
X9005587Y-12684960D01*
X9005587Y-12684960D02*
X8996063Y-12675436D01*
X8996063Y-12675436D02*
X8986539Y-12656388D01*
X8986539Y-12656388D02*
X8986539Y-12599246D01*
X8986539Y-12599246D02*
X8996063Y-12580198D01*
X8996063Y-12580198D02*
X9005587Y-12570674D01*
X9005587Y-12570674D02*
X9024634Y-12561150D01*
X9024634Y-12561150D02*
X9053206Y-12561150D01*
X9053206Y-12561150D02*
X9072253Y-12570674D01*
X9072253Y-12570674D02*
X9081777Y-12580198D01*
X9081777Y-12580198D02*
X9091301Y-12599246D01*
X9091301Y-12599246D02*
X9091301Y-12656388D01*
X9091301Y-12656388D02*
X9081777Y-12675436D01*
X9081777Y-12675436D02*
X9072253Y-12684960D01*
X9072253Y-12684960D02*
X9053206Y-12694484D01*
X9053206Y-12694484D02*
X9024634Y-12694484D01*
X9205587Y-12694484D02*
X9186539Y-12684960D01*
X9186539Y-12684960D02*
X9177015Y-12665912D01*
X9177015Y-12665912D02*
X9177015Y-12494484D01*
X9357968Y-12684960D02*
X9338920Y-12694484D01*
X9338920Y-12694484D02*
X9300825Y-12694484D01*
X9300825Y-12694484D02*
X9281777Y-12684960D01*
X9281777Y-12684960D02*
X9272253Y-12665912D01*
X9272253Y-12665912D02*
X9272253Y-12589722D01*
X9272253Y-12589722D02*
X9281777Y-12570674D01*
X9281777Y-12570674D02*
X9300825Y-12561150D01*
X9300825Y-12561150D02*
X9338920Y-12561150D01*
X9338920Y-12561150D02*
X9357968Y-12570674D01*
X9357968Y-12570674D02*
X9367492Y-12589722D01*
X9367492Y-12589722D02*
X9367492Y-12608769D01*
X9367492Y-12608769D02*
X9272253Y-12627817D01*
X9443682Y-12684960D02*
X9462730Y-12694484D01*
X9462730Y-12694484D02*
X9500825Y-12694484D01*
X9500825Y-12694484D02*
X9519873Y-12684960D01*
X9519873Y-12684960D02*
X9529396Y-12665912D01*
X9529396Y-12665912D02*
X9529396Y-12656388D01*
X9529396Y-12656388D02*
X9519873Y-12637341D01*
X9519873Y-12637341D02*
X9500825Y-12627817D01*
X9500825Y-12627817D02*
X9472253Y-12627817D01*
X9472253Y-12627817D02*
X9453206Y-12618293D01*
X9453206Y-12618293D02*
X9443682Y-12599246D01*
X9443682Y-12599246D02*
X9443682Y-12589722D01*
X9443682Y-12589722D02*
X9453206Y-12570674D01*
X9453206Y-12570674D02*
X9472253Y-12561150D01*
X9472253Y-12561150D02*
X9500825Y-12561150D01*
X9500825Y-12561150D02*
X9519873Y-12570674D01*
X9596063Y-12770674D02*
X9605587Y-12761150D01*
X9605587Y-12761150D02*
X9624634Y-12732579D01*
X9624634Y-12732579D02*
X9634158Y-12713531D01*
X9634158Y-12713531D02*
X9643682Y-12684960D01*
X9643682Y-12684960D02*
X9653206Y-12637341D01*
X9653206Y-12637341D02*
X9653206Y-12599246D01*
X9653206Y-12599246D02*
X9643682Y-12551627D01*
X9643682Y-12551627D02*
X9634158Y-12523055D01*
X9634158Y-12523055D02*
X9624634Y-12504008D01*
X9624634Y-12504008D02*
X9605587Y-12475436D01*
X9605587Y-12475436D02*
X9596063Y-12465912D01*
D10*
X4807967Y-12898467D02*
X4807967Y-12835533D01*
X4745033Y-12835533D01*
X4745033Y-12898467D01*
X4807967Y-12898467D01*
D11*
X5119872Y-12758484D02*
X5138920Y-12758484D01*
X5138920Y-12758484D02*
X5157967Y-12768008D01*
X5157967Y-12768008D02*
X5167491Y-12777531D01*
X5167491Y-12777531D02*
X5177015Y-12796579D01*
X5177015Y-12796579D02*
X5186539Y-12834674D01*
X5186539Y-12834674D02*
X5186539Y-12882293D01*
X5186539Y-12882293D02*
X5177015Y-12920388D01*
X5177015Y-12920388D02*
X5167491Y-12939436D01*
X5167491Y-12939436D02*
X5157967Y-12948960D01*
X5157967Y-12948960D02*
X5138920Y-12958484D01*
X5138920Y-12958484D02*
X5119872Y-12958484D01*
X5119872Y-12958484D02*
X5100824Y-12948960D01*
X5100824Y-12948960D02*
X5091301Y-12939436D01*
X5091301Y-12939436D02*
X5081777Y-12920388D01*
X5081777Y-12920388D02*
X5072253Y-12882293D01*
X5072253Y-12882293D02*
X5072253Y-12834674D01*
X5072253Y-12834674D02*
X5081777Y-12796579D01*
X5081777Y-12796579D02*
X5091301Y-12777531D01*
X5091301Y-12777531D02*
X5100824Y-12768008D01*
X5100824Y-12768008D02*
X5119872Y-12758484D01*
X5272253Y-12939436D02*
X5281777Y-12948960D01*
X5281777Y-12948960D02*
X5272253Y-12958484D01*
X5272253Y-12958484D02*
X5262729Y-12948960D01*
X5262729Y-12948960D02*
X5272253Y-12939436D01*
X5272253Y-12939436D02*
X5272253Y-12958484D01*
X5396063Y-12844198D02*
X5377015Y-12834674D01*
X5377015Y-12834674D02*
X5367491Y-12825150D01*
X5367491Y-12825150D02*
X5357967Y-12806103D01*
X5357967Y-12806103D02*
X5357967Y-12796579D01*
X5357967Y-12796579D02*
X5367491Y-12777531D01*
X5367491Y-12777531D02*
X5377015Y-12768008D01*
X5377015Y-12768008D02*
X5396063Y-12758484D01*
X5396063Y-12758484D02*
X5434158Y-12758484D01*
X5434158Y-12758484D02*
X5453205Y-12768008D01*
X5453205Y-12768008D02*
X5462729Y-12777531D01*
X5462729Y-12777531D02*
X5472253Y-12796579D01*
X5472253Y-12796579D02*
X5472253Y-12806103D01*
X5472253Y-12806103D02*
X5462729Y-12825150D01*
X5462729Y-12825150D02*
X5453205Y-12834674D01*
X5453205Y-12834674D02*
X5434158Y-12844198D01*
X5434158Y-12844198D02*
X5396063Y-12844198D01*
X5396063Y-12844198D02*
X5377015Y-12853722D01*
X5377015Y-12853722D02*
X5367491Y-12863246D01*
X5367491Y-12863246D02*
X5357967Y-12882293D01*
X5357967Y-12882293D02*
X5357967Y-12920388D01*
X5357967Y-12920388D02*
X5367491Y-12939436D01*
X5367491Y-12939436D02*
X5377015Y-12948960D01*
X5377015Y-12948960D02*
X5396063Y-12958484D01*
X5396063Y-12958484D02*
X5434158Y-12958484D01*
X5434158Y-12958484D02*
X5453205Y-12948960D01*
X5453205Y-12948960D02*
X5462729Y-12939436D01*
X5462729Y-12939436D02*
X5472253Y-12920388D01*
X5472253Y-12920388D02*
X5472253Y-12882293D01*
X5472253Y-12882293D02*
X5462729Y-12863246D01*
X5462729Y-12863246D02*
X5453205Y-12853722D01*
X5453205Y-12853722D02*
X5434158Y-12844198D01*
X5567491Y-12958484D02*
X5605586Y-12958484D01*
X5605586Y-12958484D02*
X5624634Y-12948960D01*
X5624634Y-12948960D02*
X5634158Y-12939436D01*
X5634158Y-12939436D02*
X5653205Y-12910865D01*
X5653205Y-12910865D02*
X5662729Y-12872769D01*
X5662729Y-12872769D02*
X5662729Y-12796579D01*
X5662729Y-12796579D02*
X5653205Y-12777531D01*
X5653205Y-12777531D02*
X5643682Y-12768008D01*
X5643682Y-12768008D02*
X5624634Y-12758484D01*
X5624634Y-12758484D02*
X5586539Y-12758484D01*
X5586539Y-12758484D02*
X5567491Y-12768008D01*
X5567491Y-12768008D02*
X5557967Y-12777531D01*
X5557967Y-12777531D02*
X5548444Y-12796579D01*
X5548444Y-12796579D02*
X5548444Y-12844198D01*
X5548444Y-12844198D02*
X5557967Y-12863246D01*
X5557967Y-12863246D02*
X5567491Y-12872769D01*
X5567491Y-12872769D02*
X5586539Y-12882293D01*
X5586539Y-12882293D02*
X5624634Y-12882293D01*
X5624634Y-12882293D02*
X5643682Y-12872769D01*
X5643682Y-12872769D02*
X5653205Y-12863246D01*
X5653205Y-12863246D02*
X5662729Y-12844198D01*
X5786539Y-12758484D02*
X5805586Y-12758484D01*
X5805586Y-12758484D02*
X5824634Y-12768008D01*
X5824634Y-12768008D02*
X5834158Y-12777531D01*
X5834158Y-12777531D02*
X5843682Y-12796579D01*
X5843682Y-12796579D02*
X5853205Y-12834674D01*
X5853205Y-12834674D02*
X5853205Y-12882293D01*
X5853205Y-12882293D02*
X5843682Y-12920388D01*
X5843682Y-12920388D02*
X5834158Y-12939436D01*
X5834158Y-12939436D02*
X5824634Y-12948960D01*
X5824634Y-12948960D02*
X5805586Y-12958484D01*
X5805586Y-12958484D02*
X5786539Y-12958484D01*
X5786539Y-12958484D02*
X5767491Y-12948960D01*
X5767491Y-12948960D02*
X5757967Y-12939436D01*
X5757967Y-12939436D02*
X5748443Y-12920388D01*
X5748443Y-12920388D02*
X5738920Y-12882293D01*
X5738920Y-12882293D02*
X5738920Y-12834674D01*
X5738920Y-12834674D02*
X5748443Y-12796579D01*
X5748443Y-12796579D02*
X5757967Y-12777531D01*
X5757967Y-12777531D02*
X5767491Y-12768008D01*
X5767491Y-12768008D02*
X5786539Y-12758484D01*
X5938920Y-12958484D02*
X5938920Y-12825150D01*
X5938920Y-12844198D02*
X5948443Y-12834674D01*
X5948443Y-12834674D02*
X5967491Y-12825150D01*
X5967491Y-12825150D02*
X5996063Y-12825150D01*
X5996063Y-12825150D02*
X6015110Y-12834674D01*
X6015110Y-12834674D02*
X6024634Y-12853722D01*
X6024634Y-12853722D02*
X6024634Y-12958484D01*
X6024634Y-12853722D02*
X6034158Y-12834674D01*
X6034158Y-12834674D02*
X6053205Y-12825150D01*
X6053205Y-12825150D02*
X6081777Y-12825150D01*
X6081777Y-12825150D02*
X6100824Y-12834674D01*
X6100824Y-12834674D02*
X6110348Y-12853722D01*
X6110348Y-12853722D02*
X6110348Y-12958484D01*
X6205586Y-12958484D02*
X6205586Y-12825150D01*
X6205586Y-12844198D02*
X6215110Y-12834674D01*
X6215110Y-12834674D02*
X6234158Y-12825150D01*
X6234158Y-12825150D02*
X6262729Y-12825150D01*
X6262729Y-12825150D02*
X6281777Y-12834674D01*
X6281777Y-12834674D02*
X6291301Y-12853722D01*
X6291301Y-12853722D02*
X6291301Y-12958484D01*
X6291301Y-12853722D02*
X6300824Y-12834674D01*
X6300824Y-12834674D02*
X6319872Y-12825150D01*
X6319872Y-12825150D02*
X6348443Y-12825150D01*
X6348443Y-12825150D02*
X6367491Y-12834674D01*
X6367491Y-12834674D02*
X6377015Y-12853722D01*
X6377015Y-12853722D02*
X6377015Y-12958484D01*
X6767491Y-12748960D02*
X6596063Y-13006103D01*
X7024634Y-12758484D02*
X7043682Y-12758484D01*
X7043682Y-12758484D02*
X7062729Y-12768008D01*
X7062729Y-12768008D02*
X7072253Y-12777531D01*
X7072253Y-12777531D02*
X7081777Y-12796579D01*
X7081777Y-12796579D02*
X7091301Y-12834674D01*
X7091301Y-12834674D02*
X7091301Y-12882293D01*
X7091301Y-12882293D02*
X7081777Y-12920388D01*
X7081777Y-12920388D02*
X7072253Y-12939436D01*
X7072253Y-12939436D02*
X7062729Y-12948960D01*
X7062729Y-12948960D02*
X7043682Y-12958484D01*
X7043682Y-12958484D02*
X7024634Y-12958484D01*
X7024634Y-12958484D02*
X7005586Y-12948960D01*
X7005586Y-12948960D02*
X6996063Y-12939436D01*
X6996063Y-12939436D02*
X6986539Y-12920388D01*
X6986539Y-12920388D02*
X6977015Y-12882293D01*
X6977015Y-12882293D02*
X6977015Y-12834674D01*
X6977015Y-12834674D02*
X6986539Y-12796579D01*
X6986539Y-12796579D02*
X6996063Y-12777531D01*
X6996063Y-12777531D02*
X7005586Y-12768008D01*
X7005586Y-12768008D02*
X7024634Y-12758484D01*
X7177015Y-12939436D02*
X7186539Y-12948960D01*
X7186539Y-12948960D02*
X7177015Y-12958484D01*
X7177015Y-12958484D02*
X7167491Y-12948960D01*
X7167491Y-12948960D02*
X7177015Y-12939436D01*
X7177015Y-12939436D02*
X7177015Y-12958484D01*
X7310348Y-12758484D02*
X7329396Y-12758484D01*
X7329396Y-12758484D02*
X7348444Y-12768008D01*
X7348444Y-12768008D02*
X7357967Y-12777531D01*
X7357967Y-12777531D02*
X7367491Y-12796579D01*
X7367491Y-12796579D02*
X7377015Y-12834674D01*
X7377015Y-12834674D02*
X7377015Y-12882293D01*
X7377015Y-12882293D02*
X7367491Y-12920388D01*
X7367491Y-12920388D02*
X7357967Y-12939436D01*
X7357967Y-12939436D02*
X7348444Y-12948960D01*
X7348444Y-12948960D02*
X7329396Y-12958484D01*
X7329396Y-12958484D02*
X7310348Y-12958484D01*
X7310348Y-12958484D02*
X7291301Y-12948960D01*
X7291301Y-12948960D02*
X7281777Y-12939436D01*
X7281777Y-12939436D02*
X7272253Y-12920388D01*
X7272253Y-12920388D02*
X7262729Y-12882293D01*
X7262729Y-12882293D02*
X7262729Y-12834674D01*
X7262729Y-12834674D02*
X7272253Y-12796579D01*
X7272253Y-12796579D02*
X7281777Y-12777531D01*
X7281777Y-12777531D02*
X7291301Y-12768008D01*
X7291301Y-12768008D02*
X7310348Y-12758484D01*
X7443682Y-12758484D02*
X7567491Y-12758484D01*
X7567491Y-12758484D02*
X7500825Y-12834674D01*
X7500825Y-12834674D02*
X7529396Y-12834674D01*
X7529396Y-12834674D02*
X7548444Y-12844198D01*
X7548444Y-12844198D02*
X7557967Y-12853722D01*
X7557967Y-12853722D02*
X7567491Y-12872769D01*
X7567491Y-12872769D02*
X7567491Y-12920388D01*
X7567491Y-12920388D02*
X7557967Y-12939436D01*
X7557967Y-12939436D02*
X7548444Y-12948960D01*
X7548444Y-12948960D02*
X7529396Y-12958484D01*
X7529396Y-12958484D02*
X7472253Y-12958484D01*
X7472253Y-12958484D02*
X7453206Y-12948960D01*
X7453206Y-12948960D02*
X7443682Y-12939436D01*
X7748444Y-12758484D02*
X7653206Y-12758484D01*
X7653206Y-12758484D02*
X7643682Y-12853722D01*
X7643682Y-12853722D02*
X7653206Y-12844198D01*
X7653206Y-12844198D02*
X7672253Y-12834674D01*
X7672253Y-12834674D02*
X7719872Y-12834674D01*
X7719872Y-12834674D02*
X7738920Y-12844198D01*
X7738920Y-12844198D02*
X7748444Y-12853722D01*
X7748444Y-12853722D02*
X7757967Y-12872769D01*
X7757967Y-12872769D02*
X7757967Y-12920388D01*
X7757967Y-12920388D02*
X7748444Y-12939436D01*
X7748444Y-12939436D02*
X7738920Y-12948960D01*
X7738920Y-12948960D02*
X7719872Y-12958484D01*
X7719872Y-12958484D02*
X7672253Y-12958484D01*
X7672253Y-12958484D02*
X7653206Y-12948960D01*
X7653206Y-12948960D02*
X7643682Y-12939436D01*
X7881777Y-12758484D02*
X7900825Y-12758484D01*
X7900825Y-12758484D02*
X7919872Y-12768008D01*
X7919872Y-12768008D02*
X7929396Y-12777531D01*
X7929396Y-12777531D02*
X7938920Y-12796579D01*
X7938920Y-12796579D02*
X7948444Y-12834674D01*
X7948444Y-12834674D02*
X7948444Y-12882293D01*
X7948444Y-12882293D02*
X7938920Y-12920388D01*
X7938920Y-12920388D02*
X7929396Y-12939436D01*
X7929396Y-12939436D02*
X7919872Y-12948960D01*
X7919872Y-12948960D02*
X7900825Y-12958484D01*
X7900825Y-12958484D02*
X7881777Y-12958484D01*
X7881777Y-12958484D02*
X7862729Y-12948960D01*
X7862729Y-12948960D02*
X7853206Y-12939436D01*
X7853206Y-12939436D02*
X7843682Y-12920388D01*
X7843682Y-12920388D02*
X7834158Y-12882293D01*
X7834158Y-12882293D02*
X7834158Y-12834674D01*
X7834158Y-12834674D02*
X7843682Y-12796579D01*
X7843682Y-12796579D02*
X7853206Y-12777531D01*
X7853206Y-12777531D02*
X7862729Y-12768008D01*
X7862729Y-12768008D02*
X7881777Y-12758484D01*
X8024634Y-12758484D02*
X8024634Y-12796579D01*
X8100825Y-12758484D02*
X8100825Y-12796579D01*
X8396063Y-13034674D02*
X8386539Y-13025150D01*
X8386539Y-13025150D02*
X8367491Y-12996579D01*
X8367491Y-12996579D02*
X8357968Y-12977531D01*
X8357968Y-12977531D02*
X8348444Y-12948960D01*
X8348444Y-12948960D02*
X8338920Y-12901341D01*
X8338920Y-12901341D02*
X8338920Y-12863246D01*
X8338920Y-12863246D02*
X8348444Y-12815627D01*
X8348444Y-12815627D02*
X8357968Y-12787055D01*
X8357968Y-12787055D02*
X8367491Y-12768008D01*
X8367491Y-12768008D02*
X8386539Y-12739436D01*
X8386539Y-12739436D02*
X8396063Y-12729912D01*
X8557968Y-12825150D02*
X8557968Y-12958484D01*
X8510349Y-12748960D02*
X8462730Y-12891817D01*
X8462730Y-12891817D02*
X8586539Y-12891817D01*
X8815111Y-12958484D02*
X8815111Y-12758484D01*
X8900825Y-12958484D02*
X8900825Y-12853722D01*
X8900825Y-12853722D02*
X8891301Y-12834674D01*
X8891301Y-12834674D02*
X8872253Y-12825150D01*
X8872253Y-12825150D02*
X8843682Y-12825150D01*
X8843682Y-12825150D02*
X8824634Y-12834674D01*
X8824634Y-12834674D02*
X8815111Y-12844198D01*
X9024634Y-12958484D02*
X9005587Y-12948960D01*
X9005587Y-12948960D02*
X8996063Y-12939436D01*
X8996063Y-12939436D02*
X8986539Y-12920388D01*
X8986539Y-12920388D02*
X8986539Y-12863246D01*
X8986539Y-12863246D02*
X8996063Y-12844198D01*
X8996063Y-12844198D02*
X9005587Y-12834674D01*
X9005587Y-12834674D02*
X9024634Y-12825150D01*
X9024634Y-12825150D02*
X9053206Y-12825150D01*
X9053206Y-12825150D02*
X9072253Y-12834674D01*
X9072253Y-12834674D02*
X9081777Y-12844198D01*
X9081777Y-12844198D02*
X9091301Y-12863246D01*
X9091301Y-12863246D02*
X9091301Y-12920388D01*
X9091301Y-12920388D02*
X9081777Y-12939436D01*
X9081777Y-12939436D02*
X9072253Y-12948960D01*
X9072253Y-12948960D02*
X9053206Y-12958484D01*
X9053206Y-12958484D02*
X9024634Y-12958484D01*
X9205587Y-12958484D02*
X9186539Y-12948960D01*
X9186539Y-12948960D02*
X9177015Y-12929912D01*
X9177015Y-12929912D02*
X9177015Y-12758484D01*
X9357968Y-12948960D02*
X9338920Y-12958484D01*
X9338920Y-12958484D02*
X9300825Y-12958484D01*
X9300825Y-12958484D02*
X9281777Y-12948960D01*
X9281777Y-12948960D02*
X9272253Y-12929912D01*
X9272253Y-12929912D02*
X9272253Y-12853722D01*
X9272253Y-12853722D02*
X9281777Y-12834674D01*
X9281777Y-12834674D02*
X9300825Y-12825150D01*
X9300825Y-12825150D02*
X9338920Y-12825150D01*
X9338920Y-12825150D02*
X9357968Y-12834674D01*
X9357968Y-12834674D02*
X9367492Y-12853722D01*
X9367492Y-12853722D02*
X9367492Y-12872769D01*
X9367492Y-12872769D02*
X9272253Y-12891817D01*
X9443682Y-12948960D02*
X9462730Y-12958484D01*
X9462730Y-12958484D02*
X9500825Y-12958484D01*
X9500825Y-12958484D02*
X9519873Y-12948960D01*
X9519873Y-12948960D02*
X9529396Y-12929912D01*
X9529396Y-12929912D02*
X9529396Y-12920388D01*
X9529396Y-12920388D02*
X9519873Y-12901341D01*
X9519873Y-12901341D02*
X9500825Y-12891817D01*
X9500825Y-12891817D02*
X9472253Y-12891817D01*
X9472253Y-12891817D02*
X9453206Y-12882293D01*
X9453206Y-12882293D02*
X9443682Y-12863246D01*
X9443682Y-12863246D02*
X9443682Y-12853722D01*
X9443682Y-12853722D02*
X9453206Y-12834674D01*
X9453206Y-12834674D02*
X9472253Y-12825150D01*
X9472253Y-12825150D02*
X9500825Y-12825150D01*
X9500825Y-12825150D02*
X9519873Y-12834674D01*
X9596063Y-13034674D02*
X9605587Y-13025150D01*
X9605587Y-13025150D02*
X9624634Y-12996579D01*
X9624634Y-12996579D02*
X9634158Y-12977531D01*
X9634158Y-12977531D02*
X9643682Y-12948960D01*
X9643682Y-12948960D02*
X9653206Y-12901341D01*
X9653206Y-12901341D02*
X9653206Y-12863246D01*
X9653206Y-12863246D02*
X9643682Y-12815627D01*
X9643682Y-12815627D02*
X9634158Y-12787055D01*
X9634158Y-12787055D02*
X9624634Y-12768008D01*
X9624634Y-12768008D02*
X9605587Y-12739436D01*
X9605587Y-12739436D02*
X9596063Y-12729912D01*
D12*
X4761000Y-13191000D02*
X4821000Y-13131000D01*
X4761000Y-13071000D01*
X4701000Y-13131000D01*
X4761000Y-13191000D01*
D11*
X5186539Y-13222484D02*
X5072253Y-13222484D01*
X5129396Y-13222484D02*
X5129396Y-13022484D01*
X5129396Y-13022484D02*
X5110348Y-13051055D01*
X5110348Y-13051055D02*
X5091301Y-13070103D01*
X5091301Y-13070103D02*
X5072253Y-13079627D01*
X5272253Y-13203436D02*
X5281777Y-13212960D01*
X5281777Y-13212960D02*
X5272253Y-13222484D01*
X5272253Y-13222484D02*
X5262729Y-13212960D01*
X5262729Y-13212960D02*
X5272253Y-13203436D01*
X5272253Y-13203436D02*
X5272253Y-13222484D01*
X5357967Y-13041531D02*
X5367491Y-13032008D01*
X5367491Y-13032008D02*
X5386539Y-13022484D01*
X5386539Y-13022484D02*
X5434158Y-13022484D01*
X5434158Y-13022484D02*
X5453205Y-13032008D01*
X5453205Y-13032008D02*
X5462729Y-13041531D01*
X5462729Y-13041531D02*
X5472253Y-13060579D01*
X5472253Y-13060579D02*
X5472253Y-13079627D01*
X5472253Y-13079627D02*
X5462729Y-13108198D01*
X5462729Y-13108198D02*
X5348444Y-13222484D01*
X5348444Y-13222484D02*
X5472253Y-13222484D01*
X5596062Y-13022484D02*
X5615110Y-13022484D01*
X5615110Y-13022484D02*
X5634158Y-13032008D01*
X5634158Y-13032008D02*
X5643682Y-13041531D01*
X5643682Y-13041531D02*
X5653205Y-13060579D01*
X5653205Y-13060579D02*
X5662729Y-13098674D01*
X5662729Y-13098674D02*
X5662729Y-13146293D01*
X5662729Y-13146293D02*
X5653205Y-13184388D01*
X5653205Y-13184388D02*
X5643682Y-13203436D01*
X5643682Y-13203436D02*
X5634158Y-13212960D01*
X5634158Y-13212960D02*
X5615110Y-13222484D01*
X5615110Y-13222484D02*
X5596062Y-13222484D01*
X5596062Y-13222484D02*
X5577015Y-13212960D01*
X5577015Y-13212960D02*
X5567491Y-13203436D01*
X5567491Y-13203436D02*
X5557967Y-13184388D01*
X5557967Y-13184388D02*
X5548444Y-13146293D01*
X5548444Y-13146293D02*
X5548444Y-13098674D01*
X5548444Y-13098674D02*
X5557967Y-13060579D01*
X5557967Y-13060579D02*
X5567491Y-13041531D01*
X5567491Y-13041531D02*
X5577015Y-13032008D01*
X5577015Y-13032008D02*
X5596062Y-13022484D01*
X5786539Y-13022484D02*
X5805586Y-13022484D01*
X5805586Y-13022484D02*
X5824634Y-13032008D01*
X5824634Y-13032008D02*
X5834158Y-13041531D01*
X5834158Y-13041531D02*
X5843682Y-13060579D01*
X5843682Y-13060579D02*
X5853205Y-13098674D01*
X5853205Y-13098674D02*
X5853205Y-13146293D01*
X5853205Y-13146293D02*
X5843682Y-13184388D01*
X5843682Y-13184388D02*
X5834158Y-13203436D01*
X5834158Y-13203436D02*
X5824634Y-13212960D01*
X5824634Y-13212960D02*
X5805586Y-13222484D01*
X5805586Y-13222484D02*
X5786539Y-13222484D01*
X5786539Y-13222484D02*
X5767491Y-13212960D01*
X5767491Y-13212960D02*
X5757967Y-13203436D01*
X5757967Y-13203436D02*
X5748443Y-13184388D01*
X5748443Y-13184388D02*
X5738920Y-13146293D01*
X5738920Y-13146293D02*
X5738920Y-13098674D01*
X5738920Y-13098674D02*
X5748443Y-13060579D01*
X5748443Y-13060579D02*
X5757967Y-13041531D01*
X5757967Y-13041531D02*
X5767491Y-13032008D01*
X5767491Y-13032008D02*
X5786539Y-13022484D01*
X5938920Y-13222484D02*
X5938920Y-13089150D01*
X5938920Y-13108198D02*
X5948443Y-13098674D01*
X5948443Y-13098674D02*
X5967491Y-13089150D01*
X5967491Y-13089150D02*
X5996063Y-13089150D01*
X5996063Y-13089150D02*
X6015110Y-13098674D01*
X6015110Y-13098674D02*
X6024634Y-13117722D01*
X6024634Y-13117722D02*
X6024634Y-13222484D01*
X6024634Y-13117722D02*
X6034158Y-13098674D01*
X6034158Y-13098674D02*
X6053205Y-13089150D01*
X6053205Y-13089150D02*
X6081777Y-13089150D01*
X6081777Y-13089150D02*
X6100824Y-13098674D01*
X6100824Y-13098674D02*
X6110348Y-13117722D01*
X6110348Y-13117722D02*
X6110348Y-13222484D01*
X6205586Y-13222484D02*
X6205586Y-13089150D01*
X6205586Y-13108198D02*
X6215110Y-13098674D01*
X6215110Y-13098674D02*
X6234158Y-13089150D01*
X6234158Y-13089150D02*
X6262729Y-13089150D01*
X6262729Y-13089150D02*
X6281777Y-13098674D01*
X6281777Y-13098674D02*
X6291301Y-13117722D01*
X6291301Y-13117722D02*
X6291301Y-13222484D01*
X6291301Y-13117722D02*
X6300824Y-13098674D01*
X6300824Y-13098674D02*
X6319872Y-13089150D01*
X6319872Y-13089150D02*
X6348443Y-13089150D01*
X6348443Y-13089150D02*
X6367491Y-13098674D01*
X6367491Y-13098674D02*
X6377015Y-13117722D01*
X6377015Y-13117722D02*
X6377015Y-13222484D01*
X6767491Y-13012960D02*
X6596063Y-13270103D01*
X7024634Y-13022484D02*
X7043682Y-13022484D01*
X7043682Y-13022484D02*
X7062729Y-13032008D01*
X7062729Y-13032008D02*
X7072253Y-13041531D01*
X7072253Y-13041531D02*
X7081777Y-13060579D01*
X7081777Y-13060579D02*
X7091301Y-13098674D01*
X7091301Y-13098674D02*
X7091301Y-13146293D01*
X7091301Y-13146293D02*
X7081777Y-13184388D01*
X7081777Y-13184388D02*
X7072253Y-13203436D01*
X7072253Y-13203436D02*
X7062729Y-13212960D01*
X7062729Y-13212960D02*
X7043682Y-13222484D01*
X7043682Y-13222484D02*
X7024634Y-13222484D01*
X7024634Y-13222484D02*
X7005586Y-13212960D01*
X7005586Y-13212960D02*
X6996063Y-13203436D01*
X6996063Y-13203436D02*
X6986539Y-13184388D01*
X6986539Y-13184388D02*
X6977015Y-13146293D01*
X6977015Y-13146293D02*
X6977015Y-13098674D01*
X6977015Y-13098674D02*
X6986539Y-13060579D01*
X6986539Y-13060579D02*
X6996063Y-13041531D01*
X6996063Y-13041531D02*
X7005586Y-13032008D01*
X7005586Y-13032008D02*
X7024634Y-13022484D01*
X7177015Y-13203436D02*
X7186539Y-13212960D01*
X7186539Y-13212960D02*
X7177015Y-13222484D01*
X7177015Y-13222484D02*
X7167491Y-13212960D01*
X7167491Y-13212960D02*
X7177015Y-13203436D01*
X7177015Y-13203436D02*
X7177015Y-13222484D01*
X7310348Y-13022484D02*
X7329396Y-13022484D01*
X7329396Y-13022484D02*
X7348444Y-13032008D01*
X7348444Y-13032008D02*
X7357967Y-13041531D01*
X7357967Y-13041531D02*
X7367491Y-13060579D01*
X7367491Y-13060579D02*
X7377015Y-13098674D01*
X7377015Y-13098674D02*
X7377015Y-13146293D01*
X7377015Y-13146293D02*
X7367491Y-13184388D01*
X7367491Y-13184388D02*
X7357967Y-13203436D01*
X7357967Y-13203436D02*
X7348444Y-13212960D01*
X7348444Y-13212960D02*
X7329396Y-13222484D01*
X7329396Y-13222484D02*
X7310348Y-13222484D01*
X7310348Y-13222484D02*
X7291301Y-13212960D01*
X7291301Y-13212960D02*
X7281777Y-13203436D01*
X7281777Y-13203436D02*
X7272253Y-13184388D01*
X7272253Y-13184388D02*
X7262729Y-13146293D01*
X7262729Y-13146293D02*
X7262729Y-13098674D01*
X7262729Y-13098674D02*
X7272253Y-13060579D01*
X7272253Y-13060579D02*
X7281777Y-13041531D01*
X7281777Y-13041531D02*
X7291301Y-13032008D01*
X7291301Y-13032008D02*
X7310348Y-13022484D01*
X7548444Y-13089150D02*
X7548444Y-13222484D01*
X7500825Y-13012960D02*
X7453206Y-13155817D01*
X7453206Y-13155817D02*
X7577015Y-13155817D01*
X7634158Y-13022484D02*
X7767491Y-13022484D01*
X7767491Y-13022484D02*
X7681777Y-13222484D01*
X7834158Y-13041531D02*
X7843682Y-13032008D01*
X7843682Y-13032008D02*
X7862729Y-13022484D01*
X7862729Y-13022484D02*
X7910348Y-13022484D01*
X7910348Y-13022484D02*
X7929396Y-13032008D01*
X7929396Y-13032008D02*
X7938920Y-13041531D01*
X7938920Y-13041531D02*
X7948444Y-13060579D01*
X7948444Y-13060579D02*
X7948444Y-13079627D01*
X7948444Y-13079627D02*
X7938920Y-13108198D01*
X7938920Y-13108198D02*
X7824634Y-13222484D01*
X7824634Y-13222484D02*
X7948444Y-13222484D01*
X8024634Y-13022484D02*
X8024634Y-13060579D01*
X8100825Y-13022484D02*
X8100825Y-13060579D01*
X8396063Y-13298674D02*
X8386539Y-13289150D01*
X8386539Y-13289150D02*
X8367491Y-13260579D01*
X8367491Y-13260579D02*
X8357968Y-13241531D01*
X8357968Y-13241531D02*
X8348444Y-13212960D01*
X8348444Y-13212960D02*
X8338920Y-13165341D01*
X8338920Y-13165341D02*
X8338920Y-13127246D01*
X8338920Y-13127246D02*
X8348444Y-13079627D01*
X8348444Y-13079627D02*
X8357968Y-13051055D01*
X8357968Y-13051055D02*
X8367491Y-13032008D01*
X8367491Y-13032008D02*
X8386539Y-13003436D01*
X8386539Y-13003436D02*
X8396063Y-12993912D01*
X8453206Y-13022484D02*
X8577015Y-13022484D01*
X8577015Y-13022484D02*
X8510349Y-13098674D01*
X8510349Y-13098674D02*
X8538920Y-13098674D01*
X8538920Y-13098674D02*
X8557968Y-13108198D01*
X8557968Y-13108198D02*
X8567491Y-13117722D01*
X8567491Y-13117722D02*
X8577015Y-13136769D01*
X8577015Y-13136769D02*
X8577015Y-13184388D01*
X8577015Y-13184388D02*
X8567491Y-13203436D01*
X8567491Y-13203436D02*
X8557968Y-13212960D01*
X8557968Y-13212960D02*
X8538920Y-13222484D01*
X8538920Y-13222484D02*
X8481777Y-13222484D01*
X8481777Y-13222484D02*
X8462730Y-13212960D01*
X8462730Y-13212960D02*
X8453206Y-13203436D01*
X8815111Y-13222484D02*
X8815111Y-13022484D01*
X8900825Y-13222484D02*
X8900825Y-13117722D01*
X8900825Y-13117722D02*
X8891301Y-13098674D01*
X8891301Y-13098674D02*
X8872253Y-13089150D01*
X8872253Y-13089150D02*
X8843682Y-13089150D01*
X8843682Y-13089150D02*
X8824634Y-13098674D01*
X8824634Y-13098674D02*
X8815111Y-13108198D01*
X9024634Y-13222484D02*
X9005587Y-13212960D01*
X9005587Y-13212960D02*
X8996063Y-13203436D01*
X8996063Y-13203436D02*
X8986539Y-13184388D01*
X8986539Y-13184388D02*
X8986539Y-13127246D01*
X8986539Y-13127246D02*
X8996063Y-13108198D01*
X8996063Y-13108198D02*
X9005587Y-13098674D01*
X9005587Y-13098674D02*
X9024634Y-13089150D01*
X9024634Y-13089150D02*
X9053206Y-13089150D01*
X9053206Y-13089150D02*
X9072253Y-13098674D01*
X9072253Y-13098674D02*
X9081777Y-13108198D01*
X9081777Y-13108198D02*
X9091301Y-13127246D01*
X9091301Y-13127246D02*
X9091301Y-13184388D01*
X9091301Y-13184388D02*
X9081777Y-13203436D01*
X9081777Y-13203436D02*
X9072253Y-13212960D01*
X9072253Y-13212960D02*
X9053206Y-13222484D01*
X9053206Y-13222484D02*
X9024634Y-13222484D01*
X9205587Y-13222484D02*
X9186539Y-13212960D01*
X9186539Y-13212960D02*
X9177015Y-13193912D01*
X9177015Y-13193912D02*
X9177015Y-13022484D01*
X9357968Y-13212960D02*
X9338920Y-13222484D01*
X9338920Y-13222484D02*
X9300825Y-13222484D01*
X9300825Y-13222484D02*
X9281777Y-13212960D01*
X9281777Y-13212960D02*
X9272253Y-13193912D01*
X9272253Y-13193912D02*
X9272253Y-13117722D01*
X9272253Y-13117722D02*
X9281777Y-13098674D01*
X9281777Y-13098674D02*
X9300825Y-13089150D01*
X9300825Y-13089150D02*
X9338920Y-13089150D01*
X9338920Y-13089150D02*
X9357968Y-13098674D01*
X9357968Y-13098674D02*
X9367492Y-13117722D01*
X9367492Y-13117722D02*
X9367492Y-13136769D01*
X9367492Y-13136769D02*
X9272253Y-13155817D01*
X9443682Y-13212960D02*
X9462730Y-13222484D01*
X9462730Y-13222484D02*
X9500825Y-13222484D01*
X9500825Y-13222484D02*
X9519873Y-13212960D01*
X9519873Y-13212960D02*
X9529396Y-13193912D01*
X9529396Y-13193912D02*
X9529396Y-13184388D01*
X9529396Y-13184388D02*
X9519873Y-13165341D01*
X9519873Y-13165341D02*
X9500825Y-13155817D01*
X9500825Y-13155817D02*
X9472253Y-13155817D01*
X9472253Y-13155817D02*
X9453206Y-13146293D01*
X9453206Y-13146293D02*
X9443682Y-13127246D01*
X9443682Y-13127246D02*
X9443682Y-13117722D01*
X9443682Y-13117722D02*
X9453206Y-13098674D01*
X9453206Y-13098674D02*
X9472253Y-13089150D01*
X9472253Y-13089150D02*
X9500825Y-13089150D01*
X9500825Y-13089150D02*
X9519873Y-13098674D01*
X9596063Y-13298674D02*
X9605587Y-13289150D01*
X9605587Y-13289150D02*
X9624634Y-13260579D01*
X9624634Y-13260579D02*
X9634158Y-13241531D01*
X9634158Y-13241531D02*
X9643682Y-13212960D01*
X9643682Y-13212960D02*
X9653206Y-13165341D01*
X9653206Y-13165341D02*
X9653206Y-13127246D01*
X9653206Y-13127246D02*
X9643682Y-13079627D01*
X9643682Y-13079627D02*
X9634158Y-13051055D01*
X9634158Y-13051055D02*
X9624634Y-13032008D01*
X9624634Y-13032008D02*
X9605587Y-13003436D01*
X9605587Y-13003436D02*
X9596063Y-12993912D01*
X4621000Y-13295000D02*
X4821000Y-13495000D01*
X4821000Y-13295000D02*
X4621000Y-13495000D01*
X4821000Y-13395000D02*
G75*
G03*
X4621000Y-13395000I-100000J0D01*
G01*
X4621000Y-13395000D02*
G75*
G03*
X4821000Y-13395000I100000J0D01*
G01*
X5072253Y-13305531D02*
X5081777Y-13296008D01*
X5081777Y-13296008D02*
X5100824Y-13286484D01*
X5100824Y-13286484D02*
X5148444Y-13286484D01*
X5148444Y-13286484D02*
X5167491Y-13296008D01*
X5167491Y-13296008D02*
X5177015Y-13305531D01*
X5177015Y-13305531D02*
X5186539Y-13324579D01*
X5186539Y-13324579D02*
X5186539Y-13343627D01*
X5186539Y-13343627D02*
X5177015Y-13372198D01*
X5177015Y-13372198D02*
X5062729Y-13486484D01*
X5062729Y-13486484D02*
X5186539Y-13486484D01*
X5272253Y-13467436D02*
X5281777Y-13476960D01*
X5281777Y-13476960D02*
X5272253Y-13486484D01*
X5272253Y-13486484D02*
X5262729Y-13476960D01*
X5262729Y-13476960D02*
X5272253Y-13467436D01*
X5272253Y-13467436D02*
X5272253Y-13486484D01*
X5405586Y-13286484D02*
X5424634Y-13286484D01*
X5424634Y-13286484D02*
X5443682Y-13296008D01*
X5443682Y-13296008D02*
X5453205Y-13305531D01*
X5453205Y-13305531D02*
X5462729Y-13324579D01*
X5462729Y-13324579D02*
X5472253Y-13362674D01*
X5472253Y-13362674D02*
X5472253Y-13410293D01*
X5472253Y-13410293D02*
X5462729Y-13448388D01*
X5462729Y-13448388D02*
X5453205Y-13467436D01*
X5453205Y-13467436D02*
X5443682Y-13476960D01*
X5443682Y-13476960D02*
X5424634Y-13486484D01*
X5424634Y-13486484D02*
X5405586Y-13486484D01*
X5405586Y-13486484D02*
X5386539Y-13476960D01*
X5386539Y-13476960D02*
X5377015Y-13467436D01*
X5377015Y-13467436D02*
X5367491Y-13448388D01*
X5367491Y-13448388D02*
X5357967Y-13410293D01*
X5357967Y-13410293D02*
X5357967Y-13362674D01*
X5357967Y-13362674D02*
X5367491Y-13324579D01*
X5367491Y-13324579D02*
X5377015Y-13305531D01*
X5377015Y-13305531D02*
X5386539Y-13296008D01*
X5386539Y-13296008D02*
X5405586Y-13286484D01*
X5662729Y-13486484D02*
X5548444Y-13486484D01*
X5605586Y-13486484D02*
X5605586Y-13286484D01*
X5605586Y-13286484D02*
X5586539Y-13315055D01*
X5586539Y-13315055D02*
X5567491Y-13334103D01*
X5567491Y-13334103D02*
X5548444Y-13343627D01*
X5786539Y-13286484D02*
X5805586Y-13286484D01*
X5805586Y-13286484D02*
X5824634Y-13296008D01*
X5824634Y-13296008D02*
X5834158Y-13305531D01*
X5834158Y-13305531D02*
X5843682Y-13324579D01*
X5843682Y-13324579D02*
X5853205Y-13362674D01*
X5853205Y-13362674D02*
X5853205Y-13410293D01*
X5853205Y-13410293D02*
X5843682Y-13448388D01*
X5843682Y-13448388D02*
X5834158Y-13467436D01*
X5834158Y-13467436D02*
X5824634Y-13476960D01*
X5824634Y-13476960D02*
X5805586Y-13486484D01*
X5805586Y-13486484D02*
X5786539Y-13486484D01*
X5786539Y-13486484D02*
X5767491Y-13476960D01*
X5767491Y-13476960D02*
X5757967Y-13467436D01*
X5757967Y-13467436D02*
X5748443Y-13448388D01*
X5748443Y-13448388D02*
X5738920Y-13410293D01*
X5738920Y-13410293D02*
X5738920Y-13362674D01*
X5738920Y-13362674D02*
X5748443Y-13324579D01*
X5748443Y-13324579D02*
X5757967Y-13305531D01*
X5757967Y-13305531D02*
X5767491Y-13296008D01*
X5767491Y-13296008D02*
X5786539Y-13286484D01*
X5938920Y-13486484D02*
X5938920Y-13353150D01*
X5938920Y-13372198D02*
X5948443Y-13362674D01*
X5948443Y-13362674D02*
X5967491Y-13353150D01*
X5967491Y-13353150D02*
X5996063Y-13353150D01*
X5996063Y-13353150D02*
X6015110Y-13362674D01*
X6015110Y-13362674D02*
X6024634Y-13381722D01*
X6024634Y-13381722D02*
X6024634Y-13486484D01*
X6024634Y-13381722D02*
X6034158Y-13362674D01*
X6034158Y-13362674D02*
X6053205Y-13353150D01*
X6053205Y-13353150D02*
X6081777Y-13353150D01*
X6081777Y-13353150D02*
X6100824Y-13362674D01*
X6100824Y-13362674D02*
X6110348Y-13381722D01*
X6110348Y-13381722D02*
X6110348Y-13486484D01*
X6205586Y-13486484D02*
X6205586Y-13353150D01*
X6205586Y-13372198D02*
X6215110Y-13362674D01*
X6215110Y-13362674D02*
X6234158Y-13353150D01*
X6234158Y-13353150D02*
X6262729Y-13353150D01*
X6262729Y-13353150D02*
X6281777Y-13362674D01*
X6281777Y-13362674D02*
X6291301Y-13381722D01*
X6291301Y-13381722D02*
X6291301Y-13486484D01*
X6291301Y-13381722D02*
X6300824Y-13362674D01*
X6300824Y-13362674D02*
X6319872Y-13353150D01*
X6319872Y-13353150D02*
X6348443Y-13353150D01*
X6348443Y-13353150D02*
X6367491Y-13362674D01*
X6367491Y-13362674D02*
X6377015Y-13381722D01*
X6377015Y-13381722D02*
X6377015Y-13486484D01*
X6767491Y-13276960D02*
X6596063Y-13534103D01*
X7024634Y-13286484D02*
X7043682Y-13286484D01*
X7043682Y-13286484D02*
X7062729Y-13296008D01*
X7062729Y-13296008D02*
X7072253Y-13305531D01*
X7072253Y-13305531D02*
X7081777Y-13324579D01*
X7081777Y-13324579D02*
X7091301Y-13362674D01*
X7091301Y-13362674D02*
X7091301Y-13410293D01*
X7091301Y-13410293D02*
X7081777Y-13448388D01*
X7081777Y-13448388D02*
X7072253Y-13467436D01*
X7072253Y-13467436D02*
X7062729Y-13476960D01*
X7062729Y-13476960D02*
X7043682Y-13486484D01*
X7043682Y-13486484D02*
X7024634Y-13486484D01*
X7024634Y-13486484D02*
X7005586Y-13476960D01*
X7005586Y-13476960D02*
X6996063Y-13467436D01*
X6996063Y-13467436D02*
X6986539Y-13448388D01*
X6986539Y-13448388D02*
X6977015Y-13410293D01*
X6977015Y-13410293D02*
X6977015Y-13362674D01*
X6977015Y-13362674D02*
X6986539Y-13324579D01*
X6986539Y-13324579D02*
X6996063Y-13305531D01*
X6996063Y-13305531D02*
X7005586Y-13296008D01*
X7005586Y-13296008D02*
X7024634Y-13286484D01*
X7177015Y-13467436D02*
X7186539Y-13476960D01*
X7186539Y-13476960D02*
X7177015Y-13486484D01*
X7177015Y-13486484D02*
X7167491Y-13476960D01*
X7167491Y-13476960D02*
X7177015Y-13467436D01*
X7177015Y-13467436D02*
X7177015Y-13486484D01*
X7310348Y-13286484D02*
X7329396Y-13286484D01*
X7329396Y-13286484D02*
X7348444Y-13296008D01*
X7348444Y-13296008D02*
X7357967Y-13305531D01*
X7357967Y-13305531D02*
X7367491Y-13324579D01*
X7367491Y-13324579D02*
X7377015Y-13362674D01*
X7377015Y-13362674D02*
X7377015Y-13410293D01*
X7377015Y-13410293D02*
X7367491Y-13448388D01*
X7367491Y-13448388D02*
X7357967Y-13467436D01*
X7357967Y-13467436D02*
X7348444Y-13476960D01*
X7348444Y-13476960D02*
X7329396Y-13486484D01*
X7329396Y-13486484D02*
X7310348Y-13486484D01*
X7310348Y-13486484D02*
X7291301Y-13476960D01*
X7291301Y-13476960D02*
X7281777Y-13467436D01*
X7281777Y-13467436D02*
X7272253Y-13448388D01*
X7272253Y-13448388D02*
X7262729Y-13410293D01*
X7262729Y-13410293D02*
X7262729Y-13362674D01*
X7262729Y-13362674D02*
X7272253Y-13324579D01*
X7272253Y-13324579D02*
X7281777Y-13305531D01*
X7281777Y-13305531D02*
X7291301Y-13296008D01*
X7291301Y-13296008D02*
X7310348Y-13286484D01*
X7443682Y-13286484D02*
X7577015Y-13286484D01*
X7577015Y-13286484D02*
X7491301Y-13486484D01*
X7662729Y-13486484D02*
X7700825Y-13486484D01*
X7700825Y-13486484D02*
X7719872Y-13476960D01*
X7719872Y-13476960D02*
X7729396Y-13467436D01*
X7729396Y-13467436D02*
X7748444Y-13438865D01*
X7748444Y-13438865D02*
X7757967Y-13400769D01*
X7757967Y-13400769D02*
X7757967Y-13324579D01*
X7757967Y-13324579D02*
X7748444Y-13305531D01*
X7748444Y-13305531D02*
X7738920Y-13296008D01*
X7738920Y-13296008D02*
X7719872Y-13286484D01*
X7719872Y-13286484D02*
X7681777Y-13286484D01*
X7681777Y-13286484D02*
X7662729Y-13296008D01*
X7662729Y-13296008D02*
X7653206Y-13305531D01*
X7653206Y-13305531D02*
X7643682Y-13324579D01*
X7643682Y-13324579D02*
X7643682Y-13372198D01*
X7643682Y-13372198D02*
X7653206Y-13391246D01*
X7653206Y-13391246D02*
X7662729Y-13400769D01*
X7662729Y-13400769D02*
X7681777Y-13410293D01*
X7681777Y-13410293D02*
X7719872Y-13410293D01*
X7719872Y-13410293D02*
X7738920Y-13400769D01*
X7738920Y-13400769D02*
X7748444Y-13391246D01*
X7748444Y-13391246D02*
X7757967Y-13372198D01*
X7948444Y-13486484D02*
X7834158Y-13486484D01*
X7891301Y-13486484D02*
X7891301Y-13286484D01*
X7891301Y-13286484D02*
X7872253Y-13315055D01*
X7872253Y-13315055D02*
X7853206Y-13334103D01*
X7853206Y-13334103D02*
X7834158Y-13343627D01*
X8024634Y-13286484D02*
X8024634Y-13324579D01*
X8100825Y-13286484D02*
X8100825Y-13324579D01*
X8396063Y-13562674D02*
X8386539Y-13553150D01*
X8386539Y-13553150D02*
X8367491Y-13524579D01*
X8367491Y-13524579D02*
X8357968Y-13505531D01*
X8357968Y-13505531D02*
X8348444Y-13476960D01*
X8348444Y-13476960D02*
X8338920Y-13429341D01*
X8338920Y-13429341D02*
X8338920Y-13391246D01*
X8338920Y-13391246D02*
X8348444Y-13343627D01*
X8348444Y-13343627D02*
X8357968Y-13315055D01*
X8357968Y-13315055D02*
X8367491Y-13296008D01*
X8367491Y-13296008D02*
X8386539Y-13267436D01*
X8386539Y-13267436D02*
X8396063Y-13257912D01*
X8557968Y-13353150D02*
X8557968Y-13486484D01*
X8510349Y-13276960D02*
X8462730Y-13419817D01*
X8462730Y-13419817D02*
X8586539Y-13419817D01*
X8815111Y-13486484D02*
X8815111Y-13286484D01*
X8900825Y-13486484D02*
X8900825Y-13381722D01*
X8900825Y-13381722D02*
X8891301Y-13362674D01*
X8891301Y-13362674D02*
X8872253Y-13353150D01*
X8872253Y-13353150D02*
X8843682Y-13353150D01*
X8843682Y-13353150D02*
X8824634Y-13362674D01*
X8824634Y-13362674D02*
X8815111Y-13372198D01*
X9024634Y-13486484D02*
X9005587Y-13476960D01*
X9005587Y-13476960D02*
X8996063Y-13467436D01*
X8996063Y-13467436D02*
X8986539Y-13448388D01*
X8986539Y-13448388D02*
X8986539Y-13391246D01*
X8986539Y-13391246D02*
X8996063Y-13372198D01*
X8996063Y-13372198D02*
X9005587Y-13362674D01*
X9005587Y-13362674D02*
X9024634Y-13353150D01*
X9024634Y-13353150D02*
X9053206Y-13353150D01*
X9053206Y-13353150D02*
X9072253Y-13362674D01*
X9072253Y-13362674D02*
X9081777Y-13372198D01*
X9081777Y-13372198D02*
X9091301Y-13391246D01*
X9091301Y-13391246D02*
X9091301Y-13448388D01*
X9091301Y-13448388D02*
X9081777Y-13467436D01*
X9081777Y-13467436D02*
X9072253Y-13476960D01*
X9072253Y-13476960D02*
X9053206Y-13486484D01*
X9053206Y-13486484D02*
X9024634Y-13486484D01*
X9205587Y-13486484D02*
X9186539Y-13476960D01*
X9186539Y-13476960D02*
X9177015Y-13457912D01*
X9177015Y-13457912D02*
X9177015Y-13286484D01*
X9357968Y-13476960D02*
X9338920Y-13486484D01*
X9338920Y-13486484D02*
X9300825Y-13486484D01*
X9300825Y-13486484D02*
X9281777Y-13476960D01*
X9281777Y-13476960D02*
X9272253Y-13457912D01*
X9272253Y-13457912D02*
X9272253Y-13381722D01*
X9272253Y-13381722D02*
X9281777Y-13362674D01*
X9281777Y-13362674D02*
X9300825Y-13353150D01*
X9300825Y-13353150D02*
X9338920Y-13353150D01*
X9338920Y-13353150D02*
X9357968Y-13362674D01*
X9357968Y-13362674D02*
X9367492Y-13381722D01*
X9367492Y-13381722D02*
X9367492Y-13400769D01*
X9367492Y-13400769D02*
X9272253Y-13419817D01*
X9443682Y-13476960D02*
X9462730Y-13486484D01*
X9462730Y-13486484D02*
X9500825Y-13486484D01*
X9500825Y-13486484D02*
X9519873Y-13476960D01*
X9519873Y-13476960D02*
X9529396Y-13457912D01*
X9529396Y-13457912D02*
X9529396Y-13448388D01*
X9529396Y-13448388D02*
X9519873Y-13429341D01*
X9519873Y-13429341D02*
X9500825Y-13419817D01*
X9500825Y-13419817D02*
X9472253Y-13419817D01*
X9472253Y-13419817D02*
X9453206Y-13410293D01*
X9453206Y-13410293D02*
X9443682Y-13391246D01*
X9443682Y-13391246D02*
X9443682Y-13381722D01*
X9443682Y-13381722D02*
X9453206Y-13362674D01*
X9453206Y-13362674D02*
X9472253Y-13353150D01*
X9472253Y-13353150D02*
X9500825Y-13353150D01*
X9500825Y-13353150D02*
X9519873Y-13362674D01*
X9596063Y-13562674D02*
X9605587Y-13553150D01*
X9605587Y-13553150D02*
X9624634Y-13524579D01*
X9624634Y-13524579D02*
X9634158Y-13505531D01*
X9634158Y-13505531D02*
X9643682Y-13476960D01*
X9643682Y-13476960D02*
X9653206Y-13429341D01*
X9653206Y-13429341D02*
X9653206Y-13391246D01*
X9653206Y-13391246D02*
X9643682Y-13343627D01*
X9643682Y-13343627D02*
X9634158Y-13315055D01*
X9634158Y-13315055D02*
X9624634Y-13296008D01*
X9624634Y-13296008D02*
X9605587Y-13267436D01*
X9605587Y-13267436D02*
X9596063Y-13257912D01*
X4621000Y-13615000D02*
X4821000Y-13815000D01*
X4821000Y-13615000D02*
X4621000Y-13815000D01*
X4721000Y-13615000D02*
X4721000Y-13815000D01*
X4621000Y-13715000D02*
X4821000Y-13715000D01*
X5072253Y-13625531D02*
X5081777Y-13616008D01*
X5081777Y-13616008D02*
X5100824Y-13606484D01*
X5100824Y-13606484D02*
X5148444Y-13606484D01*
X5148444Y-13606484D02*
X5167491Y-13616008D01*
X5167491Y-13616008D02*
X5177015Y-13625531D01*
X5177015Y-13625531D02*
X5186539Y-13644579D01*
X5186539Y-13644579D02*
X5186539Y-13663627D01*
X5186539Y-13663627D02*
X5177015Y-13692198D01*
X5177015Y-13692198D02*
X5062729Y-13806484D01*
X5062729Y-13806484D02*
X5186539Y-13806484D01*
X5272253Y-13787436D02*
X5281777Y-13796960D01*
X5281777Y-13796960D02*
X5272253Y-13806484D01*
X5272253Y-13806484D02*
X5262729Y-13796960D01*
X5262729Y-13796960D02*
X5272253Y-13787436D01*
X5272253Y-13787436D02*
X5272253Y-13806484D01*
X5396063Y-13692198D02*
X5377015Y-13682674D01*
X5377015Y-13682674D02*
X5367491Y-13673150D01*
X5367491Y-13673150D02*
X5357967Y-13654103D01*
X5357967Y-13654103D02*
X5357967Y-13644579D01*
X5357967Y-13644579D02*
X5367491Y-13625531D01*
X5367491Y-13625531D02*
X5377015Y-13616008D01*
X5377015Y-13616008D02*
X5396063Y-13606484D01*
X5396063Y-13606484D02*
X5434158Y-13606484D01*
X5434158Y-13606484D02*
X5453205Y-13616008D01*
X5453205Y-13616008D02*
X5462729Y-13625531D01*
X5462729Y-13625531D02*
X5472253Y-13644579D01*
X5472253Y-13644579D02*
X5472253Y-13654103D01*
X5472253Y-13654103D02*
X5462729Y-13673150D01*
X5462729Y-13673150D02*
X5453205Y-13682674D01*
X5453205Y-13682674D02*
X5434158Y-13692198D01*
X5434158Y-13692198D02*
X5396063Y-13692198D01*
X5396063Y-13692198D02*
X5377015Y-13701722D01*
X5377015Y-13701722D02*
X5367491Y-13711246D01*
X5367491Y-13711246D02*
X5357967Y-13730293D01*
X5357967Y-13730293D02*
X5357967Y-13768388D01*
X5357967Y-13768388D02*
X5367491Y-13787436D01*
X5367491Y-13787436D02*
X5377015Y-13796960D01*
X5377015Y-13796960D02*
X5396063Y-13806484D01*
X5396063Y-13806484D02*
X5434158Y-13806484D01*
X5434158Y-13806484D02*
X5453205Y-13796960D01*
X5453205Y-13796960D02*
X5462729Y-13787436D01*
X5462729Y-13787436D02*
X5472253Y-13768388D01*
X5472253Y-13768388D02*
X5472253Y-13730293D01*
X5472253Y-13730293D02*
X5462729Y-13711246D01*
X5462729Y-13711246D02*
X5453205Y-13701722D01*
X5453205Y-13701722D02*
X5434158Y-13692198D01*
X5596062Y-13606484D02*
X5615110Y-13606484D01*
X5615110Y-13606484D02*
X5634158Y-13616008D01*
X5634158Y-13616008D02*
X5643682Y-13625531D01*
X5643682Y-13625531D02*
X5653205Y-13644579D01*
X5653205Y-13644579D02*
X5662729Y-13682674D01*
X5662729Y-13682674D02*
X5662729Y-13730293D01*
X5662729Y-13730293D02*
X5653205Y-13768388D01*
X5653205Y-13768388D02*
X5643682Y-13787436D01*
X5643682Y-13787436D02*
X5634158Y-13796960D01*
X5634158Y-13796960D02*
X5615110Y-13806484D01*
X5615110Y-13806484D02*
X5596062Y-13806484D01*
X5596062Y-13806484D02*
X5577015Y-13796960D01*
X5577015Y-13796960D02*
X5567491Y-13787436D01*
X5567491Y-13787436D02*
X5557967Y-13768388D01*
X5557967Y-13768388D02*
X5548444Y-13730293D01*
X5548444Y-13730293D02*
X5548444Y-13682674D01*
X5548444Y-13682674D02*
X5557967Y-13644579D01*
X5557967Y-13644579D02*
X5567491Y-13625531D01*
X5567491Y-13625531D02*
X5577015Y-13616008D01*
X5577015Y-13616008D02*
X5596062Y-13606484D01*
X5786539Y-13606484D02*
X5805586Y-13606484D01*
X5805586Y-13606484D02*
X5824634Y-13616008D01*
X5824634Y-13616008D02*
X5834158Y-13625531D01*
X5834158Y-13625531D02*
X5843682Y-13644579D01*
X5843682Y-13644579D02*
X5853205Y-13682674D01*
X5853205Y-13682674D02*
X5853205Y-13730293D01*
X5853205Y-13730293D02*
X5843682Y-13768388D01*
X5843682Y-13768388D02*
X5834158Y-13787436D01*
X5834158Y-13787436D02*
X5824634Y-13796960D01*
X5824634Y-13796960D02*
X5805586Y-13806484D01*
X5805586Y-13806484D02*
X5786539Y-13806484D01*
X5786539Y-13806484D02*
X5767491Y-13796960D01*
X5767491Y-13796960D02*
X5757967Y-13787436D01*
X5757967Y-13787436D02*
X5748443Y-13768388D01*
X5748443Y-13768388D02*
X5738920Y-13730293D01*
X5738920Y-13730293D02*
X5738920Y-13682674D01*
X5738920Y-13682674D02*
X5748443Y-13644579D01*
X5748443Y-13644579D02*
X5757967Y-13625531D01*
X5757967Y-13625531D02*
X5767491Y-13616008D01*
X5767491Y-13616008D02*
X5786539Y-13606484D01*
X5938920Y-13806484D02*
X5938920Y-13673150D01*
X5938920Y-13692198D02*
X5948443Y-13682674D01*
X5948443Y-13682674D02*
X5967491Y-13673150D01*
X5967491Y-13673150D02*
X5996063Y-13673150D01*
X5996063Y-13673150D02*
X6015110Y-13682674D01*
X6015110Y-13682674D02*
X6024634Y-13701722D01*
X6024634Y-13701722D02*
X6024634Y-13806484D01*
X6024634Y-13701722D02*
X6034158Y-13682674D01*
X6034158Y-13682674D02*
X6053205Y-13673150D01*
X6053205Y-13673150D02*
X6081777Y-13673150D01*
X6081777Y-13673150D02*
X6100824Y-13682674D01*
X6100824Y-13682674D02*
X6110348Y-13701722D01*
X6110348Y-13701722D02*
X6110348Y-13806484D01*
X6205586Y-13806484D02*
X6205586Y-13673150D01*
X6205586Y-13692198D02*
X6215110Y-13682674D01*
X6215110Y-13682674D02*
X6234158Y-13673150D01*
X6234158Y-13673150D02*
X6262729Y-13673150D01*
X6262729Y-13673150D02*
X6281777Y-13682674D01*
X6281777Y-13682674D02*
X6291301Y-13701722D01*
X6291301Y-13701722D02*
X6291301Y-13806484D01*
X6291301Y-13701722D02*
X6300824Y-13682674D01*
X6300824Y-13682674D02*
X6319872Y-13673150D01*
X6319872Y-13673150D02*
X6348443Y-13673150D01*
X6348443Y-13673150D02*
X6367491Y-13682674D01*
X6367491Y-13682674D02*
X6377015Y-13701722D01*
X6377015Y-13701722D02*
X6377015Y-13806484D01*
X6767491Y-13596960D02*
X6596063Y-13854103D01*
X7024634Y-13606484D02*
X7043682Y-13606484D01*
X7043682Y-13606484D02*
X7062729Y-13616008D01*
X7062729Y-13616008D02*
X7072253Y-13625531D01*
X7072253Y-13625531D02*
X7081777Y-13644579D01*
X7081777Y-13644579D02*
X7091301Y-13682674D01*
X7091301Y-13682674D02*
X7091301Y-13730293D01*
X7091301Y-13730293D02*
X7081777Y-13768388D01*
X7081777Y-13768388D02*
X7072253Y-13787436D01*
X7072253Y-13787436D02*
X7062729Y-13796960D01*
X7062729Y-13796960D02*
X7043682Y-13806484D01*
X7043682Y-13806484D02*
X7024634Y-13806484D01*
X7024634Y-13806484D02*
X7005586Y-13796960D01*
X7005586Y-13796960D02*
X6996063Y-13787436D01*
X6996063Y-13787436D02*
X6986539Y-13768388D01*
X6986539Y-13768388D02*
X6977015Y-13730293D01*
X6977015Y-13730293D02*
X6977015Y-13682674D01*
X6977015Y-13682674D02*
X6986539Y-13644579D01*
X6986539Y-13644579D02*
X6996063Y-13625531D01*
X6996063Y-13625531D02*
X7005586Y-13616008D01*
X7005586Y-13616008D02*
X7024634Y-13606484D01*
X7177015Y-13787436D02*
X7186539Y-13796960D01*
X7186539Y-13796960D02*
X7177015Y-13806484D01*
X7177015Y-13806484D02*
X7167491Y-13796960D01*
X7167491Y-13796960D02*
X7177015Y-13787436D01*
X7177015Y-13787436D02*
X7177015Y-13806484D01*
X7377015Y-13806484D02*
X7262729Y-13806484D01*
X7319872Y-13806484D02*
X7319872Y-13606484D01*
X7319872Y-13606484D02*
X7300825Y-13635055D01*
X7300825Y-13635055D02*
X7281777Y-13654103D01*
X7281777Y-13654103D02*
X7262729Y-13663627D01*
X7567491Y-13806484D02*
X7453206Y-13806484D01*
X7510348Y-13806484D02*
X7510348Y-13606484D01*
X7510348Y-13606484D02*
X7491301Y-13635055D01*
X7491301Y-13635055D02*
X7472253Y-13654103D01*
X7472253Y-13654103D02*
X7453206Y-13663627D01*
X7691301Y-13606484D02*
X7710348Y-13606484D01*
X7710348Y-13606484D02*
X7729396Y-13616008D01*
X7729396Y-13616008D02*
X7738920Y-13625531D01*
X7738920Y-13625531D02*
X7748444Y-13644579D01*
X7748444Y-13644579D02*
X7757967Y-13682674D01*
X7757967Y-13682674D02*
X7757967Y-13730293D01*
X7757967Y-13730293D02*
X7748444Y-13768388D01*
X7748444Y-13768388D02*
X7738920Y-13787436D01*
X7738920Y-13787436D02*
X7729396Y-13796960D01*
X7729396Y-13796960D02*
X7710348Y-13806484D01*
X7710348Y-13806484D02*
X7691301Y-13806484D01*
X7691301Y-13806484D02*
X7672253Y-13796960D01*
X7672253Y-13796960D02*
X7662729Y-13787436D01*
X7662729Y-13787436D02*
X7653206Y-13768388D01*
X7653206Y-13768388D02*
X7643682Y-13730293D01*
X7643682Y-13730293D02*
X7643682Y-13682674D01*
X7643682Y-13682674D02*
X7653206Y-13644579D01*
X7653206Y-13644579D02*
X7662729Y-13625531D01*
X7662729Y-13625531D02*
X7672253Y-13616008D01*
X7672253Y-13616008D02*
X7691301Y-13606484D01*
X7834158Y-13625531D02*
X7843682Y-13616008D01*
X7843682Y-13616008D02*
X7862729Y-13606484D01*
X7862729Y-13606484D02*
X7910348Y-13606484D01*
X7910348Y-13606484D02*
X7929396Y-13616008D01*
X7929396Y-13616008D02*
X7938920Y-13625531D01*
X7938920Y-13625531D02*
X7948444Y-13644579D01*
X7948444Y-13644579D02*
X7948444Y-13663627D01*
X7948444Y-13663627D02*
X7938920Y-13692198D01*
X7938920Y-13692198D02*
X7824634Y-13806484D01*
X7824634Y-13806484D02*
X7948444Y-13806484D01*
X8024634Y-13606484D02*
X8024634Y-13644579D01*
X8100825Y-13606484D02*
X8100825Y-13644579D01*
X8396063Y-13882674D02*
X8386539Y-13873150D01*
X8386539Y-13873150D02*
X8367491Y-13844579D01*
X8367491Y-13844579D02*
X8357968Y-13825531D01*
X8357968Y-13825531D02*
X8348444Y-13796960D01*
X8348444Y-13796960D02*
X8338920Y-13749341D01*
X8338920Y-13749341D02*
X8338920Y-13711246D01*
X8338920Y-13711246D02*
X8348444Y-13663627D01*
X8348444Y-13663627D02*
X8357968Y-13635055D01*
X8357968Y-13635055D02*
X8367491Y-13616008D01*
X8367491Y-13616008D02*
X8386539Y-13587436D01*
X8386539Y-13587436D02*
X8396063Y-13577912D01*
X8453206Y-13606484D02*
X8577015Y-13606484D01*
X8577015Y-13606484D02*
X8510349Y-13682674D01*
X8510349Y-13682674D02*
X8538920Y-13682674D01*
X8538920Y-13682674D02*
X8557968Y-13692198D01*
X8557968Y-13692198D02*
X8567491Y-13701722D01*
X8567491Y-13701722D02*
X8577015Y-13720769D01*
X8577015Y-13720769D02*
X8577015Y-13768388D01*
X8577015Y-13768388D02*
X8567491Y-13787436D01*
X8567491Y-13787436D02*
X8557968Y-13796960D01*
X8557968Y-13796960D02*
X8538920Y-13806484D01*
X8538920Y-13806484D02*
X8481777Y-13806484D01*
X8481777Y-13806484D02*
X8462730Y-13796960D01*
X8462730Y-13796960D02*
X8453206Y-13787436D01*
X8815111Y-13806484D02*
X8815111Y-13606484D01*
X8900825Y-13806484D02*
X8900825Y-13701722D01*
X8900825Y-13701722D02*
X8891301Y-13682674D01*
X8891301Y-13682674D02*
X8872253Y-13673150D01*
X8872253Y-13673150D02*
X8843682Y-13673150D01*
X8843682Y-13673150D02*
X8824634Y-13682674D01*
X8824634Y-13682674D02*
X8815111Y-13692198D01*
X9024634Y-13806484D02*
X9005587Y-13796960D01*
X9005587Y-13796960D02*
X8996063Y-13787436D01*
X8996063Y-13787436D02*
X8986539Y-13768388D01*
X8986539Y-13768388D02*
X8986539Y-13711246D01*
X8986539Y-13711246D02*
X8996063Y-13692198D01*
X8996063Y-13692198D02*
X9005587Y-13682674D01*
X9005587Y-13682674D02*
X9024634Y-13673150D01*
X9024634Y-13673150D02*
X9053206Y-13673150D01*
X9053206Y-13673150D02*
X9072253Y-13682674D01*
X9072253Y-13682674D02*
X9081777Y-13692198D01*
X9081777Y-13692198D02*
X9091301Y-13711246D01*
X9091301Y-13711246D02*
X9091301Y-13768388D01*
X9091301Y-13768388D02*
X9081777Y-13787436D01*
X9081777Y-13787436D02*
X9072253Y-13796960D01*
X9072253Y-13796960D02*
X9053206Y-13806484D01*
X9053206Y-13806484D02*
X9024634Y-13806484D01*
X9205587Y-13806484D02*
X9186539Y-13796960D01*
X9186539Y-13796960D02*
X9177015Y-13777912D01*
X9177015Y-13777912D02*
X9177015Y-13606484D01*
X9357968Y-13796960D02*
X9338920Y-13806484D01*
X9338920Y-13806484D02*
X9300825Y-13806484D01*
X9300825Y-13806484D02*
X9281777Y-13796960D01*
X9281777Y-13796960D02*
X9272253Y-13777912D01*
X9272253Y-13777912D02*
X9272253Y-13701722D01*
X9272253Y-13701722D02*
X9281777Y-13682674D01*
X9281777Y-13682674D02*
X9300825Y-13673150D01*
X9300825Y-13673150D02*
X9338920Y-13673150D01*
X9338920Y-13673150D02*
X9357968Y-13682674D01*
X9357968Y-13682674D02*
X9367492Y-13701722D01*
X9367492Y-13701722D02*
X9367492Y-13720769D01*
X9367492Y-13720769D02*
X9272253Y-13739817D01*
X9443682Y-13796960D02*
X9462730Y-13806484D01*
X9462730Y-13806484D02*
X9500825Y-13806484D01*
X9500825Y-13806484D02*
X9519873Y-13796960D01*
X9519873Y-13796960D02*
X9529396Y-13777912D01*
X9529396Y-13777912D02*
X9529396Y-13768388D01*
X9529396Y-13768388D02*
X9519873Y-13749341D01*
X9519873Y-13749341D02*
X9500825Y-13739817D01*
X9500825Y-13739817D02*
X9472253Y-13739817D01*
X9472253Y-13739817D02*
X9453206Y-13730293D01*
X9453206Y-13730293D02*
X9443682Y-13711246D01*
X9443682Y-13711246D02*
X9443682Y-13701722D01*
X9443682Y-13701722D02*
X9453206Y-13682674D01*
X9453206Y-13682674D02*
X9472253Y-13673150D01*
X9472253Y-13673150D02*
X9500825Y-13673150D01*
X9500825Y-13673150D02*
X9519873Y-13682674D01*
X9596063Y-13882674D02*
X9605587Y-13873150D01*
X9605587Y-13873150D02*
X9624634Y-13844579D01*
X9624634Y-13844579D02*
X9634158Y-13825531D01*
X9634158Y-13825531D02*
X9643682Y-13796960D01*
X9643682Y-13796960D02*
X9653206Y-13749341D01*
X9653206Y-13749341D02*
X9653206Y-13711246D01*
X9653206Y-13711246D02*
X9643682Y-13663627D01*
X9643682Y-13663627D02*
X9634158Y-13635055D01*
X9634158Y-13635055D02*
X9624634Y-13616008D01*
X9624634Y-13616008D02*
X9605587Y-13587436D01*
X9605587Y-13587436D02*
X9596063Y-13577912D01*
X4621000Y-13935000D02*
X4821000Y-14135000D01*
X4821000Y-13935000D02*
X4621000Y-14135000D01*
X4791711Y-14105711D02*
X4791711Y-13964289D01*
X4650289Y-13964289D01*
X4650289Y-14105711D01*
X4791711Y-14105711D01*
X5062729Y-13926484D02*
X5186539Y-13926484D01*
X5186539Y-13926484D02*
X5119872Y-14002674D01*
X5119872Y-14002674D02*
X5148444Y-14002674D01*
X5148444Y-14002674D02*
X5167491Y-14012198D01*
X5167491Y-14012198D02*
X5177015Y-14021722D01*
X5177015Y-14021722D02*
X5186539Y-14040769D01*
X5186539Y-14040769D02*
X5186539Y-14088388D01*
X5186539Y-14088388D02*
X5177015Y-14107436D01*
X5177015Y-14107436D02*
X5167491Y-14116960D01*
X5167491Y-14116960D02*
X5148444Y-14126484D01*
X5148444Y-14126484D02*
X5091301Y-14126484D01*
X5091301Y-14126484D02*
X5072253Y-14116960D01*
X5072253Y-14116960D02*
X5062729Y-14107436D01*
X5272253Y-14107436D02*
X5281777Y-14116960D01*
X5281777Y-14116960D02*
X5272253Y-14126484D01*
X5272253Y-14126484D02*
X5262729Y-14116960D01*
X5262729Y-14116960D02*
X5272253Y-14107436D01*
X5272253Y-14107436D02*
X5272253Y-14126484D01*
X5405586Y-13926484D02*
X5424634Y-13926484D01*
X5424634Y-13926484D02*
X5443682Y-13936008D01*
X5443682Y-13936008D02*
X5453205Y-13945531D01*
X5453205Y-13945531D02*
X5462729Y-13964579D01*
X5462729Y-13964579D02*
X5472253Y-14002674D01*
X5472253Y-14002674D02*
X5472253Y-14050293D01*
X5472253Y-14050293D02*
X5462729Y-14088388D01*
X5462729Y-14088388D02*
X5453205Y-14107436D01*
X5453205Y-14107436D02*
X5443682Y-14116960D01*
X5443682Y-14116960D02*
X5424634Y-14126484D01*
X5424634Y-14126484D02*
X5405586Y-14126484D01*
X5405586Y-14126484D02*
X5386539Y-14116960D01*
X5386539Y-14116960D02*
X5377015Y-14107436D01*
X5377015Y-14107436D02*
X5367491Y-14088388D01*
X5367491Y-14088388D02*
X5357967Y-14050293D01*
X5357967Y-14050293D02*
X5357967Y-14002674D01*
X5357967Y-14002674D02*
X5367491Y-13964579D01*
X5367491Y-13964579D02*
X5377015Y-13945531D01*
X5377015Y-13945531D02*
X5386539Y-13936008D01*
X5386539Y-13936008D02*
X5405586Y-13926484D01*
X5643682Y-13993150D02*
X5643682Y-14126484D01*
X5596062Y-13916960D02*
X5548444Y-14059817D01*
X5548444Y-14059817D02*
X5672253Y-14059817D01*
X5777015Y-14012198D02*
X5757967Y-14002674D01*
X5757967Y-14002674D02*
X5748443Y-13993150D01*
X5748443Y-13993150D02*
X5738920Y-13974103D01*
X5738920Y-13974103D02*
X5738920Y-13964579D01*
X5738920Y-13964579D02*
X5748443Y-13945531D01*
X5748443Y-13945531D02*
X5757967Y-13936008D01*
X5757967Y-13936008D02*
X5777015Y-13926484D01*
X5777015Y-13926484D02*
X5815110Y-13926484D01*
X5815110Y-13926484D02*
X5834158Y-13936008D01*
X5834158Y-13936008D02*
X5843682Y-13945531D01*
X5843682Y-13945531D02*
X5853205Y-13964579D01*
X5853205Y-13964579D02*
X5853205Y-13974103D01*
X5853205Y-13974103D02*
X5843682Y-13993150D01*
X5843682Y-13993150D02*
X5834158Y-14002674D01*
X5834158Y-14002674D02*
X5815110Y-14012198D01*
X5815110Y-14012198D02*
X5777015Y-14012198D01*
X5777015Y-14012198D02*
X5757967Y-14021722D01*
X5757967Y-14021722D02*
X5748443Y-14031246D01*
X5748443Y-14031246D02*
X5738920Y-14050293D01*
X5738920Y-14050293D02*
X5738920Y-14088388D01*
X5738920Y-14088388D02*
X5748443Y-14107436D01*
X5748443Y-14107436D02*
X5757967Y-14116960D01*
X5757967Y-14116960D02*
X5777015Y-14126484D01*
X5777015Y-14126484D02*
X5815110Y-14126484D01*
X5815110Y-14126484D02*
X5834158Y-14116960D01*
X5834158Y-14116960D02*
X5843682Y-14107436D01*
X5843682Y-14107436D02*
X5853205Y-14088388D01*
X5853205Y-14088388D02*
X5853205Y-14050293D01*
X5853205Y-14050293D02*
X5843682Y-14031246D01*
X5843682Y-14031246D02*
X5834158Y-14021722D01*
X5834158Y-14021722D02*
X5815110Y-14012198D01*
X5938920Y-14126484D02*
X5938920Y-13993150D01*
X5938920Y-14012198D02*
X5948443Y-14002674D01*
X5948443Y-14002674D02*
X5967491Y-13993150D01*
X5967491Y-13993150D02*
X5996063Y-13993150D01*
X5996063Y-13993150D02*
X6015110Y-14002674D01*
X6015110Y-14002674D02*
X6024634Y-14021722D01*
X6024634Y-14021722D02*
X6024634Y-14126484D01*
X6024634Y-14021722D02*
X6034158Y-14002674D01*
X6034158Y-14002674D02*
X6053205Y-13993150D01*
X6053205Y-13993150D02*
X6081777Y-13993150D01*
X6081777Y-13993150D02*
X6100824Y-14002674D01*
X6100824Y-14002674D02*
X6110348Y-14021722D01*
X6110348Y-14021722D02*
X6110348Y-14126484D01*
X6205586Y-14126484D02*
X6205586Y-13993150D01*
X6205586Y-14012198D02*
X6215110Y-14002674D01*
X6215110Y-14002674D02*
X6234158Y-13993150D01*
X6234158Y-13993150D02*
X6262729Y-13993150D01*
X6262729Y-13993150D02*
X6281777Y-14002674D01*
X6281777Y-14002674D02*
X6291301Y-14021722D01*
X6291301Y-14021722D02*
X6291301Y-14126484D01*
X6291301Y-14021722D02*
X6300824Y-14002674D01*
X6300824Y-14002674D02*
X6319872Y-13993150D01*
X6319872Y-13993150D02*
X6348443Y-13993150D01*
X6348443Y-13993150D02*
X6367491Y-14002674D01*
X6367491Y-14002674D02*
X6377015Y-14021722D01*
X6377015Y-14021722D02*
X6377015Y-14126484D01*
X6767491Y-13916960D02*
X6596063Y-14174103D01*
X7024634Y-13926484D02*
X7043682Y-13926484D01*
X7043682Y-13926484D02*
X7062729Y-13936008D01*
X7062729Y-13936008D02*
X7072253Y-13945531D01*
X7072253Y-13945531D02*
X7081777Y-13964579D01*
X7081777Y-13964579D02*
X7091301Y-14002674D01*
X7091301Y-14002674D02*
X7091301Y-14050293D01*
X7091301Y-14050293D02*
X7081777Y-14088388D01*
X7081777Y-14088388D02*
X7072253Y-14107436D01*
X7072253Y-14107436D02*
X7062729Y-14116960D01*
X7062729Y-14116960D02*
X7043682Y-14126484D01*
X7043682Y-14126484D02*
X7024634Y-14126484D01*
X7024634Y-14126484D02*
X7005586Y-14116960D01*
X7005586Y-14116960D02*
X6996063Y-14107436D01*
X6996063Y-14107436D02*
X6986539Y-14088388D01*
X6986539Y-14088388D02*
X6977015Y-14050293D01*
X6977015Y-14050293D02*
X6977015Y-14002674D01*
X6977015Y-14002674D02*
X6986539Y-13964579D01*
X6986539Y-13964579D02*
X6996063Y-13945531D01*
X6996063Y-13945531D02*
X7005586Y-13936008D01*
X7005586Y-13936008D02*
X7024634Y-13926484D01*
X7177015Y-14107436D02*
X7186539Y-14116960D01*
X7186539Y-14116960D02*
X7177015Y-14126484D01*
X7177015Y-14126484D02*
X7167491Y-14116960D01*
X7167491Y-14116960D02*
X7177015Y-14107436D01*
X7177015Y-14107436D02*
X7177015Y-14126484D01*
X7377015Y-14126484D02*
X7262729Y-14126484D01*
X7319872Y-14126484D02*
X7319872Y-13926484D01*
X7319872Y-13926484D02*
X7300825Y-13955055D01*
X7300825Y-13955055D02*
X7281777Y-13974103D01*
X7281777Y-13974103D02*
X7262729Y-13983627D01*
X7453206Y-13945531D02*
X7462729Y-13936008D01*
X7462729Y-13936008D02*
X7481777Y-13926484D01*
X7481777Y-13926484D02*
X7529396Y-13926484D01*
X7529396Y-13926484D02*
X7548444Y-13936008D01*
X7548444Y-13936008D02*
X7557967Y-13945531D01*
X7557967Y-13945531D02*
X7567491Y-13964579D01*
X7567491Y-13964579D02*
X7567491Y-13983627D01*
X7567491Y-13983627D02*
X7557967Y-14012198D01*
X7557967Y-14012198D02*
X7443682Y-14126484D01*
X7443682Y-14126484D02*
X7567491Y-14126484D01*
X7691301Y-13926484D02*
X7710348Y-13926484D01*
X7710348Y-13926484D02*
X7729396Y-13936008D01*
X7729396Y-13936008D02*
X7738920Y-13945531D01*
X7738920Y-13945531D02*
X7748444Y-13964579D01*
X7748444Y-13964579D02*
X7757967Y-14002674D01*
X7757967Y-14002674D02*
X7757967Y-14050293D01*
X7757967Y-14050293D02*
X7748444Y-14088388D01*
X7748444Y-14088388D02*
X7738920Y-14107436D01*
X7738920Y-14107436D02*
X7729396Y-14116960D01*
X7729396Y-14116960D02*
X7710348Y-14126484D01*
X7710348Y-14126484D02*
X7691301Y-14126484D01*
X7691301Y-14126484D02*
X7672253Y-14116960D01*
X7672253Y-14116960D02*
X7662729Y-14107436D01*
X7662729Y-14107436D02*
X7653206Y-14088388D01*
X7653206Y-14088388D02*
X7643682Y-14050293D01*
X7643682Y-14050293D02*
X7643682Y-14002674D01*
X7643682Y-14002674D02*
X7653206Y-13964579D01*
X7653206Y-13964579D02*
X7662729Y-13945531D01*
X7662729Y-13945531D02*
X7672253Y-13936008D01*
X7672253Y-13936008D02*
X7691301Y-13926484D01*
X7881777Y-13926484D02*
X7900825Y-13926484D01*
X7900825Y-13926484D02*
X7919872Y-13936008D01*
X7919872Y-13936008D02*
X7929396Y-13945531D01*
X7929396Y-13945531D02*
X7938920Y-13964579D01*
X7938920Y-13964579D02*
X7948444Y-14002674D01*
X7948444Y-14002674D02*
X7948444Y-14050293D01*
X7948444Y-14050293D02*
X7938920Y-14088388D01*
X7938920Y-14088388D02*
X7929396Y-14107436D01*
X7929396Y-14107436D02*
X7919872Y-14116960D01*
X7919872Y-14116960D02*
X7900825Y-14126484D01*
X7900825Y-14126484D02*
X7881777Y-14126484D01*
X7881777Y-14126484D02*
X7862729Y-14116960D01*
X7862729Y-14116960D02*
X7853206Y-14107436D01*
X7853206Y-14107436D02*
X7843682Y-14088388D01*
X7843682Y-14088388D02*
X7834158Y-14050293D01*
X7834158Y-14050293D02*
X7834158Y-14002674D01*
X7834158Y-14002674D02*
X7843682Y-13964579D01*
X7843682Y-13964579D02*
X7853206Y-13945531D01*
X7853206Y-13945531D02*
X7862729Y-13936008D01*
X7862729Y-13936008D02*
X7881777Y-13926484D01*
X8024634Y-13926484D02*
X8024634Y-13964579D01*
X8100825Y-13926484D02*
X8100825Y-13964579D01*
X8396063Y-14202674D02*
X8386539Y-14193150D01*
X8386539Y-14193150D02*
X8367491Y-14164579D01*
X8367491Y-14164579D02*
X8357968Y-14145531D01*
X8357968Y-14145531D02*
X8348444Y-14116960D01*
X8348444Y-14116960D02*
X8338920Y-14069341D01*
X8338920Y-14069341D02*
X8338920Y-14031246D01*
X8338920Y-14031246D02*
X8348444Y-13983627D01*
X8348444Y-13983627D02*
X8357968Y-13955055D01*
X8357968Y-13955055D02*
X8367491Y-13936008D01*
X8367491Y-13936008D02*
X8386539Y-13907436D01*
X8386539Y-13907436D02*
X8396063Y-13897912D01*
X8557968Y-13993150D02*
X8557968Y-14126484D01*
X8510349Y-13916960D02*
X8462730Y-14059817D01*
X8462730Y-14059817D02*
X8586539Y-14059817D01*
X8815111Y-14126484D02*
X8815111Y-13926484D01*
X8900825Y-14126484D02*
X8900825Y-14021722D01*
X8900825Y-14021722D02*
X8891301Y-14002674D01*
X8891301Y-14002674D02*
X8872253Y-13993150D01*
X8872253Y-13993150D02*
X8843682Y-13993150D01*
X8843682Y-13993150D02*
X8824634Y-14002674D01*
X8824634Y-14002674D02*
X8815111Y-14012198D01*
X9024634Y-14126484D02*
X9005587Y-14116960D01*
X9005587Y-14116960D02*
X8996063Y-14107436D01*
X8996063Y-14107436D02*
X8986539Y-14088388D01*
X8986539Y-14088388D02*
X8986539Y-14031246D01*
X8986539Y-14031246D02*
X8996063Y-14012198D01*
X8996063Y-14012198D02*
X9005587Y-14002674D01*
X9005587Y-14002674D02*
X9024634Y-13993150D01*
X9024634Y-13993150D02*
X9053206Y-13993150D01*
X9053206Y-13993150D02*
X9072253Y-14002674D01*
X9072253Y-14002674D02*
X9081777Y-14012198D01*
X9081777Y-14012198D02*
X9091301Y-14031246D01*
X9091301Y-14031246D02*
X9091301Y-14088388D01*
X9091301Y-14088388D02*
X9081777Y-14107436D01*
X9081777Y-14107436D02*
X9072253Y-14116960D01*
X9072253Y-14116960D02*
X9053206Y-14126484D01*
X9053206Y-14126484D02*
X9024634Y-14126484D01*
X9205587Y-14126484D02*
X9186539Y-14116960D01*
X9186539Y-14116960D02*
X9177015Y-14097912D01*
X9177015Y-14097912D02*
X9177015Y-13926484D01*
X9357968Y-14116960D02*
X9338920Y-14126484D01*
X9338920Y-14126484D02*
X9300825Y-14126484D01*
X9300825Y-14126484D02*
X9281777Y-14116960D01*
X9281777Y-14116960D02*
X9272253Y-14097912D01*
X9272253Y-14097912D02*
X9272253Y-14021722D01*
X9272253Y-14021722D02*
X9281777Y-14002674D01*
X9281777Y-14002674D02*
X9300825Y-13993150D01*
X9300825Y-13993150D02*
X9338920Y-13993150D01*
X9338920Y-13993150D02*
X9357968Y-14002674D01*
X9357968Y-14002674D02*
X9367492Y-14021722D01*
X9367492Y-14021722D02*
X9367492Y-14040769D01*
X9367492Y-14040769D02*
X9272253Y-14059817D01*
X9443682Y-14116960D02*
X9462730Y-14126484D01*
X9462730Y-14126484D02*
X9500825Y-14126484D01*
X9500825Y-14126484D02*
X9519873Y-14116960D01*
X9519873Y-14116960D02*
X9529396Y-14097912D01*
X9529396Y-14097912D02*
X9529396Y-14088388D01*
X9529396Y-14088388D02*
X9519873Y-14069341D01*
X9519873Y-14069341D02*
X9500825Y-14059817D01*
X9500825Y-14059817D02*
X9472253Y-14059817D01*
X9472253Y-14059817D02*
X9453206Y-14050293D01*
X9453206Y-14050293D02*
X9443682Y-14031246D01*
X9443682Y-14031246D02*
X9443682Y-14021722D01*
X9443682Y-14021722D02*
X9453206Y-14002674D01*
X9453206Y-14002674D02*
X9472253Y-13993150D01*
X9472253Y-13993150D02*
X9500825Y-13993150D01*
X9500825Y-13993150D02*
X9519873Y-14002674D01*
X9596063Y-14202674D02*
X9605587Y-14193150D01*
X9605587Y-14193150D02*
X9624634Y-14164579D01*
X9624634Y-14164579D02*
X9634158Y-14145531D01*
X9634158Y-14145531D02*
X9643682Y-14116960D01*
X9643682Y-14116960D02*
X9653206Y-14069341D01*
X9653206Y-14069341D02*
X9653206Y-14031246D01*
X9653206Y-14031246D02*
X9643682Y-13983627D01*
X9643682Y-13983627D02*
X9634158Y-13955055D01*
X9634158Y-13955055D02*
X9624634Y-13936008D01*
X9624634Y-13936008D02*
X9605587Y-13907436D01*
X9605587Y-13907436D02*
X9596063Y-13897912D01*
M02*
