%TF.GenerationSoftware,KiCad,Pcbnew,7.0.10*%
%TF.CreationDate,2024-03-12T19:05:43-04:00*%
%TF.ProjectId,current_controller,63757272-656e-4745-9f63-6f6e74726f6c,rev?*%
%TF.SameCoordinates,Original*%
%TF.FileFunction,Paste,Top*%
%TF.FilePolarity,Positive*%
%FSLAX46Y46*%
G04 Gerber Fmt 4.6, Leading zero omitted, Abs format (unit mm)*
G04 Created by KiCad (PCBNEW 7.0.10) date 2024-03-12 19:05:43*
%MOMM*%
%LPD*%
G01*
G04 APERTURE LIST*
G04 Aperture macros list*
%AMRoundRect*
0 Rectangle with rounded corners*
0 $1 Rounding radius*
0 $2 $3 $4 $5 $6 $7 $8 $9 X,Y pos of 4 corners*
0 Add a 4 corners polygon primitive as box body*
4,1,4,$2,$3,$4,$5,$6,$7,$8,$9,$2,$3,0*
0 Add four circle primitives for the rounded corners*
1,1,$1+$1,$2,$3*
1,1,$1+$1,$4,$5*
1,1,$1+$1,$6,$7*
1,1,$1+$1,$8,$9*
0 Add four rect primitives between the rounded corners*
20,1,$1+$1,$2,$3,$4,$5,0*
20,1,$1+$1,$4,$5,$6,$7,0*
20,1,$1+$1,$6,$7,$8,$9,0*
20,1,$1+$1,$8,$9,$2,$3,0*%
G04 Aperture macros list end*
%ADD10R,4.500000X2.000000*%
%ADD11RoundRect,0.250000X0.262500X0.450000X-0.262500X0.450000X-0.262500X-0.450000X0.262500X-0.450000X0*%
%ADD12RoundRect,0.250000X-0.425000X0.450000X-0.425000X-0.450000X0.425000X-0.450000X0.425000X0.450000X0*%
%ADD13RoundRect,0.250000X0.325000X1.100000X-0.325000X1.100000X-0.325000X-1.100000X0.325000X-1.100000X0*%
%ADD14RoundRect,0.150000X0.150000X-0.825000X0.150000X0.825000X-0.150000X0.825000X-0.150000X-0.825000X0*%
%ADD15RoundRect,0.225000X-0.250000X0.225000X-0.250000X-0.225000X0.250000X-0.225000X0.250000X0.225000X0*%
%ADD16RoundRect,0.250000X-0.450000X0.262500X-0.450000X-0.262500X0.450000X-0.262500X0.450000X0.262500X0*%
%ADD17RoundRect,0.150000X-0.150000X0.825000X-0.150000X-0.825000X0.150000X-0.825000X0.150000X0.825000X0*%
%ADD18RoundRect,0.225000X0.250000X-0.225000X0.250000X0.225000X-0.250000X0.225000X-0.250000X-0.225000X0*%
%ADD19RoundRect,0.150000X0.150000X-0.512500X0.150000X0.512500X-0.150000X0.512500X-0.150000X-0.512500X0*%
%ADD20RoundRect,0.250000X-0.262500X-0.450000X0.262500X-0.450000X0.262500X0.450000X-0.262500X0.450000X0*%
%ADD21RoundRect,0.250000X-0.325000X-1.100000X0.325000X-1.100000X0.325000X1.100000X-0.325000X1.100000X0*%
%ADD22RoundRect,0.250000X0.450000X-0.262500X0.450000X0.262500X-0.450000X0.262500X-0.450000X-0.262500X0*%
%ADD23RoundRect,0.125000X0.275000X0.125000X-0.275000X0.125000X-0.275000X-0.125000X0.275000X-0.125000X0*%
%ADD24R,1.500000X2.000000*%
%ADD25R,3.800000X2.000000*%
%ADD26R,2.900000X5.400000*%
%ADD27RoundRect,0.225000X-0.225000X-0.250000X0.225000X-0.250000X0.225000X0.250000X-0.225000X0.250000X0*%
%ADD28RoundRect,0.225000X0.225000X0.250000X-0.225000X0.250000X-0.225000X-0.250000X0.225000X-0.250000X0*%
%ADD29RoundRect,0.125000X0.125000X-0.275000X0.125000X0.275000X-0.125000X0.275000X-0.125000X-0.275000X0*%
%ADD30RoundRect,0.150000X-0.512500X-0.150000X0.512500X-0.150000X0.512500X0.150000X-0.512500X0.150000X0*%
%ADD31R,1.650000X2.410000*%
%ADD32RoundRect,0.250000X-0.300000X-0.300000X0.300000X-0.300000X0.300000X0.300000X-0.300000X0.300000X0*%
G04 APERTURE END LIST*
D10*
%TO.C,L2*%
X100485725Y-62282106D03*
X100485725Y-56682106D03*
%TD*%
D11*
%TO.C,R4*%
X73937500Y-67310000D03*
X72112500Y-67310000D03*
%TD*%
D12*
%TO.C,C7*%
X63500000Y-81200000D03*
X63500000Y-83900000D03*
%TD*%
D13*
%TO.C,C28*%
X80120177Y-95423071D03*
X77170177Y-95423071D03*
%TD*%
D14*
%TO.C,U9*%
X86227500Y-61640702D03*
X87497500Y-61640702D03*
X88767500Y-61640702D03*
X90037500Y-61640702D03*
X90037500Y-56690702D03*
X88767500Y-56690702D03*
X87497500Y-56690702D03*
X86227500Y-56690702D03*
%TD*%
D15*
%TO.C,C13*%
X89800244Y-77936106D03*
X89800244Y-79486106D03*
%TD*%
%TO.C,C12*%
X91688500Y-58631702D03*
X91688500Y-60181702D03*
%TD*%
D16*
%TO.C,R13*%
X107242893Y-91578209D03*
X107242893Y-93403209D03*
%TD*%
%TO.C,R23*%
X93720500Y-58356702D03*
X93720500Y-60181702D03*
%TD*%
%TO.C,R39*%
X93712421Y-75120702D03*
X93712421Y-76945702D03*
%TD*%
%TO.C,R25*%
X88265000Y-87987500D03*
X88265000Y-89812500D03*
%TD*%
D17*
%TO.C,U11*%
X103817687Y-98644558D03*
X102547687Y-98644558D03*
X101277687Y-98644558D03*
X100007687Y-98644558D03*
X100007687Y-103594558D03*
X101277687Y-103594558D03*
X102547687Y-103594558D03*
X103817687Y-103594558D03*
%TD*%
D18*
%TO.C,C4*%
X87451835Y-54293839D03*
X87451835Y-52743839D03*
%TD*%
D19*
%TO.C,Q3*%
X102872105Y-72403090D03*
X104772105Y-72403090D03*
X103822105Y-70128090D03*
%TD*%
D16*
%TO.C,R29*%
X91688500Y-70953202D03*
X91688500Y-72778202D03*
%TD*%
D20*
%TO.C,R26*%
X88902191Y-67422943D03*
X90727191Y-67422943D03*
%TD*%
D21*
%TO.C,C11*%
X105274862Y-106655034D03*
X108224862Y-106655034D03*
%TD*%
D22*
%TO.C,R19*%
X89273199Y-54235085D03*
X89273199Y-52410085D03*
%TD*%
D23*
%TO.C,D2*%
X71604548Y-65307407D03*
X73604548Y-65307407D03*
%TD*%
D24*
%TO.C,U1*%
X73362555Y-71410164D03*
X71062555Y-71410164D03*
D25*
X71062555Y-77710164D03*
D24*
X68762555Y-71410164D03*
%TD*%
D11*
%TO.C,R11*%
X105775058Y-85733949D03*
X103950058Y-85733949D03*
%TD*%
D22*
%TO.C,R38*%
X95752500Y-76108012D03*
X95752500Y-74283012D03*
%TD*%
D15*
%TO.C,C18*%
X59055000Y-86220000D03*
X59055000Y-87770000D03*
%TD*%
D13*
%TO.C,C29*%
X80104298Y-92069500D03*
X77154298Y-92069500D03*
%TD*%
D11*
%TO.C,R21*%
X75454298Y-93974500D03*
X73629298Y-93974500D03*
%TD*%
D14*
%TO.C,U10*%
X85945370Y-75864702D03*
X87215370Y-75864702D03*
X88485370Y-75864702D03*
X89755370Y-75864702D03*
X89755370Y-70914702D03*
X88485370Y-70914702D03*
X87215370Y-70914702D03*
X85945370Y-70914702D03*
%TD*%
D12*
%TO.C,C8*%
X63500000Y-86280000D03*
X63500000Y-88980000D03*
%TD*%
D21*
%TO.C,C30*%
X76630000Y-73660000D03*
X79580000Y-73660000D03*
%TD*%
D26*
%TO.C,L3*%
X63468534Y-97777261D03*
X53568534Y-97777261D03*
%TD*%
D27*
%TO.C,C23*%
X103927893Y-95030709D03*
X105477893Y-95030709D03*
%TD*%
D16*
%TO.C,R31*%
X100869526Y-74243548D03*
X100869526Y-76068548D03*
%TD*%
D18*
%TO.C,C14*%
X87055889Y-68843931D03*
X87055889Y-67293931D03*
%TD*%
D20*
%TO.C,R28*%
X93212500Y-62213702D03*
X95037500Y-62213702D03*
%TD*%
D11*
%TO.C,R27*%
X95244500Y-56117702D03*
X93419500Y-56117702D03*
%TD*%
D22*
%TO.C,R37*%
X103829042Y-68225072D03*
X103829042Y-66400072D03*
%TD*%
D11*
%TO.C,R35*%
X126933956Y-67463952D03*
X125108956Y-67463952D03*
%TD*%
%TO.C,R34*%
X131722500Y-67519777D03*
X129897500Y-67519777D03*
%TD*%
D22*
%TO.C,R36*%
X96840260Y-68263893D03*
X96840260Y-66438893D03*
%TD*%
D11*
%TO.C,R20*%
X71644298Y-96514500D03*
X69819298Y-96514500D03*
%TD*%
D20*
%TO.C,R33*%
X129897500Y-70059777D03*
X131722500Y-70059777D03*
%TD*%
D22*
%TO.C,R14*%
X102864500Y-76108012D03*
X102864500Y-74283012D03*
%TD*%
D13*
%TO.C,C16*%
X97692995Y-98631642D03*
X94742995Y-98631642D03*
%TD*%
D21*
%TO.C,C20*%
X76630000Y-69850000D03*
X79580000Y-69850000D03*
%TD*%
D16*
%TO.C,R22*%
X90805000Y-87987500D03*
X90805000Y-89812500D03*
%TD*%
D18*
%TO.C,C21*%
X93720500Y-80501702D03*
X93720500Y-78951702D03*
%TD*%
D15*
%TO.C,C9*%
X99110802Y-74370445D03*
X99110802Y-75920445D03*
%TD*%
D24*
%TO.C,U3*%
X69064923Y-90167691D03*
X71364923Y-90167691D03*
D25*
X71364923Y-83867691D03*
D24*
X73664923Y-90167691D03*
%TD*%
D26*
%TO.C,L1*%
X63554961Y-71799284D03*
X53654961Y-71799284D03*
%TD*%
D22*
%TO.C,R40*%
X126998379Y-64887442D03*
X126998379Y-63062442D03*
%TD*%
D15*
%TO.C,C10*%
X59055000Y-82410000D03*
X59055000Y-83960000D03*
%TD*%
D20*
%TO.C,R30*%
X85419873Y-78276118D03*
X87244873Y-78276118D03*
%TD*%
D28*
%TO.C,C2*%
X73313332Y-58986955D03*
X71763332Y-58986955D03*
%TD*%
D29*
%TO.C,D4*%
X73623528Y-95807690D03*
X73623528Y-97807690D03*
%TD*%
D20*
%TO.C,R9*%
X69739298Y-93974500D03*
X71564298Y-93974500D03*
%TD*%
D16*
%TO.C,R5*%
X69741682Y-61574210D03*
X69741682Y-63399210D03*
%TD*%
D22*
%TO.C,R24*%
X87624500Y-65562702D03*
X87624500Y-63737702D03*
%TD*%
D15*
%TO.C,C26*%
X102535191Y-105717397D03*
X102535191Y-107267397D03*
%TD*%
D19*
%TO.C,Q1*%
X71588332Y-63394455D03*
X73488332Y-63394455D03*
X72538332Y-61119455D03*
%TD*%
%TO.C,Q4*%
X95877292Y-72373702D03*
X97777292Y-72373702D03*
X96827292Y-70098702D03*
%TD*%
D22*
%TO.C,R41*%
X129897500Y-64979777D03*
X129897500Y-63154777D03*
%TD*%
D15*
%TO.C,C3*%
X90048116Y-63842340D03*
X90048116Y-65392340D03*
%TD*%
D20*
%TO.C,R12*%
X103942127Y-87900140D03*
X105767127Y-87900140D03*
%TD*%
D15*
%TO.C,C27*%
X100022640Y-94791900D03*
X100022640Y-96341900D03*
%TD*%
D27*
%TO.C,C19*%
X69873578Y-101957366D03*
X71423578Y-101957366D03*
%TD*%
D30*
%TO.C,Q2*%
X69551798Y-98424500D03*
X69551798Y-100324500D03*
X71826798Y-99374500D03*
%TD*%
D31*
%TO.C,R45*%
X96492511Y-91079411D03*
X96492511Y-86889411D03*
X99922511Y-91079411D03*
X99922511Y-86889411D03*
%TD*%
D20*
%TO.C,R10*%
X125095000Y-70059777D03*
X126920000Y-70059777D03*
%TD*%
D32*
%TO.C,D3*%
X93586283Y-95440200D03*
X96386283Y-95440200D03*
%TD*%
D11*
%TO.C,R6*%
X73937500Y-69215000D03*
X72112500Y-69215000D03*
%TD*%
D27*
%TO.C,C5*%
X103863895Y-91532913D03*
X105413895Y-91532913D03*
%TD*%
D32*
%TO.C,D1*%
X106136723Y-109806737D03*
X108936723Y-109806737D03*
%TD*%
D27*
%TO.C,C6*%
X103916076Y-93411797D03*
X105466076Y-93411797D03*
%TD*%
D28*
%TO.C,C22*%
X105417500Y-89899702D03*
X103867500Y-89899702D03*
%TD*%
M02*
