M48
; DRILL file {KiCad 7.0.10} date Tuesday, March 12, 2024 at 07:05:45 PM
; FORMAT={-:-/ absolute / inch / decimal}
; #@! TF.CreationDate,2024-03-12T19:05:45-04:00
; #@! TF.GenerationSoftware,Kicad,Pcbnew,7.0.10
; #@! TF.FileFunction,MixedPlating,1,4
FMAT,2
INCH
; #@! TA.AperFunction,Plated,PTH,ViaDrill
T1C0.0157
; #@! TA.AperFunction,Plated,PTH,ComponentDrill
T2C0.0276
; #@! TA.AperFunction,Plated,PTH,ComponentDrill
T3C0.0315
; #@! TA.AperFunction,Plated,PTH,ComponentDrill
T4C0.0350
; #@! TA.AperFunction,Plated,PTH,ComponentDrill
T5C0.0472
; #@! TA.AperFunction,Plated,PTH,ComponentDrill
T6C0.0791
; #@! TA.AperFunction,Plated,PTH,ComponentDrill
T7C0.1102
; #@! TA.AperFunction,Plated,PTH,ViaDrill
T8C0.1200
%
G90
G05
T1
X2.025Y-2.775
X2.025Y-2.875
X2.025Y-3.8
X2.025Y-3.9
X2.0272Y-3.8489
X2.0295Y-2.8268
X2.325Y-3.2
X2.325Y-3.35
X2.325Y-3.5
X2.65Y-3.1
X2.6906Y-3.3298
X2.6906Y-3.4098
X2.7Y-3.0
X2.7Y-3.225
X2.75Y-2.975
X2.75Y-3.125
X2.7706Y-3.2298
X2.7706Y-3.4098
X2.7893Y-2.3221
X2.8Y-2.925
X2.85Y-2.975
X2.85Y-3.125
X2.8506Y-3.2298
X2.8506Y-3.4098
X2.8622Y-3.9735
X2.9Y-3.05
X2.925Y-3.125
X2.9306Y-3.2298
X2.9306Y-3.3098
X2.9306Y-3.4098
X2.95Y-3.075
X3.175Y-2.75
X3.175Y-2.9
X3.2013Y-3.6235
X3.2013Y-3.758
X3.3274Y-3.0817
X3.3948Y-2.6144
X3.425Y-2.85
X3.4448Y-2.0394
X3.4453Y-2.2808
X3.5049Y-3.0684
X3.5354Y-3.155
X3.543Y-2.6089
X3.5829Y-2.5159
X3.6395Y-3.7598
X3.6945Y-3.8829
X3.7Y-3.4144
X3.725Y-3.3644
X3.728Y-3.1682
X3.7698Y-3.0491
X3.7948Y-3.2644
X3.7948Y-3.3144
X3.8448Y-3.2644
X3.8448Y-3.3144
X3.9024Y-2.8814
X3.9383Y-3.6942
X3.9898Y-3.9894
X4.0365Y-4.2453
X4.0448Y-3.5644
X4.0448Y-3.6144
X4.0448Y-3.6644
X4.0448Y-3.7144
X4.0495Y-3.0494
X4.3033Y-4.199
X4.35Y-4.325
X4.8798Y-2.6561
X4.9241Y-2.7999
X5.1484Y-3.1789
X5.2276Y-2.755
X5.25Y-2.6583
T2
X5.075Y-3.0625
X5.075Y-3.1333
X5.1457Y-3.0625
X5.1457Y-3.1333
T3
X3.0356Y-3.9448
X3.0356Y-4.0448
X3.0356Y-4.1448
X3.1Y-2.375
X3.1Y-2.475
X3.1Y-2.575
T4
X2.8Y-2.0
X2.9Y-2.0
X3.8Y-2.0
X3.9Y-2.0
T5
X3.4494Y-4.25
X3.5872Y-4.25
X3.725Y-4.25
T6
X2.7Y-1.8
X3.1Y-1.8
X3.7Y-1.8
X4.1Y-1.8
T7
X4.6228Y-2.0884
X4.9Y-1.616
X4.9Y-1.864
T8
X2.15Y-1.75
X2.15Y-4.25
X5.65Y-1.75
X5.65Y-4.25
M30
