%TF.GenerationSoftware,KiCad,Pcbnew,7.0.10*%
%TF.CreationDate,2024-03-12T19:05:43-04:00*%
%TF.ProjectId,current_controller,63757272-656e-4745-9f63-6f6e74726f6c,rev?*%
%TF.SameCoordinates,Original*%
%TF.FileFunction,Legend,Top*%
%TF.FilePolarity,Positive*%
%FSLAX46Y46*%
G04 Gerber Fmt 4.6, Leading zero omitted, Abs format (unit mm)*
G04 Created by KiCad (PCBNEW 7.0.10) date 2024-03-12 19:05:43*
%MOMM*%
%LPD*%
G01*
G04 APERTURE LIST*
%ADD10C,0.150000*%
%ADD11C,0.300000*%
%ADD12C,0.100000*%
%ADD13C,0.152400*%
%ADD14C,0.120000*%
G04 APERTURE END LIST*
D10*
X64960912Y-50718251D02*
X63960912Y-50718251D01*
X63960912Y-50718251D02*
X64675197Y-50384918D01*
X64675197Y-50384918D02*
X63960912Y-50051585D01*
X63960912Y-50051585D02*
X64960912Y-50051585D01*
X64960912Y-49432537D02*
X64913293Y-49527775D01*
X64913293Y-49527775D02*
X64865673Y-49575394D01*
X64865673Y-49575394D02*
X64770435Y-49623013D01*
X64770435Y-49623013D02*
X64484721Y-49623013D01*
X64484721Y-49623013D02*
X64389483Y-49575394D01*
X64389483Y-49575394D02*
X64341864Y-49527775D01*
X64341864Y-49527775D02*
X64294245Y-49432537D01*
X64294245Y-49432537D02*
X64294245Y-49289680D01*
X64294245Y-49289680D02*
X64341864Y-49194442D01*
X64341864Y-49194442D02*
X64389483Y-49146823D01*
X64389483Y-49146823D02*
X64484721Y-49099204D01*
X64484721Y-49099204D02*
X64770435Y-49099204D01*
X64770435Y-49099204D02*
X64865673Y-49146823D01*
X64865673Y-49146823D02*
X64913293Y-49194442D01*
X64913293Y-49194442D02*
X64960912Y-49289680D01*
X64960912Y-49289680D02*
X64960912Y-49432537D01*
X64960912Y-48242061D02*
X63960912Y-48242061D01*
X64913293Y-48242061D02*
X64960912Y-48337299D01*
X64960912Y-48337299D02*
X64960912Y-48527775D01*
X64960912Y-48527775D02*
X64913293Y-48623013D01*
X64913293Y-48623013D02*
X64865673Y-48670632D01*
X64865673Y-48670632D02*
X64770435Y-48718251D01*
X64770435Y-48718251D02*
X64484721Y-48718251D01*
X64484721Y-48718251D02*
X64389483Y-48670632D01*
X64389483Y-48670632D02*
X64341864Y-48623013D01*
X64341864Y-48623013D02*
X64294245Y-48527775D01*
X64294245Y-48527775D02*
X64294245Y-48337299D01*
X64294245Y-48337299D02*
X64341864Y-48242061D01*
X64294245Y-47337299D02*
X64960912Y-47337299D01*
X64294245Y-47765870D02*
X64818054Y-47765870D01*
X64818054Y-47765870D02*
X64913293Y-47718251D01*
X64913293Y-47718251D02*
X64960912Y-47623013D01*
X64960912Y-47623013D02*
X64960912Y-47480156D01*
X64960912Y-47480156D02*
X64913293Y-47384918D01*
X64913293Y-47384918D02*
X64865673Y-47337299D01*
X64960912Y-46718251D02*
X64913293Y-46813489D01*
X64913293Y-46813489D02*
X64818054Y-46861108D01*
X64818054Y-46861108D02*
X63960912Y-46861108D01*
X64960912Y-45908727D02*
X64437102Y-45908727D01*
X64437102Y-45908727D02*
X64341864Y-45956346D01*
X64341864Y-45956346D02*
X64294245Y-46051584D01*
X64294245Y-46051584D02*
X64294245Y-46242060D01*
X64294245Y-46242060D02*
X64341864Y-46337298D01*
X64913293Y-45908727D02*
X64960912Y-46003965D01*
X64960912Y-46003965D02*
X64960912Y-46242060D01*
X64960912Y-46242060D02*
X64913293Y-46337298D01*
X64913293Y-46337298D02*
X64818054Y-46384917D01*
X64818054Y-46384917D02*
X64722816Y-46384917D01*
X64722816Y-46384917D02*
X64627578Y-46337298D01*
X64627578Y-46337298D02*
X64579959Y-46242060D01*
X64579959Y-46242060D02*
X64579959Y-46003965D01*
X64579959Y-46003965D02*
X64532340Y-45908727D01*
X64294245Y-45575393D02*
X64294245Y-45194441D01*
X63960912Y-45432536D02*
X64818054Y-45432536D01*
X64818054Y-45432536D02*
X64913293Y-45384917D01*
X64913293Y-45384917D02*
X64960912Y-45289679D01*
X64960912Y-45289679D02*
X64960912Y-45194441D01*
X64960912Y-44861107D02*
X64294245Y-44861107D01*
X63960912Y-44861107D02*
X64008531Y-44908726D01*
X64008531Y-44908726D02*
X64056150Y-44861107D01*
X64056150Y-44861107D02*
X64008531Y-44813488D01*
X64008531Y-44813488D02*
X63960912Y-44861107D01*
X63960912Y-44861107D02*
X64056150Y-44861107D01*
X64960912Y-44242060D02*
X64913293Y-44337298D01*
X64913293Y-44337298D02*
X64865673Y-44384917D01*
X64865673Y-44384917D02*
X64770435Y-44432536D01*
X64770435Y-44432536D02*
X64484721Y-44432536D01*
X64484721Y-44432536D02*
X64389483Y-44384917D01*
X64389483Y-44384917D02*
X64341864Y-44337298D01*
X64341864Y-44337298D02*
X64294245Y-44242060D01*
X64294245Y-44242060D02*
X64294245Y-44099203D01*
X64294245Y-44099203D02*
X64341864Y-44003965D01*
X64341864Y-44003965D02*
X64389483Y-43956346D01*
X64389483Y-43956346D02*
X64484721Y-43908727D01*
X64484721Y-43908727D02*
X64770435Y-43908727D01*
X64770435Y-43908727D02*
X64865673Y-43956346D01*
X64865673Y-43956346D02*
X64913293Y-44003965D01*
X64913293Y-44003965D02*
X64960912Y-44099203D01*
X64960912Y-44099203D02*
X64960912Y-44242060D01*
X64294245Y-43480155D02*
X64960912Y-43480155D01*
X64389483Y-43480155D02*
X64341864Y-43432536D01*
X64341864Y-43432536D02*
X64294245Y-43337298D01*
X64294245Y-43337298D02*
X64294245Y-43194441D01*
X64294245Y-43194441D02*
X64341864Y-43099203D01*
X64341864Y-43099203D02*
X64437102Y-43051584D01*
X64437102Y-43051584D02*
X64960912Y-43051584D01*
X64960912Y-41813488D02*
X63960912Y-41813488D01*
X64294245Y-41337298D02*
X64960912Y-41337298D01*
X64389483Y-41337298D02*
X64341864Y-41289679D01*
X64341864Y-41289679D02*
X64294245Y-41194441D01*
X64294245Y-41194441D02*
X64294245Y-41051584D01*
X64294245Y-41051584D02*
X64341864Y-40956346D01*
X64341864Y-40956346D02*
X64437102Y-40908727D01*
X64437102Y-40908727D02*
X64960912Y-40908727D01*
X64294245Y-40432536D02*
X65294245Y-40432536D01*
X64341864Y-40432536D02*
X64294245Y-40337298D01*
X64294245Y-40337298D02*
X64294245Y-40146822D01*
X64294245Y-40146822D02*
X64341864Y-40051584D01*
X64341864Y-40051584D02*
X64389483Y-40003965D01*
X64389483Y-40003965D02*
X64484721Y-39956346D01*
X64484721Y-39956346D02*
X64770435Y-39956346D01*
X64770435Y-39956346D02*
X64865673Y-40003965D01*
X64865673Y-40003965D02*
X64913293Y-40051584D01*
X64913293Y-40051584D02*
X64960912Y-40146822D01*
X64960912Y-40146822D02*
X64960912Y-40337298D01*
X64960912Y-40337298D02*
X64913293Y-40432536D01*
X64294245Y-39099203D02*
X64960912Y-39099203D01*
X64294245Y-39527774D02*
X64818054Y-39527774D01*
X64818054Y-39527774D02*
X64913293Y-39480155D01*
X64913293Y-39480155D02*
X64960912Y-39384917D01*
X64960912Y-39384917D02*
X64960912Y-39242060D01*
X64960912Y-39242060D02*
X64913293Y-39146822D01*
X64913293Y-39146822D02*
X64865673Y-39099203D01*
X64294245Y-38765869D02*
X64294245Y-38384917D01*
X63960912Y-38623012D02*
X64818054Y-38623012D01*
X64818054Y-38623012D02*
X64913293Y-38575393D01*
X64913293Y-38575393D02*
X64960912Y-38480155D01*
X64960912Y-38480155D02*
X64960912Y-38384917D01*
X108332652Y-47266406D02*
X108332652Y-47742596D01*
X108332652Y-47742596D02*
X107332652Y-47742596D01*
X108332652Y-46504501D02*
X107808842Y-46504501D01*
X107808842Y-46504501D02*
X107713604Y-46552120D01*
X107713604Y-46552120D02*
X107665985Y-46647358D01*
X107665985Y-46647358D02*
X107665985Y-46837834D01*
X107665985Y-46837834D02*
X107713604Y-46933072D01*
X108285033Y-46504501D02*
X108332652Y-46599739D01*
X108332652Y-46599739D02*
X108332652Y-46837834D01*
X108332652Y-46837834D02*
X108285033Y-46933072D01*
X108285033Y-46933072D02*
X108189794Y-46980691D01*
X108189794Y-46980691D02*
X108094556Y-46980691D01*
X108094556Y-46980691D02*
X107999318Y-46933072D01*
X107999318Y-46933072D02*
X107951699Y-46837834D01*
X107951699Y-46837834D02*
X107951699Y-46599739D01*
X107951699Y-46599739D02*
X107904080Y-46504501D01*
X108285033Y-46075929D02*
X108332652Y-45980691D01*
X108332652Y-45980691D02*
X108332652Y-45790215D01*
X108332652Y-45790215D02*
X108285033Y-45694977D01*
X108285033Y-45694977D02*
X108189794Y-45647358D01*
X108189794Y-45647358D02*
X108142175Y-45647358D01*
X108142175Y-45647358D02*
X108046937Y-45694977D01*
X108046937Y-45694977D02*
X107999318Y-45790215D01*
X107999318Y-45790215D02*
X107999318Y-45933072D01*
X107999318Y-45933072D02*
X107951699Y-46028310D01*
X107951699Y-46028310D02*
X107856461Y-46075929D01*
X107856461Y-46075929D02*
X107808842Y-46075929D01*
X107808842Y-46075929D02*
X107713604Y-46028310D01*
X107713604Y-46028310D02*
X107665985Y-45933072D01*
X107665985Y-45933072D02*
X107665985Y-45790215D01*
X107665985Y-45790215D02*
X107713604Y-45694977D01*
X108285033Y-44837834D02*
X108332652Y-44933072D01*
X108332652Y-44933072D02*
X108332652Y-45123548D01*
X108332652Y-45123548D02*
X108285033Y-45218786D01*
X108285033Y-45218786D02*
X108189794Y-45266405D01*
X108189794Y-45266405D02*
X107808842Y-45266405D01*
X107808842Y-45266405D02*
X107713604Y-45218786D01*
X107713604Y-45218786D02*
X107665985Y-45123548D01*
X107665985Y-45123548D02*
X107665985Y-44933072D01*
X107665985Y-44933072D02*
X107713604Y-44837834D01*
X107713604Y-44837834D02*
X107808842Y-44790215D01*
X107808842Y-44790215D02*
X107904080Y-44790215D01*
X107904080Y-44790215D02*
X107999318Y-45266405D01*
X108332652Y-44361643D02*
X107665985Y-44361643D01*
X107856461Y-44361643D02*
X107761223Y-44314024D01*
X107761223Y-44314024D02*
X107713604Y-44266405D01*
X107713604Y-44266405D02*
X107665985Y-44171167D01*
X107665985Y-44171167D02*
X107665985Y-44075929D01*
X108332652Y-42837833D02*
X108285033Y-42933071D01*
X108285033Y-42933071D02*
X108237413Y-42980690D01*
X108237413Y-42980690D02*
X108142175Y-43028309D01*
X108142175Y-43028309D02*
X107856461Y-43028309D01*
X107856461Y-43028309D02*
X107761223Y-42980690D01*
X107761223Y-42980690D02*
X107713604Y-42933071D01*
X107713604Y-42933071D02*
X107665985Y-42837833D01*
X107665985Y-42837833D02*
X107665985Y-42694976D01*
X107665985Y-42694976D02*
X107713604Y-42599738D01*
X107713604Y-42599738D02*
X107761223Y-42552119D01*
X107761223Y-42552119D02*
X107856461Y-42504500D01*
X107856461Y-42504500D02*
X108142175Y-42504500D01*
X108142175Y-42504500D02*
X108237413Y-42552119D01*
X108237413Y-42552119D02*
X108285033Y-42599738D01*
X108285033Y-42599738D02*
X108332652Y-42694976D01*
X108332652Y-42694976D02*
X108332652Y-42837833D01*
X107665985Y-41647357D02*
X108332652Y-41647357D01*
X107665985Y-42075928D02*
X108189794Y-42075928D01*
X108189794Y-42075928D02*
X108285033Y-42028309D01*
X108285033Y-42028309D02*
X108332652Y-41933071D01*
X108332652Y-41933071D02*
X108332652Y-41790214D01*
X108332652Y-41790214D02*
X108285033Y-41694976D01*
X108285033Y-41694976D02*
X108237413Y-41647357D01*
X107665985Y-41314023D02*
X107665985Y-40933071D01*
X107332652Y-41171166D02*
X108189794Y-41171166D01*
X108189794Y-41171166D02*
X108285033Y-41123547D01*
X108285033Y-41123547D02*
X108332652Y-41028309D01*
X108332652Y-41028309D02*
X108332652Y-40933071D01*
X107665985Y-40599737D02*
X108665985Y-40599737D01*
X107713604Y-40599737D02*
X107665985Y-40504499D01*
X107665985Y-40504499D02*
X107665985Y-40314023D01*
X107665985Y-40314023D02*
X107713604Y-40218785D01*
X107713604Y-40218785D02*
X107761223Y-40171166D01*
X107761223Y-40171166D02*
X107856461Y-40123547D01*
X107856461Y-40123547D02*
X108142175Y-40123547D01*
X108142175Y-40123547D02*
X108237413Y-40171166D01*
X108237413Y-40171166D02*
X108285033Y-40218785D01*
X108285033Y-40218785D02*
X108332652Y-40314023D01*
X108332652Y-40314023D02*
X108332652Y-40504499D01*
X108332652Y-40504499D02*
X108285033Y-40599737D01*
X107665985Y-39266404D02*
X108332652Y-39266404D01*
X107665985Y-39694975D02*
X108189794Y-39694975D01*
X108189794Y-39694975D02*
X108285033Y-39647356D01*
X108285033Y-39647356D02*
X108332652Y-39552118D01*
X108332652Y-39552118D02*
X108332652Y-39409261D01*
X108332652Y-39409261D02*
X108285033Y-39314023D01*
X108285033Y-39314023D02*
X108237413Y-39266404D01*
X107665985Y-38933070D02*
X107665985Y-38552118D01*
X107332652Y-38790213D02*
X108189794Y-38790213D01*
X108189794Y-38790213D02*
X108285033Y-38742594D01*
X108285033Y-38742594D02*
X108332652Y-38647356D01*
X108332652Y-38647356D02*
X108332652Y-38552118D01*
X126986365Y-94830892D02*
X126986365Y-95545177D01*
X126986365Y-95545177D02*
X126938746Y-95688034D01*
X126938746Y-95688034D02*
X126843508Y-95783273D01*
X126843508Y-95783273D02*
X126700651Y-95830892D01*
X126700651Y-95830892D02*
X126605413Y-95830892D01*
X127462556Y-95830892D02*
X127462556Y-94830892D01*
X128414936Y-95830892D02*
X127938746Y-95830892D01*
X127938746Y-95830892D02*
X127938746Y-94830892D01*
X128700651Y-95545177D02*
X129176841Y-95545177D01*
X128605413Y-95830892D02*
X128938746Y-94830892D01*
X128938746Y-94830892D02*
X129272079Y-95830892D01*
X130367318Y-95830892D02*
X130367318Y-94830892D01*
X130367318Y-94830892D02*
X130605413Y-94830892D01*
X130605413Y-94830892D02*
X130748270Y-94878511D01*
X130748270Y-94878511D02*
X130843508Y-94973749D01*
X130843508Y-94973749D02*
X130891127Y-95068987D01*
X130891127Y-95068987D02*
X130938746Y-95259463D01*
X130938746Y-95259463D02*
X130938746Y-95402320D01*
X130938746Y-95402320D02*
X130891127Y-95592796D01*
X130891127Y-95592796D02*
X130843508Y-95688034D01*
X130843508Y-95688034D02*
X130748270Y-95783273D01*
X130748270Y-95783273D02*
X130605413Y-95830892D01*
X130605413Y-95830892D02*
X130367318Y-95830892D01*
X131748270Y-95783273D02*
X131653032Y-95830892D01*
X131653032Y-95830892D02*
X131462556Y-95830892D01*
X131462556Y-95830892D02*
X131367318Y-95783273D01*
X131367318Y-95783273D02*
X131319699Y-95688034D01*
X131319699Y-95688034D02*
X131319699Y-95307082D01*
X131319699Y-95307082D02*
X131367318Y-95211844D01*
X131367318Y-95211844D02*
X131462556Y-95164225D01*
X131462556Y-95164225D02*
X131653032Y-95164225D01*
X131653032Y-95164225D02*
X131748270Y-95211844D01*
X131748270Y-95211844D02*
X131795889Y-95307082D01*
X131795889Y-95307082D02*
X131795889Y-95402320D01*
X131795889Y-95402320D02*
X131319699Y-95497558D01*
X132176842Y-95783273D02*
X132272080Y-95830892D01*
X132272080Y-95830892D02*
X132462556Y-95830892D01*
X132462556Y-95830892D02*
X132557794Y-95783273D01*
X132557794Y-95783273D02*
X132605413Y-95688034D01*
X132605413Y-95688034D02*
X132605413Y-95640415D01*
X132605413Y-95640415D02*
X132557794Y-95545177D01*
X132557794Y-95545177D02*
X132462556Y-95497558D01*
X132462556Y-95497558D02*
X132319699Y-95497558D01*
X132319699Y-95497558D02*
X132224461Y-95449939D01*
X132224461Y-95449939D02*
X132176842Y-95354701D01*
X132176842Y-95354701D02*
X132176842Y-95307082D01*
X132176842Y-95307082D02*
X132224461Y-95211844D01*
X132224461Y-95211844D02*
X132319699Y-95164225D01*
X132319699Y-95164225D02*
X132462556Y-95164225D01*
X132462556Y-95164225D02*
X132557794Y-95211844D01*
X133033985Y-95830892D02*
X133033985Y-95164225D01*
X133033985Y-94830892D02*
X132986366Y-94878511D01*
X132986366Y-94878511D02*
X133033985Y-94926130D01*
X133033985Y-94926130D02*
X133081604Y-94878511D01*
X133081604Y-94878511D02*
X133033985Y-94830892D01*
X133033985Y-94830892D02*
X133033985Y-94926130D01*
X133938746Y-95164225D02*
X133938746Y-95973749D01*
X133938746Y-95973749D02*
X133891127Y-96068987D01*
X133891127Y-96068987D02*
X133843508Y-96116606D01*
X133843508Y-96116606D02*
X133748270Y-96164225D01*
X133748270Y-96164225D02*
X133605413Y-96164225D01*
X133605413Y-96164225D02*
X133510175Y-96116606D01*
X133938746Y-95783273D02*
X133843508Y-95830892D01*
X133843508Y-95830892D02*
X133653032Y-95830892D01*
X133653032Y-95830892D02*
X133557794Y-95783273D01*
X133557794Y-95783273D02*
X133510175Y-95735653D01*
X133510175Y-95735653D02*
X133462556Y-95640415D01*
X133462556Y-95640415D02*
X133462556Y-95354701D01*
X133462556Y-95354701D02*
X133510175Y-95259463D01*
X133510175Y-95259463D02*
X133557794Y-95211844D01*
X133557794Y-95211844D02*
X133653032Y-95164225D01*
X133653032Y-95164225D02*
X133843508Y-95164225D01*
X133843508Y-95164225D02*
X133938746Y-95211844D01*
X134414937Y-95164225D02*
X134414937Y-95830892D01*
X134414937Y-95259463D02*
X134462556Y-95211844D01*
X134462556Y-95211844D02*
X134557794Y-95164225D01*
X134557794Y-95164225D02*
X134700651Y-95164225D01*
X134700651Y-95164225D02*
X134795889Y-95211844D01*
X134795889Y-95211844D02*
X134843508Y-95307082D01*
X134843508Y-95307082D02*
X134843508Y-95830892D01*
X127272079Y-93925892D02*
X126938746Y-93449701D01*
X126700651Y-93925892D02*
X126700651Y-92925892D01*
X126700651Y-92925892D02*
X127081603Y-92925892D01*
X127081603Y-92925892D02*
X127176841Y-92973511D01*
X127176841Y-92973511D02*
X127224460Y-93021130D01*
X127224460Y-93021130D02*
X127272079Y-93116368D01*
X127272079Y-93116368D02*
X127272079Y-93259225D01*
X127272079Y-93259225D02*
X127224460Y-93354463D01*
X127224460Y-93354463D02*
X127176841Y-93402082D01*
X127176841Y-93402082D02*
X127081603Y-93449701D01*
X127081603Y-93449701D02*
X126700651Y-93449701D01*
X128081603Y-93878273D02*
X127986365Y-93925892D01*
X127986365Y-93925892D02*
X127795889Y-93925892D01*
X127795889Y-93925892D02*
X127700651Y-93878273D01*
X127700651Y-93878273D02*
X127653032Y-93783034D01*
X127653032Y-93783034D02*
X127653032Y-93402082D01*
X127653032Y-93402082D02*
X127700651Y-93306844D01*
X127700651Y-93306844D02*
X127795889Y-93259225D01*
X127795889Y-93259225D02*
X127986365Y-93259225D01*
X127986365Y-93259225D02*
X128081603Y-93306844D01*
X128081603Y-93306844D02*
X128129222Y-93402082D01*
X128129222Y-93402082D02*
X128129222Y-93497320D01*
X128129222Y-93497320D02*
X127653032Y-93592558D01*
X128462556Y-93259225D02*
X128700651Y-93925892D01*
X128700651Y-93925892D02*
X128938746Y-93259225D01*
X130605413Y-93925892D02*
X130033985Y-93925892D01*
X130319699Y-93925892D02*
X130319699Y-92925892D01*
X130319699Y-92925892D02*
X130224461Y-93068749D01*
X130224461Y-93068749D02*
X130129223Y-93163987D01*
X130129223Y-93163987D02*
X130033985Y-93211606D01*
X131033985Y-93830653D02*
X131081604Y-93878273D01*
X131081604Y-93878273D02*
X131033985Y-93925892D01*
X131033985Y-93925892D02*
X130986366Y-93878273D01*
X130986366Y-93878273D02*
X131033985Y-93830653D01*
X131033985Y-93830653D02*
X131033985Y-93925892D01*
X131700651Y-92925892D02*
X131795889Y-92925892D01*
X131795889Y-92925892D02*
X131891127Y-92973511D01*
X131891127Y-92973511D02*
X131938746Y-93021130D01*
X131938746Y-93021130D02*
X131986365Y-93116368D01*
X131986365Y-93116368D02*
X132033984Y-93306844D01*
X132033984Y-93306844D02*
X132033984Y-93544939D01*
X132033984Y-93544939D02*
X131986365Y-93735415D01*
X131986365Y-93735415D02*
X131938746Y-93830653D01*
X131938746Y-93830653D02*
X131891127Y-93878273D01*
X131891127Y-93878273D02*
X131795889Y-93925892D01*
X131795889Y-93925892D02*
X131700651Y-93925892D01*
X131700651Y-93925892D02*
X131605413Y-93878273D01*
X131605413Y-93878273D02*
X131557794Y-93830653D01*
X131557794Y-93830653D02*
X131510175Y-93735415D01*
X131510175Y-93735415D02*
X131462556Y-93544939D01*
X131462556Y-93544939D02*
X131462556Y-93306844D01*
X131462556Y-93306844D02*
X131510175Y-93116368D01*
X131510175Y-93116368D02*
X131557794Y-93021130D01*
X131557794Y-93021130D02*
X131605413Y-92973511D01*
X131605413Y-92973511D02*
X131700651Y-92925892D01*
X127176841Y-92020892D02*
X126700651Y-92020892D01*
X126700651Y-92020892D02*
X126700651Y-91020892D01*
X127938746Y-92020892D02*
X127938746Y-91497082D01*
X127938746Y-91497082D02*
X127891127Y-91401844D01*
X127891127Y-91401844D02*
X127795889Y-91354225D01*
X127795889Y-91354225D02*
X127605413Y-91354225D01*
X127605413Y-91354225D02*
X127510175Y-91401844D01*
X127938746Y-91973273D02*
X127843508Y-92020892D01*
X127843508Y-92020892D02*
X127605413Y-92020892D01*
X127605413Y-92020892D02*
X127510175Y-91973273D01*
X127510175Y-91973273D02*
X127462556Y-91878034D01*
X127462556Y-91878034D02*
X127462556Y-91782796D01*
X127462556Y-91782796D02*
X127510175Y-91687558D01*
X127510175Y-91687558D02*
X127605413Y-91639939D01*
X127605413Y-91639939D02*
X127843508Y-91639939D01*
X127843508Y-91639939D02*
X127938746Y-91592320D01*
X128367318Y-91973273D02*
X128462556Y-92020892D01*
X128462556Y-92020892D02*
X128653032Y-92020892D01*
X128653032Y-92020892D02*
X128748270Y-91973273D01*
X128748270Y-91973273D02*
X128795889Y-91878034D01*
X128795889Y-91878034D02*
X128795889Y-91830415D01*
X128795889Y-91830415D02*
X128748270Y-91735177D01*
X128748270Y-91735177D02*
X128653032Y-91687558D01*
X128653032Y-91687558D02*
X128510175Y-91687558D01*
X128510175Y-91687558D02*
X128414937Y-91639939D01*
X128414937Y-91639939D02*
X128367318Y-91544701D01*
X128367318Y-91544701D02*
X128367318Y-91497082D01*
X128367318Y-91497082D02*
X128414937Y-91401844D01*
X128414937Y-91401844D02*
X128510175Y-91354225D01*
X128510175Y-91354225D02*
X128653032Y-91354225D01*
X128653032Y-91354225D02*
X128748270Y-91401844D01*
X129605413Y-91973273D02*
X129510175Y-92020892D01*
X129510175Y-92020892D02*
X129319699Y-92020892D01*
X129319699Y-92020892D02*
X129224461Y-91973273D01*
X129224461Y-91973273D02*
X129176842Y-91878034D01*
X129176842Y-91878034D02*
X129176842Y-91497082D01*
X129176842Y-91497082D02*
X129224461Y-91401844D01*
X129224461Y-91401844D02*
X129319699Y-91354225D01*
X129319699Y-91354225D02*
X129510175Y-91354225D01*
X129510175Y-91354225D02*
X129605413Y-91401844D01*
X129605413Y-91401844D02*
X129653032Y-91497082D01*
X129653032Y-91497082D02*
X129653032Y-91592320D01*
X129653032Y-91592320D02*
X129176842Y-91687558D01*
X130081604Y-92020892D02*
X130081604Y-91354225D01*
X130081604Y-91544701D02*
X130129223Y-91449463D01*
X130129223Y-91449463D02*
X130176842Y-91401844D01*
X130176842Y-91401844D02*
X130272080Y-91354225D01*
X130272080Y-91354225D02*
X130367318Y-91354225D01*
X131891128Y-91973273D02*
X131795890Y-92020892D01*
X131795890Y-92020892D02*
X131605414Y-92020892D01*
X131605414Y-92020892D02*
X131510176Y-91973273D01*
X131510176Y-91973273D02*
X131462557Y-91925653D01*
X131462557Y-91925653D02*
X131414938Y-91830415D01*
X131414938Y-91830415D02*
X131414938Y-91544701D01*
X131414938Y-91544701D02*
X131462557Y-91449463D01*
X131462557Y-91449463D02*
X131510176Y-91401844D01*
X131510176Y-91401844D02*
X131605414Y-91354225D01*
X131605414Y-91354225D02*
X131795890Y-91354225D01*
X131795890Y-91354225D02*
X131891128Y-91401844D01*
X132748271Y-91354225D02*
X132748271Y-92020892D01*
X132319700Y-91354225D02*
X132319700Y-91878034D01*
X132319700Y-91878034D02*
X132367319Y-91973273D01*
X132367319Y-91973273D02*
X132462557Y-92020892D01*
X132462557Y-92020892D02*
X132605414Y-92020892D01*
X132605414Y-92020892D02*
X132700652Y-91973273D01*
X132700652Y-91973273D02*
X132748271Y-91925653D01*
X133224462Y-92020892D02*
X133224462Y-91354225D01*
X133224462Y-91544701D02*
X133272081Y-91449463D01*
X133272081Y-91449463D02*
X133319700Y-91401844D01*
X133319700Y-91401844D02*
X133414938Y-91354225D01*
X133414938Y-91354225D02*
X133510176Y-91354225D01*
X133843510Y-92020892D02*
X133843510Y-91354225D01*
X133843510Y-91544701D02*
X133891129Y-91449463D01*
X133891129Y-91449463D02*
X133938748Y-91401844D01*
X133938748Y-91401844D02*
X134033986Y-91354225D01*
X134033986Y-91354225D02*
X134129224Y-91354225D01*
X134843510Y-91973273D02*
X134748272Y-92020892D01*
X134748272Y-92020892D02*
X134557796Y-92020892D01*
X134557796Y-92020892D02*
X134462558Y-91973273D01*
X134462558Y-91973273D02*
X134414939Y-91878034D01*
X134414939Y-91878034D02*
X134414939Y-91497082D01*
X134414939Y-91497082D02*
X134462558Y-91401844D01*
X134462558Y-91401844D02*
X134557796Y-91354225D01*
X134557796Y-91354225D02*
X134748272Y-91354225D01*
X134748272Y-91354225D02*
X134843510Y-91401844D01*
X134843510Y-91401844D02*
X134891129Y-91497082D01*
X134891129Y-91497082D02*
X134891129Y-91592320D01*
X134891129Y-91592320D02*
X134414939Y-91687558D01*
X135319701Y-91354225D02*
X135319701Y-92020892D01*
X135319701Y-91449463D02*
X135367320Y-91401844D01*
X135367320Y-91401844D02*
X135462558Y-91354225D01*
X135462558Y-91354225D02*
X135605415Y-91354225D01*
X135605415Y-91354225D02*
X135700653Y-91401844D01*
X135700653Y-91401844D02*
X135748272Y-91497082D01*
X135748272Y-91497082D02*
X135748272Y-92020892D01*
X136081606Y-91354225D02*
X136462558Y-91354225D01*
X136224463Y-91020892D02*
X136224463Y-91878034D01*
X136224463Y-91878034D02*
X136272082Y-91973273D01*
X136272082Y-91973273D02*
X136367320Y-92020892D01*
X136367320Y-92020892D02*
X136462558Y-92020892D01*
X137986368Y-91973273D02*
X137891130Y-92020892D01*
X137891130Y-92020892D02*
X137700654Y-92020892D01*
X137700654Y-92020892D02*
X137605416Y-91973273D01*
X137605416Y-91973273D02*
X137557797Y-91925653D01*
X137557797Y-91925653D02*
X137510178Y-91830415D01*
X137510178Y-91830415D02*
X137510178Y-91544701D01*
X137510178Y-91544701D02*
X137557797Y-91449463D01*
X137557797Y-91449463D02*
X137605416Y-91401844D01*
X137605416Y-91401844D02*
X137700654Y-91354225D01*
X137700654Y-91354225D02*
X137891130Y-91354225D01*
X137891130Y-91354225D02*
X137986368Y-91401844D01*
X138557797Y-92020892D02*
X138462559Y-91973273D01*
X138462559Y-91973273D02*
X138414940Y-91925653D01*
X138414940Y-91925653D02*
X138367321Y-91830415D01*
X138367321Y-91830415D02*
X138367321Y-91544701D01*
X138367321Y-91544701D02*
X138414940Y-91449463D01*
X138414940Y-91449463D02*
X138462559Y-91401844D01*
X138462559Y-91401844D02*
X138557797Y-91354225D01*
X138557797Y-91354225D02*
X138700654Y-91354225D01*
X138700654Y-91354225D02*
X138795892Y-91401844D01*
X138795892Y-91401844D02*
X138843511Y-91449463D01*
X138843511Y-91449463D02*
X138891130Y-91544701D01*
X138891130Y-91544701D02*
X138891130Y-91830415D01*
X138891130Y-91830415D02*
X138843511Y-91925653D01*
X138843511Y-91925653D02*
X138795892Y-91973273D01*
X138795892Y-91973273D02*
X138700654Y-92020892D01*
X138700654Y-92020892D02*
X138557797Y-92020892D01*
X139319702Y-91354225D02*
X139319702Y-92020892D01*
X139319702Y-91449463D02*
X139367321Y-91401844D01*
X139367321Y-91401844D02*
X139462559Y-91354225D01*
X139462559Y-91354225D02*
X139605416Y-91354225D01*
X139605416Y-91354225D02*
X139700654Y-91401844D01*
X139700654Y-91401844D02*
X139748273Y-91497082D01*
X139748273Y-91497082D02*
X139748273Y-92020892D01*
X140081607Y-91354225D02*
X140462559Y-91354225D01*
X140224464Y-91020892D02*
X140224464Y-91878034D01*
X140224464Y-91878034D02*
X140272083Y-91973273D01*
X140272083Y-91973273D02*
X140367321Y-92020892D01*
X140367321Y-92020892D02*
X140462559Y-92020892D01*
X140795893Y-92020892D02*
X140795893Y-91354225D01*
X140795893Y-91544701D02*
X140843512Y-91449463D01*
X140843512Y-91449463D02*
X140891131Y-91401844D01*
X140891131Y-91401844D02*
X140986369Y-91354225D01*
X140986369Y-91354225D02*
X141081607Y-91354225D01*
X141557798Y-92020892D02*
X141462560Y-91973273D01*
X141462560Y-91973273D02*
X141414941Y-91925653D01*
X141414941Y-91925653D02*
X141367322Y-91830415D01*
X141367322Y-91830415D02*
X141367322Y-91544701D01*
X141367322Y-91544701D02*
X141414941Y-91449463D01*
X141414941Y-91449463D02*
X141462560Y-91401844D01*
X141462560Y-91401844D02*
X141557798Y-91354225D01*
X141557798Y-91354225D02*
X141700655Y-91354225D01*
X141700655Y-91354225D02*
X141795893Y-91401844D01*
X141795893Y-91401844D02*
X141843512Y-91449463D01*
X141843512Y-91449463D02*
X141891131Y-91544701D01*
X141891131Y-91544701D02*
X141891131Y-91830415D01*
X141891131Y-91830415D02*
X141843512Y-91925653D01*
X141843512Y-91925653D02*
X141795893Y-91973273D01*
X141795893Y-91973273D02*
X141700655Y-92020892D01*
X141700655Y-92020892D02*
X141557798Y-92020892D01*
X142462560Y-92020892D02*
X142367322Y-91973273D01*
X142367322Y-91973273D02*
X142319703Y-91878034D01*
X142319703Y-91878034D02*
X142319703Y-91020892D01*
X142986370Y-92020892D02*
X142891132Y-91973273D01*
X142891132Y-91973273D02*
X142843513Y-91878034D01*
X142843513Y-91878034D02*
X142843513Y-91020892D01*
X143748275Y-91973273D02*
X143653037Y-92020892D01*
X143653037Y-92020892D02*
X143462561Y-92020892D01*
X143462561Y-92020892D02*
X143367323Y-91973273D01*
X143367323Y-91973273D02*
X143319704Y-91878034D01*
X143319704Y-91878034D02*
X143319704Y-91497082D01*
X143319704Y-91497082D02*
X143367323Y-91401844D01*
X143367323Y-91401844D02*
X143462561Y-91354225D01*
X143462561Y-91354225D02*
X143653037Y-91354225D01*
X143653037Y-91354225D02*
X143748275Y-91401844D01*
X143748275Y-91401844D02*
X143795894Y-91497082D01*
X143795894Y-91497082D02*
X143795894Y-91592320D01*
X143795894Y-91592320D02*
X143319704Y-91687558D01*
X144224466Y-92020892D02*
X144224466Y-91354225D01*
X144224466Y-91544701D02*
X144272085Y-91449463D01*
X144272085Y-91449463D02*
X144319704Y-91401844D01*
X144319704Y-91401844D02*
X144414942Y-91354225D01*
X144414942Y-91354225D02*
X144510180Y-91354225D01*
X90470653Y-102812877D02*
X90375415Y-102765258D01*
X90375415Y-102765258D02*
X90232558Y-102765258D01*
X90232558Y-102765258D02*
X90089701Y-102812877D01*
X90089701Y-102812877D02*
X89994463Y-102908115D01*
X89994463Y-102908115D02*
X89946844Y-103003353D01*
X89946844Y-103003353D02*
X89899225Y-103193829D01*
X89899225Y-103193829D02*
X89899225Y-103336686D01*
X89899225Y-103336686D02*
X89946844Y-103527162D01*
X89946844Y-103527162D02*
X89994463Y-103622400D01*
X89994463Y-103622400D02*
X90089701Y-103717639D01*
X90089701Y-103717639D02*
X90232558Y-103765258D01*
X90232558Y-103765258D02*
X90327796Y-103765258D01*
X90327796Y-103765258D02*
X90470653Y-103717639D01*
X90470653Y-103717639D02*
X90518272Y-103670019D01*
X90518272Y-103670019D02*
X90518272Y-103336686D01*
X90518272Y-103336686D02*
X90327796Y-103336686D01*
X90946844Y-103765258D02*
X90946844Y-102765258D01*
X90946844Y-102765258D02*
X91518272Y-103765258D01*
X91518272Y-103765258D02*
X91518272Y-102765258D01*
X91994463Y-103765258D02*
X91994463Y-102765258D01*
X91994463Y-102765258D02*
X92232558Y-102765258D01*
X92232558Y-102765258D02*
X92375415Y-102812877D01*
X92375415Y-102812877D02*
X92470653Y-102908115D01*
X92470653Y-102908115D02*
X92518272Y-103003353D01*
X92518272Y-103003353D02*
X92565891Y-103193829D01*
X92565891Y-103193829D02*
X92565891Y-103336686D01*
X92565891Y-103336686D02*
X92518272Y-103527162D01*
X92518272Y-103527162D02*
X92470653Y-103622400D01*
X92470653Y-103622400D02*
X92375415Y-103717639D01*
X92375415Y-103717639D02*
X92232558Y-103765258D01*
X92232558Y-103765258D02*
X91994463Y-103765258D01*
D11*
X98924400Y-110570489D02*
X98924400Y-109427632D01*
X99495828Y-107927631D02*
X99495828Y-108784774D01*
X99495828Y-108356203D02*
X97995828Y-108356203D01*
X97995828Y-108356203D02*
X98210114Y-108499060D01*
X98210114Y-108499060D02*
X98352971Y-108641917D01*
X98352971Y-108641917D02*
X98424400Y-108784774D01*
X97995828Y-106570489D02*
X97995828Y-107284775D01*
X97995828Y-107284775D02*
X98710114Y-107356203D01*
X98710114Y-107356203D02*
X98638685Y-107284775D01*
X98638685Y-107284775D02*
X98567257Y-107141918D01*
X98567257Y-107141918D02*
X98567257Y-106784775D01*
X98567257Y-106784775D02*
X98638685Y-106641918D01*
X98638685Y-106641918D02*
X98710114Y-106570489D01*
X98710114Y-106570489D02*
X98852971Y-106499060D01*
X98852971Y-106499060D02*
X99210114Y-106499060D01*
X99210114Y-106499060D02*
X99352971Y-106570489D01*
X99352971Y-106570489D02*
X99424400Y-106641918D01*
X99424400Y-106641918D02*
X99495828Y-106784775D01*
X99495828Y-106784775D02*
X99495828Y-107141918D01*
X99495828Y-107141918D02*
X99424400Y-107284775D01*
X99424400Y-107284775D02*
X99352971Y-107356203D01*
X97995828Y-106070489D02*
X99495828Y-105570489D01*
X99495828Y-105570489D02*
X97995828Y-105070489D01*
X83049400Y-110570489D02*
X83049400Y-109427632D01*
X83620828Y-109999060D02*
X82477971Y-109999060D01*
X83620828Y-107927631D02*
X83620828Y-108784774D01*
X83620828Y-108356203D02*
X82120828Y-108356203D01*
X82120828Y-108356203D02*
X82335114Y-108499060D01*
X82335114Y-108499060D02*
X82477971Y-108641917D01*
X82477971Y-108641917D02*
X82549400Y-108784774D01*
X82120828Y-106570489D02*
X82120828Y-107284775D01*
X82120828Y-107284775D02*
X82835114Y-107356203D01*
X82835114Y-107356203D02*
X82763685Y-107284775D01*
X82763685Y-107284775D02*
X82692257Y-107141918D01*
X82692257Y-107141918D02*
X82692257Y-106784775D01*
X82692257Y-106784775D02*
X82763685Y-106641918D01*
X82763685Y-106641918D02*
X82835114Y-106570489D01*
X82835114Y-106570489D02*
X82977971Y-106499060D01*
X82977971Y-106499060D02*
X83335114Y-106499060D01*
X83335114Y-106499060D02*
X83477971Y-106570489D01*
X83477971Y-106570489D02*
X83549400Y-106641918D01*
X83549400Y-106641918D02*
X83620828Y-106784775D01*
X83620828Y-106784775D02*
X83620828Y-107141918D01*
X83620828Y-107141918D02*
X83549400Y-107284775D01*
X83549400Y-107284775D02*
X83477971Y-107356203D01*
X82120828Y-106070489D02*
X83620828Y-105570489D01*
X83620828Y-105570489D02*
X82120828Y-105070489D01*
D10*
X104415184Y-59960009D02*
X104415184Y-60436199D01*
X104415184Y-60436199D02*
X103415184Y-60436199D01*
X103510422Y-59674294D02*
X103462803Y-59626675D01*
X103462803Y-59626675D02*
X103415184Y-59531437D01*
X103415184Y-59531437D02*
X103415184Y-59293342D01*
X103415184Y-59293342D02*
X103462803Y-59198104D01*
X103462803Y-59198104D02*
X103510422Y-59150485D01*
X103510422Y-59150485D02*
X103605660Y-59102866D01*
X103605660Y-59102866D02*
X103700898Y-59102866D01*
X103700898Y-59102866D02*
X103843755Y-59150485D01*
X103843755Y-59150485D02*
X104415184Y-59721913D01*
X104415184Y-59721913D02*
X104415184Y-59102866D01*
X70939819Y-67476666D02*
X70463628Y-67809999D01*
X70939819Y-68048094D02*
X69939819Y-68048094D01*
X69939819Y-68048094D02*
X69939819Y-67667142D01*
X69939819Y-67667142D02*
X69987438Y-67571904D01*
X69987438Y-67571904D02*
X70035057Y-67524285D01*
X70035057Y-67524285D02*
X70130295Y-67476666D01*
X70130295Y-67476666D02*
X70273152Y-67476666D01*
X70273152Y-67476666D02*
X70368390Y-67524285D01*
X70368390Y-67524285D02*
X70416009Y-67571904D01*
X70416009Y-67571904D02*
X70463628Y-67667142D01*
X70463628Y-67667142D02*
X70463628Y-68048094D01*
X70273152Y-66619523D02*
X70939819Y-66619523D01*
X69892200Y-66857618D02*
X70606485Y-67095713D01*
X70606485Y-67095713D02*
X70606485Y-66476666D01*
X65609580Y-82716666D02*
X65657200Y-82764285D01*
X65657200Y-82764285D02*
X65704819Y-82907142D01*
X65704819Y-82907142D02*
X65704819Y-83002380D01*
X65704819Y-83002380D02*
X65657200Y-83145237D01*
X65657200Y-83145237D02*
X65561961Y-83240475D01*
X65561961Y-83240475D02*
X65466723Y-83288094D01*
X65466723Y-83288094D02*
X65276247Y-83335713D01*
X65276247Y-83335713D02*
X65133390Y-83335713D01*
X65133390Y-83335713D02*
X64942914Y-83288094D01*
X64942914Y-83288094D02*
X64847676Y-83240475D01*
X64847676Y-83240475D02*
X64752438Y-83145237D01*
X64752438Y-83145237D02*
X64704819Y-83002380D01*
X64704819Y-83002380D02*
X64704819Y-82907142D01*
X64704819Y-82907142D02*
X64752438Y-82764285D01*
X64752438Y-82764285D02*
X64800057Y-82716666D01*
X64704819Y-82383332D02*
X64704819Y-81716666D01*
X64704819Y-81716666D02*
X65704819Y-82145237D01*
X82719733Y-95892857D02*
X82767353Y-95940476D01*
X82767353Y-95940476D02*
X82814972Y-96083333D01*
X82814972Y-96083333D02*
X82814972Y-96178571D01*
X82814972Y-96178571D02*
X82767353Y-96321428D01*
X82767353Y-96321428D02*
X82672114Y-96416666D01*
X82672114Y-96416666D02*
X82576876Y-96464285D01*
X82576876Y-96464285D02*
X82386400Y-96511904D01*
X82386400Y-96511904D02*
X82243543Y-96511904D01*
X82243543Y-96511904D02*
X82053067Y-96464285D01*
X82053067Y-96464285D02*
X81957829Y-96416666D01*
X81957829Y-96416666D02*
X81862591Y-96321428D01*
X81862591Y-96321428D02*
X81814972Y-96178571D01*
X81814972Y-96178571D02*
X81814972Y-96083333D01*
X81814972Y-96083333D02*
X81862591Y-95940476D01*
X81862591Y-95940476D02*
X81910210Y-95892857D01*
X81910210Y-95511904D02*
X81862591Y-95464285D01*
X81862591Y-95464285D02*
X81814972Y-95369047D01*
X81814972Y-95369047D02*
X81814972Y-95130952D01*
X81814972Y-95130952D02*
X81862591Y-95035714D01*
X81862591Y-95035714D02*
X81910210Y-94988095D01*
X81910210Y-94988095D02*
X82005448Y-94940476D01*
X82005448Y-94940476D02*
X82100686Y-94940476D01*
X82100686Y-94940476D02*
X82243543Y-94988095D01*
X82243543Y-94988095D02*
X82814972Y-95559523D01*
X82814972Y-95559523D02*
X82814972Y-94940476D01*
X82243543Y-94369047D02*
X82195924Y-94464285D01*
X82195924Y-94464285D02*
X82148305Y-94511904D01*
X82148305Y-94511904D02*
X82053067Y-94559523D01*
X82053067Y-94559523D02*
X82005448Y-94559523D01*
X82005448Y-94559523D02*
X81910210Y-94511904D01*
X81910210Y-94511904D02*
X81862591Y-94464285D01*
X81862591Y-94464285D02*
X81814972Y-94369047D01*
X81814972Y-94369047D02*
X81814972Y-94178571D01*
X81814972Y-94178571D02*
X81862591Y-94083333D01*
X81862591Y-94083333D02*
X81910210Y-94035714D01*
X81910210Y-94035714D02*
X82005448Y-93988095D01*
X82005448Y-93988095D02*
X82053067Y-93988095D01*
X82053067Y-93988095D02*
X82148305Y-94035714D01*
X82148305Y-94035714D02*
X82195924Y-94083333D01*
X82195924Y-94083333D02*
X82243543Y-94178571D01*
X82243543Y-94178571D02*
X82243543Y-94369047D01*
X82243543Y-94369047D02*
X82291162Y-94464285D01*
X82291162Y-94464285D02*
X82338781Y-94511904D01*
X82338781Y-94511904D02*
X82434019Y-94559523D01*
X82434019Y-94559523D02*
X82624495Y-94559523D01*
X82624495Y-94559523D02*
X82719733Y-94511904D01*
X82719733Y-94511904D02*
X82767353Y-94464285D01*
X82767353Y-94464285D02*
X82814972Y-94369047D01*
X82814972Y-94369047D02*
X82814972Y-94178571D01*
X82814972Y-94178571D02*
X82767353Y-94083333D01*
X82767353Y-94083333D02*
X82719733Y-94035714D01*
X82719733Y-94035714D02*
X82624495Y-93988095D01*
X82624495Y-93988095D02*
X82434019Y-93988095D01*
X82434019Y-93988095D02*
X82338781Y-94035714D01*
X82338781Y-94035714D02*
X82291162Y-94083333D01*
X82291162Y-94083333D02*
X82243543Y-94178571D01*
X84187319Y-59927606D02*
X84996842Y-59927606D01*
X84996842Y-59927606D02*
X85092080Y-59879987D01*
X85092080Y-59879987D02*
X85139700Y-59832368D01*
X85139700Y-59832368D02*
X85187319Y-59737130D01*
X85187319Y-59737130D02*
X85187319Y-59546654D01*
X85187319Y-59546654D02*
X85139700Y-59451416D01*
X85139700Y-59451416D02*
X85092080Y-59403797D01*
X85092080Y-59403797D02*
X84996842Y-59356178D01*
X84996842Y-59356178D02*
X84187319Y-59356178D01*
X85187319Y-58832368D02*
X85187319Y-58641892D01*
X85187319Y-58641892D02*
X85139700Y-58546654D01*
X85139700Y-58546654D02*
X85092080Y-58499035D01*
X85092080Y-58499035D02*
X84949223Y-58403797D01*
X84949223Y-58403797D02*
X84758747Y-58356178D01*
X84758747Y-58356178D02*
X84377795Y-58356178D01*
X84377795Y-58356178D02*
X84282557Y-58403797D01*
X84282557Y-58403797D02*
X84234938Y-58451416D01*
X84234938Y-58451416D02*
X84187319Y-58546654D01*
X84187319Y-58546654D02*
X84187319Y-58737130D01*
X84187319Y-58737130D02*
X84234938Y-58832368D01*
X84234938Y-58832368D02*
X84282557Y-58879987D01*
X84282557Y-58879987D02*
X84377795Y-58927606D01*
X84377795Y-58927606D02*
X84615890Y-58927606D01*
X84615890Y-58927606D02*
X84711128Y-58879987D01*
X84711128Y-58879987D02*
X84758747Y-58832368D01*
X84758747Y-58832368D02*
X84806366Y-58737130D01*
X84806366Y-58737130D02*
X84806366Y-58546654D01*
X84806366Y-58546654D02*
X84758747Y-58451416D01*
X84758747Y-58451416D02*
X84711128Y-58403797D01*
X84711128Y-58403797D02*
X84615890Y-58356178D01*
X91667233Y-80036988D02*
X91714853Y-80084607D01*
X91714853Y-80084607D02*
X91762472Y-80227464D01*
X91762472Y-80227464D02*
X91762472Y-80322702D01*
X91762472Y-80322702D02*
X91714853Y-80465559D01*
X91714853Y-80465559D02*
X91619614Y-80560797D01*
X91619614Y-80560797D02*
X91524376Y-80608416D01*
X91524376Y-80608416D02*
X91333900Y-80656035D01*
X91333900Y-80656035D02*
X91191043Y-80656035D01*
X91191043Y-80656035D02*
X91000567Y-80608416D01*
X91000567Y-80608416D02*
X90905329Y-80560797D01*
X90905329Y-80560797D02*
X90810091Y-80465559D01*
X90810091Y-80465559D02*
X90762472Y-80322702D01*
X90762472Y-80322702D02*
X90762472Y-80227464D01*
X90762472Y-80227464D02*
X90810091Y-80084607D01*
X90810091Y-80084607D02*
X90857710Y-80036988D01*
X91762472Y-79084607D02*
X91762472Y-79656035D01*
X91762472Y-79370321D02*
X90762472Y-79370321D01*
X90762472Y-79370321D02*
X90905329Y-79465559D01*
X90905329Y-79465559D02*
X91000567Y-79560797D01*
X91000567Y-79560797D02*
X91048186Y-79656035D01*
X90762472Y-78751273D02*
X90762472Y-78132226D01*
X90762472Y-78132226D02*
X91143424Y-78465559D01*
X91143424Y-78465559D02*
X91143424Y-78322702D01*
X91143424Y-78322702D02*
X91191043Y-78227464D01*
X91191043Y-78227464D02*
X91238662Y-78179845D01*
X91238662Y-78179845D02*
X91333900Y-78132226D01*
X91333900Y-78132226D02*
X91571995Y-78132226D01*
X91571995Y-78132226D02*
X91667233Y-78179845D01*
X91667233Y-78179845D02*
X91714853Y-78227464D01*
X91714853Y-78227464D02*
X91762472Y-78322702D01*
X91762472Y-78322702D02*
X91762472Y-78608416D01*
X91762472Y-78608416D02*
X91714853Y-78703654D01*
X91714853Y-78703654D02*
X91667233Y-78751273D01*
X92113356Y-62926399D02*
X92160976Y-62974018D01*
X92160976Y-62974018D02*
X92208595Y-63116875D01*
X92208595Y-63116875D02*
X92208595Y-63212113D01*
X92208595Y-63212113D02*
X92160976Y-63354970D01*
X92160976Y-63354970D02*
X92065737Y-63450208D01*
X92065737Y-63450208D02*
X91970499Y-63497827D01*
X91970499Y-63497827D02*
X91780023Y-63545446D01*
X91780023Y-63545446D02*
X91637166Y-63545446D01*
X91637166Y-63545446D02*
X91446690Y-63497827D01*
X91446690Y-63497827D02*
X91351452Y-63450208D01*
X91351452Y-63450208D02*
X91256214Y-63354970D01*
X91256214Y-63354970D02*
X91208595Y-63212113D01*
X91208595Y-63212113D02*
X91208595Y-63116875D01*
X91208595Y-63116875D02*
X91256214Y-62974018D01*
X91256214Y-62974018D02*
X91303833Y-62926399D01*
X92208595Y-61974018D02*
X92208595Y-62545446D01*
X92208595Y-62259732D02*
X91208595Y-62259732D01*
X91208595Y-62259732D02*
X91351452Y-62354970D01*
X91351452Y-62354970D02*
X91446690Y-62450208D01*
X91446690Y-62450208D02*
X91494309Y-62545446D01*
X91303833Y-61593065D02*
X91256214Y-61545446D01*
X91256214Y-61545446D02*
X91208595Y-61450208D01*
X91208595Y-61450208D02*
X91208595Y-61212113D01*
X91208595Y-61212113D02*
X91256214Y-61116875D01*
X91256214Y-61116875D02*
X91303833Y-61069256D01*
X91303833Y-61069256D02*
X91399071Y-61021637D01*
X91399071Y-61021637D02*
X91494309Y-61021637D01*
X91494309Y-61021637D02*
X91637166Y-61069256D01*
X91637166Y-61069256D02*
X92208595Y-61640684D01*
X92208595Y-61640684D02*
X92208595Y-61021637D01*
X109641009Y-93072891D02*
X109164818Y-93406224D01*
X109641009Y-93644319D02*
X108641009Y-93644319D01*
X108641009Y-93644319D02*
X108641009Y-93263367D01*
X108641009Y-93263367D02*
X108688628Y-93168129D01*
X108688628Y-93168129D02*
X108736247Y-93120510D01*
X108736247Y-93120510D02*
X108831485Y-93072891D01*
X108831485Y-93072891D02*
X108974342Y-93072891D01*
X108974342Y-93072891D02*
X109069580Y-93120510D01*
X109069580Y-93120510D02*
X109117199Y-93168129D01*
X109117199Y-93168129D02*
X109164818Y-93263367D01*
X109164818Y-93263367D02*
X109164818Y-93644319D01*
X109641009Y-92120510D02*
X109641009Y-92691938D01*
X109641009Y-92406224D02*
X108641009Y-92406224D01*
X108641009Y-92406224D02*
X108783866Y-92501462D01*
X108783866Y-92501462D02*
X108879104Y-92596700D01*
X108879104Y-92596700D02*
X108926723Y-92691938D01*
X108641009Y-91787176D02*
X108641009Y-91168129D01*
X108641009Y-91168129D02*
X109021961Y-91501462D01*
X109021961Y-91501462D02*
X109021961Y-91358605D01*
X109021961Y-91358605D02*
X109069580Y-91263367D01*
X109069580Y-91263367D02*
X109117199Y-91215748D01*
X109117199Y-91215748D02*
X109212437Y-91168129D01*
X109212437Y-91168129D02*
X109450532Y-91168129D01*
X109450532Y-91168129D02*
X109545770Y-91215748D01*
X109545770Y-91215748D02*
X109593390Y-91263367D01*
X109593390Y-91263367D02*
X109641009Y-91358605D01*
X109641009Y-91358605D02*
X109641009Y-91644319D01*
X109641009Y-91644319D02*
X109593390Y-91739557D01*
X109593390Y-91739557D02*
X109545770Y-91787176D01*
X95988775Y-59908703D02*
X95512584Y-60242036D01*
X95988775Y-60480131D02*
X94988775Y-60480131D01*
X94988775Y-60480131D02*
X94988775Y-60099179D01*
X94988775Y-60099179D02*
X95036394Y-60003941D01*
X95036394Y-60003941D02*
X95084013Y-59956322D01*
X95084013Y-59956322D02*
X95179251Y-59908703D01*
X95179251Y-59908703D02*
X95322108Y-59908703D01*
X95322108Y-59908703D02*
X95417346Y-59956322D01*
X95417346Y-59956322D02*
X95464965Y-60003941D01*
X95464965Y-60003941D02*
X95512584Y-60099179D01*
X95512584Y-60099179D02*
X95512584Y-60480131D01*
X95084013Y-59527750D02*
X95036394Y-59480131D01*
X95036394Y-59480131D02*
X94988775Y-59384893D01*
X94988775Y-59384893D02*
X94988775Y-59146798D01*
X94988775Y-59146798D02*
X95036394Y-59051560D01*
X95036394Y-59051560D02*
X95084013Y-59003941D01*
X95084013Y-59003941D02*
X95179251Y-58956322D01*
X95179251Y-58956322D02*
X95274489Y-58956322D01*
X95274489Y-58956322D02*
X95417346Y-59003941D01*
X95417346Y-59003941D02*
X95988775Y-59575369D01*
X95988775Y-59575369D02*
X95988775Y-58956322D01*
X94988775Y-58622988D02*
X94988775Y-58003941D01*
X94988775Y-58003941D02*
X95369727Y-58337274D01*
X95369727Y-58337274D02*
X95369727Y-58194417D01*
X95369727Y-58194417D02*
X95417346Y-58099179D01*
X95417346Y-58099179D02*
X95464965Y-58051560D01*
X95464965Y-58051560D02*
X95560203Y-58003941D01*
X95560203Y-58003941D02*
X95798298Y-58003941D01*
X95798298Y-58003941D02*
X95893536Y-58051560D01*
X95893536Y-58051560D02*
X95941156Y-58099179D01*
X95941156Y-58099179D02*
X95988775Y-58194417D01*
X95988775Y-58194417D02*
X95988775Y-58480131D01*
X95988775Y-58480131D02*
X95941156Y-58575369D01*
X95941156Y-58575369D02*
X95893536Y-58622988D01*
X92572274Y-76716800D02*
X92096083Y-77050133D01*
X92572274Y-77288228D02*
X91572274Y-77288228D01*
X91572274Y-77288228D02*
X91572274Y-76907276D01*
X91572274Y-76907276D02*
X91619893Y-76812038D01*
X91619893Y-76812038D02*
X91667512Y-76764419D01*
X91667512Y-76764419D02*
X91762750Y-76716800D01*
X91762750Y-76716800D02*
X91905607Y-76716800D01*
X91905607Y-76716800D02*
X92000845Y-76764419D01*
X92000845Y-76764419D02*
X92048464Y-76812038D01*
X92048464Y-76812038D02*
X92096083Y-76907276D01*
X92096083Y-76907276D02*
X92096083Y-77288228D01*
X91572274Y-76383466D02*
X91572274Y-75764419D01*
X91572274Y-75764419D02*
X91953226Y-76097752D01*
X91953226Y-76097752D02*
X91953226Y-75954895D01*
X91953226Y-75954895D02*
X92000845Y-75859657D01*
X92000845Y-75859657D02*
X92048464Y-75812038D01*
X92048464Y-75812038D02*
X92143702Y-75764419D01*
X92143702Y-75764419D02*
X92381797Y-75764419D01*
X92381797Y-75764419D02*
X92477035Y-75812038D01*
X92477035Y-75812038D02*
X92524655Y-75859657D01*
X92524655Y-75859657D02*
X92572274Y-75954895D01*
X92572274Y-75954895D02*
X92572274Y-76240609D01*
X92572274Y-76240609D02*
X92524655Y-76335847D01*
X92524655Y-76335847D02*
X92477035Y-76383466D01*
X92572274Y-75288228D02*
X92572274Y-75097752D01*
X92572274Y-75097752D02*
X92524655Y-75002514D01*
X92524655Y-75002514D02*
X92477035Y-74954895D01*
X92477035Y-74954895D02*
X92334178Y-74859657D01*
X92334178Y-74859657D02*
X92143702Y-74812038D01*
X92143702Y-74812038D02*
X91762750Y-74812038D01*
X91762750Y-74812038D02*
X91667512Y-74859657D01*
X91667512Y-74859657D02*
X91619893Y-74907276D01*
X91619893Y-74907276D02*
X91572274Y-75002514D01*
X91572274Y-75002514D02*
X91572274Y-75192990D01*
X91572274Y-75192990D02*
X91619893Y-75288228D01*
X91619893Y-75288228D02*
X91667512Y-75335847D01*
X91667512Y-75335847D02*
X91762750Y-75383466D01*
X91762750Y-75383466D02*
X92000845Y-75383466D01*
X92000845Y-75383466D02*
X92096083Y-75335847D01*
X92096083Y-75335847D02*
X92143702Y-75288228D01*
X92143702Y-75288228D02*
X92191321Y-75192990D01*
X92191321Y-75192990D02*
X92191321Y-75002514D01*
X92191321Y-75002514D02*
X92143702Y-74907276D01*
X92143702Y-74907276D02*
X92096083Y-74859657D01*
X92096083Y-74859657D02*
X92000845Y-74812038D01*
X86922021Y-89541397D02*
X86445830Y-89874730D01*
X86922021Y-90112825D02*
X85922021Y-90112825D01*
X85922021Y-90112825D02*
X85922021Y-89731873D01*
X85922021Y-89731873D02*
X85969640Y-89636635D01*
X85969640Y-89636635D02*
X86017259Y-89589016D01*
X86017259Y-89589016D02*
X86112497Y-89541397D01*
X86112497Y-89541397D02*
X86255354Y-89541397D01*
X86255354Y-89541397D02*
X86350592Y-89589016D01*
X86350592Y-89589016D02*
X86398211Y-89636635D01*
X86398211Y-89636635D02*
X86445830Y-89731873D01*
X86445830Y-89731873D02*
X86445830Y-90112825D01*
X86017259Y-89160444D02*
X85969640Y-89112825D01*
X85969640Y-89112825D02*
X85922021Y-89017587D01*
X85922021Y-89017587D02*
X85922021Y-88779492D01*
X85922021Y-88779492D02*
X85969640Y-88684254D01*
X85969640Y-88684254D02*
X86017259Y-88636635D01*
X86017259Y-88636635D02*
X86112497Y-88589016D01*
X86112497Y-88589016D02*
X86207735Y-88589016D01*
X86207735Y-88589016D02*
X86350592Y-88636635D01*
X86350592Y-88636635D02*
X86922021Y-89208063D01*
X86922021Y-89208063D02*
X86922021Y-88589016D01*
X85922021Y-87684254D02*
X85922021Y-88160444D01*
X85922021Y-88160444D02*
X86398211Y-88208063D01*
X86398211Y-88208063D02*
X86350592Y-88160444D01*
X86350592Y-88160444D02*
X86302973Y-88065206D01*
X86302973Y-88065206D02*
X86302973Y-87827111D01*
X86302973Y-87827111D02*
X86350592Y-87731873D01*
X86350592Y-87731873D02*
X86398211Y-87684254D01*
X86398211Y-87684254D02*
X86493449Y-87636635D01*
X86493449Y-87636635D02*
X86731544Y-87636635D01*
X86731544Y-87636635D02*
X86826782Y-87684254D01*
X86826782Y-87684254D02*
X86874402Y-87731873D01*
X86874402Y-87731873D02*
X86922021Y-87827111D01*
X86922021Y-87827111D02*
X86922021Y-88065206D01*
X86922021Y-88065206D02*
X86874402Y-88160444D01*
X86874402Y-88160444D02*
X86826782Y-88208063D01*
X105058011Y-102424012D02*
X105867534Y-102424012D01*
X105867534Y-102424012D02*
X105962772Y-102376393D01*
X105962772Y-102376393D02*
X106010392Y-102328774D01*
X106010392Y-102328774D02*
X106058011Y-102233536D01*
X106058011Y-102233536D02*
X106058011Y-102043060D01*
X106058011Y-102043060D02*
X106010392Y-101947822D01*
X106010392Y-101947822D02*
X105962772Y-101900203D01*
X105962772Y-101900203D02*
X105867534Y-101852584D01*
X105867534Y-101852584D02*
X105058011Y-101852584D01*
X106058011Y-100852584D02*
X106058011Y-101424012D01*
X106058011Y-101138298D02*
X105058011Y-101138298D01*
X105058011Y-101138298D02*
X105200868Y-101233536D01*
X105200868Y-101233536D02*
X105296106Y-101328774D01*
X105296106Y-101328774D02*
X105343725Y-101424012D01*
X106058011Y-99900203D02*
X106058011Y-100471631D01*
X106058011Y-100185917D02*
X105058011Y-100185917D01*
X105058011Y-100185917D02*
X105200868Y-100281155D01*
X105200868Y-100281155D02*
X105296106Y-100376393D01*
X105296106Y-100376393D02*
X105343725Y-100471631D01*
X86381415Y-53685505D02*
X86429035Y-53733124D01*
X86429035Y-53733124D02*
X86476654Y-53875981D01*
X86476654Y-53875981D02*
X86476654Y-53971219D01*
X86476654Y-53971219D02*
X86429035Y-54114076D01*
X86429035Y-54114076D02*
X86333796Y-54209314D01*
X86333796Y-54209314D02*
X86238558Y-54256933D01*
X86238558Y-54256933D02*
X86048082Y-54304552D01*
X86048082Y-54304552D02*
X85905225Y-54304552D01*
X85905225Y-54304552D02*
X85714749Y-54256933D01*
X85714749Y-54256933D02*
X85619511Y-54209314D01*
X85619511Y-54209314D02*
X85524273Y-54114076D01*
X85524273Y-54114076D02*
X85476654Y-53971219D01*
X85476654Y-53971219D02*
X85476654Y-53875981D01*
X85476654Y-53875981D02*
X85524273Y-53733124D01*
X85524273Y-53733124D02*
X85571892Y-53685505D01*
X85809987Y-52828362D02*
X86476654Y-52828362D01*
X85429035Y-53066457D02*
X86143320Y-53304552D01*
X86143320Y-53304552D02*
X86143320Y-52685505D01*
X106839046Y-71283376D02*
X106791427Y-71378614D01*
X106791427Y-71378614D02*
X106696189Y-71473852D01*
X106696189Y-71473852D02*
X106553331Y-71616709D01*
X106553331Y-71616709D02*
X106505712Y-71711947D01*
X106505712Y-71711947D02*
X106505712Y-71807185D01*
X106743808Y-71759566D02*
X106696189Y-71854804D01*
X106696189Y-71854804D02*
X106600950Y-71950042D01*
X106600950Y-71950042D02*
X106410474Y-71997661D01*
X106410474Y-71997661D02*
X106077141Y-71997661D01*
X106077141Y-71997661D02*
X105886665Y-71950042D01*
X105886665Y-71950042D02*
X105791427Y-71854804D01*
X105791427Y-71854804D02*
X105743808Y-71759566D01*
X105743808Y-71759566D02*
X105743808Y-71569090D01*
X105743808Y-71569090D02*
X105791427Y-71473852D01*
X105791427Y-71473852D02*
X105886665Y-71378614D01*
X105886665Y-71378614D02*
X106077141Y-71330995D01*
X106077141Y-71330995D02*
X106410474Y-71330995D01*
X106410474Y-71330995D02*
X106600950Y-71378614D01*
X106600950Y-71378614D02*
X106696189Y-71473852D01*
X106696189Y-71473852D02*
X106743808Y-71569090D01*
X106743808Y-71569090D02*
X106743808Y-71759566D01*
X105743808Y-70997661D02*
X105743808Y-70378614D01*
X105743808Y-70378614D02*
X106124760Y-70711947D01*
X106124760Y-70711947D02*
X106124760Y-70569090D01*
X106124760Y-70569090D02*
X106172379Y-70473852D01*
X106172379Y-70473852D02*
X106219998Y-70426233D01*
X106219998Y-70426233D02*
X106315236Y-70378614D01*
X106315236Y-70378614D02*
X106553331Y-70378614D01*
X106553331Y-70378614D02*
X106648569Y-70426233D01*
X106648569Y-70426233D02*
X106696189Y-70473852D01*
X106696189Y-70473852D02*
X106743808Y-70569090D01*
X106743808Y-70569090D02*
X106743808Y-70854804D01*
X106743808Y-70854804D02*
X106696189Y-70950042D01*
X106696189Y-70950042D02*
X106648569Y-70997661D01*
X94073368Y-72671518D02*
X93597177Y-73004851D01*
X94073368Y-73242946D02*
X93073368Y-73242946D01*
X93073368Y-73242946D02*
X93073368Y-72861994D01*
X93073368Y-72861994D02*
X93120987Y-72766756D01*
X93120987Y-72766756D02*
X93168606Y-72719137D01*
X93168606Y-72719137D02*
X93263844Y-72671518D01*
X93263844Y-72671518D02*
X93406701Y-72671518D01*
X93406701Y-72671518D02*
X93501939Y-72719137D01*
X93501939Y-72719137D02*
X93549558Y-72766756D01*
X93549558Y-72766756D02*
X93597177Y-72861994D01*
X93597177Y-72861994D02*
X93597177Y-73242946D01*
X93168606Y-72290565D02*
X93120987Y-72242946D01*
X93120987Y-72242946D02*
X93073368Y-72147708D01*
X93073368Y-72147708D02*
X93073368Y-71909613D01*
X93073368Y-71909613D02*
X93120987Y-71814375D01*
X93120987Y-71814375D02*
X93168606Y-71766756D01*
X93168606Y-71766756D02*
X93263844Y-71719137D01*
X93263844Y-71719137D02*
X93359082Y-71719137D01*
X93359082Y-71719137D02*
X93501939Y-71766756D01*
X93501939Y-71766756D02*
X94073368Y-72338184D01*
X94073368Y-72338184D02*
X94073368Y-71719137D01*
X94073368Y-71242946D02*
X94073368Y-71052470D01*
X94073368Y-71052470D02*
X94025749Y-70957232D01*
X94025749Y-70957232D02*
X93978129Y-70909613D01*
X93978129Y-70909613D02*
X93835272Y-70814375D01*
X93835272Y-70814375D02*
X93644796Y-70766756D01*
X93644796Y-70766756D02*
X93263844Y-70766756D01*
X93263844Y-70766756D02*
X93168606Y-70814375D01*
X93168606Y-70814375D02*
X93120987Y-70861994D01*
X93120987Y-70861994D02*
X93073368Y-70957232D01*
X93073368Y-70957232D02*
X93073368Y-71147708D01*
X93073368Y-71147708D02*
X93120987Y-71242946D01*
X93120987Y-71242946D02*
X93168606Y-71290565D01*
X93168606Y-71290565D02*
X93263844Y-71338184D01*
X93263844Y-71338184D02*
X93501939Y-71338184D01*
X93501939Y-71338184D02*
X93597177Y-71290565D01*
X93597177Y-71290565D02*
X93644796Y-71242946D01*
X93644796Y-71242946D02*
X93692415Y-71147708D01*
X93692415Y-71147708D02*
X93692415Y-70957232D01*
X93692415Y-70957232D02*
X93644796Y-70861994D01*
X93644796Y-70861994D02*
X93597177Y-70814375D01*
X93597177Y-70814375D02*
X93501939Y-70766756D01*
X81099819Y-103512857D02*
X80623628Y-103846190D01*
X81099819Y-104084285D02*
X80099819Y-104084285D01*
X80099819Y-104084285D02*
X80099819Y-103703333D01*
X80099819Y-103703333D02*
X80147438Y-103608095D01*
X80147438Y-103608095D02*
X80195057Y-103560476D01*
X80195057Y-103560476D02*
X80290295Y-103512857D01*
X80290295Y-103512857D02*
X80433152Y-103512857D01*
X80433152Y-103512857D02*
X80528390Y-103560476D01*
X80528390Y-103560476D02*
X80576009Y-103608095D01*
X80576009Y-103608095D02*
X80623628Y-103703333D01*
X80623628Y-103703333D02*
X80623628Y-104084285D01*
X80433152Y-102655714D02*
X81099819Y-102655714D01*
X80052200Y-102893809D02*
X80766485Y-103131904D01*
X80766485Y-103131904D02*
X80766485Y-102512857D01*
X80433152Y-101703333D02*
X81099819Y-101703333D01*
X80052200Y-101941428D02*
X80766485Y-102179523D01*
X80766485Y-102179523D02*
X80766485Y-101560476D01*
X92706010Y-68573800D02*
X92229819Y-68907133D01*
X92706010Y-69145228D02*
X91706010Y-69145228D01*
X91706010Y-69145228D02*
X91706010Y-68764276D01*
X91706010Y-68764276D02*
X91753629Y-68669038D01*
X91753629Y-68669038D02*
X91801248Y-68621419D01*
X91801248Y-68621419D02*
X91896486Y-68573800D01*
X91896486Y-68573800D02*
X92039343Y-68573800D01*
X92039343Y-68573800D02*
X92134581Y-68621419D01*
X92134581Y-68621419D02*
X92182200Y-68669038D01*
X92182200Y-68669038D02*
X92229819Y-68764276D01*
X92229819Y-68764276D02*
X92229819Y-69145228D01*
X91801248Y-68192847D02*
X91753629Y-68145228D01*
X91753629Y-68145228D02*
X91706010Y-68049990D01*
X91706010Y-68049990D02*
X91706010Y-67811895D01*
X91706010Y-67811895D02*
X91753629Y-67716657D01*
X91753629Y-67716657D02*
X91801248Y-67669038D01*
X91801248Y-67669038D02*
X91896486Y-67621419D01*
X91896486Y-67621419D02*
X91991724Y-67621419D01*
X91991724Y-67621419D02*
X92134581Y-67669038D01*
X92134581Y-67669038D02*
X92706010Y-68240466D01*
X92706010Y-68240466D02*
X92706010Y-67621419D01*
X91706010Y-66764276D02*
X91706010Y-66954752D01*
X91706010Y-66954752D02*
X91753629Y-67049990D01*
X91753629Y-67049990D02*
X91801248Y-67097609D01*
X91801248Y-67097609D02*
X91944105Y-67192847D01*
X91944105Y-67192847D02*
X92134581Y-67240466D01*
X92134581Y-67240466D02*
X92515533Y-67240466D01*
X92515533Y-67240466D02*
X92610771Y-67192847D01*
X92610771Y-67192847D02*
X92658391Y-67145228D01*
X92658391Y-67145228D02*
X92706010Y-67049990D01*
X92706010Y-67049990D02*
X92706010Y-66859514D01*
X92706010Y-66859514D02*
X92658391Y-66764276D01*
X92658391Y-66764276D02*
X92610771Y-66716657D01*
X92610771Y-66716657D02*
X92515533Y-66669038D01*
X92515533Y-66669038D02*
X92277438Y-66669038D01*
X92277438Y-66669038D02*
X92182200Y-66716657D01*
X92182200Y-66716657D02*
X92134581Y-66764276D01*
X92134581Y-66764276D02*
X92086962Y-66859514D01*
X92086962Y-66859514D02*
X92086962Y-67049990D01*
X92086962Y-67049990D02*
X92134581Y-67145228D01*
X92134581Y-67145228D02*
X92182200Y-67192847D01*
X92182200Y-67192847D02*
X92277438Y-67240466D01*
X106423526Y-104720349D02*
X106375907Y-104767969D01*
X106375907Y-104767969D02*
X106233050Y-104815588D01*
X106233050Y-104815588D02*
X106137812Y-104815588D01*
X106137812Y-104815588D02*
X105994955Y-104767969D01*
X105994955Y-104767969D02*
X105899717Y-104672730D01*
X105899717Y-104672730D02*
X105852098Y-104577492D01*
X105852098Y-104577492D02*
X105804479Y-104387016D01*
X105804479Y-104387016D02*
X105804479Y-104244159D01*
X105804479Y-104244159D02*
X105852098Y-104053683D01*
X105852098Y-104053683D02*
X105899717Y-103958445D01*
X105899717Y-103958445D02*
X105994955Y-103863207D01*
X105994955Y-103863207D02*
X106137812Y-103815588D01*
X106137812Y-103815588D02*
X106233050Y-103815588D01*
X106233050Y-103815588D02*
X106375907Y-103863207D01*
X106375907Y-103863207D02*
X106423526Y-103910826D01*
X107375907Y-104815588D02*
X106804479Y-104815588D01*
X107090193Y-104815588D02*
X107090193Y-103815588D01*
X107090193Y-103815588D02*
X106994955Y-103958445D01*
X106994955Y-103958445D02*
X106899717Y-104053683D01*
X106899717Y-104053683D02*
X106804479Y-104101302D01*
X108328288Y-104815588D02*
X107756860Y-104815588D01*
X108042574Y-104815588D02*
X108042574Y-103815588D01*
X108042574Y-103815588D02*
X107947336Y-103958445D01*
X107947336Y-103958445D02*
X107852098Y-104053683D01*
X107852098Y-104053683D02*
X107756860Y-104101302D01*
X91259819Y-54617857D02*
X90783628Y-54951190D01*
X91259819Y-55189285D02*
X90259819Y-55189285D01*
X90259819Y-55189285D02*
X90259819Y-54808333D01*
X90259819Y-54808333D02*
X90307438Y-54713095D01*
X90307438Y-54713095D02*
X90355057Y-54665476D01*
X90355057Y-54665476D02*
X90450295Y-54617857D01*
X90450295Y-54617857D02*
X90593152Y-54617857D01*
X90593152Y-54617857D02*
X90688390Y-54665476D01*
X90688390Y-54665476D02*
X90736009Y-54713095D01*
X90736009Y-54713095D02*
X90783628Y-54808333D01*
X90783628Y-54808333D02*
X90783628Y-55189285D01*
X91259819Y-53665476D02*
X91259819Y-54236904D01*
X91259819Y-53951190D02*
X90259819Y-53951190D01*
X90259819Y-53951190D02*
X90402676Y-54046428D01*
X90402676Y-54046428D02*
X90497914Y-54141666D01*
X90497914Y-54141666D02*
X90545533Y-54236904D01*
X91259819Y-53189285D02*
X91259819Y-52998809D01*
X91259819Y-52998809D02*
X91212200Y-52903571D01*
X91212200Y-52903571D02*
X91164580Y-52855952D01*
X91164580Y-52855952D02*
X91021723Y-52760714D01*
X91021723Y-52760714D02*
X90831247Y-52713095D01*
X90831247Y-52713095D02*
X90450295Y-52713095D01*
X90450295Y-52713095D02*
X90355057Y-52760714D01*
X90355057Y-52760714D02*
X90307438Y-52808333D01*
X90307438Y-52808333D02*
X90259819Y-52903571D01*
X90259819Y-52903571D02*
X90259819Y-53094047D01*
X90259819Y-53094047D02*
X90307438Y-53189285D01*
X90307438Y-53189285D02*
X90355057Y-53236904D01*
X90355057Y-53236904D02*
X90450295Y-53284523D01*
X90450295Y-53284523D02*
X90688390Y-53284523D01*
X90688390Y-53284523D02*
X90783628Y-53236904D01*
X90783628Y-53236904D02*
X90831247Y-53189285D01*
X90831247Y-53189285D02*
X90878866Y-53094047D01*
X90878866Y-53094047D02*
X90878866Y-52903571D01*
X90878866Y-52903571D02*
X90831247Y-52808333D01*
X90831247Y-52808333D02*
X90783628Y-52760714D01*
X90783628Y-52760714D02*
X90688390Y-52713095D01*
X69111905Y-65859819D02*
X69111905Y-64859819D01*
X69111905Y-64859819D02*
X69350000Y-64859819D01*
X69350000Y-64859819D02*
X69492857Y-64907438D01*
X69492857Y-64907438D02*
X69588095Y-65002676D01*
X69588095Y-65002676D02*
X69635714Y-65097914D01*
X69635714Y-65097914D02*
X69683333Y-65288390D01*
X69683333Y-65288390D02*
X69683333Y-65431247D01*
X69683333Y-65431247D02*
X69635714Y-65621723D01*
X69635714Y-65621723D02*
X69588095Y-65716961D01*
X69588095Y-65716961D02*
X69492857Y-65812200D01*
X69492857Y-65812200D02*
X69350000Y-65859819D01*
X69350000Y-65859819D02*
X69111905Y-65859819D01*
X70064286Y-64955057D02*
X70111905Y-64907438D01*
X70111905Y-64907438D02*
X70207143Y-64859819D01*
X70207143Y-64859819D02*
X70445238Y-64859819D01*
X70445238Y-64859819D02*
X70540476Y-64907438D01*
X70540476Y-64907438D02*
X70588095Y-64955057D01*
X70588095Y-64955057D02*
X70635714Y-65050295D01*
X70635714Y-65050295D02*
X70635714Y-65145533D01*
X70635714Y-65145533D02*
X70588095Y-65288390D01*
X70588095Y-65288390D02*
X70016667Y-65859819D01*
X70016667Y-65859819D02*
X70635714Y-65859819D01*
X66129819Y-74421904D02*
X66939342Y-74421904D01*
X66939342Y-74421904D02*
X67034580Y-74374285D01*
X67034580Y-74374285D02*
X67082200Y-74326666D01*
X67082200Y-74326666D02*
X67129819Y-74231428D01*
X67129819Y-74231428D02*
X67129819Y-74040952D01*
X67129819Y-74040952D02*
X67082200Y-73945714D01*
X67082200Y-73945714D02*
X67034580Y-73898095D01*
X67034580Y-73898095D02*
X66939342Y-73850476D01*
X66939342Y-73850476D02*
X66129819Y-73850476D01*
X67129819Y-72850476D02*
X67129819Y-73421904D01*
X67129819Y-73136190D02*
X66129819Y-73136190D01*
X66129819Y-73136190D02*
X66272676Y-73231428D01*
X66272676Y-73231428D02*
X66367914Y-73326666D01*
X66367914Y-73326666D02*
X66415533Y-73421904D01*
X104193380Y-84600353D02*
X103860047Y-84124162D01*
X103621952Y-84600353D02*
X103621952Y-83600353D01*
X103621952Y-83600353D02*
X104002904Y-83600353D01*
X104002904Y-83600353D02*
X104098142Y-83647972D01*
X104098142Y-83647972D02*
X104145761Y-83695591D01*
X104145761Y-83695591D02*
X104193380Y-83790829D01*
X104193380Y-83790829D02*
X104193380Y-83933686D01*
X104193380Y-83933686D02*
X104145761Y-84028924D01*
X104145761Y-84028924D02*
X104098142Y-84076543D01*
X104098142Y-84076543D02*
X104002904Y-84124162D01*
X104002904Y-84124162D02*
X103621952Y-84124162D01*
X105145761Y-84600353D02*
X104574333Y-84600353D01*
X104860047Y-84600353D02*
X104860047Y-83600353D01*
X104860047Y-83600353D02*
X104764809Y-83743210D01*
X104764809Y-83743210D02*
X104669571Y-83838448D01*
X104669571Y-83838448D02*
X104574333Y-83886067D01*
X106098142Y-84600353D02*
X105526714Y-84600353D01*
X105812428Y-84600353D02*
X105812428Y-83600353D01*
X105812428Y-83600353D02*
X105717190Y-83743210D01*
X105717190Y-83743210D02*
X105621952Y-83838448D01*
X105621952Y-83838448D02*
X105526714Y-83886067D01*
X97971125Y-75804907D02*
X97494934Y-76138240D01*
X97971125Y-76376335D02*
X96971125Y-76376335D01*
X96971125Y-76376335D02*
X96971125Y-75995383D01*
X96971125Y-75995383D02*
X97018744Y-75900145D01*
X97018744Y-75900145D02*
X97066363Y-75852526D01*
X97066363Y-75852526D02*
X97161601Y-75804907D01*
X97161601Y-75804907D02*
X97304458Y-75804907D01*
X97304458Y-75804907D02*
X97399696Y-75852526D01*
X97399696Y-75852526D02*
X97447315Y-75900145D01*
X97447315Y-75900145D02*
X97494934Y-75995383D01*
X97494934Y-75995383D02*
X97494934Y-76376335D01*
X96971125Y-75471573D02*
X96971125Y-74852526D01*
X96971125Y-74852526D02*
X97352077Y-75185859D01*
X97352077Y-75185859D02*
X97352077Y-75043002D01*
X97352077Y-75043002D02*
X97399696Y-74947764D01*
X97399696Y-74947764D02*
X97447315Y-74900145D01*
X97447315Y-74900145D02*
X97542553Y-74852526D01*
X97542553Y-74852526D02*
X97780648Y-74852526D01*
X97780648Y-74852526D02*
X97875886Y-74900145D01*
X97875886Y-74900145D02*
X97923506Y-74947764D01*
X97923506Y-74947764D02*
X97971125Y-75043002D01*
X97971125Y-75043002D02*
X97971125Y-75328716D01*
X97971125Y-75328716D02*
X97923506Y-75423954D01*
X97923506Y-75423954D02*
X97875886Y-75471573D01*
X97399696Y-74281097D02*
X97352077Y-74376335D01*
X97352077Y-74376335D02*
X97304458Y-74423954D01*
X97304458Y-74423954D02*
X97209220Y-74471573D01*
X97209220Y-74471573D02*
X97161601Y-74471573D01*
X97161601Y-74471573D02*
X97066363Y-74423954D01*
X97066363Y-74423954D02*
X97018744Y-74376335D01*
X97018744Y-74376335D02*
X96971125Y-74281097D01*
X96971125Y-74281097D02*
X96971125Y-74090621D01*
X96971125Y-74090621D02*
X97018744Y-73995383D01*
X97018744Y-73995383D02*
X97066363Y-73947764D01*
X97066363Y-73947764D02*
X97161601Y-73900145D01*
X97161601Y-73900145D02*
X97209220Y-73900145D01*
X97209220Y-73900145D02*
X97304458Y-73947764D01*
X97304458Y-73947764D02*
X97352077Y-73995383D01*
X97352077Y-73995383D02*
X97399696Y-74090621D01*
X97399696Y-74090621D02*
X97399696Y-74281097D01*
X97399696Y-74281097D02*
X97447315Y-74376335D01*
X97447315Y-74376335D02*
X97494934Y-74423954D01*
X97494934Y-74423954D02*
X97590172Y-74471573D01*
X97590172Y-74471573D02*
X97780648Y-74471573D01*
X97780648Y-74471573D02*
X97875886Y-74423954D01*
X97875886Y-74423954D02*
X97923506Y-74376335D01*
X97923506Y-74376335D02*
X97971125Y-74281097D01*
X97971125Y-74281097D02*
X97971125Y-74090621D01*
X97971125Y-74090621D02*
X97923506Y-73995383D01*
X97923506Y-73995383D02*
X97875886Y-73947764D01*
X97875886Y-73947764D02*
X97780648Y-73900145D01*
X97780648Y-73900145D02*
X97590172Y-73900145D01*
X97590172Y-73900145D02*
X97494934Y-73947764D01*
X97494934Y-73947764D02*
X97447315Y-73995383D01*
X97447315Y-73995383D02*
X97399696Y-74090621D01*
X89062455Y-48372442D02*
X89776740Y-48372442D01*
X89776740Y-48372442D02*
X89919597Y-48420061D01*
X89919597Y-48420061D02*
X90014836Y-48515299D01*
X90014836Y-48515299D02*
X90062455Y-48658156D01*
X90062455Y-48658156D02*
X90062455Y-48753394D01*
X89062455Y-47467680D02*
X89062455Y-47658156D01*
X89062455Y-47658156D02*
X89110074Y-47753394D01*
X89110074Y-47753394D02*
X89157693Y-47801013D01*
X89157693Y-47801013D02*
X89300550Y-47896251D01*
X89300550Y-47896251D02*
X89491026Y-47943870D01*
X89491026Y-47943870D02*
X89871978Y-47943870D01*
X89871978Y-47943870D02*
X89967216Y-47896251D01*
X89967216Y-47896251D02*
X90014836Y-47848632D01*
X90014836Y-47848632D02*
X90062455Y-47753394D01*
X90062455Y-47753394D02*
X90062455Y-47562918D01*
X90062455Y-47562918D02*
X90014836Y-47467680D01*
X90014836Y-47467680D02*
X89967216Y-47420061D01*
X89967216Y-47420061D02*
X89871978Y-47372442D01*
X89871978Y-47372442D02*
X89633883Y-47372442D01*
X89633883Y-47372442D02*
X89538645Y-47420061D01*
X89538645Y-47420061D02*
X89491026Y-47467680D01*
X89491026Y-47467680D02*
X89443407Y-47562918D01*
X89443407Y-47562918D02*
X89443407Y-47753394D01*
X89443407Y-47753394D02*
X89491026Y-47848632D01*
X89491026Y-47848632D02*
X89538645Y-47896251D01*
X89538645Y-47896251D02*
X89633883Y-47943870D01*
X60844580Y-87637857D02*
X60892200Y-87685476D01*
X60892200Y-87685476D02*
X60939819Y-87828333D01*
X60939819Y-87828333D02*
X60939819Y-87923571D01*
X60939819Y-87923571D02*
X60892200Y-88066428D01*
X60892200Y-88066428D02*
X60796961Y-88161666D01*
X60796961Y-88161666D02*
X60701723Y-88209285D01*
X60701723Y-88209285D02*
X60511247Y-88256904D01*
X60511247Y-88256904D02*
X60368390Y-88256904D01*
X60368390Y-88256904D02*
X60177914Y-88209285D01*
X60177914Y-88209285D02*
X60082676Y-88161666D01*
X60082676Y-88161666D02*
X59987438Y-88066428D01*
X59987438Y-88066428D02*
X59939819Y-87923571D01*
X59939819Y-87923571D02*
X59939819Y-87828333D01*
X59939819Y-87828333D02*
X59987438Y-87685476D01*
X59987438Y-87685476D02*
X60035057Y-87637857D01*
X60939819Y-86685476D02*
X60939819Y-87256904D01*
X60939819Y-86971190D02*
X59939819Y-86971190D01*
X59939819Y-86971190D02*
X60082676Y-87066428D01*
X60082676Y-87066428D02*
X60177914Y-87161666D01*
X60177914Y-87161666D02*
X60225533Y-87256904D01*
X60368390Y-86114047D02*
X60320771Y-86209285D01*
X60320771Y-86209285D02*
X60273152Y-86256904D01*
X60273152Y-86256904D02*
X60177914Y-86304523D01*
X60177914Y-86304523D02*
X60130295Y-86304523D01*
X60130295Y-86304523D02*
X60035057Y-86256904D01*
X60035057Y-86256904D02*
X59987438Y-86209285D01*
X59987438Y-86209285D02*
X59939819Y-86114047D01*
X59939819Y-86114047D02*
X59939819Y-85923571D01*
X59939819Y-85923571D02*
X59987438Y-85828333D01*
X59987438Y-85828333D02*
X60035057Y-85780714D01*
X60035057Y-85780714D02*
X60130295Y-85733095D01*
X60130295Y-85733095D02*
X60177914Y-85733095D01*
X60177914Y-85733095D02*
X60273152Y-85780714D01*
X60273152Y-85780714D02*
X60320771Y-85828333D01*
X60320771Y-85828333D02*
X60368390Y-85923571D01*
X60368390Y-85923571D02*
X60368390Y-86114047D01*
X60368390Y-86114047D02*
X60416009Y-86209285D01*
X60416009Y-86209285D02*
X60463628Y-86256904D01*
X60463628Y-86256904D02*
X60558866Y-86304523D01*
X60558866Y-86304523D02*
X60749342Y-86304523D01*
X60749342Y-86304523D02*
X60844580Y-86256904D01*
X60844580Y-86256904D02*
X60892200Y-86209285D01*
X60892200Y-86209285D02*
X60939819Y-86114047D01*
X60939819Y-86114047D02*
X60939819Y-85923571D01*
X60939819Y-85923571D02*
X60892200Y-85828333D01*
X60892200Y-85828333D02*
X60844580Y-85780714D01*
X60844580Y-85780714D02*
X60749342Y-85733095D01*
X60749342Y-85733095D02*
X60558866Y-85733095D01*
X60558866Y-85733095D02*
X60463628Y-85780714D01*
X60463628Y-85780714D02*
X60416009Y-85828333D01*
X60416009Y-85828333D02*
X60368390Y-85923571D01*
X79635123Y-90027510D02*
X79587504Y-90075130D01*
X79587504Y-90075130D02*
X79444647Y-90122749D01*
X79444647Y-90122749D02*
X79349409Y-90122749D01*
X79349409Y-90122749D02*
X79206552Y-90075130D01*
X79206552Y-90075130D02*
X79111314Y-89979891D01*
X79111314Y-89979891D02*
X79063695Y-89884653D01*
X79063695Y-89884653D02*
X79016076Y-89694177D01*
X79016076Y-89694177D02*
X79016076Y-89551320D01*
X79016076Y-89551320D02*
X79063695Y-89360844D01*
X79063695Y-89360844D02*
X79111314Y-89265606D01*
X79111314Y-89265606D02*
X79206552Y-89170368D01*
X79206552Y-89170368D02*
X79349409Y-89122749D01*
X79349409Y-89122749D02*
X79444647Y-89122749D01*
X79444647Y-89122749D02*
X79587504Y-89170368D01*
X79587504Y-89170368D02*
X79635123Y-89217987D01*
X80016076Y-89217987D02*
X80063695Y-89170368D01*
X80063695Y-89170368D02*
X80158933Y-89122749D01*
X80158933Y-89122749D02*
X80397028Y-89122749D01*
X80397028Y-89122749D02*
X80492266Y-89170368D01*
X80492266Y-89170368D02*
X80539885Y-89217987D01*
X80539885Y-89217987D02*
X80587504Y-89313225D01*
X80587504Y-89313225D02*
X80587504Y-89408463D01*
X80587504Y-89408463D02*
X80539885Y-89551320D01*
X80539885Y-89551320D02*
X79968457Y-90122749D01*
X79968457Y-90122749D02*
X80587504Y-90122749D01*
X81063695Y-90122749D02*
X81254171Y-90122749D01*
X81254171Y-90122749D02*
X81349409Y-90075130D01*
X81349409Y-90075130D02*
X81397028Y-90027510D01*
X81397028Y-90027510D02*
X81492266Y-89884653D01*
X81492266Y-89884653D02*
X81539885Y-89694177D01*
X81539885Y-89694177D02*
X81539885Y-89313225D01*
X81539885Y-89313225D02*
X81492266Y-89217987D01*
X81492266Y-89217987D02*
X81444647Y-89170368D01*
X81444647Y-89170368D02*
X81349409Y-89122749D01*
X81349409Y-89122749D02*
X81158933Y-89122749D01*
X81158933Y-89122749D02*
X81063695Y-89170368D01*
X81063695Y-89170368D02*
X81016076Y-89217987D01*
X81016076Y-89217987D02*
X80968457Y-89313225D01*
X80968457Y-89313225D02*
X80968457Y-89551320D01*
X80968457Y-89551320D02*
X81016076Y-89646558D01*
X81016076Y-89646558D02*
X81063695Y-89694177D01*
X81063695Y-89694177D02*
X81158933Y-89741796D01*
X81158933Y-89741796D02*
X81349409Y-89741796D01*
X81349409Y-89741796D02*
X81444647Y-89694177D01*
X81444647Y-89694177D02*
X81492266Y-89646558D01*
X81492266Y-89646558D02*
X81539885Y-89551320D01*
X74141894Y-92728068D02*
X73808561Y-92251877D01*
X73570466Y-92728068D02*
X73570466Y-91728068D01*
X73570466Y-91728068D02*
X73951418Y-91728068D01*
X73951418Y-91728068D02*
X74046656Y-91775687D01*
X74046656Y-91775687D02*
X74094275Y-91823306D01*
X74094275Y-91823306D02*
X74141894Y-91918544D01*
X74141894Y-91918544D02*
X74141894Y-92061401D01*
X74141894Y-92061401D02*
X74094275Y-92156639D01*
X74094275Y-92156639D02*
X74046656Y-92204258D01*
X74046656Y-92204258D02*
X73951418Y-92251877D01*
X73951418Y-92251877D02*
X73570466Y-92251877D01*
X74522847Y-91823306D02*
X74570466Y-91775687D01*
X74570466Y-91775687D02*
X74665704Y-91728068D01*
X74665704Y-91728068D02*
X74903799Y-91728068D01*
X74903799Y-91728068D02*
X74999037Y-91775687D01*
X74999037Y-91775687D02*
X75046656Y-91823306D01*
X75046656Y-91823306D02*
X75094275Y-91918544D01*
X75094275Y-91918544D02*
X75094275Y-92013782D01*
X75094275Y-92013782D02*
X75046656Y-92156639D01*
X75046656Y-92156639D02*
X74475228Y-92728068D01*
X74475228Y-92728068D02*
X75094275Y-92728068D01*
X76046656Y-92728068D02*
X75475228Y-92728068D01*
X75760942Y-92728068D02*
X75760942Y-91728068D01*
X75760942Y-91728068D02*
X75665704Y-91870925D01*
X75665704Y-91870925D02*
X75570466Y-91966163D01*
X75570466Y-91966163D02*
X75475228Y-92013782D01*
D12*
X112397634Y-51014304D02*
X111921443Y-51347637D01*
X112397634Y-51585732D02*
X111397634Y-51585732D01*
X111397634Y-51585732D02*
X111397634Y-51204780D01*
X111397634Y-51204780D02*
X111445253Y-51109542D01*
X111445253Y-51109542D02*
X111492872Y-51061923D01*
X111492872Y-51061923D02*
X111588110Y-51014304D01*
X111588110Y-51014304D02*
X111730967Y-51014304D01*
X111730967Y-51014304D02*
X111826205Y-51061923D01*
X111826205Y-51061923D02*
X111873824Y-51109542D01*
X111873824Y-51109542D02*
X111921443Y-51204780D01*
X111921443Y-51204780D02*
X111921443Y-51585732D01*
X111730967Y-50157161D02*
X112397634Y-50157161D01*
X111350015Y-50395256D02*
X112064300Y-50633351D01*
X112064300Y-50633351D02*
X112064300Y-50014304D01*
X111492872Y-49680970D02*
X111445253Y-49633351D01*
X111445253Y-49633351D02*
X111397634Y-49538113D01*
X111397634Y-49538113D02*
X111397634Y-49300018D01*
X111397634Y-49300018D02*
X111445253Y-49204780D01*
X111445253Y-49204780D02*
X111492872Y-49157161D01*
X111492872Y-49157161D02*
X111588110Y-49109542D01*
X111588110Y-49109542D02*
X111683348Y-49109542D01*
X111683348Y-49109542D02*
X111826205Y-49157161D01*
X111826205Y-49157161D02*
X112397634Y-49728589D01*
X112397634Y-49728589D02*
X112397634Y-49109542D01*
D10*
X83905189Y-74627796D02*
X84714712Y-74627796D01*
X84714712Y-74627796D02*
X84809950Y-74580177D01*
X84809950Y-74580177D02*
X84857570Y-74532558D01*
X84857570Y-74532558D02*
X84905189Y-74437320D01*
X84905189Y-74437320D02*
X84905189Y-74246844D01*
X84905189Y-74246844D02*
X84857570Y-74151606D01*
X84857570Y-74151606D02*
X84809950Y-74103987D01*
X84809950Y-74103987D02*
X84714712Y-74056368D01*
X84714712Y-74056368D02*
X83905189Y-74056368D01*
X84905189Y-73056368D02*
X84905189Y-73627796D01*
X84905189Y-73342082D02*
X83905189Y-73342082D01*
X83905189Y-73342082D02*
X84048046Y-73437320D01*
X84048046Y-73437320D02*
X84143284Y-73532558D01*
X84143284Y-73532558D02*
X84190903Y-73627796D01*
X83905189Y-72437320D02*
X83905189Y-72342082D01*
X83905189Y-72342082D02*
X83952808Y-72246844D01*
X83952808Y-72246844D02*
X84000427Y-72199225D01*
X84000427Y-72199225D02*
X84095665Y-72151606D01*
X84095665Y-72151606D02*
X84286141Y-72103987D01*
X84286141Y-72103987D02*
X84524236Y-72103987D01*
X84524236Y-72103987D02*
X84714712Y-72151606D01*
X84714712Y-72151606D02*
X84809950Y-72199225D01*
X84809950Y-72199225D02*
X84857570Y-72246844D01*
X84857570Y-72246844D02*
X84905189Y-72342082D01*
X84905189Y-72342082D02*
X84905189Y-72437320D01*
X84905189Y-72437320D02*
X84857570Y-72532558D01*
X84857570Y-72532558D02*
X84809950Y-72580177D01*
X84809950Y-72580177D02*
X84714712Y-72627796D01*
X84714712Y-72627796D02*
X84524236Y-72675415D01*
X84524236Y-72675415D02*
X84286141Y-72675415D01*
X84286141Y-72675415D02*
X84095665Y-72627796D01*
X84095665Y-72627796D02*
X84000427Y-72580177D01*
X84000427Y-72580177D02*
X83952808Y-72532558D01*
X83952808Y-72532558D02*
X83905189Y-72437320D01*
X65609580Y-87796666D02*
X65657200Y-87844285D01*
X65657200Y-87844285D02*
X65704819Y-87987142D01*
X65704819Y-87987142D02*
X65704819Y-88082380D01*
X65704819Y-88082380D02*
X65657200Y-88225237D01*
X65657200Y-88225237D02*
X65561961Y-88320475D01*
X65561961Y-88320475D02*
X65466723Y-88368094D01*
X65466723Y-88368094D02*
X65276247Y-88415713D01*
X65276247Y-88415713D02*
X65133390Y-88415713D01*
X65133390Y-88415713D02*
X64942914Y-88368094D01*
X64942914Y-88368094D02*
X64847676Y-88320475D01*
X64847676Y-88320475D02*
X64752438Y-88225237D01*
X64752438Y-88225237D02*
X64704819Y-88082380D01*
X64704819Y-88082380D02*
X64704819Y-87987142D01*
X64704819Y-87987142D02*
X64752438Y-87844285D01*
X64752438Y-87844285D02*
X64800057Y-87796666D01*
X65133390Y-87225237D02*
X65085771Y-87320475D01*
X65085771Y-87320475D02*
X65038152Y-87368094D01*
X65038152Y-87368094D02*
X64942914Y-87415713D01*
X64942914Y-87415713D02*
X64895295Y-87415713D01*
X64895295Y-87415713D02*
X64800057Y-87368094D01*
X64800057Y-87368094D02*
X64752438Y-87320475D01*
X64752438Y-87320475D02*
X64704819Y-87225237D01*
X64704819Y-87225237D02*
X64704819Y-87034761D01*
X64704819Y-87034761D02*
X64752438Y-86939523D01*
X64752438Y-86939523D02*
X64800057Y-86891904D01*
X64800057Y-86891904D02*
X64895295Y-86844285D01*
X64895295Y-86844285D02*
X64942914Y-86844285D01*
X64942914Y-86844285D02*
X65038152Y-86891904D01*
X65038152Y-86891904D02*
X65085771Y-86939523D01*
X65085771Y-86939523D02*
X65133390Y-87034761D01*
X65133390Y-87034761D02*
X65133390Y-87225237D01*
X65133390Y-87225237D02*
X65181009Y-87320475D01*
X65181009Y-87320475D02*
X65228628Y-87368094D01*
X65228628Y-87368094D02*
X65323866Y-87415713D01*
X65323866Y-87415713D02*
X65514342Y-87415713D01*
X65514342Y-87415713D02*
X65609580Y-87368094D01*
X65609580Y-87368094D02*
X65657200Y-87320475D01*
X65657200Y-87320475D02*
X65704819Y-87225237D01*
X65704819Y-87225237D02*
X65704819Y-87034761D01*
X65704819Y-87034761D02*
X65657200Y-86939523D01*
X65657200Y-86939523D02*
X65609580Y-86891904D01*
X65609580Y-86891904D02*
X65514342Y-86844285D01*
X65514342Y-86844285D02*
X65323866Y-86844285D01*
X65323866Y-86844285D02*
X65228628Y-86891904D01*
X65228628Y-86891904D02*
X65181009Y-86939523D01*
X65181009Y-86939523D02*
X65133390Y-87034761D01*
X81639580Y-74302857D02*
X81687200Y-74350476D01*
X81687200Y-74350476D02*
X81734819Y-74493333D01*
X81734819Y-74493333D02*
X81734819Y-74588571D01*
X81734819Y-74588571D02*
X81687200Y-74731428D01*
X81687200Y-74731428D02*
X81591961Y-74826666D01*
X81591961Y-74826666D02*
X81496723Y-74874285D01*
X81496723Y-74874285D02*
X81306247Y-74921904D01*
X81306247Y-74921904D02*
X81163390Y-74921904D01*
X81163390Y-74921904D02*
X80972914Y-74874285D01*
X80972914Y-74874285D02*
X80877676Y-74826666D01*
X80877676Y-74826666D02*
X80782438Y-74731428D01*
X80782438Y-74731428D02*
X80734819Y-74588571D01*
X80734819Y-74588571D02*
X80734819Y-74493333D01*
X80734819Y-74493333D02*
X80782438Y-74350476D01*
X80782438Y-74350476D02*
X80830057Y-74302857D01*
X80734819Y-73969523D02*
X80734819Y-73350476D01*
X80734819Y-73350476D02*
X81115771Y-73683809D01*
X81115771Y-73683809D02*
X81115771Y-73540952D01*
X81115771Y-73540952D02*
X81163390Y-73445714D01*
X81163390Y-73445714D02*
X81211009Y-73398095D01*
X81211009Y-73398095D02*
X81306247Y-73350476D01*
X81306247Y-73350476D02*
X81544342Y-73350476D01*
X81544342Y-73350476D02*
X81639580Y-73398095D01*
X81639580Y-73398095D02*
X81687200Y-73445714D01*
X81687200Y-73445714D02*
X81734819Y-73540952D01*
X81734819Y-73540952D02*
X81734819Y-73826666D01*
X81734819Y-73826666D02*
X81687200Y-73921904D01*
X81687200Y-73921904D02*
X81639580Y-73969523D01*
X80734819Y-72731428D02*
X80734819Y-72636190D01*
X80734819Y-72636190D02*
X80782438Y-72540952D01*
X80782438Y-72540952D02*
X80830057Y-72493333D01*
X80830057Y-72493333D02*
X80925295Y-72445714D01*
X80925295Y-72445714D02*
X81115771Y-72398095D01*
X81115771Y-72398095D02*
X81353866Y-72398095D01*
X81353866Y-72398095D02*
X81544342Y-72445714D01*
X81544342Y-72445714D02*
X81639580Y-72493333D01*
X81639580Y-72493333D02*
X81687200Y-72540952D01*
X81687200Y-72540952D02*
X81734819Y-72636190D01*
X81734819Y-72636190D02*
X81734819Y-72731428D01*
X81734819Y-72731428D02*
X81687200Y-72826666D01*
X81687200Y-72826666D02*
X81639580Y-72874285D01*
X81639580Y-72874285D02*
X81544342Y-72921904D01*
X81544342Y-72921904D02*
X81353866Y-72969523D01*
X81353866Y-72969523D02*
X81115771Y-72969523D01*
X81115771Y-72969523D02*
X80925295Y-72921904D01*
X80925295Y-72921904D02*
X80830057Y-72874285D01*
X80830057Y-72874285D02*
X80782438Y-72826666D01*
X80782438Y-72826666D02*
X80734819Y-72731428D01*
X58351867Y-105632080D02*
X57875677Y-105632080D01*
X57875677Y-105632080D02*
X57875677Y-104632080D01*
X58589963Y-104632080D02*
X59209010Y-104632080D01*
X59209010Y-104632080D02*
X58875677Y-105013032D01*
X58875677Y-105013032D02*
X59018534Y-105013032D01*
X59018534Y-105013032D02*
X59113772Y-105060651D01*
X59113772Y-105060651D02*
X59161391Y-105108270D01*
X59161391Y-105108270D02*
X59209010Y-105203508D01*
X59209010Y-105203508D02*
X59209010Y-105441603D01*
X59209010Y-105441603D02*
X59161391Y-105536841D01*
X59161391Y-105536841D02*
X59113772Y-105584461D01*
X59113772Y-105584461D02*
X59018534Y-105632080D01*
X59018534Y-105632080D02*
X58732820Y-105632080D01*
X58732820Y-105632080D02*
X58637582Y-105584461D01*
X58637582Y-105584461D02*
X58589963Y-105536841D01*
X107481179Y-96390118D02*
X107528799Y-96437737D01*
X107528799Y-96437737D02*
X107576418Y-96580594D01*
X107576418Y-96580594D02*
X107576418Y-96675832D01*
X107576418Y-96675832D02*
X107528799Y-96818689D01*
X107528799Y-96818689D02*
X107433560Y-96913927D01*
X107433560Y-96913927D02*
X107338322Y-96961546D01*
X107338322Y-96961546D02*
X107147846Y-97009165D01*
X107147846Y-97009165D02*
X107004989Y-97009165D01*
X107004989Y-97009165D02*
X106814513Y-96961546D01*
X106814513Y-96961546D02*
X106719275Y-96913927D01*
X106719275Y-96913927D02*
X106624037Y-96818689D01*
X106624037Y-96818689D02*
X106576418Y-96675832D01*
X106576418Y-96675832D02*
X106576418Y-96580594D01*
X106576418Y-96580594D02*
X106624037Y-96437737D01*
X106624037Y-96437737D02*
X106671656Y-96390118D01*
X106671656Y-96009165D02*
X106624037Y-95961546D01*
X106624037Y-95961546D02*
X106576418Y-95866308D01*
X106576418Y-95866308D02*
X106576418Y-95628213D01*
X106576418Y-95628213D02*
X106624037Y-95532975D01*
X106624037Y-95532975D02*
X106671656Y-95485356D01*
X106671656Y-95485356D02*
X106766894Y-95437737D01*
X106766894Y-95437737D02*
X106862132Y-95437737D01*
X106862132Y-95437737D02*
X107004989Y-95485356D01*
X107004989Y-95485356D02*
X107576418Y-96056784D01*
X107576418Y-96056784D02*
X107576418Y-95437737D01*
X106576418Y-95104403D02*
X106576418Y-94485356D01*
X106576418Y-94485356D02*
X106957370Y-94818689D01*
X106957370Y-94818689D02*
X106957370Y-94675832D01*
X106957370Y-94675832D02*
X107004989Y-94580594D01*
X107004989Y-94580594D02*
X107052608Y-94532975D01*
X107052608Y-94532975D02*
X107147846Y-94485356D01*
X107147846Y-94485356D02*
X107385941Y-94485356D01*
X107385941Y-94485356D02*
X107481179Y-94532975D01*
X107481179Y-94532975D02*
X107528799Y-94580594D01*
X107528799Y-94580594D02*
X107576418Y-94675832D01*
X107576418Y-94675832D02*
X107576418Y-94961546D01*
X107576418Y-94961546D02*
X107528799Y-95056784D01*
X107528799Y-95056784D02*
X107481179Y-95104403D01*
X99655799Y-78045495D02*
X99322466Y-77569304D01*
X99084371Y-78045495D02*
X99084371Y-77045495D01*
X99084371Y-77045495D02*
X99465323Y-77045495D01*
X99465323Y-77045495D02*
X99560561Y-77093114D01*
X99560561Y-77093114D02*
X99608180Y-77140733D01*
X99608180Y-77140733D02*
X99655799Y-77235971D01*
X99655799Y-77235971D02*
X99655799Y-77378828D01*
X99655799Y-77378828D02*
X99608180Y-77474066D01*
X99608180Y-77474066D02*
X99560561Y-77521685D01*
X99560561Y-77521685D02*
X99465323Y-77569304D01*
X99465323Y-77569304D02*
X99084371Y-77569304D01*
X99989133Y-77045495D02*
X100608180Y-77045495D01*
X100608180Y-77045495D02*
X100274847Y-77426447D01*
X100274847Y-77426447D02*
X100417704Y-77426447D01*
X100417704Y-77426447D02*
X100512942Y-77474066D01*
X100512942Y-77474066D02*
X100560561Y-77521685D01*
X100560561Y-77521685D02*
X100608180Y-77616923D01*
X100608180Y-77616923D02*
X100608180Y-77855018D01*
X100608180Y-77855018D02*
X100560561Y-77950256D01*
X100560561Y-77950256D02*
X100512942Y-77997876D01*
X100512942Y-77997876D02*
X100417704Y-78045495D01*
X100417704Y-78045495D02*
X100131990Y-78045495D01*
X100131990Y-78045495D02*
X100036752Y-77997876D01*
X100036752Y-77997876D02*
X99989133Y-77950256D01*
X101560561Y-78045495D02*
X100989133Y-78045495D01*
X101274847Y-78045495D02*
X101274847Y-77045495D01*
X101274847Y-77045495D02*
X101179609Y-77188352D01*
X101179609Y-77188352D02*
X101084371Y-77283590D01*
X101084371Y-77283590D02*
X100989133Y-77331209D01*
X85985469Y-68711788D02*
X86033089Y-68759407D01*
X86033089Y-68759407D02*
X86080708Y-68902264D01*
X86080708Y-68902264D02*
X86080708Y-68997502D01*
X86080708Y-68997502D02*
X86033089Y-69140359D01*
X86033089Y-69140359D02*
X85937850Y-69235597D01*
X85937850Y-69235597D02*
X85842612Y-69283216D01*
X85842612Y-69283216D02*
X85652136Y-69330835D01*
X85652136Y-69330835D02*
X85509279Y-69330835D01*
X85509279Y-69330835D02*
X85318803Y-69283216D01*
X85318803Y-69283216D02*
X85223565Y-69235597D01*
X85223565Y-69235597D02*
X85128327Y-69140359D01*
X85128327Y-69140359D02*
X85080708Y-68997502D01*
X85080708Y-68997502D02*
X85080708Y-68902264D01*
X85080708Y-68902264D02*
X85128327Y-68759407D01*
X85128327Y-68759407D02*
X85175946Y-68711788D01*
X86080708Y-67759407D02*
X86080708Y-68330835D01*
X86080708Y-68045121D02*
X85080708Y-68045121D01*
X85080708Y-68045121D02*
X85223565Y-68140359D01*
X85223565Y-68140359D02*
X85318803Y-68235597D01*
X85318803Y-68235597D02*
X85366422Y-68330835D01*
X85414041Y-66902264D02*
X86080708Y-66902264D01*
X85033089Y-67140359D02*
X85747374Y-67378454D01*
X85747374Y-67378454D02*
X85747374Y-66759407D01*
X93952472Y-64310763D02*
X93619139Y-63834572D01*
X93381044Y-64310763D02*
X93381044Y-63310763D01*
X93381044Y-63310763D02*
X93761996Y-63310763D01*
X93761996Y-63310763D02*
X93857234Y-63358382D01*
X93857234Y-63358382D02*
X93904853Y-63406001D01*
X93904853Y-63406001D02*
X93952472Y-63501239D01*
X93952472Y-63501239D02*
X93952472Y-63644096D01*
X93952472Y-63644096D02*
X93904853Y-63739334D01*
X93904853Y-63739334D02*
X93857234Y-63786953D01*
X93857234Y-63786953D02*
X93761996Y-63834572D01*
X93761996Y-63834572D02*
X93381044Y-63834572D01*
X94333425Y-63406001D02*
X94381044Y-63358382D01*
X94381044Y-63358382D02*
X94476282Y-63310763D01*
X94476282Y-63310763D02*
X94714377Y-63310763D01*
X94714377Y-63310763D02*
X94809615Y-63358382D01*
X94809615Y-63358382D02*
X94857234Y-63406001D01*
X94857234Y-63406001D02*
X94904853Y-63501239D01*
X94904853Y-63501239D02*
X94904853Y-63596477D01*
X94904853Y-63596477D02*
X94857234Y-63739334D01*
X94857234Y-63739334D02*
X94285806Y-64310763D01*
X94285806Y-64310763D02*
X94904853Y-64310763D01*
X95476282Y-63739334D02*
X95381044Y-63691715D01*
X95381044Y-63691715D02*
X95333425Y-63644096D01*
X95333425Y-63644096D02*
X95285806Y-63548858D01*
X95285806Y-63548858D02*
X95285806Y-63501239D01*
X95285806Y-63501239D02*
X95333425Y-63406001D01*
X95333425Y-63406001D02*
X95381044Y-63358382D01*
X95381044Y-63358382D02*
X95476282Y-63310763D01*
X95476282Y-63310763D02*
X95666758Y-63310763D01*
X95666758Y-63310763D02*
X95761996Y-63358382D01*
X95761996Y-63358382D02*
X95809615Y-63406001D01*
X95809615Y-63406001D02*
X95857234Y-63501239D01*
X95857234Y-63501239D02*
X95857234Y-63548858D01*
X95857234Y-63548858D02*
X95809615Y-63644096D01*
X95809615Y-63644096D02*
X95761996Y-63691715D01*
X95761996Y-63691715D02*
X95666758Y-63739334D01*
X95666758Y-63739334D02*
X95476282Y-63739334D01*
X95476282Y-63739334D02*
X95381044Y-63786953D01*
X95381044Y-63786953D02*
X95333425Y-63834572D01*
X95333425Y-63834572D02*
X95285806Y-63929810D01*
X95285806Y-63929810D02*
X95285806Y-64120286D01*
X95285806Y-64120286D02*
X95333425Y-64215524D01*
X95333425Y-64215524D02*
X95381044Y-64263144D01*
X95381044Y-64263144D02*
X95476282Y-64310763D01*
X95476282Y-64310763D02*
X95666758Y-64310763D01*
X95666758Y-64310763D02*
X95761996Y-64263144D01*
X95761996Y-64263144D02*
X95809615Y-64215524D01*
X95809615Y-64215524D02*
X95857234Y-64120286D01*
X95857234Y-64120286D02*
X95857234Y-63929810D01*
X95857234Y-63929810D02*
X95809615Y-63834572D01*
X95809615Y-63834572D02*
X95761996Y-63786953D01*
X95761996Y-63786953D02*
X95666758Y-63739334D01*
X93585642Y-54540521D02*
X93252309Y-54064330D01*
X93014214Y-54540521D02*
X93014214Y-53540521D01*
X93014214Y-53540521D02*
X93395166Y-53540521D01*
X93395166Y-53540521D02*
X93490404Y-53588140D01*
X93490404Y-53588140D02*
X93538023Y-53635759D01*
X93538023Y-53635759D02*
X93585642Y-53730997D01*
X93585642Y-53730997D02*
X93585642Y-53873854D01*
X93585642Y-53873854D02*
X93538023Y-53969092D01*
X93538023Y-53969092D02*
X93490404Y-54016711D01*
X93490404Y-54016711D02*
X93395166Y-54064330D01*
X93395166Y-54064330D02*
X93014214Y-54064330D01*
X93966595Y-53635759D02*
X94014214Y-53588140D01*
X94014214Y-53588140D02*
X94109452Y-53540521D01*
X94109452Y-53540521D02*
X94347547Y-53540521D01*
X94347547Y-53540521D02*
X94442785Y-53588140D01*
X94442785Y-53588140D02*
X94490404Y-53635759D01*
X94490404Y-53635759D02*
X94538023Y-53730997D01*
X94538023Y-53730997D02*
X94538023Y-53826235D01*
X94538023Y-53826235D02*
X94490404Y-53969092D01*
X94490404Y-53969092D02*
X93918976Y-54540521D01*
X93918976Y-54540521D02*
X94538023Y-54540521D01*
X94871357Y-53540521D02*
X95538023Y-53540521D01*
X95538023Y-53540521D02*
X95109452Y-54540521D01*
X102667805Y-67781986D02*
X102191614Y-68115319D01*
X102667805Y-68353414D02*
X101667805Y-68353414D01*
X101667805Y-68353414D02*
X101667805Y-67972462D01*
X101667805Y-67972462D02*
X101715424Y-67877224D01*
X101715424Y-67877224D02*
X101763043Y-67829605D01*
X101763043Y-67829605D02*
X101858281Y-67781986D01*
X101858281Y-67781986D02*
X102001138Y-67781986D01*
X102001138Y-67781986D02*
X102096376Y-67829605D01*
X102096376Y-67829605D02*
X102143995Y-67877224D01*
X102143995Y-67877224D02*
X102191614Y-67972462D01*
X102191614Y-67972462D02*
X102191614Y-68353414D01*
X101667805Y-67448652D02*
X101667805Y-66829605D01*
X101667805Y-66829605D02*
X102048757Y-67162938D01*
X102048757Y-67162938D02*
X102048757Y-67020081D01*
X102048757Y-67020081D02*
X102096376Y-66924843D01*
X102096376Y-66924843D02*
X102143995Y-66877224D01*
X102143995Y-66877224D02*
X102239233Y-66829605D01*
X102239233Y-66829605D02*
X102477328Y-66829605D01*
X102477328Y-66829605D02*
X102572566Y-66877224D01*
X102572566Y-66877224D02*
X102620186Y-66924843D01*
X102620186Y-66924843D02*
X102667805Y-67020081D01*
X102667805Y-67020081D02*
X102667805Y-67305795D01*
X102667805Y-67305795D02*
X102620186Y-67401033D01*
X102620186Y-67401033D02*
X102572566Y-67448652D01*
X101667805Y-66496271D02*
X101667805Y-65829605D01*
X101667805Y-65829605D02*
X102667805Y-66258176D01*
X123488207Y-68072233D02*
X123012016Y-68405566D01*
X123488207Y-68643661D02*
X122488207Y-68643661D01*
X122488207Y-68643661D02*
X122488207Y-68262709D01*
X122488207Y-68262709D02*
X122535826Y-68167471D01*
X122535826Y-68167471D02*
X122583445Y-68119852D01*
X122583445Y-68119852D02*
X122678683Y-68072233D01*
X122678683Y-68072233D02*
X122821540Y-68072233D01*
X122821540Y-68072233D02*
X122916778Y-68119852D01*
X122916778Y-68119852D02*
X122964397Y-68167471D01*
X122964397Y-68167471D02*
X123012016Y-68262709D01*
X123012016Y-68262709D02*
X123012016Y-68643661D01*
X122488207Y-67738899D02*
X122488207Y-67119852D01*
X122488207Y-67119852D02*
X122869159Y-67453185D01*
X122869159Y-67453185D02*
X122869159Y-67310328D01*
X122869159Y-67310328D02*
X122916778Y-67215090D01*
X122916778Y-67215090D02*
X122964397Y-67167471D01*
X122964397Y-67167471D02*
X123059635Y-67119852D01*
X123059635Y-67119852D02*
X123297730Y-67119852D01*
X123297730Y-67119852D02*
X123392968Y-67167471D01*
X123392968Y-67167471D02*
X123440588Y-67215090D01*
X123440588Y-67215090D02*
X123488207Y-67310328D01*
X123488207Y-67310328D02*
X123488207Y-67596042D01*
X123488207Y-67596042D02*
X123440588Y-67691280D01*
X123440588Y-67691280D02*
X123392968Y-67738899D01*
X122488207Y-66215090D02*
X122488207Y-66691280D01*
X122488207Y-66691280D02*
X122964397Y-66738899D01*
X122964397Y-66738899D02*
X122916778Y-66691280D01*
X122916778Y-66691280D02*
X122869159Y-66596042D01*
X122869159Y-66596042D02*
X122869159Y-66357947D01*
X122869159Y-66357947D02*
X122916778Y-66262709D01*
X122916778Y-66262709D02*
X122964397Y-66215090D01*
X122964397Y-66215090D02*
X123059635Y-66167471D01*
X123059635Y-66167471D02*
X123297730Y-66167471D01*
X123297730Y-66167471D02*
X123392968Y-66215090D01*
X123392968Y-66215090D02*
X123440588Y-66262709D01*
X123440588Y-66262709D02*
X123488207Y-66357947D01*
X123488207Y-66357947D02*
X123488207Y-66596042D01*
X123488207Y-66596042D02*
X123440588Y-66691280D01*
X123440588Y-66691280D02*
X123392968Y-66738899D01*
X128987799Y-68111237D02*
X128511608Y-68444570D01*
X128987799Y-68682665D02*
X127987799Y-68682665D01*
X127987799Y-68682665D02*
X127987799Y-68301713D01*
X127987799Y-68301713D02*
X128035418Y-68206475D01*
X128035418Y-68206475D02*
X128083037Y-68158856D01*
X128083037Y-68158856D02*
X128178275Y-68111237D01*
X128178275Y-68111237D02*
X128321132Y-68111237D01*
X128321132Y-68111237D02*
X128416370Y-68158856D01*
X128416370Y-68158856D02*
X128463989Y-68206475D01*
X128463989Y-68206475D02*
X128511608Y-68301713D01*
X128511608Y-68301713D02*
X128511608Y-68682665D01*
X127987799Y-67777903D02*
X127987799Y-67158856D01*
X127987799Y-67158856D02*
X128368751Y-67492189D01*
X128368751Y-67492189D02*
X128368751Y-67349332D01*
X128368751Y-67349332D02*
X128416370Y-67254094D01*
X128416370Y-67254094D02*
X128463989Y-67206475D01*
X128463989Y-67206475D02*
X128559227Y-67158856D01*
X128559227Y-67158856D02*
X128797322Y-67158856D01*
X128797322Y-67158856D02*
X128892560Y-67206475D01*
X128892560Y-67206475D02*
X128940180Y-67254094D01*
X128940180Y-67254094D02*
X128987799Y-67349332D01*
X128987799Y-67349332D02*
X128987799Y-67635046D01*
X128987799Y-67635046D02*
X128940180Y-67730284D01*
X128940180Y-67730284D02*
X128892560Y-67777903D01*
X128321132Y-66301713D02*
X128987799Y-66301713D01*
X127940180Y-66539808D02*
X128654465Y-66777903D01*
X128654465Y-66777903D02*
X128654465Y-66158856D01*
X95691653Y-67928560D02*
X95215462Y-68261893D01*
X95691653Y-68499988D02*
X94691653Y-68499988D01*
X94691653Y-68499988D02*
X94691653Y-68119036D01*
X94691653Y-68119036D02*
X94739272Y-68023798D01*
X94739272Y-68023798D02*
X94786891Y-67976179D01*
X94786891Y-67976179D02*
X94882129Y-67928560D01*
X94882129Y-67928560D02*
X95024986Y-67928560D01*
X95024986Y-67928560D02*
X95120224Y-67976179D01*
X95120224Y-67976179D02*
X95167843Y-68023798D01*
X95167843Y-68023798D02*
X95215462Y-68119036D01*
X95215462Y-68119036D02*
X95215462Y-68499988D01*
X94691653Y-67595226D02*
X94691653Y-66976179D01*
X94691653Y-66976179D02*
X95072605Y-67309512D01*
X95072605Y-67309512D02*
X95072605Y-67166655D01*
X95072605Y-67166655D02*
X95120224Y-67071417D01*
X95120224Y-67071417D02*
X95167843Y-67023798D01*
X95167843Y-67023798D02*
X95263081Y-66976179D01*
X95263081Y-66976179D02*
X95501176Y-66976179D01*
X95501176Y-66976179D02*
X95596414Y-67023798D01*
X95596414Y-67023798D02*
X95644034Y-67071417D01*
X95644034Y-67071417D02*
X95691653Y-67166655D01*
X95691653Y-67166655D02*
X95691653Y-67452369D01*
X95691653Y-67452369D02*
X95644034Y-67547607D01*
X95644034Y-67547607D02*
X95596414Y-67595226D01*
X94691653Y-66119036D02*
X94691653Y-66309512D01*
X94691653Y-66309512D02*
X94739272Y-66404750D01*
X94739272Y-66404750D02*
X94786891Y-66452369D01*
X94786891Y-66452369D02*
X94929748Y-66547607D01*
X94929748Y-66547607D02*
X95120224Y-66595226D01*
X95120224Y-66595226D02*
X95501176Y-66595226D01*
X95501176Y-66595226D02*
X95596414Y-66547607D01*
X95596414Y-66547607D02*
X95644034Y-66499988D01*
X95644034Y-66499988D02*
X95691653Y-66404750D01*
X95691653Y-66404750D02*
X95691653Y-66214274D01*
X95691653Y-66214274D02*
X95644034Y-66119036D01*
X95644034Y-66119036D02*
X95596414Y-66071417D01*
X95596414Y-66071417D02*
X95501176Y-66023798D01*
X95501176Y-66023798D02*
X95263081Y-66023798D01*
X95263081Y-66023798D02*
X95167843Y-66071417D01*
X95167843Y-66071417D02*
X95120224Y-66119036D01*
X95120224Y-66119036D02*
X95072605Y-66214274D01*
X95072605Y-66214274D02*
X95072605Y-66404750D01*
X95072605Y-66404750D02*
X95120224Y-66499988D01*
X95120224Y-66499988D02*
X95167843Y-66547607D01*
X95167843Y-66547607D02*
X95263081Y-66595226D01*
X68638937Y-96945580D02*
X68162746Y-97278913D01*
X68638937Y-97517008D02*
X67638937Y-97517008D01*
X67638937Y-97517008D02*
X67638937Y-97136056D01*
X67638937Y-97136056D02*
X67686556Y-97040818D01*
X67686556Y-97040818D02*
X67734175Y-96993199D01*
X67734175Y-96993199D02*
X67829413Y-96945580D01*
X67829413Y-96945580D02*
X67972270Y-96945580D01*
X67972270Y-96945580D02*
X68067508Y-96993199D01*
X68067508Y-96993199D02*
X68115127Y-97040818D01*
X68115127Y-97040818D02*
X68162746Y-97136056D01*
X68162746Y-97136056D02*
X68162746Y-97517008D01*
X67734175Y-96564627D02*
X67686556Y-96517008D01*
X67686556Y-96517008D02*
X67638937Y-96421770D01*
X67638937Y-96421770D02*
X67638937Y-96183675D01*
X67638937Y-96183675D02*
X67686556Y-96088437D01*
X67686556Y-96088437D02*
X67734175Y-96040818D01*
X67734175Y-96040818D02*
X67829413Y-95993199D01*
X67829413Y-95993199D02*
X67924651Y-95993199D01*
X67924651Y-95993199D02*
X68067508Y-96040818D01*
X68067508Y-96040818D02*
X68638937Y-96612246D01*
X68638937Y-96612246D02*
X68638937Y-95993199D01*
X67638937Y-95374151D02*
X67638937Y-95278913D01*
X67638937Y-95278913D02*
X67686556Y-95183675D01*
X67686556Y-95183675D02*
X67734175Y-95136056D01*
X67734175Y-95136056D02*
X67829413Y-95088437D01*
X67829413Y-95088437D02*
X68019889Y-95040818D01*
X68019889Y-95040818D02*
X68257984Y-95040818D01*
X68257984Y-95040818D02*
X68448460Y-95088437D01*
X68448460Y-95088437D02*
X68543698Y-95136056D01*
X68543698Y-95136056D02*
X68591318Y-95183675D01*
X68591318Y-95183675D02*
X68638937Y-95278913D01*
X68638937Y-95278913D02*
X68638937Y-95374151D01*
X68638937Y-95374151D02*
X68591318Y-95469389D01*
X68591318Y-95469389D02*
X68543698Y-95517008D01*
X68543698Y-95517008D02*
X68448460Y-95564627D01*
X68448460Y-95564627D02*
X68257984Y-95612246D01*
X68257984Y-95612246D02*
X68019889Y-95612246D01*
X68019889Y-95612246D02*
X67829413Y-95564627D01*
X67829413Y-95564627D02*
X67734175Y-95517008D01*
X67734175Y-95517008D02*
X67686556Y-95469389D01*
X67686556Y-95469389D02*
X67638937Y-95374151D01*
X128929293Y-71114560D02*
X128453102Y-71447893D01*
X128929293Y-71685988D02*
X127929293Y-71685988D01*
X127929293Y-71685988D02*
X127929293Y-71305036D01*
X127929293Y-71305036D02*
X127976912Y-71209798D01*
X127976912Y-71209798D02*
X128024531Y-71162179D01*
X128024531Y-71162179D02*
X128119769Y-71114560D01*
X128119769Y-71114560D02*
X128262626Y-71114560D01*
X128262626Y-71114560D02*
X128357864Y-71162179D01*
X128357864Y-71162179D02*
X128405483Y-71209798D01*
X128405483Y-71209798D02*
X128453102Y-71305036D01*
X128453102Y-71305036D02*
X128453102Y-71685988D01*
X127929293Y-70781226D02*
X127929293Y-70162179D01*
X127929293Y-70162179D02*
X128310245Y-70495512D01*
X128310245Y-70495512D02*
X128310245Y-70352655D01*
X128310245Y-70352655D02*
X128357864Y-70257417D01*
X128357864Y-70257417D02*
X128405483Y-70209798D01*
X128405483Y-70209798D02*
X128500721Y-70162179D01*
X128500721Y-70162179D02*
X128738816Y-70162179D01*
X128738816Y-70162179D02*
X128834054Y-70209798D01*
X128834054Y-70209798D02*
X128881674Y-70257417D01*
X128881674Y-70257417D02*
X128929293Y-70352655D01*
X128929293Y-70352655D02*
X128929293Y-70638369D01*
X128929293Y-70638369D02*
X128881674Y-70733607D01*
X128881674Y-70733607D02*
X128834054Y-70781226D01*
X127929293Y-69828845D02*
X127929293Y-69209798D01*
X127929293Y-69209798D02*
X128310245Y-69543131D01*
X128310245Y-69543131D02*
X128310245Y-69400274D01*
X128310245Y-69400274D02*
X128357864Y-69305036D01*
X128357864Y-69305036D02*
X128405483Y-69257417D01*
X128405483Y-69257417D02*
X128500721Y-69209798D01*
X128500721Y-69209798D02*
X128738816Y-69209798D01*
X128738816Y-69209798D02*
X128834054Y-69257417D01*
X128834054Y-69257417D02*
X128881674Y-69305036D01*
X128881674Y-69305036D02*
X128929293Y-69400274D01*
X128929293Y-69400274D02*
X128929293Y-69685988D01*
X128929293Y-69685988D02*
X128881674Y-69781226D01*
X128881674Y-69781226D02*
X128834054Y-69828845D01*
X102844193Y-78045495D02*
X102510860Y-77569304D01*
X102272765Y-78045495D02*
X102272765Y-77045495D01*
X102272765Y-77045495D02*
X102653717Y-77045495D01*
X102653717Y-77045495D02*
X102748955Y-77093114D01*
X102748955Y-77093114D02*
X102796574Y-77140733D01*
X102796574Y-77140733D02*
X102844193Y-77235971D01*
X102844193Y-77235971D02*
X102844193Y-77378828D01*
X102844193Y-77378828D02*
X102796574Y-77474066D01*
X102796574Y-77474066D02*
X102748955Y-77521685D01*
X102748955Y-77521685D02*
X102653717Y-77569304D01*
X102653717Y-77569304D02*
X102272765Y-77569304D01*
X103796574Y-78045495D02*
X103225146Y-78045495D01*
X103510860Y-78045495D02*
X103510860Y-77045495D01*
X103510860Y-77045495D02*
X103415622Y-77188352D01*
X103415622Y-77188352D02*
X103320384Y-77283590D01*
X103320384Y-77283590D02*
X103225146Y-77331209D01*
X104653717Y-77378828D02*
X104653717Y-78045495D01*
X104415622Y-76997876D02*
X104177527Y-77712161D01*
X104177527Y-77712161D02*
X104796574Y-77712161D01*
X95575137Y-101291222D02*
X95527518Y-101338842D01*
X95527518Y-101338842D02*
X95384661Y-101386461D01*
X95384661Y-101386461D02*
X95289423Y-101386461D01*
X95289423Y-101386461D02*
X95146566Y-101338842D01*
X95146566Y-101338842D02*
X95051328Y-101243603D01*
X95051328Y-101243603D02*
X95003709Y-101148365D01*
X95003709Y-101148365D02*
X94956090Y-100957889D01*
X94956090Y-100957889D02*
X94956090Y-100815032D01*
X94956090Y-100815032D02*
X95003709Y-100624556D01*
X95003709Y-100624556D02*
X95051328Y-100529318D01*
X95051328Y-100529318D02*
X95146566Y-100434080D01*
X95146566Y-100434080D02*
X95289423Y-100386461D01*
X95289423Y-100386461D02*
X95384661Y-100386461D01*
X95384661Y-100386461D02*
X95527518Y-100434080D01*
X95527518Y-100434080D02*
X95575137Y-100481699D01*
X96527518Y-101386461D02*
X95956090Y-101386461D01*
X96241804Y-101386461D02*
X96241804Y-100386461D01*
X96241804Y-100386461D02*
X96146566Y-100529318D01*
X96146566Y-100529318D02*
X96051328Y-100624556D01*
X96051328Y-100624556D02*
X95956090Y-100672175D01*
X97384661Y-100386461D02*
X97194185Y-100386461D01*
X97194185Y-100386461D02*
X97098947Y-100434080D01*
X97098947Y-100434080D02*
X97051328Y-100481699D01*
X97051328Y-100481699D02*
X96956090Y-100624556D01*
X96956090Y-100624556D02*
X96908471Y-100815032D01*
X96908471Y-100815032D02*
X96908471Y-101195984D01*
X96908471Y-101195984D02*
X96956090Y-101291222D01*
X96956090Y-101291222D02*
X97003709Y-101338842D01*
X97003709Y-101338842D02*
X97098947Y-101386461D01*
X97098947Y-101386461D02*
X97289423Y-101386461D01*
X97289423Y-101386461D02*
X97384661Y-101338842D01*
X97384661Y-101338842D02*
X97432280Y-101291222D01*
X97432280Y-101291222D02*
X97479899Y-101195984D01*
X97479899Y-101195984D02*
X97479899Y-100957889D01*
X97479899Y-100957889D02*
X97432280Y-100862651D01*
X97432280Y-100862651D02*
X97384661Y-100815032D01*
X97384661Y-100815032D02*
X97289423Y-100767413D01*
X97289423Y-100767413D02*
X97098947Y-100767413D01*
X97098947Y-100767413D02*
X97003709Y-100815032D01*
X97003709Y-100815032D02*
X96956090Y-100862651D01*
X96956090Y-100862651D02*
X96908471Y-100957889D01*
X81639580Y-70492857D02*
X81687200Y-70540476D01*
X81687200Y-70540476D02*
X81734819Y-70683333D01*
X81734819Y-70683333D02*
X81734819Y-70778571D01*
X81734819Y-70778571D02*
X81687200Y-70921428D01*
X81687200Y-70921428D02*
X81591961Y-71016666D01*
X81591961Y-71016666D02*
X81496723Y-71064285D01*
X81496723Y-71064285D02*
X81306247Y-71111904D01*
X81306247Y-71111904D02*
X81163390Y-71111904D01*
X81163390Y-71111904D02*
X80972914Y-71064285D01*
X80972914Y-71064285D02*
X80877676Y-71016666D01*
X80877676Y-71016666D02*
X80782438Y-70921428D01*
X80782438Y-70921428D02*
X80734819Y-70778571D01*
X80734819Y-70778571D02*
X80734819Y-70683333D01*
X80734819Y-70683333D02*
X80782438Y-70540476D01*
X80782438Y-70540476D02*
X80830057Y-70492857D01*
X80830057Y-70111904D02*
X80782438Y-70064285D01*
X80782438Y-70064285D02*
X80734819Y-69969047D01*
X80734819Y-69969047D02*
X80734819Y-69730952D01*
X80734819Y-69730952D02*
X80782438Y-69635714D01*
X80782438Y-69635714D02*
X80830057Y-69588095D01*
X80830057Y-69588095D02*
X80925295Y-69540476D01*
X80925295Y-69540476D02*
X81020533Y-69540476D01*
X81020533Y-69540476D02*
X81163390Y-69588095D01*
X81163390Y-69588095D02*
X81734819Y-70159523D01*
X81734819Y-70159523D02*
X81734819Y-69540476D01*
X80734819Y-68921428D02*
X80734819Y-68826190D01*
X80734819Y-68826190D02*
X80782438Y-68730952D01*
X80782438Y-68730952D02*
X80830057Y-68683333D01*
X80830057Y-68683333D02*
X80925295Y-68635714D01*
X80925295Y-68635714D02*
X81115771Y-68588095D01*
X81115771Y-68588095D02*
X81353866Y-68588095D01*
X81353866Y-68588095D02*
X81544342Y-68635714D01*
X81544342Y-68635714D02*
X81639580Y-68683333D01*
X81639580Y-68683333D02*
X81687200Y-68730952D01*
X81687200Y-68730952D02*
X81734819Y-68826190D01*
X81734819Y-68826190D02*
X81734819Y-68921428D01*
X81734819Y-68921428D02*
X81687200Y-69016666D01*
X81687200Y-69016666D02*
X81639580Y-69064285D01*
X81639580Y-69064285D02*
X81544342Y-69111904D01*
X81544342Y-69111904D02*
X81353866Y-69159523D01*
X81353866Y-69159523D02*
X81115771Y-69159523D01*
X81115771Y-69159523D02*
X80925295Y-69111904D01*
X80925295Y-69111904D02*
X80830057Y-69064285D01*
X80830057Y-69064285D02*
X80782438Y-69016666D01*
X80782438Y-69016666D02*
X80734819Y-68921428D01*
X93005368Y-89560786D02*
X92529177Y-89894119D01*
X93005368Y-90132214D02*
X92005368Y-90132214D01*
X92005368Y-90132214D02*
X92005368Y-89751262D01*
X92005368Y-89751262D02*
X92052987Y-89656024D01*
X92052987Y-89656024D02*
X92100606Y-89608405D01*
X92100606Y-89608405D02*
X92195844Y-89560786D01*
X92195844Y-89560786D02*
X92338701Y-89560786D01*
X92338701Y-89560786D02*
X92433939Y-89608405D01*
X92433939Y-89608405D02*
X92481558Y-89656024D01*
X92481558Y-89656024D02*
X92529177Y-89751262D01*
X92529177Y-89751262D02*
X92529177Y-90132214D01*
X92100606Y-89179833D02*
X92052987Y-89132214D01*
X92052987Y-89132214D02*
X92005368Y-89036976D01*
X92005368Y-89036976D02*
X92005368Y-88798881D01*
X92005368Y-88798881D02*
X92052987Y-88703643D01*
X92052987Y-88703643D02*
X92100606Y-88656024D01*
X92100606Y-88656024D02*
X92195844Y-88608405D01*
X92195844Y-88608405D02*
X92291082Y-88608405D01*
X92291082Y-88608405D02*
X92433939Y-88656024D01*
X92433939Y-88656024D02*
X93005368Y-89227452D01*
X93005368Y-89227452D02*
X93005368Y-88608405D01*
X92100606Y-88227452D02*
X92052987Y-88179833D01*
X92052987Y-88179833D02*
X92005368Y-88084595D01*
X92005368Y-88084595D02*
X92005368Y-87846500D01*
X92005368Y-87846500D02*
X92052987Y-87751262D01*
X92052987Y-87751262D02*
X92100606Y-87703643D01*
X92100606Y-87703643D02*
X92195844Y-87656024D01*
X92195844Y-87656024D02*
X92291082Y-87656024D01*
X92291082Y-87656024D02*
X92433939Y-87703643D01*
X92433939Y-87703643D02*
X93005368Y-88275071D01*
X93005368Y-88275071D02*
X93005368Y-87656024D01*
X95689249Y-80225942D02*
X95736869Y-80273561D01*
X95736869Y-80273561D02*
X95784488Y-80416418D01*
X95784488Y-80416418D02*
X95784488Y-80511656D01*
X95784488Y-80511656D02*
X95736869Y-80654513D01*
X95736869Y-80654513D02*
X95641630Y-80749751D01*
X95641630Y-80749751D02*
X95546392Y-80797370D01*
X95546392Y-80797370D02*
X95355916Y-80844989D01*
X95355916Y-80844989D02*
X95213059Y-80844989D01*
X95213059Y-80844989D02*
X95022583Y-80797370D01*
X95022583Y-80797370D02*
X94927345Y-80749751D01*
X94927345Y-80749751D02*
X94832107Y-80654513D01*
X94832107Y-80654513D02*
X94784488Y-80511656D01*
X94784488Y-80511656D02*
X94784488Y-80416418D01*
X94784488Y-80416418D02*
X94832107Y-80273561D01*
X94832107Y-80273561D02*
X94879726Y-80225942D01*
X94879726Y-79844989D02*
X94832107Y-79797370D01*
X94832107Y-79797370D02*
X94784488Y-79702132D01*
X94784488Y-79702132D02*
X94784488Y-79464037D01*
X94784488Y-79464037D02*
X94832107Y-79368799D01*
X94832107Y-79368799D02*
X94879726Y-79321180D01*
X94879726Y-79321180D02*
X94974964Y-79273561D01*
X94974964Y-79273561D02*
X95070202Y-79273561D01*
X95070202Y-79273561D02*
X95213059Y-79321180D01*
X95213059Y-79321180D02*
X95784488Y-79892608D01*
X95784488Y-79892608D02*
X95784488Y-79273561D01*
X95784488Y-78321180D02*
X95784488Y-78892608D01*
X95784488Y-78606894D02*
X94784488Y-78606894D01*
X94784488Y-78606894D02*
X94927345Y-78702132D01*
X94927345Y-78702132D02*
X95022583Y-78797370D01*
X95022583Y-78797370D02*
X95070202Y-78892608D01*
X99400966Y-73032355D02*
X99353347Y-73079975D01*
X99353347Y-73079975D02*
X99210490Y-73127594D01*
X99210490Y-73127594D02*
X99115252Y-73127594D01*
X99115252Y-73127594D02*
X98972395Y-73079975D01*
X98972395Y-73079975D02*
X98877157Y-72984736D01*
X98877157Y-72984736D02*
X98829538Y-72889498D01*
X98829538Y-72889498D02*
X98781919Y-72699022D01*
X98781919Y-72699022D02*
X98781919Y-72556165D01*
X98781919Y-72556165D02*
X98829538Y-72365689D01*
X98829538Y-72365689D02*
X98877157Y-72270451D01*
X98877157Y-72270451D02*
X98972395Y-72175213D01*
X98972395Y-72175213D02*
X99115252Y-72127594D01*
X99115252Y-72127594D02*
X99210490Y-72127594D01*
X99210490Y-72127594D02*
X99353347Y-72175213D01*
X99353347Y-72175213D02*
X99400966Y-72222832D01*
X99877157Y-73127594D02*
X100067633Y-73127594D01*
X100067633Y-73127594D02*
X100162871Y-73079975D01*
X100162871Y-73079975D02*
X100210490Y-73032355D01*
X100210490Y-73032355D02*
X100305728Y-72889498D01*
X100305728Y-72889498D02*
X100353347Y-72699022D01*
X100353347Y-72699022D02*
X100353347Y-72318070D01*
X100353347Y-72318070D02*
X100305728Y-72222832D01*
X100305728Y-72222832D02*
X100258109Y-72175213D01*
X100258109Y-72175213D02*
X100162871Y-72127594D01*
X100162871Y-72127594D02*
X99972395Y-72127594D01*
X99972395Y-72127594D02*
X99877157Y-72175213D01*
X99877157Y-72175213D02*
X99829538Y-72222832D01*
X99829538Y-72222832D02*
X99781919Y-72318070D01*
X99781919Y-72318070D02*
X99781919Y-72556165D01*
X99781919Y-72556165D02*
X99829538Y-72651403D01*
X99829538Y-72651403D02*
X99877157Y-72699022D01*
X99877157Y-72699022D02*
X99972395Y-72746641D01*
X99972395Y-72746641D02*
X100162871Y-72746641D01*
X100162871Y-72746641D02*
X100258109Y-72699022D01*
X100258109Y-72699022D02*
X100305728Y-72651403D01*
X100305728Y-72651403D02*
X100353347Y-72556165D01*
X75515151Y-87963321D02*
X76324674Y-87963321D01*
X76324674Y-87963321D02*
X76419912Y-87915702D01*
X76419912Y-87915702D02*
X76467532Y-87868083D01*
X76467532Y-87868083D02*
X76515151Y-87772845D01*
X76515151Y-87772845D02*
X76515151Y-87582369D01*
X76515151Y-87582369D02*
X76467532Y-87487131D01*
X76467532Y-87487131D02*
X76419912Y-87439512D01*
X76419912Y-87439512D02*
X76324674Y-87391893D01*
X76324674Y-87391893D02*
X75515151Y-87391893D01*
X75515151Y-87010940D02*
X75515151Y-86391893D01*
X75515151Y-86391893D02*
X75896103Y-86725226D01*
X75896103Y-86725226D02*
X75896103Y-86582369D01*
X75896103Y-86582369D02*
X75943722Y-86487131D01*
X75943722Y-86487131D02*
X75991341Y-86439512D01*
X75991341Y-86439512D02*
X76086579Y-86391893D01*
X76086579Y-86391893D02*
X76324674Y-86391893D01*
X76324674Y-86391893D02*
X76419912Y-86439512D01*
X76419912Y-86439512D02*
X76467532Y-86487131D01*
X76467532Y-86487131D02*
X76515151Y-86582369D01*
X76515151Y-86582369D02*
X76515151Y-86868083D01*
X76515151Y-86868083D02*
X76467532Y-86963321D01*
X76467532Y-86963321D02*
X76419912Y-87010940D01*
X84756666Y-102324819D02*
X84756666Y-103039104D01*
X84756666Y-103039104D02*
X84709047Y-103181961D01*
X84709047Y-103181961D02*
X84613809Y-103277200D01*
X84613809Y-103277200D02*
X84470952Y-103324819D01*
X84470952Y-103324819D02*
X84375714Y-103324819D01*
X85185238Y-102420057D02*
X85232857Y-102372438D01*
X85232857Y-102372438D02*
X85328095Y-102324819D01*
X85328095Y-102324819D02*
X85566190Y-102324819D01*
X85566190Y-102324819D02*
X85661428Y-102372438D01*
X85661428Y-102372438D02*
X85709047Y-102420057D01*
X85709047Y-102420057D02*
X85756666Y-102515295D01*
X85756666Y-102515295D02*
X85756666Y-102610533D01*
X85756666Y-102610533D02*
X85709047Y-102753390D01*
X85709047Y-102753390D02*
X85137619Y-103324819D01*
X85137619Y-103324819D02*
X85756666Y-103324819D01*
X58438294Y-79654103D02*
X57962104Y-79654103D01*
X57962104Y-79654103D02*
X57962104Y-78654103D01*
X59295437Y-79654103D02*
X58724009Y-79654103D01*
X59009723Y-79654103D02*
X59009723Y-78654103D01*
X59009723Y-78654103D02*
X58914485Y-78796960D01*
X58914485Y-78796960D02*
X58819247Y-78892198D01*
X58819247Y-78892198D02*
X58724009Y-78939817D01*
X125803198Y-64617799D02*
X125327007Y-64951132D01*
X125803198Y-65189227D02*
X124803198Y-65189227D01*
X124803198Y-65189227D02*
X124803198Y-64808275D01*
X124803198Y-64808275D02*
X124850817Y-64713037D01*
X124850817Y-64713037D02*
X124898436Y-64665418D01*
X124898436Y-64665418D02*
X124993674Y-64617799D01*
X124993674Y-64617799D02*
X125136531Y-64617799D01*
X125136531Y-64617799D02*
X125231769Y-64665418D01*
X125231769Y-64665418D02*
X125279388Y-64713037D01*
X125279388Y-64713037D02*
X125327007Y-64808275D01*
X125327007Y-64808275D02*
X125327007Y-65189227D01*
X125136531Y-63760656D02*
X125803198Y-63760656D01*
X124755579Y-63998751D02*
X125469864Y-64236846D01*
X125469864Y-64236846D02*
X125469864Y-63617799D01*
X124803198Y-63046370D02*
X124803198Y-62951132D01*
X124803198Y-62951132D02*
X124850817Y-62855894D01*
X124850817Y-62855894D02*
X124898436Y-62808275D01*
X124898436Y-62808275D02*
X124993674Y-62760656D01*
X124993674Y-62760656D02*
X125184150Y-62713037D01*
X125184150Y-62713037D02*
X125422245Y-62713037D01*
X125422245Y-62713037D02*
X125612721Y-62760656D01*
X125612721Y-62760656D02*
X125707959Y-62808275D01*
X125707959Y-62808275D02*
X125755579Y-62855894D01*
X125755579Y-62855894D02*
X125803198Y-62951132D01*
X125803198Y-62951132D02*
X125803198Y-63046370D01*
X125803198Y-63046370D02*
X125755579Y-63141608D01*
X125755579Y-63141608D02*
X125707959Y-63189227D01*
X125707959Y-63189227D02*
X125612721Y-63236846D01*
X125612721Y-63236846D02*
X125422245Y-63284465D01*
X125422245Y-63284465D02*
X125184150Y-63284465D01*
X125184150Y-63284465D02*
X124993674Y-63236846D01*
X124993674Y-63236846D02*
X124898436Y-63189227D01*
X124898436Y-63189227D02*
X124850817Y-63141608D01*
X124850817Y-63141608D02*
X124803198Y-63046370D01*
X60844580Y-83827857D02*
X60892200Y-83875476D01*
X60892200Y-83875476D02*
X60939819Y-84018333D01*
X60939819Y-84018333D02*
X60939819Y-84113571D01*
X60939819Y-84113571D02*
X60892200Y-84256428D01*
X60892200Y-84256428D02*
X60796961Y-84351666D01*
X60796961Y-84351666D02*
X60701723Y-84399285D01*
X60701723Y-84399285D02*
X60511247Y-84446904D01*
X60511247Y-84446904D02*
X60368390Y-84446904D01*
X60368390Y-84446904D02*
X60177914Y-84399285D01*
X60177914Y-84399285D02*
X60082676Y-84351666D01*
X60082676Y-84351666D02*
X59987438Y-84256428D01*
X59987438Y-84256428D02*
X59939819Y-84113571D01*
X59939819Y-84113571D02*
X59939819Y-84018333D01*
X59939819Y-84018333D02*
X59987438Y-83875476D01*
X59987438Y-83875476D02*
X60035057Y-83827857D01*
X60939819Y-82875476D02*
X60939819Y-83446904D01*
X60939819Y-83161190D02*
X59939819Y-83161190D01*
X59939819Y-83161190D02*
X60082676Y-83256428D01*
X60082676Y-83256428D02*
X60177914Y-83351666D01*
X60177914Y-83351666D02*
X60225533Y-83446904D01*
X59939819Y-82256428D02*
X59939819Y-82161190D01*
X59939819Y-82161190D02*
X59987438Y-82065952D01*
X59987438Y-82065952D02*
X60035057Y-82018333D01*
X60035057Y-82018333D02*
X60130295Y-81970714D01*
X60130295Y-81970714D02*
X60320771Y-81923095D01*
X60320771Y-81923095D02*
X60558866Y-81923095D01*
X60558866Y-81923095D02*
X60749342Y-81970714D01*
X60749342Y-81970714D02*
X60844580Y-82018333D01*
X60844580Y-82018333D02*
X60892200Y-82065952D01*
X60892200Y-82065952D02*
X60939819Y-82161190D01*
X60939819Y-82161190D02*
X60939819Y-82256428D01*
X60939819Y-82256428D02*
X60892200Y-82351666D01*
X60892200Y-82351666D02*
X60844580Y-82399285D01*
X60844580Y-82399285D02*
X60749342Y-82446904D01*
X60749342Y-82446904D02*
X60558866Y-82494523D01*
X60558866Y-82494523D02*
X60320771Y-82494523D01*
X60320771Y-82494523D02*
X60130295Y-82446904D01*
X60130295Y-82446904D02*
X60035057Y-82399285D01*
X60035057Y-82399285D02*
X59987438Y-82351666D01*
X59987438Y-82351666D02*
X59939819Y-82256428D01*
X85689515Y-80762937D02*
X85356182Y-80286746D01*
X85118087Y-80762937D02*
X85118087Y-79762937D01*
X85118087Y-79762937D02*
X85499039Y-79762937D01*
X85499039Y-79762937D02*
X85594277Y-79810556D01*
X85594277Y-79810556D02*
X85641896Y-79858175D01*
X85641896Y-79858175D02*
X85689515Y-79953413D01*
X85689515Y-79953413D02*
X85689515Y-80096270D01*
X85689515Y-80096270D02*
X85641896Y-80191508D01*
X85641896Y-80191508D02*
X85594277Y-80239127D01*
X85594277Y-80239127D02*
X85499039Y-80286746D01*
X85499039Y-80286746D02*
X85118087Y-80286746D01*
X86022849Y-79762937D02*
X86641896Y-79762937D01*
X86641896Y-79762937D02*
X86308563Y-80143889D01*
X86308563Y-80143889D02*
X86451420Y-80143889D01*
X86451420Y-80143889D02*
X86546658Y-80191508D01*
X86546658Y-80191508D02*
X86594277Y-80239127D01*
X86594277Y-80239127D02*
X86641896Y-80334365D01*
X86641896Y-80334365D02*
X86641896Y-80572460D01*
X86641896Y-80572460D02*
X86594277Y-80667698D01*
X86594277Y-80667698D02*
X86546658Y-80715318D01*
X86546658Y-80715318D02*
X86451420Y-80762937D01*
X86451420Y-80762937D02*
X86165706Y-80762937D01*
X86165706Y-80762937D02*
X86070468Y-80715318D01*
X86070468Y-80715318D02*
X86022849Y-80667698D01*
X87260944Y-79762937D02*
X87356182Y-79762937D01*
X87356182Y-79762937D02*
X87451420Y-79810556D01*
X87451420Y-79810556D02*
X87499039Y-79858175D01*
X87499039Y-79858175D02*
X87546658Y-79953413D01*
X87546658Y-79953413D02*
X87594277Y-80143889D01*
X87594277Y-80143889D02*
X87594277Y-80381984D01*
X87594277Y-80381984D02*
X87546658Y-80572460D01*
X87546658Y-80572460D02*
X87499039Y-80667698D01*
X87499039Y-80667698D02*
X87451420Y-80715318D01*
X87451420Y-80715318D02*
X87356182Y-80762937D01*
X87356182Y-80762937D02*
X87260944Y-80762937D01*
X87260944Y-80762937D02*
X87165706Y-80715318D01*
X87165706Y-80715318D02*
X87118087Y-80667698D01*
X87118087Y-80667698D02*
X87070468Y-80572460D01*
X87070468Y-80572460D02*
X87022849Y-80381984D01*
X87022849Y-80381984D02*
X87022849Y-80143889D01*
X87022849Y-80143889D02*
X87070468Y-79953413D01*
X87070468Y-79953413D02*
X87118087Y-79858175D01*
X87118087Y-79858175D02*
X87165706Y-79810556D01*
X87165706Y-79810556D02*
X87260944Y-79762937D01*
X75437912Y-59153621D02*
X75485532Y-59201240D01*
X75485532Y-59201240D02*
X75533151Y-59344097D01*
X75533151Y-59344097D02*
X75533151Y-59439335D01*
X75533151Y-59439335D02*
X75485532Y-59582192D01*
X75485532Y-59582192D02*
X75390293Y-59677430D01*
X75390293Y-59677430D02*
X75295055Y-59725049D01*
X75295055Y-59725049D02*
X75104579Y-59772668D01*
X75104579Y-59772668D02*
X74961722Y-59772668D01*
X74961722Y-59772668D02*
X74771246Y-59725049D01*
X74771246Y-59725049D02*
X74676008Y-59677430D01*
X74676008Y-59677430D02*
X74580770Y-59582192D01*
X74580770Y-59582192D02*
X74533151Y-59439335D01*
X74533151Y-59439335D02*
X74533151Y-59344097D01*
X74533151Y-59344097D02*
X74580770Y-59201240D01*
X74580770Y-59201240D02*
X74628389Y-59153621D01*
X74628389Y-58772668D02*
X74580770Y-58725049D01*
X74580770Y-58725049D02*
X74533151Y-58629811D01*
X74533151Y-58629811D02*
X74533151Y-58391716D01*
X74533151Y-58391716D02*
X74580770Y-58296478D01*
X74580770Y-58296478D02*
X74628389Y-58248859D01*
X74628389Y-58248859D02*
X74723627Y-58201240D01*
X74723627Y-58201240D02*
X74818865Y-58201240D01*
X74818865Y-58201240D02*
X74961722Y-58248859D01*
X74961722Y-58248859D02*
X75533151Y-58820287D01*
X75533151Y-58820287D02*
X75533151Y-58201240D01*
X75692486Y-97064087D02*
X74692486Y-97064087D01*
X74692486Y-97064087D02*
X74692486Y-96825992D01*
X74692486Y-96825992D02*
X74740105Y-96683135D01*
X74740105Y-96683135D02*
X74835343Y-96587897D01*
X74835343Y-96587897D02*
X74930581Y-96540278D01*
X74930581Y-96540278D02*
X75121057Y-96492659D01*
X75121057Y-96492659D02*
X75263914Y-96492659D01*
X75263914Y-96492659D02*
X75454390Y-96540278D01*
X75454390Y-96540278D02*
X75549628Y-96587897D01*
X75549628Y-96587897D02*
X75644867Y-96683135D01*
X75644867Y-96683135D02*
X75692486Y-96825992D01*
X75692486Y-96825992D02*
X75692486Y-97064087D01*
X75025819Y-95635516D02*
X75692486Y-95635516D01*
X74644867Y-95873611D02*
X75359152Y-96111706D01*
X75359152Y-96111706D02*
X75359152Y-95492659D01*
X132919891Y-83958744D02*
X133492311Y-84531164D01*
X133492311Y-84531164D02*
X133593326Y-84564836D01*
X133593326Y-84564836D02*
X133660670Y-84564836D01*
X133660670Y-84564836D02*
X133761685Y-84531164D01*
X133761685Y-84531164D02*
X133896372Y-84396477D01*
X133896372Y-84396477D02*
X133930044Y-84295462D01*
X133930044Y-84295462D02*
X133930044Y-84228118D01*
X133930044Y-84228118D02*
X133896372Y-84127103D01*
X133896372Y-84127103D02*
X133323952Y-83554683D01*
X133997387Y-82881248D02*
X133660670Y-83217966D01*
X133660670Y-83217966D02*
X133963716Y-83588355D01*
X133963716Y-83588355D02*
X133963716Y-83521012D01*
X133963716Y-83521012D02*
X133997387Y-83419996D01*
X133997387Y-83419996D02*
X134165746Y-83251638D01*
X134165746Y-83251638D02*
X134266761Y-83217966D01*
X134266761Y-83217966D02*
X134334105Y-83217966D01*
X134334105Y-83217966D02*
X134435120Y-83251638D01*
X134435120Y-83251638D02*
X134603479Y-83419996D01*
X134603479Y-83419996D02*
X134637151Y-83521012D01*
X134637151Y-83521012D02*
X134637151Y-83588355D01*
X134637151Y-83588355D02*
X134603479Y-83689370D01*
X134603479Y-83689370D02*
X134435120Y-83857729D01*
X134435120Y-83857729D02*
X134334105Y-83891401D01*
X134334105Y-83891401D02*
X134266761Y-83891401D01*
X68684006Y-93922992D02*
X68207815Y-94256325D01*
X68684006Y-94494420D02*
X67684006Y-94494420D01*
X67684006Y-94494420D02*
X67684006Y-94113468D01*
X67684006Y-94113468D02*
X67731625Y-94018230D01*
X67731625Y-94018230D02*
X67779244Y-93970611D01*
X67779244Y-93970611D02*
X67874482Y-93922992D01*
X67874482Y-93922992D02*
X68017339Y-93922992D01*
X68017339Y-93922992D02*
X68112577Y-93970611D01*
X68112577Y-93970611D02*
X68160196Y-94018230D01*
X68160196Y-94018230D02*
X68207815Y-94113468D01*
X68207815Y-94113468D02*
X68207815Y-94494420D01*
X68684006Y-93446801D02*
X68684006Y-93256325D01*
X68684006Y-93256325D02*
X68636387Y-93161087D01*
X68636387Y-93161087D02*
X68588767Y-93113468D01*
X68588767Y-93113468D02*
X68445910Y-93018230D01*
X68445910Y-93018230D02*
X68255434Y-92970611D01*
X68255434Y-92970611D02*
X67874482Y-92970611D01*
X67874482Y-92970611D02*
X67779244Y-93018230D01*
X67779244Y-93018230D02*
X67731625Y-93065849D01*
X67731625Y-93065849D02*
X67684006Y-93161087D01*
X67684006Y-93161087D02*
X67684006Y-93351563D01*
X67684006Y-93351563D02*
X67731625Y-93446801D01*
X67731625Y-93446801D02*
X67779244Y-93494420D01*
X67779244Y-93494420D02*
X67874482Y-93542039D01*
X67874482Y-93542039D02*
X68112577Y-93542039D01*
X68112577Y-93542039D02*
X68207815Y-93494420D01*
X68207815Y-93494420D02*
X68255434Y-93446801D01*
X68255434Y-93446801D02*
X68303053Y-93351563D01*
X68303053Y-93351563D02*
X68303053Y-93161087D01*
X68303053Y-93161087D02*
X68255434Y-93065849D01*
X68255434Y-93065849D02*
X68207815Y-93018230D01*
X68207815Y-93018230D02*
X68112577Y-92970611D01*
X68291501Y-62653376D02*
X67815310Y-62986709D01*
X68291501Y-63224804D02*
X67291501Y-63224804D01*
X67291501Y-63224804D02*
X67291501Y-62843852D01*
X67291501Y-62843852D02*
X67339120Y-62748614D01*
X67339120Y-62748614D02*
X67386739Y-62700995D01*
X67386739Y-62700995D02*
X67481977Y-62653376D01*
X67481977Y-62653376D02*
X67624834Y-62653376D01*
X67624834Y-62653376D02*
X67720072Y-62700995D01*
X67720072Y-62700995D02*
X67767691Y-62748614D01*
X67767691Y-62748614D02*
X67815310Y-62843852D01*
X67815310Y-62843852D02*
X67815310Y-63224804D01*
X67291501Y-61748614D02*
X67291501Y-62224804D01*
X67291501Y-62224804D02*
X67767691Y-62272423D01*
X67767691Y-62272423D02*
X67720072Y-62224804D01*
X67720072Y-62224804D02*
X67672453Y-62129566D01*
X67672453Y-62129566D02*
X67672453Y-61891471D01*
X67672453Y-61891471D02*
X67720072Y-61796233D01*
X67720072Y-61796233D02*
X67767691Y-61748614D01*
X67767691Y-61748614D02*
X67862929Y-61700995D01*
X67862929Y-61700995D02*
X68101024Y-61700995D01*
X68101024Y-61700995D02*
X68196262Y-61748614D01*
X68196262Y-61748614D02*
X68243882Y-61796233D01*
X68243882Y-61796233D02*
X68291501Y-61891471D01*
X68291501Y-61891471D02*
X68291501Y-62129566D01*
X68291501Y-62129566D02*
X68243882Y-62224804D01*
X68243882Y-62224804D02*
X68196262Y-62272423D01*
X86429319Y-65293059D02*
X85953128Y-65626392D01*
X86429319Y-65864487D02*
X85429319Y-65864487D01*
X85429319Y-65864487D02*
X85429319Y-65483535D01*
X85429319Y-65483535D02*
X85476938Y-65388297D01*
X85476938Y-65388297D02*
X85524557Y-65340678D01*
X85524557Y-65340678D02*
X85619795Y-65293059D01*
X85619795Y-65293059D02*
X85762652Y-65293059D01*
X85762652Y-65293059D02*
X85857890Y-65340678D01*
X85857890Y-65340678D02*
X85905509Y-65388297D01*
X85905509Y-65388297D02*
X85953128Y-65483535D01*
X85953128Y-65483535D02*
X85953128Y-65864487D01*
X85524557Y-64912106D02*
X85476938Y-64864487D01*
X85476938Y-64864487D02*
X85429319Y-64769249D01*
X85429319Y-64769249D02*
X85429319Y-64531154D01*
X85429319Y-64531154D02*
X85476938Y-64435916D01*
X85476938Y-64435916D02*
X85524557Y-64388297D01*
X85524557Y-64388297D02*
X85619795Y-64340678D01*
X85619795Y-64340678D02*
X85715033Y-64340678D01*
X85715033Y-64340678D02*
X85857890Y-64388297D01*
X85857890Y-64388297D02*
X86429319Y-64959725D01*
X86429319Y-64959725D02*
X86429319Y-64340678D01*
X85762652Y-63483535D02*
X86429319Y-63483535D01*
X85381700Y-63721630D02*
X86095985Y-63959725D01*
X86095985Y-63959725D02*
X86095985Y-63340678D01*
X81870273Y-45639526D02*
X82584558Y-45639526D01*
X82584558Y-45639526D02*
X82727415Y-45687145D01*
X82727415Y-45687145D02*
X82822654Y-45782383D01*
X82822654Y-45782383D02*
X82870273Y-45925240D01*
X82870273Y-45925240D02*
X82870273Y-46020478D01*
X82203606Y-44734764D02*
X82870273Y-44734764D01*
X81822654Y-44972859D02*
X82536939Y-45210954D01*
X82536939Y-45210954D02*
X82536939Y-44591907D01*
X101499430Y-107128012D02*
X101547050Y-107175631D01*
X101547050Y-107175631D02*
X101594669Y-107318488D01*
X101594669Y-107318488D02*
X101594669Y-107413726D01*
X101594669Y-107413726D02*
X101547050Y-107556583D01*
X101547050Y-107556583D02*
X101451811Y-107651821D01*
X101451811Y-107651821D02*
X101356573Y-107699440D01*
X101356573Y-107699440D02*
X101166097Y-107747059D01*
X101166097Y-107747059D02*
X101023240Y-107747059D01*
X101023240Y-107747059D02*
X100832764Y-107699440D01*
X100832764Y-107699440D02*
X100737526Y-107651821D01*
X100737526Y-107651821D02*
X100642288Y-107556583D01*
X100642288Y-107556583D02*
X100594669Y-107413726D01*
X100594669Y-107413726D02*
X100594669Y-107318488D01*
X100594669Y-107318488D02*
X100642288Y-107175631D01*
X100642288Y-107175631D02*
X100689907Y-107128012D01*
X100689907Y-106747059D02*
X100642288Y-106699440D01*
X100642288Y-106699440D02*
X100594669Y-106604202D01*
X100594669Y-106604202D02*
X100594669Y-106366107D01*
X100594669Y-106366107D02*
X100642288Y-106270869D01*
X100642288Y-106270869D02*
X100689907Y-106223250D01*
X100689907Y-106223250D02*
X100785145Y-106175631D01*
X100785145Y-106175631D02*
X100880383Y-106175631D01*
X100880383Y-106175631D02*
X101023240Y-106223250D01*
X101023240Y-106223250D02*
X101594669Y-106794678D01*
X101594669Y-106794678D02*
X101594669Y-106175631D01*
X100594669Y-105318488D02*
X100594669Y-105508964D01*
X100594669Y-105508964D02*
X100642288Y-105604202D01*
X100642288Y-105604202D02*
X100689907Y-105651821D01*
X100689907Y-105651821D02*
X100832764Y-105747059D01*
X100832764Y-105747059D02*
X101023240Y-105794678D01*
X101023240Y-105794678D02*
X101404192Y-105794678D01*
X101404192Y-105794678D02*
X101499430Y-105747059D01*
X101499430Y-105747059D02*
X101547050Y-105699440D01*
X101547050Y-105699440D02*
X101594669Y-105604202D01*
X101594669Y-105604202D02*
X101594669Y-105413726D01*
X101594669Y-105413726D02*
X101547050Y-105318488D01*
X101547050Y-105318488D02*
X101499430Y-105270869D01*
X101499430Y-105270869D02*
X101404192Y-105223250D01*
X101404192Y-105223250D02*
X101166097Y-105223250D01*
X101166097Y-105223250D02*
X101070859Y-105270869D01*
X101070859Y-105270869D02*
X101023240Y-105318488D01*
X101023240Y-105318488D02*
X100975621Y-105413726D01*
X100975621Y-105413726D02*
X100975621Y-105604202D01*
X100975621Y-105604202D02*
X101023240Y-105699440D01*
X101023240Y-105699440D02*
X101070859Y-105747059D01*
X101070859Y-105747059D02*
X101166097Y-105794678D01*
X75445687Y-61466698D02*
X75398068Y-61561936D01*
X75398068Y-61561936D02*
X75302830Y-61657174D01*
X75302830Y-61657174D02*
X75159972Y-61800031D01*
X75159972Y-61800031D02*
X75112353Y-61895269D01*
X75112353Y-61895269D02*
X75112353Y-61990507D01*
X75350449Y-61942888D02*
X75302830Y-62038126D01*
X75302830Y-62038126D02*
X75207591Y-62133364D01*
X75207591Y-62133364D02*
X75017115Y-62180983D01*
X75017115Y-62180983D02*
X74683782Y-62180983D01*
X74683782Y-62180983D02*
X74493306Y-62133364D01*
X74493306Y-62133364D02*
X74398068Y-62038126D01*
X74398068Y-62038126D02*
X74350449Y-61942888D01*
X74350449Y-61942888D02*
X74350449Y-61752412D01*
X74350449Y-61752412D02*
X74398068Y-61657174D01*
X74398068Y-61657174D02*
X74493306Y-61561936D01*
X74493306Y-61561936D02*
X74683782Y-61514317D01*
X74683782Y-61514317D02*
X75017115Y-61514317D01*
X75017115Y-61514317D02*
X75207591Y-61561936D01*
X75207591Y-61561936D02*
X75302830Y-61657174D01*
X75302830Y-61657174D02*
X75350449Y-61752412D01*
X75350449Y-61752412D02*
X75350449Y-61942888D01*
X75350449Y-60561936D02*
X75350449Y-61133364D01*
X75350449Y-60847650D02*
X74350449Y-60847650D01*
X74350449Y-60847650D02*
X74493306Y-60942888D01*
X74493306Y-60942888D02*
X74588544Y-61038126D01*
X74588544Y-61038126D02*
X74636163Y-61133364D01*
X99712789Y-70797495D02*
X99665170Y-70892733D01*
X99665170Y-70892733D02*
X99569932Y-70987971D01*
X99569932Y-70987971D02*
X99427074Y-71130828D01*
X99427074Y-71130828D02*
X99379455Y-71226066D01*
X99379455Y-71226066D02*
X99379455Y-71321304D01*
X99617551Y-71273685D02*
X99569932Y-71368923D01*
X99569932Y-71368923D02*
X99474693Y-71464161D01*
X99474693Y-71464161D02*
X99284217Y-71511780D01*
X99284217Y-71511780D02*
X98950884Y-71511780D01*
X98950884Y-71511780D02*
X98760408Y-71464161D01*
X98760408Y-71464161D02*
X98665170Y-71368923D01*
X98665170Y-71368923D02*
X98617551Y-71273685D01*
X98617551Y-71273685D02*
X98617551Y-71083209D01*
X98617551Y-71083209D02*
X98665170Y-70987971D01*
X98665170Y-70987971D02*
X98760408Y-70892733D01*
X98760408Y-70892733D02*
X98950884Y-70845114D01*
X98950884Y-70845114D02*
X99284217Y-70845114D01*
X99284217Y-70845114D02*
X99474693Y-70892733D01*
X99474693Y-70892733D02*
X99569932Y-70987971D01*
X99569932Y-70987971D02*
X99617551Y-71083209D01*
X99617551Y-71083209D02*
X99617551Y-71273685D01*
X98950884Y-69987971D02*
X99617551Y-69987971D01*
X98569932Y-70226066D02*
X99284217Y-70464161D01*
X99284217Y-70464161D02*
X99284217Y-69845114D01*
X132165260Y-64444052D02*
X131689069Y-64777385D01*
X132165260Y-65015480D02*
X131165260Y-65015480D01*
X131165260Y-65015480D02*
X131165260Y-64634528D01*
X131165260Y-64634528D02*
X131212879Y-64539290D01*
X131212879Y-64539290D02*
X131260498Y-64491671D01*
X131260498Y-64491671D02*
X131355736Y-64444052D01*
X131355736Y-64444052D02*
X131498593Y-64444052D01*
X131498593Y-64444052D02*
X131593831Y-64491671D01*
X131593831Y-64491671D02*
X131641450Y-64539290D01*
X131641450Y-64539290D02*
X131689069Y-64634528D01*
X131689069Y-64634528D02*
X131689069Y-65015480D01*
X131498593Y-63586909D02*
X132165260Y-63586909D01*
X131117641Y-63825004D02*
X131831926Y-64063099D01*
X131831926Y-64063099D02*
X131831926Y-63444052D01*
X132165260Y-62539290D02*
X132165260Y-63110718D01*
X132165260Y-62825004D02*
X131165260Y-62825004D01*
X131165260Y-62825004D02*
X131308117Y-62920242D01*
X131308117Y-62920242D02*
X131403355Y-63015480D01*
X131403355Y-63015480D02*
X131450974Y-63110718D01*
X82858334Y-63625100D02*
X82382143Y-63958433D01*
X82858334Y-64196528D02*
X81858334Y-64196528D01*
X81858334Y-64196528D02*
X81858334Y-63815576D01*
X81858334Y-63815576D02*
X81905953Y-63720338D01*
X81905953Y-63720338D02*
X81953572Y-63672719D01*
X81953572Y-63672719D02*
X82048810Y-63625100D01*
X82048810Y-63625100D02*
X82191667Y-63625100D01*
X82191667Y-63625100D02*
X82286905Y-63672719D01*
X82286905Y-63672719D02*
X82334524Y-63720338D01*
X82334524Y-63720338D02*
X82382143Y-63815576D01*
X82382143Y-63815576D02*
X82382143Y-64196528D01*
X82191667Y-62767957D02*
X82858334Y-62767957D01*
X81810715Y-63006052D02*
X82525000Y-63244147D01*
X82525000Y-63244147D02*
X82525000Y-62625100D01*
X81858334Y-62339385D02*
X81858334Y-61720338D01*
X81858334Y-61720338D02*
X82239286Y-62053671D01*
X82239286Y-62053671D02*
X82239286Y-61910814D01*
X82239286Y-61910814D02*
X82286905Y-61815576D01*
X82286905Y-61815576D02*
X82334524Y-61767957D01*
X82334524Y-61767957D02*
X82429762Y-61720338D01*
X82429762Y-61720338D02*
X82667857Y-61720338D01*
X82667857Y-61720338D02*
X82763095Y-61767957D01*
X82763095Y-61767957D02*
X82810715Y-61815576D01*
X82810715Y-61815576D02*
X82858334Y-61910814D01*
X82858334Y-61910814D02*
X82858334Y-62196528D01*
X82858334Y-62196528D02*
X82810715Y-62291766D01*
X82810715Y-62291766D02*
X82763095Y-62339385D01*
X91928836Y-65416965D02*
X91976456Y-65464584D01*
X91976456Y-65464584D02*
X92024075Y-65607441D01*
X92024075Y-65607441D02*
X92024075Y-65702679D01*
X92024075Y-65702679D02*
X91976456Y-65845536D01*
X91976456Y-65845536D02*
X91881217Y-65940774D01*
X91881217Y-65940774D02*
X91785979Y-65988393D01*
X91785979Y-65988393D02*
X91595503Y-66036012D01*
X91595503Y-66036012D02*
X91452646Y-66036012D01*
X91452646Y-66036012D02*
X91262170Y-65988393D01*
X91262170Y-65988393D02*
X91166932Y-65940774D01*
X91166932Y-65940774D02*
X91071694Y-65845536D01*
X91071694Y-65845536D02*
X91024075Y-65702679D01*
X91024075Y-65702679D02*
X91024075Y-65607441D01*
X91024075Y-65607441D02*
X91071694Y-65464584D01*
X91071694Y-65464584D02*
X91119313Y-65416965D01*
X91024075Y-65083631D02*
X91024075Y-64464584D01*
X91024075Y-64464584D02*
X91405027Y-64797917D01*
X91405027Y-64797917D02*
X91405027Y-64655060D01*
X91405027Y-64655060D02*
X91452646Y-64559822D01*
X91452646Y-64559822D02*
X91500265Y-64512203D01*
X91500265Y-64512203D02*
X91595503Y-64464584D01*
X91595503Y-64464584D02*
X91833598Y-64464584D01*
X91833598Y-64464584D02*
X91928836Y-64512203D01*
X91928836Y-64512203D02*
X91976456Y-64559822D01*
X91976456Y-64559822D02*
X92024075Y-64655060D01*
X92024075Y-64655060D02*
X92024075Y-64940774D01*
X92024075Y-64940774D02*
X91976456Y-65036012D01*
X91976456Y-65036012D02*
X91928836Y-65083631D01*
X107456517Y-88263059D02*
X107123184Y-87786868D01*
X106885089Y-88263059D02*
X106885089Y-87263059D01*
X106885089Y-87263059D02*
X107266041Y-87263059D01*
X107266041Y-87263059D02*
X107361279Y-87310678D01*
X107361279Y-87310678D02*
X107408898Y-87358297D01*
X107408898Y-87358297D02*
X107456517Y-87453535D01*
X107456517Y-87453535D02*
X107456517Y-87596392D01*
X107456517Y-87596392D02*
X107408898Y-87691630D01*
X107408898Y-87691630D02*
X107361279Y-87739249D01*
X107361279Y-87739249D02*
X107266041Y-87786868D01*
X107266041Y-87786868D02*
X106885089Y-87786868D01*
X108408898Y-88263059D02*
X107837470Y-88263059D01*
X108123184Y-88263059D02*
X108123184Y-87263059D01*
X108123184Y-87263059D02*
X108027946Y-87405916D01*
X108027946Y-87405916D02*
X107932708Y-87501154D01*
X107932708Y-87501154D02*
X107837470Y-87548773D01*
X108789851Y-87358297D02*
X108837470Y-87310678D01*
X108837470Y-87310678D02*
X108932708Y-87263059D01*
X108932708Y-87263059D02*
X109170803Y-87263059D01*
X109170803Y-87263059D02*
X109266041Y-87310678D01*
X109266041Y-87310678D02*
X109313660Y-87358297D01*
X109313660Y-87358297D02*
X109361279Y-87453535D01*
X109361279Y-87453535D02*
X109361279Y-87548773D01*
X109361279Y-87548773D02*
X109313660Y-87691630D01*
X109313660Y-87691630D02*
X108742232Y-88263059D01*
X108742232Y-88263059D02*
X109361279Y-88263059D01*
X98867670Y-95893185D02*
X98915290Y-95940804D01*
X98915290Y-95940804D02*
X98962909Y-96083661D01*
X98962909Y-96083661D02*
X98962909Y-96178899D01*
X98962909Y-96178899D02*
X98915290Y-96321756D01*
X98915290Y-96321756D02*
X98820051Y-96416994D01*
X98820051Y-96416994D02*
X98724813Y-96464613D01*
X98724813Y-96464613D02*
X98534337Y-96512232D01*
X98534337Y-96512232D02*
X98391480Y-96512232D01*
X98391480Y-96512232D02*
X98201004Y-96464613D01*
X98201004Y-96464613D02*
X98105766Y-96416994D01*
X98105766Y-96416994D02*
X98010528Y-96321756D01*
X98010528Y-96321756D02*
X97962909Y-96178899D01*
X97962909Y-96178899D02*
X97962909Y-96083661D01*
X97962909Y-96083661D02*
X98010528Y-95940804D01*
X98010528Y-95940804D02*
X98058147Y-95893185D01*
X98058147Y-95512232D02*
X98010528Y-95464613D01*
X98010528Y-95464613D02*
X97962909Y-95369375D01*
X97962909Y-95369375D02*
X97962909Y-95131280D01*
X97962909Y-95131280D02*
X98010528Y-95036042D01*
X98010528Y-95036042D02*
X98058147Y-94988423D01*
X98058147Y-94988423D02*
X98153385Y-94940804D01*
X98153385Y-94940804D02*
X98248623Y-94940804D01*
X98248623Y-94940804D02*
X98391480Y-94988423D01*
X98391480Y-94988423D02*
X98962909Y-95559851D01*
X98962909Y-95559851D02*
X98962909Y-94940804D01*
X97962909Y-94607470D02*
X97962909Y-93940804D01*
X97962909Y-93940804D02*
X98962909Y-94369375D01*
X70384783Y-103855719D02*
X70337164Y-103903339D01*
X70337164Y-103903339D02*
X70194307Y-103950958D01*
X70194307Y-103950958D02*
X70099069Y-103950958D01*
X70099069Y-103950958D02*
X69956212Y-103903339D01*
X69956212Y-103903339D02*
X69860974Y-103808100D01*
X69860974Y-103808100D02*
X69813355Y-103712862D01*
X69813355Y-103712862D02*
X69765736Y-103522386D01*
X69765736Y-103522386D02*
X69765736Y-103379529D01*
X69765736Y-103379529D02*
X69813355Y-103189053D01*
X69813355Y-103189053D02*
X69860974Y-103093815D01*
X69860974Y-103093815D02*
X69956212Y-102998577D01*
X69956212Y-102998577D02*
X70099069Y-102950958D01*
X70099069Y-102950958D02*
X70194307Y-102950958D01*
X70194307Y-102950958D02*
X70337164Y-102998577D01*
X70337164Y-102998577D02*
X70384783Y-103046196D01*
X71337164Y-103950958D02*
X70765736Y-103950958D01*
X71051450Y-103950958D02*
X71051450Y-102950958D01*
X71051450Y-102950958D02*
X70956212Y-103093815D01*
X70956212Y-103093815D02*
X70860974Y-103189053D01*
X70860974Y-103189053D02*
X70765736Y-103236672D01*
X71813355Y-103950958D02*
X72003831Y-103950958D01*
X72003831Y-103950958D02*
X72099069Y-103903339D01*
X72099069Y-103903339D02*
X72146688Y-103855719D01*
X72146688Y-103855719D02*
X72241926Y-103712862D01*
X72241926Y-103712862D02*
X72289545Y-103522386D01*
X72289545Y-103522386D02*
X72289545Y-103141434D01*
X72289545Y-103141434D02*
X72241926Y-103046196D01*
X72241926Y-103046196D02*
X72194307Y-102998577D01*
X72194307Y-102998577D02*
X72099069Y-102950958D01*
X72099069Y-102950958D02*
X71908593Y-102950958D01*
X71908593Y-102950958D02*
X71813355Y-102998577D01*
X71813355Y-102998577D02*
X71765736Y-103046196D01*
X71765736Y-103046196D02*
X71718117Y-103141434D01*
X71718117Y-103141434D02*
X71718117Y-103379529D01*
X71718117Y-103379529D02*
X71765736Y-103474767D01*
X71765736Y-103474767D02*
X71813355Y-103522386D01*
X71813355Y-103522386D02*
X71908593Y-103570005D01*
X71908593Y-103570005D02*
X72099069Y-103570005D01*
X72099069Y-103570005D02*
X72194307Y-103522386D01*
X72194307Y-103522386D02*
X72241926Y-103474767D01*
X72241926Y-103474767D02*
X72289545Y-103379529D01*
X74210887Y-99990886D02*
X74163268Y-100086124D01*
X74163268Y-100086124D02*
X74068030Y-100181362D01*
X74068030Y-100181362D02*
X73925172Y-100324219D01*
X73925172Y-100324219D02*
X73877553Y-100419457D01*
X73877553Y-100419457D02*
X73877553Y-100514695D01*
X74115649Y-100467076D02*
X74068030Y-100562314D01*
X74068030Y-100562314D02*
X73972791Y-100657552D01*
X73972791Y-100657552D02*
X73782315Y-100705171D01*
X73782315Y-100705171D02*
X73448982Y-100705171D01*
X73448982Y-100705171D02*
X73258506Y-100657552D01*
X73258506Y-100657552D02*
X73163268Y-100562314D01*
X73163268Y-100562314D02*
X73115649Y-100467076D01*
X73115649Y-100467076D02*
X73115649Y-100276600D01*
X73115649Y-100276600D02*
X73163268Y-100181362D01*
X73163268Y-100181362D02*
X73258506Y-100086124D01*
X73258506Y-100086124D02*
X73448982Y-100038505D01*
X73448982Y-100038505D02*
X73782315Y-100038505D01*
X73782315Y-100038505D02*
X73972791Y-100086124D01*
X73972791Y-100086124D02*
X74068030Y-100181362D01*
X74068030Y-100181362D02*
X74115649Y-100276600D01*
X74115649Y-100276600D02*
X74115649Y-100467076D01*
X73210887Y-99657552D02*
X73163268Y-99609933D01*
X73163268Y-99609933D02*
X73115649Y-99514695D01*
X73115649Y-99514695D02*
X73115649Y-99276600D01*
X73115649Y-99276600D02*
X73163268Y-99181362D01*
X73163268Y-99181362D02*
X73210887Y-99133743D01*
X73210887Y-99133743D02*
X73306125Y-99086124D01*
X73306125Y-99086124D02*
X73401363Y-99086124D01*
X73401363Y-99086124D02*
X73544220Y-99133743D01*
X73544220Y-99133743D02*
X74115649Y-99705171D01*
X74115649Y-99705171D02*
X74115649Y-99086124D01*
X94991222Y-90014294D02*
X94515031Y-90347627D01*
X94991222Y-90585722D02*
X93991222Y-90585722D01*
X93991222Y-90585722D02*
X93991222Y-90204770D01*
X93991222Y-90204770D02*
X94038841Y-90109532D01*
X94038841Y-90109532D02*
X94086460Y-90061913D01*
X94086460Y-90061913D02*
X94181698Y-90014294D01*
X94181698Y-90014294D02*
X94324555Y-90014294D01*
X94324555Y-90014294D02*
X94419793Y-90061913D01*
X94419793Y-90061913D02*
X94467412Y-90109532D01*
X94467412Y-90109532D02*
X94515031Y-90204770D01*
X94515031Y-90204770D02*
X94515031Y-90585722D01*
X94324555Y-89157151D02*
X94991222Y-89157151D01*
X93943603Y-89395246D02*
X94657888Y-89633341D01*
X94657888Y-89633341D02*
X94657888Y-89014294D01*
X93991222Y-88157151D02*
X93991222Y-88633341D01*
X93991222Y-88633341D02*
X94467412Y-88680960D01*
X94467412Y-88680960D02*
X94419793Y-88633341D01*
X94419793Y-88633341D02*
X94372174Y-88538103D01*
X94372174Y-88538103D02*
X94372174Y-88300008D01*
X94372174Y-88300008D02*
X94419793Y-88204770D01*
X94419793Y-88204770D02*
X94467412Y-88157151D01*
X94467412Y-88157151D02*
X94562650Y-88109532D01*
X94562650Y-88109532D02*
X94800745Y-88109532D01*
X94800745Y-88109532D02*
X94895983Y-88157151D01*
X94895983Y-88157151D02*
X94943603Y-88204770D01*
X94943603Y-88204770D02*
X94991222Y-88300008D01*
X94991222Y-88300008D02*
X94991222Y-88538103D01*
X94991222Y-88538103D02*
X94943603Y-88633341D01*
X94943603Y-88633341D02*
X94895983Y-88680960D01*
X124085233Y-71069113D02*
X123609042Y-71402446D01*
X124085233Y-71640541D02*
X123085233Y-71640541D01*
X123085233Y-71640541D02*
X123085233Y-71259589D01*
X123085233Y-71259589D02*
X123132852Y-71164351D01*
X123132852Y-71164351D02*
X123180471Y-71116732D01*
X123180471Y-71116732D02*
X123275709Y-71069113D01*
X123275709Y-71069113D02*
X123418566Y-71069113D01*
X123418566Y-71069113D02*
X123513804Y-71116732D01*
X123513804Y-71116732D02*
X123561423Y-71164351D01*
X123561423Y-71164351D02*
X123609042Y-71259589D01*
X123609042Y-71259589D02*
X123609042Y-71640541D01*
X124085233Y-70116732D02*
X124085233Y-70688160D01*
X124085233Y-70402446D02*
X123085233Y-70402446D01*
X123085233Y-70402446D02*
X123228090Y-70497684D01*
X123228090Y-70497684D02*
X123323328Y-70592922D01*
X123323328Y-70592922D02*
X123370947Y-70688160D01*
X123085233Y-69497684D02*
X123085233Y-69402446D01*
X123085233Y-69402446D02*
X123132852Y-69307208D01*
X123132852Y-69307208D02*
X123180471Y-69259589D01*
X123180471Y-69259589D02*
X123275709Y-69211970D01*
X123275709Y-69211970D02*
X123466185Y-69164351D01*
X123466185Y-69164351D02*
X123704280Y-69164351D01*
X123704280Y-69164351D02*
X123894756Y-69211970D01*
X123894756Y-69211970D02*
X123989994Y-69259589D01*
X123989994Y-69259589D02*
X124037614Y-69307208D01*
X124037614Y-69307208D02*
X124085233Y-69402446D01*
X124085233Y-69402446D02*
X124085233Y-69497684D01*
X124085233Y-69497684D02*
X124037614Y-69592922D01*
X124037614Y-69592922D02*
X123989994Y-69640541D01*
X123989994Y-69640541D02*
X123894756Y-69688160D01*
X123894756Y-69688160D02*
X123704280Y-69735779D01*
X123704280Y-69735779D02*
X123466185Y-69735779D01*
X123466185Y-69735779D02*
X123275709Y-69688160D01*
X123275709Y-69688160D02*
X123180471Y-69640541D01*
X123180471Y-69640541D02*
X123132852Y-69592922D01*
X123132852Y-69592922D02*
X123085233Y-69497684D01*
X94121188Y-93990019D02*
X94121188Y-92990019D01*
X94121188Y-92990019D02*
X94359283Y-92990019D01*
X94359283Y-92990019D02*
X94502140Y-93037638D01*
X94502140Y-93037638D02*
X94597378Y-93132876D01*
X94597378Y-93132876D02*
X94644997Y-93228114D01*
X94644997Y-93228114D02*
X94692616Y-93418590D01*
X94692616Y-93418590D02*
X94692616Y-93561447D01*
X94692616Y-93561447D02*
X94644997Y-93751923D01*
X94644997Y-93751923D02*
X94597378Y-93847161D01*
X94597378Y-93847161D02*
X94502140Y-93942400D01*
X94502140Y-93942400D02*
X94359283Y-93990019D01*
X94359283Y-93990019D02*
X94121188Y-93990019D01*
X95025950Y-92990019D02*
X95644997Y-92990019D01*
X95644997Y-92990019D02*
X95311664Y-93370971D01*
X95311664Y-93370971D02*
X95454521Y-93370971D01*
X95454521Y-93370971D02*
X95549759Y-93418590D01*
X95549759Y-93418590D02*
X95597378Y-93466209D01*
X95597378Y-93466209D02*
X95644997Y-93561447D01*
X95644997Y-93561447D02*
X95644997Y-93799542D01*
X95644997Y-93799542D02*
X95597378Y-93894780D01*
X95597378Y-93894780D02*
X95549759Y-93942400D01*
X95549759Y-93942400D02*
X95454521Y-93990019D01*
X95454521Y-93990019D02*
X95168807Y-93990019D01*
X95168807Y-93990019D02*
X95073569Y-93942400D01*
X95073569Y-93942400D02*
X95025950Y-93894780D01*
X71067749Y-69325841D02*
X70591558Y-69659174D01*
X71067749Y-69897269D02*
X70067749Y-69897269D01*
X70067749Y-69897269D02*
X70067749Y-69516317D01*
X70067749Y-69516317D02*
X70115368Y-69421079D01*
X70115368Y-69421079D02*
X70162987Y-69373460D01*
X70162987Y-69373460D02*
X70258225Y-69325841D01*
X70258225Y-69325841D02*
X70401082Y-69325841D01*
X70401082Y-69325841D02*
X70496320Y-69373460D01*
X70496320Y-69373460D02*
X70543939Y-69421079D01*
X70543939Y-69421079D02*
X70591558Y-69516317D01*
X70591558Y-69516317D02*
X70591558Y-69897269D01*
X70067749Y-68468698D02*
X70067749Y-68659174D01*
X70067749Y-68659174D02*
X70115368Y-68754412D01*
X70115368Y-68754412D02*
X70162987Y-68802031D01*
X70162987Y-68802031D02*
X70305844Y-68897269D01*
X70305844Y-68897269D02*
X70496320Y-68944888D01*
X70496320Y-68944888D02*
X70877272Y-68944888D01*
X70877272Y-68944888D02*
X70972510Y-68897269D01*
X70972510Y-68897269D02*
X71020130Y-68849650D01*
X71020130Y-68849650D02*
X71067749Y-68754412D01*
X71067749Y-68754412D02*
X71067749Y-68563936D01*
X71067749Y-68563936D02*
X71020130Y-68468698D01*
X71020130Y-68468698D02*
X70972510Y-68421079D01*
X70972510Y-68421079D02*
X70877272Y-68373460D01*
X70877272Y-68373460D02*
X70639177Y-68373460D01*
X70639177Y-68373460D02*
X70543939Y-68421079D01*
X70543939Y-68421079D02*
X70496320Y-68468698D01*
X70496320Y-68468698D02*
X70448701Y-68563936D01*
X70448701Y-68563936D02*
X70448701Y-68754412D01*
X70448701Y-68754412D02*
X70496320Y-68849650D01*
X70496320Y-68849650D02*
X70543939Y-68897269D01*
X70543939Y-68897269D02*
X70639177Y-68944888D01*
X102336838Y-91630259D02*
X102384458Y-91677878D01*
X102384458Y-91677878D02*
X102432077Y-91820735D01*
X102432077Y-91820735D02*
X102432077Y-91915973D01*
X102432077Y-91915973D02*
X102384458Y-92058830D01*
X102384458Y-92058830D02*
X102289219Y-92154068D01*
X102289219Y-92154068D02*
X102193981Y-92201687D01*
X102193981Y-92201687D02*
X102003505Y-92249306D01*
X102003505Y-92249306D02*
X101860648Y-92249306D01*
X101860648Y-92249306D02*
X101670172Y-92201687D01*
X101670172Y-92201687D02*
X101574934Y-92154068D01*
X101574934Y-92154068D02*
X101479696Y-92058830D01*
X101479696Y-92058830D02*
X101432077Y-91915973D01*
X101432077Y-91915973D02*
X101432077Y-91820735D01*
X101432077Y-91820735D02*
X101479696Y-91677878D01*
X101479696Y-91677878D02*
X101527315Y-91630259D01*
X101432077Y-90725497D02*
X101432077Y-91201687D01*
X101432077Y-91201687D02*
X101908267Y-91249306D01*
X101908267Y-91249306D02*
X101860648Y-91201687D01*
X101860648Y-91201687D02*
X101813029Y-91106449D01*
X101813029Y-91106449D02*
X101813029Y-90868354D01*
X101813029Y-90868354D02*
X101860648Y-90773116D01*
X101860648Y-90773116D02*
X101908267Y-90725497D01*
X101908267Y-90725497D02*
X102003505Y-90677878D01*
X102003505Y-90677878D02*
X102241600Y-90677878D01*
X102241600Y-90677878D02*
X102336838Y-90725497D01*
X102336838Y-90725497D02*
X102384458Y-90773116D01*
X102384458Y-90773116D02*
X102432077Y-90868354D01*
X102432077Y-90868354D02*
X102432077Y-91106449D01*
X102432077Y-91106449D02*
X102384458Y-91201687D01*
X102384458Y-91201687D02*
X102336838Y-91249306D01*
X104926107Y-110758380D02*
X103926107Y-110758380D01*
X103926107Y-110758380D02*
X103926107Y-110520285D01*
X103926107Y-110520285D02*
X103973726Y-110377428D01*
X103973726Y-110377428D02*
X104068964Y-110282190D01*
X104068964Y-110282190D02*
X104164202Y-110234571D01*
X104164202Y-110234571D02*
X104354678Y-110186952D01*
X104354678Y-110186952D02*
X104497535Y-110186952D01*
X104497535Y-110186952D02*
X104688011Y-110234571D01*
X104688011Y-110234571D02*
X104783249Y-110282190D01*
X104783249Y-110282190D02*
X104878488Y-110377428D01*
X104878488Y-110377428D02*
X104926107Y-110520285D01*
X104926107Y-110520285D02*
X104926107Y-110758380D01*
X104926107Y-109234571D02*
X104926107Y-109805999D01*
X104926107Y-109520285D02*
X103926107Y-109520285D01*
X103926107Y-109520285D02*
X104068964Y-109615523D01*
X104068964Y-109615523D02*
X104164202Y-109710761D01*
X104164202Y-109710761D02*
X104211821Y-109805999D01*
X102316065Y-93811470D02*
X102363685Y-93859089D01*
X102363685Y-93859089D02*
X102411304Y-94001946D01*
X102411304Y-94001946D02*
X102411304Y-94097184D01*
X102411304Y-94097184D02*
X102363685Y-94240041D01*
X102363685Y-94240041D02*
X102268446Y-94335279D01*
X102268446Y-94335279D02*
X102173208Y-94382898D01*
X102173208Y-94382898D02*
X101982732Y-94430517D01*
X101982732Y-94430517D02*
X101839875Y-94430517D01*
X101839875Y-94430517D02*
X101649399Y-94382898D01*
X101649399Y-94382898D02*
X101554161Y-94335279D01*
X101554161Y-94335279D02*
X101458923Y-94240041D01*
X101458923Y-94240041D02*
X101411304Y-94097184D01*
X101411304Y-94097184D02*
X101411304Y-94001946D01*
X101411304Y-94001946D02*
X101458923Y-93859089D01*
X101458923Y-93859089D02*
X101506542Y-93811470D01*
X101411304Y-92954327D02*
X101411304Y-93144803D01*
X101411304Y-93144803D02*
X101458923Y-93240041D01*
X101458923Y-93240041D02*
X101506542Y-93287660D01*
X101506542Y-93287660D02*
X101649399Y-93382898D01*
X101649399Y-93382898D02*
X101839875Y-93430517D01*
X101839875Y-93430517D02*
X102220827Y-93430517D01*
X102220827Y-93430517D02*
X102316065Y-93382898D01*
X102316065Y-93382898D02*
X102363685Y-93335279D01*
X102363685Y-93335279D02*
X102411304Y-93240041D01*
X102411304Y-93240041D02*
X102411304Y-93049565D01*
X102411304Y-93049565D02*
X102363685Y-92954327D01*
X102363685Y-92954327D02*
X102316065Y-92906708D01*
X102316065Y-92906708D02*
X102220827Y-92859089D01*
X102220827Y-92859089D02*
X101982732Y-92859089D01*
X101982732Y-92859089D02*
X101887494Y-92906708D01*
X101887494Y-92906708D02*
X101839875Y-92954327D01*
X101839875Y-92954327D02*
X101792256Y-93049565D01*
X101792256Y-93049565D02*
X101792256Y-93240041D01*
X101792256Y-93240041D02*
X101839875Y-93335279D01*
X101839875Y-93335279D02*
X101887494Y-93382898D01*
X101887494Y-93382898D02*
X101982732Y-93430517D01*
X107034751Y-90321047D02*
X106987132Y-90368667D01*
X106987132Y-90368667D02*
X106844275Y-90416286D01*
X106844275Y-90416286D02*
X106749037Y-90416286D01*
X106749037Y-90416286D02*
X106606180Y-90368667D01*
X106606180Y-90368667D02*
X106510942Y-90273428D01*
X106510942Y-90273428D02*
X106463323Y-90178190D01*
X106463323Y-90178190D02*
X106415704Y-89987714D01*
X106415704Y-89987714D02*
X106415704Y-89844857D01*
X106415704Y-89844857D02*
X106463323Y-89654381D01*
X106463323Y-89654381D02*
X106510942Y-89559143D01*
X106510942Y-89559143D02*
X106606180Y-89463905D01*
X106606180Y-89463905D02*
X106749037Y-89416286D01*
X106749037Y-89416286D02*
X106844275Y-89416286D01*
X106844275Y-89416286D02*
X106987132Y-89463905D01*
X106987132Y-89463905D02*
X107034751Y-89511524D01*
X107415704Y-89511524D02*
X107463323Y-89463905D01*
X107463323Y-89463905D02*
X107558561Y-89416286D01*
X107558561Y-89416286D02*
X107796656Y-89416286D01*
X107796656Y-89416286D02*
X107891894Y-89463905D01*
X107891894Y-89463905D02*
X107939513Y-89511524D01*
X107939513Y-89511524D02*
X107987132Y-89606762D01*
X107987132Y-89606762D02*
X107987132Y-89702000D01*
X107987132Y-89702000D02*
X107939513Y-89844857D01*
X107939513Y-89844857D02*
X107368085Y-90416286D01*
X107368085Y-90416286D02*
X107987132Y-90416286D01*
X108368085Y-89511524D02*
X108415704Y-89463905D01*
X108415704Y-89463905D02*
X108510942Y-89416286D01*
X108510942Y-89416286D02*
X108749037Y-89416286D01*
X108749037Y-89416286D02*
X108844275Y-89463905D01*
X108844275Y-89463905D02*
X108891894Y-89511524D01*
X108891894Y-89511524D02*
X108939513Y-89606762D01*
X108939513Y-89606762D02*
X108939513Y-89702000D01*
X108939513Y-89702000D02*
X108891894Y-89844857D01*
X108891894Y-89844857D02*
X108320466Y-90416286D01*
X108320466Y-90416286D02*
X108939513Y-90416286D01*
%TO.C,U$3*%
G36*
X119709072Y-99771073D02*
G01*
X118896272Y-99771073D01*
X118896272Y-99059873D01*
X119150272Y-98780473D01*
X119328072Y-98526473D01*
X119455072Y-98170873D01*
X119505872Y-97535873D01*
X119505872Y-92913073D01*
X118997872Y-92913073D01*
X118997872Y-92786073D01*
X119709072Y-92786073D01*
X119709072Y-99771073D01*
G37*
G36*
X118997872Y-92913073D02*
G01*
X118439072Y-92913073D01*
X118439072Y-97332673D01*
X118388272Y-97764473D01*
X118337472Y-97993073D01*
X118159672Y-98221673D01*
X118921672Y-99009073D01*
X118921672Y-99771073D01*
X116838872Y-99771073D01*
X116838872Y-92786073D01*
X118997872Y-92786073D01*
X118997872Y-92913073D01*
G37*
D13*
X122095203Y-94716473D02*
G75*
G03*
X120777341Y-94716473I-658931J0D01*
G01*
X120777341Y-94716473D02*
G75*
G03*
X122095203Y-94716473I658931J0D01*
G01*
X121966637Y-94691073D02*
G75*
G03*
X120905907Y-94691073I-530365J0D01*
G01*
X120905907Y-94691073D02*
G75*
G03*
X121966637Y-94691073I530365J0D01*
G01*
X121863278Y-94691073D02*
G75*
G03*
X121060066Y-94691073I-401606J0D01*
G01*
X121060066Y-94691073D02*
G75*
G03*
X121863278Y-94691073I401606J0D01*
G01*
X121720700Y-94691073D02*
G75*
G03*
X121202644Y-94691073I-259028J0D01*
G01*
X121202644Y-94691073D02*
G75*
G03*
X121720700Y-94691073I259028J0D01*
G01*
X121573053Y-94691073D02*
G75*
G03*
X121299491Y-94691073I-136781J0D01*
G01*
X121299491Y-94691073D02*
G75*
G03*
X121573053Y-94691073I136781J0D01*
G01*
X121467665Y-94691073D02*
G75*
G03*
X121354079Y-94691073I-56793J0D01*
G01*
X121354079Y-94691073D02*
G75*
G03*
X121467665Y-94691073I56793J0D01*
G01*
G36*
X122071272Y-93090873D02*
G01*
X121842672Y-93014673D01*
X121537872Y-92963873D01*
X121258472Y-92989273D01*
X120902872Y-93090873D01*
X120648872Y-93243273D01*
X120344072Y-93471873D01*
X120115472Y-93700473D01*
X119937672Y-94056073D01*
X119861472Y-94411673D01*
X119836072Y-94741873D01*
X119937672Y-95122873D01*
X120039272Y-95427673D01*
X120217072Y-95707073D01*
X120521872Y-96011873D01*
X120725072Y-96164273D01*
X121080672Y-96342073D01*
X121461672Y-96418273D01*
X121817272Y-96367473D01*
X122122072Y-96291273D01*
X122147472Y-97815273D01*
X122198272Y-98221673D01*
X122350672Y-98602673D01*
X122680872Y-98983673D01*
X122680872Y-99771073D01*
X119734472Y-99771073D01*
X119734472Y-92786073D01*
X122071272Y-92786073D01*
X122071272Y-93090873D01*
G37*
G36*
X123696872Y-96291273D02*
G01*
X123747672Y-96596073D01*
X123925472Y-96824673D01*
X124154072Y-97078673D01*
X124306472Y-97129473D01*
X124306472Y-99771073D01*
X122680872Y-99771073D01*
X122706272Y-99034473D01*
X123468272Y-98272473D01*
X123341272Y-98145473D01*
X123239672Y-97993073D01*
X123214272Y-97866073D01*
X123214272Y-92913073D01*
X122096672Y-92913073D01*
X122096672Y-92786073D01*
X123696872Y-92786073D01*
X123696872Y-96291273D01*
G37*
G36*
X122096672Y-92913073D02*
G01*
X122096672Y-92989273D01*
X122071272Y-92913073D01*
X122096672Y-92913073D01*
G37*
G36*
X125728872Y-99771073D02*
G01*
X124230272Y-99771073D01*
X124230272Y-97129473D01*
X124992272Y-96367473D01*
X124865272Y-96215073D01*
X124789072Y-96138873D01*
X124738272Y-96037273D01*
X124738272Y-92913073D01*
X123722272Y-92913073D01*
X123696872Y-92786073D01*
X125728872Y-92786073D01*
X125728872Y-99771073D01*
G37*
G36*
X122477672Y-92786073D02*
G01*
X122249072Y-92811473D01*
X122198272Y-92786073D01*
X122477672Y-92786073D01*
G37*
G36*
X118337472Y-92328873D02*
G01*
X118439072Y-92532073D01*
X118591472Y-92684473D01*
X118820072Y-92786073D01*
X116838872Y-92786073D01*
X116838872Y-92074873D01*
X118312072Y-92074873D01*
X118337472Y-92328873D01*
G37*
G36*
X120369472Y-92328873D02*
G01*
X120496472Y-92506673D01*
X120598072Y-92633673D01*
X120725072Y-92760673D01*
X120979072Y-92786073D01*
X118820072Y-92786073D01*
X119150272Y-92760673D01*
X119378872Y-92633673D01*
X119505872Y-92430473D01*
X119709072Y-92430473D01*
X119886872Y-92354273D01*
X120064672Y-92252673D01*
X120242472Y-92227273D01*
X120369472Y-92328873D01*
G37*
G36*
X121664872Y-92024073D02*
G01*
X121715672Y-92227273D01*
X121791872Y-92379673D01*
X121918872Y-92557473D01*
X122045872Y-92709873D01*
X122198272Y-92786073D01*
X120979072Y-92786073D01*
X121182272Y-92735273D01*
X121334672Y-92430473D01*
X121436272Y-92227273D01*
X121563272Y-91998673D01*
X121614072Y-91897073D01*
X121664872Y-92024073D01*
G37*
G36*
X123188872Y-92278073D02*
G01*
X123290472Y-92328873D01*
X123493672Y-92379673D01*
X123646072Y-92405073D01*
X123671472Y-92430473D01*
X123773072Y-92582873D01*
X123900072Y-92684473D01*
X124077872Y-92760673D01*
X124230272Y-92786073D01*
X122477672Y-92786073D01*
X122655472Y-92557473D01*
X122833272Y-92303473D01*
X122934872Y-92201873D01*
X123011072Y-92201873D01*
X123188872Y-92278073D01*
G37*
G36*
X125728872Y-92786073D02*
G01*
X124230272Y-92786073D01*
X124484272Y-92735273D01*
X124712872Y-92557473D01*
X124814472Y-92328873D01*
X124865272Y-92049473D01*
X125728872Y-92049473D01*
X125728872Y-92786073D01*
G37*
G36*
X125728872Y-92125673D02*
G01*
X124839872Y-92125673D01*
X124814472Y-91998673D01*
X124763672Y-91871673D01*
X124687472Y-91770073D01*
X124585872Y-91668473D01*
X124458872Y-91592273D01*
X124306472Y-91541473D01*
X124154072Y-91541473D01*
X124027072Y-91566873D01*
X123874672Y-91643073D01*
X123722272Y-91795473D01*
X123620672Y-91973273D01*
X123519072Y-91973273D01*
X123417472Y-91922473D01*
X123315872Y-91846273D01*
X123239672Y-91795473D01*
X123087272Y-91744673D01*
X122909472Y-91744673D01*
X122757072Y-91770073D01*
X122630072Y-91897073D01*
X122528472Y-92024073D01*
X122452272Y-92151073D01*
X122350672Y-92303473D01*
X122274472Y-92354273D01*
X122223672Y-92303473D01*
X122172872Y-92227273D01*
X122122072Y-92125673D01*
X122071272Y-91998673D01*
X122020472Y-91897073D01*
X121969672Y-91744673D01*
X121868072Y-91592273D01*
X121766472Y-91465273D01*
X121690272Y-91414473D01*
X121614072Y-91389073D01*
X121487072Y-91414473D01*
X121410872Y-91465273D01*
X121309272Y-91592273D01*
X121207672Y-91744673D01*
X121106072Y-91897073D01*
X120979072Y-92151073D01*
X120877472Y-92303473D01*
X120801272Y-92201873D01*
X120750472Y-92100273D01*
X120648872Y-91973273D01*
X120521872Y-91871673D01*
X120420272Y-91795473D01*
X120293272Y-91744673D01*
X120191672Y-91744673D01*
X120039272Y-91795473D01*
X119912272Y-91846273D01*
X119759872Y-91922473D01*
X119632872Y-91973273D01*
X119531272Y-91973273D01*
X119505872Y-91897073D01*
X119429672Y-91770073D01*
X119328072Y-91668473D01*
X119201072Y-91592273D01*
X119023272Y-91566873D01*
X118820072Y-91566873D01*
X118642272Y-91617673D01*
X118489872Y-91770073D01*
X118337472Y-91973273D01*
X118337472Y-92176473D01*
X116838872Y-92125673D01*
X116838872Y-90881073D01*
X125728872Y-90881073D01*
X125728872Y-92125673D01*
G37*
D14*
%TO.C,L2*%
X97945725Y-61260106D02*
X97945725Y-57704106D01*
X103025725Y-61260106D02*
X103025725Y-57704106D01*
%TO.C,R4*%
X73252064Y-68045000D02*
X72797936Y-68045000D01*
X73252064Y-66575000D02*
X72797936Y-66575000D01*
%TO.C,C7*%
X64435000Y-80240000D02*
X62565000Y-80240000D01*
X62565000Y-80240000D02*
X62565000Y-84150000D01*
X64435000Y-84150000D02*
X64435000Y-80240000D01*
%TO.C,C28*%
X79356429Y-96783071D02*
X77933925Y-96783071D01*
X79356429Y-94063071D02*
X77933925Y-94063071D01*
%TO.C,U9*%
X85572500Y-59165702D02*
X85572500Y-62615702D01*
X85572500Y-59165702D02*
X85572500Y-57215702D01*
X90692500Y-59165702D02*
X90692500Y-61115702D01*
X90692500Y-59165702D02*
X90692500Y-57215702D01*
%TO.C,C13*%
X90310244Y-78570526D02*
X90310244Y-78851686D01*
X89290244Y-78570526D02*
X89290244Y-78851686D01*
%TO.C,C12*%
X92198500Y-59266122D02*
X92198500Y-59547282D01*
X91178500Y-59266122D02*
X91178500Y-59547282D01*
%TO.C,R13*%
X107977893Y-92263645D02*
X107977893Y-92717773D01*
X106507893Y-92263645D02*
X106507893Y-92717773D01*
%TO.C,R23*%
X94455500Y-59042138D02*
X94455500Y-59496266D01*
X92985500Y-59042138D02*
X92985500Y-59496266D01*
%TO.C,R39*%
X94447421Y-75806138D02*
X94447421Y-76260266D01*
X92977421Y-75806138D02*
X92977421Y-76260266D01*
%TO.C,R25*%
X89000000Y-88672936D02*
X89000000Y-89127064D01*
X87530000Y-88672936D02*
X87530000Y-89127064D01*
%TO.C,U11*%
X104472687Y-101119558D02*
X104472687Y-97669558D01*
X104472687Y-101119558D02*
X104472687Y-103069558D01*
X99352687Y-101119558D02*
X99352687Y-99169558D01*
X99352687Y-101119558D02*
X99352687Y-103069558D01*
%TO.C,C4*%
X86941835Y-53659419D02*
X86941835Y-53378259D01*
X87961835Y-53659419D02*
X87961835Y-53378259D01*
%TO.C,Q3*%
X102262105Y-71265590D02*
X102262105Y-73065590D01*
X102262105Y-71265590D02*
X102262105Y-70465590D01*
X105382105Y-71265590D02*
X105382105Y-72065590D01*
X105382105Y-71265590D02*
X105382105Y-70465590D01*
%TO.C,R29*%
X92423500Y-71638638D02*
X92423500Y-72092766D01*
X90953500Y-71638638D02*
X90953500Y-72092766D01*
%TO.C,R44*%
X74575298Y-107622500D02*
X79645298Y-107622500D01*
X74575298Y-107622500D02*
X74575298Y-97852500D01*
X79645298Y-107622500D02*
X79645298Y-97852500D01*
X74575298Y-97852500D02*
X79645298Y-97852500D01*
%TO.C,R26*%
X89587627Y-66687943D02*
X90041755Y-66687943D01*
X89587627Y-68157943D02*
X90041755Y-68157943D01*
%TO.C,C11*%
X106038610Y-105295034D02*
X107461114Y-105295034D01*
X106038610Y-108015034D02*
X107461114Y-108015034D01*
%TO.C,R19*%
X88538199Y-53549649D02*
X88538199Y-53095521D01*
X90008199Y-53549649D02*
X90008199Y-53095521D01*
%TO.C,D2*%
X71080548Y-64707407D02*
X71080548Y-65907407D01*
X73874548Y-64707407D02*
X71080548Y-64707407D01*
X73874548Y-65907407D02*
X71080548Y-65907407D01*
%TO.C,U1*%
X74472555Y-70460164D02*
X74472555Y-76470164D01*
X67652555Y-72710164D02*
X67652555Y-76470164D01*
X74472555Y-76470164D02*
X73212555Y-76470164D01*
X67652555Y-76470164D02*
X68912555Y-76470164D01*
%TO.C,R11*%
X105089622Y-86468949D02*
X104635494Y-86468949D01*
X105089622Y-84998949D02*
X104635494Y-84998949D01*
%TO.C,R38*%
X95017500Y-75422576D02*
X95017500Y-74968448D01*
X96487500Y-75422576D02*
X96487500Y-74968448D01*
%TO.C,J6*%
X91560000Y-38100000D02*
X106560000Y-38100000D01*
X91560000Y-53100000D02*
X91560000Y-38100000D01*
X99060000Y-38300000D02*
X98060000Y-39300000D01*
X99060000Y-38300000D02*
X100060000Y-39300000D01*
X106560000Y-38100000D02*
X106560000Y-53100000D01*
X106560000Y-53100000D02*
X91560000Y-53100000D01*
%TO.C,C18*%
X59565000Y-86854420D02*
X59565000Y-87135580D01*
X58545000Y-86854420D02*
X58545000Y-87135580D01*
%TO.C,C29*%
X79340550Y-93429500D02*
X77918046Y-93429500D01*
X79340550Y-90709500D02*
X77918046Y-90709500D01*
%TO.C,R21*%
X74768862Y-94709500D02*
X74314734Y-94709500D01*
X74768862Y-93239500D02*
X74314734Y-93239500D01*
D12*
%TO.C,R42*%
X135560000Y-57466141D02*
X113360000Y-57466141D01*
X135560000Y-38366141D02*
X135560000Y-57466141D01*
X113360000Y-38366141D02*
X135560000Y-38366141D01*
X113360000Y-38366141D02*
X113360000Y-57466141D01*
D14*
%TO.C,U10*%
X85290370Y-73389702D02*
X85290370Y-76839702D01*
X85290370Y-73389702D02*
X85290370Y-71439702D01*
X90410370Y-73389702D02*
X90410370Y-75339702D01*
X90410370Y-73389702D02*
X90410370Y-71439702D01*
%TO.C,C8*%
X64435000Y-85320000D02*
X62565000Y-85320000D01*
X62565000Y-85320000D02*
X62565000Y-89230000D01*
X64435000Y-89230000D02*
X64435000Y-85320000D01*
%TO.C,C30*%
X77393748Y-72300000D02*
X78816252Y-72300000D01*
X77393748Y-75020000D02*
X78816252Y-75020000D01*
%TO.C,L3*%
X64818534Y-104077261D02*
X52218534Y-104077261D01*
X64818534Y-101077261D02*
X64818534Y-104077261D01*
X64818534Y-91477261D02*
X64818534Y-94477261D01*
X52218534Y-104077261D02*
X52218534Y-101077261D01*
X52218534Y-94477261D02*
X52218534Y-91477261D01*
X52218534Y-91477261D02*
X64818534Y-91477261D01*
%TO.C,C23*%
X104562313Y-94520709D02*
X104843473Y-94520709D01*
X104562313Y-95540709D02*
X104843473Y-95540709D01*
%TO.C,R31*%
X101604526Y-74928984D02*
X101604526Y-75383112D01*
X100134526Y-74928984D02*
X100134526Y-75383112D01*
%TO.C,C14*%
X86545889Y-68209511D02*
X86545889Y-67928351D01*
X87565889Y-68209511D02*
X87565889Y-67928351D01*
%TO.C,R28*%
X93897936Y-61478702D02*
X94352064Y-61478702D01*
X93897936Y-62948702D02*
X94352064Y-62948702D01*
%TO.C,R27*%
X94559064Y-56852702D02*
X94104936Y-56852702D01*
X94559064Y-55382702D02*
X94104936Y-55382702D01*
%TO.C,R37*%
X103094042Y-67539636D02*
X103094042Y-67085508D01*
X104564042Y-67539636D02*
X104564042Y-67085508D01*
%TO.C,R35*%
X126248520Y-68198952D02*
X125794392Y-68198952D01*
X126248520Y-66728952D02*
X125794392Y-66728952D01*
%TO.C,R34*%
X131037064Y-68254777D02*
X130582936Y-68254777D01*
X131037064Y-66784777D02*
X130582936Y-66784777D01*
%TO.C,R36*%
X96105260Y-67578457D02*
X96105260Y-67124329D01*
X97575260Y-67578457D02*
X97575260Y-67124329D01*
%TO.C,R20*%
X70958862Y-97249500D02*
X70504734Y-97249500D01*
X70958862Y-95779500D02*
X70504734Y-95779500D01*
%TO.C,R33*%
X130582936Y-69324777D02*
X131037064Y-69324777D01*
X130582936Y-70794777D02*
X131037064Y-70794777D01*
%TO.C,R14*%
X102129500Y-75422576D02*
X102129500Y-74968448D01*
X103599500Y-75422576D02*
X103599500Y-74968448D01*
%TO.C,C16*%
X96929247Y-99991642D02*
X95506743Y-99991642D01*
X96929247Y-97271642D02*
X95506743Y-97271642D01*
%TO.C,C20*%
X77393748Y-68490000D02*
X78816252Y-68490000D01*
X77393748Y-71210000D02*
X78816252Y-71210000D01*
%TO.C,R22*%
X91540000Y-88672936D02*
X91540000Y-89127064D01*
X90070000Y-88672936D02*
X90070000Y-89127064D01*
%TO.C,C21*%
X93210500Y-79867282D02*
X93210500Y-79586122D01*
X94230500Y-79867282D02*
X94230500Y-79586122D01*
%TO.C,C9*%
X99620802Y-75004865D02*
X99620802Y-75286025D01*
X98600802Y-75004865D02*
X98600802Y-75286025D01*
%TO.C,U3*%
X67954923Y-91117691D02*
X67954923Y-85107691D01*
X74774923Y-88867691D02*
X74774923Y-85107691D01*
X67954923Y-85107691D02*
X69214923Y-85107691D01*
X74774923Y-85107691D02*
X73514923Y-85107691D01*
%TO.C,J2*%
X85215000Y-110110000D02*
X85215000Y-111850000D01*
X85215000Y-111850000D02*
X86715000Y-111850000D01*
X85455000Y-104490000D02*
X85455000Y-111610000D01*
X85455000Y-104490000D02*
X96775000Y-104490000D01*
X85455000Y-110050000D02*
X96775000Y-110050000D01*
X85455000Y-111610000D02*
X96775000Y-111610000D01*
X96775000Y-104490000D02*
X96775000Y-111610000D01*
X86183000Y-107342000D02*
G75*
G03*
X86182891Y-108557742I1432000J-608000D01*
G01*
X88223000Y-106518000D02*
G75*
G03*
X87007258Y-106517891I-608000J-1432000D01*
G01*
X87007000Y-109381999D02*
G75*
G03*
X87642011Y-109505492I607998J1431987D01*
G01*
X87615000Y-109504999D02*
G75*
G03*
X88222587Y-109381384I0J1554999D01*
G01*
X89047000Y-108558000D02*
G75*
G03*
X89047109Y-107342258I-1432003J607999D01*
G01*
X92670000Y-107950000D02*
G75*
G03*
X89560000Y-107950000I-1555000J0D01*
G01*
X89560000Y-107950000D02*
G75*
G03*
X92670000Y-107950000I1555000J0D01*
G01*
X96170000Y-107950000D02*
G75*
G03*
X93060000Y-107950000I-1555000J0D01*
G01*
X93060000Y-107950000D02*
G75*
G03*
X96170000Y-107950000I1555000J0D01*
G01*
%TO.C,L1*%
X64904961Y-78099284D02*
X52304961Y-78099284D01*
X64904961Y-75099284D02*
X64904961Y-78099284D01*
X64904961Y-65499284D02*
X64904961Y-68499284D01*
X52304961Y-78099284D02*
X52304961Y-75099284D01*
X52304961Y-68499284D02*
X52304961Y-65499284D01*
X52304961Y-65499284D02*
X64904961Y-65499284D01*
%TO.C,R40*%
X126263379Y-64202006D02*
X126263379Y-63747878D01*
X127733379Y-64202006D02*
X127733379Y-63747878D01*
%TO.C,C10*%
X59565000Y-83044420D02*
X59565000Y-83325580D01*
X58545000Y-83044420D02*
X58545000Y-83325580D01*
%TO.C,R30*%
X86105309Y-77541118D02*
X86559437Y-77541118D01*
X86105309Y-79011118D02*
X86559437Y-79011118D01*
%TO.C,C2*%
X72678912Y-59496955D02*
X72397752Y-59496955D01*
X72678912Y-58476955D02*
X72397752Y-58476955D01*
%TO.C,D4*%
X74223528Y-95283690D02*
X73023528Y-95283690D01*
X74223528Y-98077690D02*
X74223528Y-95283690D01*
X73023528Y-98077690D02*
X73023528Y-95283690D01*
%TO.C,U5*%
X134030779Y-77986752D02*
X132740780Y-77986751D01*
X134030779Y-79386751D02*
X134030779Y-77986752D01*
X132740780Y-79386752D02*
X134030779Y-79386751D01*
X132740837Y-77986994D02*
G75*
G03*
X132740779Y-79386752I-2937812J-699758D01*
G01*
X135203024Y-78686752D02*
G75*
G03*
X124403026Y-78686752I-5399999J0D01*
G01*
X124403026Y-78686752D02*
G75*
G03*
X135203024Y-78686752I5399999J0D01*
G01*
%TO.C,R9*%
X70424734Y-93239500D02*
X70878862Y-93239500D01*
X70424734Y-94709500D02*
X70878862Y-94709500D01*
%TO.C,R5*%
X70476682Y-62259646D02*
X70476682Y-62713774D01*
X69006682Y-62259646D02*
X69006682Y-62713774D01*
%TO.C,R24*%
X86889500Y-64877266D02*
X86889500Y-64423138D01*
X88359500Y-64877266D02*
X88359500Y-64423138D01*
%TO.C,J4*%
X81160000Y-53100000D02*
X66160000Y-53100000D01*
X81160000Y-38100000D02*
X81160000Y-53100000D01*
X73660000Y-38300000D02*
X74660000Y-39300000D01*
X73660000Y-38300000D02*
X72660000Y-39300000D01*
X66160000Y-53100000D02*
X66160000Y-38100000D01*
X66160000Y-38100000D02*
X81160000Y-38100000D01*
%TO.C,C26*%
X103045191Y-106351817D02*
X103045191Y-106632977D01*
X102025191Y-106351817D02*
X102025191Y-106632977D01*
%TO.C,Q1*%
X70978332Y-62256955D02*
X70978332Y-64056955D01*
X70978332Y-62256955D02*
X70978332Y-61456955D01*
X74098332Y-62256955D02*
X74098332Y-63056955D01*
X74098332Y-62256955D02*
X74098332Y-61456955D01*
%TO.C,Q4*%
X95267292Y-71236202D02*
X95267292Y-73036202D01*
X95267292Y-71236202D02*
X95267292Y-70436202D01*
X98387292Y-71236202D02*
X98387292Y-72036202D01*
X98387292Y-71236202D02*
X98387292Y-70436202D01*
%TO.C,R41*%
X129162500Y-64294341D02*
X129162500Y-63840213D01*
X130632500Y-64294341D02*
X130632500Y-63840213D01*
%TO.C,R43*%
X76210000Y-67750000D02*
X81280000Y-67750000D01*
X76210000Y-67750000D02*
X76210000Y-57980000D01*
X81280000Y-67750000D02*
X81280000Y-57980000D01*
X76210000Y-57980000D02*
X81280000Y-57980000D01*
%TO.C,C3*%
X90558116Y-64476760D02*
X90558116Y-64757920D01*
X89538116Y-64476760D02*
X89538116Y-64757920D01*
%TO.C,R12*%
X104627563Y-87165140D02*
X105081691Y-87165140D01*
X104627563Y-88635140D02*
X105081691Y-88635140D01*
%TO.C,C27*%
X100532640Y-95426320D02*
X100532640Y-95707480D01*
X99512640Y-95426320D02*
X99512640Y-95707480D01*
%TO.C,C19*%
X70507998Y-101447366D02*
X70789158Y-101447366D01*
X70507998Y-102467366D02*
X70789158Y-102467366D01*
%TO.C,Q2*%
X70689298Y-97814500D02*
X68889298Y-97814500D01*
X70689298Y-97814500D02*
X71489298Y-97814500D01*
X70689298Y-100934500D02*
X69889298Y-100934500D01*
X70689298Y-100934500D02*
X71489298Y-100934500D01*
%TO.C,R45*%
X95413511Y-85682411D02*
X95413511Y-92278411D01*
X101001511Y-85682411D02*
X101001511Y-92286411D01*
%TO.C,R10*%
X125780436Y-69324777D02*
X126234564Y-69324777D01*
X125780436Y-70794777D02*
X126234564Y-70794777D01*
%TO.C,D3*%
X92776283Y-94440200D02*
X92776283Y-96440200D01*
X92776283Y-94440200D02*
X96636283Y-94440200D01*
X92776283Y-96440200D02*
X96636283Y-96440200D01*
%TO.C,R6*%
X73252064Y-69950000D02*
X72797936Y-69950000D01*
X73252064Y-68480000D02*
X72797936Y-68480000D01*
%TO.C,C5*%
X104498315Y-91022913D02*
X104779475Y-91022913D01*
X104498315Y-92042913D02*
X104779475Y-92042913D01*
%TO.C,D1*%
X105326723Y-108806737D02*
X105326723Y-110806737D01*
X105326723Y-108806737D02*
X109186723Y-108806737D01*
X105326723Y-110806737D02*
X109186723Y-110806737D01*
%TO.C,C6*%
X104550496Y-92901797D02*
X104831656Y-92901797D01*
X104550496Y-93921797D02*
X104831656Y-93921797D01*
%TO.C,C22*%
X104783080Y-90409702D02*
X104501920Y-90409702D01*
X104783080Y-89389702D02*
X104501920Y-89389702D01*
%TD*%
M02*
