%TF.GenerationSoftware,KiCad,Pcbnew,7.0.10*%
%TF.CreationDate,2024-03-12T19:05:43-04:00*%
%TF.ProjectId,current_controller,63757272-656e-4745-9f63-6f6e74726f6c,rev?*%
%TF.SameCoordinates,Original*%
%TF.FileFunction,Copper,L1,Top*%
%TF.FilePolarity,Positive*%
%FSLAX46Y46*%
G04 Gerber Fmt 4.6, Leading zero omitted, Abs format (unit mm)*
G04 Created by KiCad (PCBNEW 7.0.10) date 2024-03-12 19:05:43*
%MOMM*%
%LPD*%
G01*
G04 APERTURE LIST*
G04 Aperture macros list*
%AMRoundRect*
0 Rectangle with rounded corners*
0 $1 Rounding radius*
0 $2 $3 $4 $5 $6 $7 $8 $9 X,Y pos of 4 corners*
0 Add a 4 corners polygon primitive as box body*
4,1,4,$2,$3,$4,$5,$6,$7,$8,$9,$2,$3,0*
0 Add four circle primitives for the rounded corners*
1,1,$1+$1,$2,$3*
1,1,$1+$1,$4,$5*
1,1,$1+$1,$6,$7*
1,1,$1+$1,$8,$9*
0 Add four rect primitives between the rounded corners*
20,1,$1+$1,$2,$3,$4,$5,0*
20,1,$1+$1,$4,$5,$6,$7,0*
20,1,$1+$1,$6,$7,$8,$9,0*
20,1,$1+$1,$8,$9,$2,$3,0*%
%AMHorizOval*
0 Thick line with rounded ends*
0 $1 width*
0 $2 $3 position (X,Y) of the first rounded end (center of the circle)*
0 $4 $5 position (X,Y) of the second rounded end (center of the circle)*
0 Add line between two ends*
20,1,$1,$2,$3,$4,$5,0*
0 Add two circle primitives to create the rounded ends*
1,1,$1,$2,$3*
1,1,$1,$4,$5*%
G04 Aperture macros list end*
%TA.AperFunction,SMDPad,CuDef*%
%ADD10R,4.500000X2.000000*%
%TD*%
%TA.AperFunction,SMDPad,CuDef*%
%ADD11RoundRect,0.250000X0.262500X0.450000X-0.262500X0.450000X-0.262500X-0.450000X0.262500X-0.450000X0*%
%TD*%
%TA.AperFunction,SMDPad,CuDef*%
%ADD12RoundRect,0.250000X-0.425000X0.450000X-0.425000X-0.450000X0.425000X-0.450000X0.425000X0.450000X0*%
%TD*%
%TA.AperFunction,SMDPad,CuDef*%
%ADD13RoundRect,0.250000X0.325000X1.100000X-0.325000X1.100000X-0.325000X-1.100000X0.325000X-1.100000X0*%
%TD*%
%TA.AperFunction,SMDPad,CuDef*%
%ADD14RoundRect,0.150000X0.150000X-0.825000X0.150000X0.825000X-0.150000X0.825000X-0.150000X-0.825000X0*%
%TD*%
%TA.AperFunction,SMDPad,CuDef*%
%ADD15RoundRect,0.225000X-0.250000X0.225000X-0.250000X-0.225000X0.250000X-0.225000X0.250000X0.225000X0*%
%TD*%
%TA.AperFunction,SMDPad,CuDef*%
%ADD16RoundRect,0.250000X-0.450000X0.262500X-0.450000X-0.262500X0.450000X-0.262500X0.450000X0.262500X0*%
%TD*%
%TA.AperFunction,SMDPad,CuDef*%
%ADD17RoundRect,0.150000X-0.150000X0.825000X-0.150000X-0.825000X0.150000X-0.825000X0.150000X0.825000X0*%
%TD*%
%TA.AperFunction,SMDPad,CuDef*%
%ADD18RoundRect,0.225000X0.250000X-0.225000X0.250000X0.225000X-0.250000X0.225000X-0.250000X-0.225000X0*%
%TD*%
%TA.AperFunction,SMDPad,CuDef*%
%ADD19RoundRect,0.150000X0.150000X-0.512500X0.150000X0.512500X-0.150000X0.512500X-0.150000X-0.512500X0*%
%TD*%
%TA.AperFunction,ComponentPad*%
%ADD20C,1.440000*%
%TD*%
%TA.AperFunction,SMDPad,CuDef*%
%ADD21RoundRect,0.250000X-0.262500X-0.450000X0.262500X-0.450000X0.262500X0.450000X-0.262500X0.450000X0*%
%TD*%
%TA.AperFunction,SMDPad,CuDef*%
%ADD22RoundRect,0.250000X-0.325000X-1.100000X0.325000X-1.100000X0.325000X1.100000X-0.325000X1.100000X0*%
%TD*%
%TA.AperFunction,SMDPad,CuDef*%
%ADD23RoundRect,0.250000X0.450000X-0.262500X0.450000X0.262500X-0.450000X0.262500X-0.450000X-0.262500X0*%
%TD*%
%TA.AperFunction,SMDPad,CuDef*%
%ADD24RoundRect,0.125000X0.275000X0.125000X-0.275000X0.125000X-0.275000X-0.125000X0.275000X-0.125000X0*%
%TD*%
%TA.AperFunction,SMDPad,CuDef*%
%ADD25R,1.500000X2.000000*%
%TD*%
%TA.AperFunction,SMDPad,CuDef*%
%ADD26R,3.800000X2.000000*%
%TD*%
%TA.AperFunction,ComponentPad*%
%ADD27O,1.600000X2.500000*%
%TD*%
%TA.AperFunction,ComponentPad*%
%ADD28O,3.500000X7.000000*%
%TD*%
%TA.AperFunction,ComponentPad*%
%ADD29O,6.000000X4.000000*%
%TD*%
%TA.AperFunction,SMDPad,CuDef*%
%ADD30R,2.900000X5.400000*%
%TD*%
%TA.AperFunction,SMDPad,CuDef*%
%ADD31RoundRect,0.225000X-0.225000X-0.250000X0.225000X-0.250000X0.225000X0.250000X-0.225000X0.250000X0*%
%TD*%
%TA.AperFunction,ComponentPad*%
%ADD32R,2.400000X2.400000*%
%TD*%
%TA.AperFunction,ComponentPad*%
%ADD33C,2.400000*%
%TD*%
%TA.AperFunction,SMDPad,CuDef*%
%ADD34RoundRect,0.225000X0.225000X0.250000X-0.225000X0.250000X-0.225000X-0.250000X0.225000X-0.250000X0*%
%TD*%
%TA.AperFunction,SMDPad,CuDef*%
%ADD35RoundRect,0.125000X0.125000X-0.275000X0.125000X0.275000X-0.125000X0.275000X-0.125000X-0.275000X0*%
%TD*%
%TA.AperFunction,ComponentPad*%
%ADD36HorizOval,1.200000X-0.141421X-0.141421X0.141421X0.141421X0*%
%TD*%
%TA.AperFunction,ComponentPad*%
%ADD37C,1.200000*%
%TD*%
%TA.AperFunction,SMDPad,CuDef*%
%ADD38RoundRect,0.150000X-0.512500X-0.150000X0.512500X-0.150000X0.512500X0.150000X-0.512500X0.150000X0*%
%TD*%
%TA.AperFunction,SMDPad,CuDef*%
%ADD39R,1.650000X2.410000*%
%TD*%
%TA.AperFunction,SMDPad,CuDef*%
%ADD40RoundRect,0.250000X-0.300000X-0.300000X0.300000X-0.300000X0.300000X0.300000X-0.300000X0.300000X0*%
%TD*%
%TA.AperFunction,ViaPad*%
%ADD41C,6.096000*%
%TD*%
%TA.AperFunction,ViaPad*%
%ADD42C,0.800000*%
%TD*%
%TA.AperFunction,Conductor*%
%ADD43C,0.508000*%
%TD*%
%TA.AperFunction,Conductor*%
%ADD44C,0.635000*%
%TD*%
%TA.AperFunction,Conductor*%
%ADD45C,0.250000*%
%TD*%
%TA.AperFunction,Conductor*%
%ADD46C,1.016000*%
%TD*%
%TA.AperFunction,Conductor*%
%ADD47C,0.254000*%
%TD*%
%TA.AperFunction,Conductor*%
%ADD48C,0.200000*%
%TD*%
G04 APERTURE END LIST*
D10*
%TO.P,L2,1,1*%
%TO.N,Net-(L2-Pad1)*%
X100485725Y-62282106D03*
%TO.P,L2,2,2*%
%TO.N,/connecting to laser diode*%
X100485725Y-56682106D03*
%TD*%
D11*
%TO.P,R4,1*%
%TO.N,V_laser+*%
X73937500Y-67310000D03*
%TO.P,R4,2*%
%TO.N,Net-(D2-K)*%
X72112500Y-67310000D03*
%TD*%
D12*
%TO.P,C7,1*%
%TO.N,Net-(U1-VI)*%
X63500000Y-81200000D03*
%TO.P,C7,2*%
%TO.N,Net-(C7-Pad2)*%
X63500000Y-83900000D03*
%TD*%
D13*
%TO.P,C28,1*%
%TO.N,GND*%
X80120177Y-95423071D03*
%TO.P,C28,2*%
%TO.N,V_laser-*%
X77170177Y-95423071D03*
%TD*%
D14*
%TO.P,U9,1,VOS*%
%TO.N,unconnected-(U9-VOS-Pad1)*%
X86227500Y-61640702D03*
%TO.P,U9,2,-*%
%TO.N,Net-(U9--)*%
X87497500Y-61640702D03*
%TO.P,U9,3,+*%
%TO.N,Net-(U9-+)*%
X88767500Y-61640702D03*
%TO.P,U9,4,V-*%
%TO.N,-15V*%
X90037500Y-61640702D03*
%TO.P,U9,5,NC*%
%TO.N,unconnected-(U9-NC-Pad5)*%
X90037500Y-56690702D03*
%TO.P,U9,6*%
%TO.N,Net-(C12-Pad1)*%
X88767500Y-56690702D03*
%TO.P,U9,7,V+*%
%TO.N,+15V*%
X87497500Y-56690702D03*
%TO.P,U9,8,VOS*%
%TO.N,unconnected-(U9-VOS-Pad8)*%
X86227500Y-56690702D03*
%TD*%
D15*
%TO.P,C13,1*%
%TO.N,-15V*%
X89800244Y-77936106D03*
%TO.P,C13,2*%
%TO.N,GND*%
X89800244Y-79486106D03*
%TD*%
%TO.P,C12,1*%
%TO.N,Net-(C12-Pad1)*%
X91688500Y-58631702D03*
%TO.P,C12,2*%
%TO.N,Net-(U9-+)*%
X91688500Y-60181702D03*
%TD*%
D16*
%TO.P,R13,1*%
%TO.N,Net-(C22-Pad1)*%
X107242893Y-91578209D03*
%TO.P,R13,2*%
%TO.N,Net-(U11--)*%
X107242893Y-93403209D03*
%TD*%
%TO.P,R23,1*%
%TO.N,Net-(C12-Pad1)*%
X93720500Y-58356702D03*
%TO.P,R23,2*%
%TO.N,Net-(U9-+)*%
X93720500Y-60181702D03*
%TD*%
%TO.P,R39,1*%
%TO.N,Net-(Q4-G)*%
X93712421Y-75120702D03*
%TO.P,R39,2*%
%TO.N,Net-(C21-Pad2)*%
X93712421Y-76945702D03*
%TD*%
%TO.P,R25,1*%
%TO.N,V_laser-*%
X88265000Y-87987500D03*
%TO.P,R25,2*%
%TO.N,Net-(R22-Pad2)*%
X88265000Y-89812500D03*
%TD*%
D17*
%TO.P,U11,1,BAL*%
%TO.N,unconnected-(U11-BAL-Pad1)*%
X103817687Y-98644558D03*
%TO.P,U11,2,-*%
%TO.N,Net-(U11--)*%
X102547687Y-98644558D03*
%TO.P,U11,3,+*%
%TO.N,Net-(U11-+)*%
X101277687Y-98644558D03*
%TO.P,U11,4,V-*%
%TO.N,Net-(D3-A)*%
X100007687Y-98644558D03*
%TO.P,U11,5,COMP*%
%TO.N,unconnected-(U11-COMP-Pad5)*%
X100007687Y-103594558D03*
%TO.P,U11,6*%
%TO.N,Net-(R14-Pad1)*%
X101277687Y-103594558D03*
%TO.P,U11,7,V+*%
%TO.N,Net-(D1-K)*%
X102547687Y-103594558D03*
%TO.P,U11,8,C/B*%
%TO.N,unconnected-(U11-C{slash}B-Pad8)*%
X103817687Y-103594558D03*
%TD*%
D18*
%TO.P,C4,1*%
%TO.N,+15V*%
X87451835Y-54293839D03*
%TO.P,C4,2*%
%TO.N,GND*%
X87451835Y-52743839D03*
%TD*%
D19*
%TO.P,Q3,1,G*%
%TO.N,Net-(Q3-G)*%
X102872105Y-72403090D03*
%TO.P,Q3,2,S*%
%TO.N,Net-(Q3-S)*%
X104772105Y-72403090D03*
%TO.P,Q3,3,D*%
%TO.N,Net-(Q3-D)*%
X103822105Y-70128090D03*
%TD*%
D16*
%TO.P,R29,1*%
%TO.N,Net-(R26-Pad2)*%
X91688500Y-70953202D03*
%TO.P,R29,2*%
%TO.N,Net-(U10--)*%
X91688500Y-72778202D03*
%TD*%
D20*
%TO.P,R44,1,1*%
%TO.N,Net-(Q2-E)*%
X77105298Y-100197500D03*
%TO.P,R44,2,2*%
%TO.N,GND*%
X77105298Y-102737500D03*
%TO.P,R44,3,3*%
X77105298Y-105277500D03*
%TD*%
D21*
%TO.P,R26,1*%
%TO.N,Net-(U9-+)*%
X88902191Y-67422943D03*
%TO.P,R26,2*%
%TO.N,Net-(R26-Pad2)*%
X90727191Y-67422943D03*
%TD*%
D22*
%TO.P,C11,1*%
%TO.N,Net-(D1-K)*%
X105274862Y-106655034D03*
%TO.P,C11,2*%
%TO.N,GND*%
X108224862Y-106655034D03*
%TD*%
D23*
%TO.P,R19,1*%
%TO.N,Net-(C12-Pad1)*%
X89273199Y-54235085D03*
%TO.P,R19,2*%
%TO.N,/Modulation Input*%
X89273199Y-52410085D03*
%TD*%
D24*
%TO.P,D2,1,K*%
%TO.N,Net-(D2-K)*%
X71604548Y-65307407D03*
%TO.P,D2,2,A*%
%TO.N,Net-(D2-A)*%
X73604548Y-65307407D03*
%TD*%
D25*
%TO.P,U1,1,ADJ*%
%TO.N,Net-(Q1-E)*%
X73362555Y-71410164D03*
%TO.P,U1,2,VO*%
%TO.N,Net-(D2-K)*%
X71062555Y-71410164D03*
D26*
X71062555Y-77710164D03*
D25*
%TO.P,U1,3,VI*%
%TO.N,Net-(U1-VI)*%
X68762555Y-71410164D03*
%TD*%
D11*
%TO.P,R11,1*%
%TO.N,Net-(R11-Pad1)*%
X105775058Y-85733949D03*
%TO.P,R11,2*%
%TO.N,Net-(R11-Pad2)*%
X103950058Y-85733949D03*
%TD*%
D23*
%TO.P,R38,1*%
%TO.N,Net-(R14-Pad1)*%
X95752500Y-76108012D03*
%TO.P,R38,2*%
%TO.N,Net-(Q4-G)*%
X95752500Y-74283012D03*
%TD*%
D27*
%TO.P,J6,1,In*%
%TO.N,/connecting to laser diode*%
X99060000Y-50800000D03*
D28*
%TO.P,J6,2,Ext*%
%TO.N,GND*%
X93980000Y-45720000D03*
D27*
X96520000Y-50800000D03*
D28*
X104140000Y-45720000D03*
%TD*%
D15*
%TO.P,C18,1*%
%TO.N,GND*%
X59055000Y-86220000D03*
%TO.P,C18,2*%
%TO.N,-15V*%
X59055000Y-87770000D03*
%TD*%
D13*
%TO.P,C29,1*%
%TO.N,GND*%
X80104298Y-92069500D03*
%TO.P,C29,2*%
%TO.N,V_laser-*%
X77154298Y-92069500D03*
%TD*%
D11*
%TO.P,R21,1*%
%TO.N,V_laser-*%
X75454298Y-93974500D03*
%TO.P,R21,2*%
%TO.N,Net-(D4-K)*%
X73629298Y-93974500D03*
%TD*%
D29*
%TO.P,R42,3,3*%
%TO.N,Net-(R40-Pad2)*%
X124460000Y-47346141D03*
%TO.P,R42,2,2*%
%TO.N,Net-(R11-Pad1)*%
X117420000Y-53046141D03*
%TO.P,R42,1,1*%
%TO.N,Laser_supply*%
X124460000Y-41046141D03*
%TD*%
D14*
%TO.P,U10,1,VOS*%
%TO.N,unconnected-(U10-VOS-Pad1)*%
X85945370Y-75864702D03*
%TO.P,U10,2,-*%
%TO.N,Net-(U10--)*%
X87215370Y-75864702D03*
%TO.P,U10,3,+*%
%TO.N,/connecting to laser diode*%
X88485370Y-75864702D03*
%TO.P,U10,4,V-*%
%TO.N,-15V*%
X89755370Y-75864702D03*
%TO.P,U10,5,NC*%
%TO.N,unconnected-(U10-NC-Pad5)*%
X89755370Y-70914702D03*
%TO.P,U10,6*%
%TO.N,Net-(R26-Pad2)*%
X88485370Y-70914702D03*
%TO.P,U10,7,V+*%
%TO.N,+15V*%
X87215370Y-70914702D03*
%TO.P,U10,8,VOS*%
%TO.N,unconnected-(U10-VOS-Pad8)*%
X85945370Y-70914702D03*
%TD*%
D12*
%TO.P,C8,1*%
%TO.N,Net-(C7-Pad2)*%
X63500000Y-86280000D03*
%TO.P,C8,2*%
%TO.N,Net-(U3-VI)*%
X63500000Y-88980000D03*
%TD*%
D22*
%TO.P,C30,1*%
%TO.N,V_laser+*%
X76630000Y-73660000D03*
%TO.P,C30,2*%
%TO.N,GND*%
X79580000Y-73660000D03*
%TD*%
D30*
%TO.P,L3,1,1*%
%TO.N,Net-(U3-VI)*%
X63468534Y-97777261D03*
%TO.P,L3,2,2*%
%TO.N,-15V*%
X53568534Y-97777261D03*
%TD*%
D31*
%TO.P,C23,1*%
%TO.N,Laser_supply*%
X103927893Y-95030709D03*
%TO.P,C23,2*%
%TO.N,Net-(U11--)*%
X105477893Y-95030709D03*
%TD*%
D16*
%TO.P,R31,1*%
%TO.N,Net-(Q3-G)*%
X100869526Y-74243548D03*
%TO.P,R31,2*%
%TO.N,Net-(C9-Pad2)*%
X100869526Y-76068548D03*
%TD*%
D18*
%TO.P,C14,1*%
%TO.N,+15V*%
X87055889Y-68843931D03*
%TO.P,C14,2*%
%TO.N,GND*%
X87055889Y-67293931D03*
%TD*%
D21*
%TO.P,R28,1*%
%TO.N,Net-(R26-Pad2)*%
X93212500Y-62213702D03*
%TO.P,R28,2*%
%TO.N,/connecting to laser diode*%
X95037500Y-62213702D03*
%TD*%
D11*
%TO.P,R27,1*%
%TO.N,/connecting to laser diode*%
X95244500Y-56117702D03*
%TO.P,R27,2*%
%TO.N,/Modulation Input*%
X93419500Y-56117702D03*
%TD*%
D23*
%TO.P,R37,1*%
%TO.N,Net-(Q3-D)*%
X103829042Y-68225072D03*
%TO.P,R37,2*%
%TO.N,Net-(L2-Pad1)*%
X103829042Y-66400072D03*
%TD*%
D11*
%TO.P,R35,1*%
%TO.N,Net-(R10-Pad2)*%
X126933956Y-67463952D03*
%TO.P,R35,2*%
%TO.N,Laser_supply*%
X125108956Y-67463952D03*
%TD*%
%TO.P,R34,1*%
%TO.N,Laser_supply*%
X131722500Y-67519777D03*
%TO.P,R34,2*%
%TO.N,Net-(R33-Pad1)*%
X129897500Y-67519777D03*
%TD*%
D23*
%TO.P,R36,1*%
%TO.N,Net-(Q4-D)*%
X96840260Y-68263893D03*
%TO.P,R36,2*%
%TO.N,Net-(L2-Pad1)*%
X96840260Y-66438893D03*
%TD*%
D11*
%TO.P,R20,1*%
%TO.N,Net-(D4-A)*%
X71644298Y-96514500D03*
%TO.P,R20,2*%
%TO.N,Net-(Q2-E)*%
X69819298Y-96514500D03*
%TD*%
D21*
%TO.P,R33,1*%
%TO.N,Net-(R33-Pad1)*%
X129897500Y-70059777D03*
%TO.P,R33,2*%
%TO.N,+15V*%
X131722500Y-70059777D03*
%TD*%
D23*
%TO.P,R14,1*%
%TO.N,Net-(R14-Pad1)*%
X102864500Y-76108012D03*
%TO.P,R14,2*%
%TO.N,Net-(Q3-G)*%
X102864500Y-74283012D03*
%TD*%
D13*
%TO.P,C16,1*%
%TO.N,Net-(D3-A)*%
X97692995Y-98631642D03*
%TO.P,C16,2*%
%TO.N,GND*%
X94742995Y-98631642D03*
%TD*%
D22*
%TO.P,C20,1*%
%TO.N,V_laser+*%
X76630000Y-69850000D03*
%TO.P,C20,2*%
%TO.N,GND*%
X79580000Y-69850000D03*
%TD*%
D16*
%TO.P,R22,1*%
%TO.N,V_laser+*%
X90805000Y-87987500D03*
%TO.P,R22,2*%
%TO.N,Net-(R22-Pad2)*%
X90805000Y-89812500D03*
%TD*%
D18*
%TO.P,C21,1*%
%TO.N,Laser_supply*%
X93720500Y-80501702D03*
%TO.P,C21,2*%
%TO.N,Net-(C21-Pad2)*%
X93720500Y-78951702D03*
%TD*%
D15*
%TO.P,C9,1*%
%TO.N,Laser_supply*%
X99110802Y-74370445D03*
%TO.P,C9,2*%
%TO.N,Net-(C9-Pad2)*%
X99110802Y-75920445D03*
%TD*%
D25*
%TO.P,U3,1,ADJ*%
%TO.N,Net-(Q2-E)*%
X69064923Y-90167691D03*
%TO.P,U3,2,VI*%
%TO.N,Net-(U3-VI)*%
X71364923Y-90167691D03*
D26*
X71364923Y-83867691D03*
D25*
%TO.P,U3,3,VO*%
%TO.N,Net-(D4-K)*%
X73664923Y-90167691D03*
%TD*%
D32*
%TO.P,J2,1,Pin_1*%
%TO.N,+15V*%
X87615000Y-107950000D03*
D33*
%TO.P,J2,2,Pin_2*%
%TO.N,GND*%
X91115000Y-107950000D03*
%TO.P,J2,3,Pin_3*%
%TO.N,-15V*%
X94615000Y-107950000D03*
%TD*%
D30*
%TO.P,L1,1,1*%
%TO.N,Net-(U1-VI)*%
X63554961Y-71799284D03*
%TO.P,L1,2,2*%
%TO.N,+15V*%
X53654961Y-71799284D03*
%TD*%
D23*
%TO.P,R40,1*%
%TO.N,Net-(R10-Pad2)*%
X126998379Y-64887442D03*
%TO.P,R40,2*%
%TO.N,Net-(R40-Pad2)*%
X126998379Y-63062442D03*
%TD*%
D15*
%TO.P,C10,1*%
%TO.N,+15V*%
X59055000Y-82410000D03*
%TO.P,C10,2*%
%TO.N,GND*%
X59055000Y-83960000D03*
%TD*%
D21*
%TO.P,R30,1*%
%TO.N,GND*%
X85419873Y-78276118D03*
%TO.P,R30,2*%
%TO.N,Net-(U10--)*%
X87244873Y-78276118D03*
%TD*%
D34*
%TO.P,C2,1*%
%TO.N,Net-(D2-A)*%
X73313332Y-58986955D03*
%TO.P,C2,2*%
%TO.N,GND*%
X71763332Y-58986955D03*
%TD*%
D35*
%TO.P,D4,1,K*%
%TO.N,Net-(D4-K)*%
X73623528Y-95807690D03*
%TO.P,D4,2,A*%
%TO.N,Net-(D4-A)*%
X73623528Y-97807690D03*
%TD*%
D36*
%TO.P,U5,1*%
%TO.N,Net-(R33-Pad1)*%
X130701051Y-77788726D03*
D37*
%TO.P,U5,2*%
%TO.N,Net-(R10-Pad2)*%
X128905000Y-77788726D03*
%TO.P,U5,3*%
%TO.N,+15V*%
X128905000Y-79584777D03*
%TO.P,U5,4*%
%TO.N,-15V*%
X130701051Y-79584777D03*
%TD*%
D21*
%TO.P,R9,1*%
%TO.N,Net-(Q2-E)*%
X69739298Y-93974500D03*
%TO.P,R9,2*%
%TO.N,Net-(D4-K)*%
X71564298Y-93974500D03*
%TD*%
D16*
%TO.P,R5,1*%
%TO.N,Net-(D2-A)*%
X69741682Y-61574210D03*
%TO.P,R5,2*%
%TO.N,Net-(Q1-E)*%
X69741682Y-63399210D03*
%TD*%
D23*
%TO.P,R24,1*%
%TO.N,GND*%
X87624500Y-65562702D03*
%TO.P,R24,2*%
%TO.N,Net-(U9--)*%
X87624500Y-63737702D03*
%TD*%
D28*
%TO.P,J4,2,Ext*%
%TO.N,GND*%
X78740000Y-45720000D03*
D27*
X71120000Y-50800000D03*
D28*
X68580000Y-45720000D03*
D27*
%TO.P,J4,1,In*%
%TO.N,/Modulation Input*%
X73660000Y-50800000D03*
%TD*%
D15*
%TO.P,C26,1*%
%TO.N,Net-(D1-K)*%
X102535191Y-105717397D03*
%TO.P,C26,2*%
%TO.N,GND*%
X102535191Y-107267397D03*
%TD*%
D19*
%TO.P,Q1,1,E*%
%TO.N,Net-(Q1-E)*%
X71588332Y-63394455D03*
%TO.P,Q1,2,B*%
%TO.N,Net-(D2-A)*%
X73488332Y-63394455D03*
%TO.P,Q1,3,C*%
%TO.N,GND*%
X72538332Y-61119455D03*
%TD*%
%TO.P,Q4,1,G*%
%TO.N,Net-(Q4-G)*%
X95877292Y-72373702D03*
%TO.P,Q4,2,S*%
%TO.N,Net-(Q3-S)*%
X97777292Y-72373702D03*
%TO.P,Q4,3,D*%
%TO.N,Net-(Q4-D)*%
X96827292Y-70098702D03*
%TD*%
D23*
%TO.P,R41,1*%
%TO.N,Net-(R33-Pad1)*%
X129897500Y-64979777D03*
%TO.P,R41,2*%
%TO.N,Net-(R40-Pad2)*%
X129897500Y-63154777D03*
%TD*%
D20*
%TO.P,R43,1,1*%
%TO.N,Net-(Q1-E)*%
X78740000Y-60325000D03*
%TO.P,R43,2,2*%
%TO.N,GND*%
X78740000Y-62865000D03*
%TO.P,R43,3,3*%
X78740000Y-65405000D03*
%TD*%
D15*
%TO.P,C3,1*%
%TO.N,-15V*%
X90048116Y-63842340D03*
%TO.P,C3,2*%
%TO.N,GND*%
X90048116Y-65392340D03*
%TD*%
D21*
%TO.P,R12,1*%
%TO.N,Net-(R11-Pad2)*%
X103942127Y-87900140D03*
%TO.P,R12,2*%
%TO.N,Net-(C22-Pad1)*%
X105767127Y-87900140D03*
%TD*%
D15*
%TO.P,C27,1*%
%TO.N,GND*%
X100022640Y-94791900D03*
%TO.P,C27,2*%
%TO.N,Net-(D3-A)*%
X100022640Y-96341900D03*
%TD*%
D31*
%TO.P,C19,1*%
%TO.N,Net-(D4-A)*%
X69873578Y-101957366D03*
%TO.P,C19,2*%
%TO.N,GND*%
X71423578Y-101957366D03*
%TD*%
D38*
%TO.P,Q2,1,E*%
%TO.N,Net-(Q2-E)*%
X69551798Y-98424500D03*
%TO.P,Q2,2,B*%
%TO.N,Net-(D4-A)*%
X69551798Y-100324500D03*
%TO.P,Q2,3,C*%
%TO.N,GND*%
X71826798Y-99374500D03*
%TD*%
D39*
%TO.P,R45,1,1*%
%TO.N,Net-(R22-Pad2)*%
X96492511Y-91079411D03*
%TO.P,R45,2,2*%
%TO.N,Laser_supply*%
X96492511Y-86889411D03*
%TO.P,R45,3,3*%
%TO.N,Net-(U11-+)*%
X99922511Y-91079411D03*
%TO.P,R45,4,4*%
%TO.N,Net-(Q3-S)*%
X99922511Y-86889411D03*
%TD*%
D21*
%TO.P,R10,1*%
%TO.N,-15V*%
X125095000Y-70059777D03*
%TO.P,R10,2*%
%TO.N,Net-(R10-Pad2)*%
X126920000Y-70059777D03*
%TD*%
D40*
%TO.P,D3,1,K*%
%TO.N,-15V*%
X93586283Y-95440200D03*
%TO.P,D3,2,A*%
%TO.N,Net-(D3-A)*%
X96386283Y-95440200D03*
%TD*%
D11*
%TO.P,R6,1*%
%TO.N,Net-(Q1-E)*%
X73937500Y-69215000D03*
%TO.P,R6,2*%
%TO.N,Net-(D2-K)*%
X72112500Y-69215000D03*
%TD*%
D31*
%TO.P,C5,1*%
%TO.N,Laser_supply*%
X103863895Y-91532913D03*
%TO.P,C5,2*%
%TO.N,Net-(C22-Pad1)*%
X105413895Y-91532913D03*
%TD*%
D40*
%TO.P,D1,1,K*%
%TO.N,Net-(D1-K)*%
X106136723Y-109806737D03*
%TO.P,D1,2,A*%
%TO.N,+15V*%
X108936723Y-109806737D03*
%TD*%
D31*
%TO.P,C6,1*%
%TO.N,Laser_supply*%
X103916076Y-93411797D03*
%TO.P,C6,2*%
%TO.N,Net-(U11--)*%
X105466076Y-93411797D03*
%TD*%
D34*
%TO.P,C22,1*%
%TO.N,Net-(C22-Pad1)*%
X105417500Y-89899702D03*
%TO.P,C22,2*%
%TO.N,Laser_supply*%
X103867500Y-89899702D03*
%TD*%
D41*
%TO.N,GND*%
X54610000Y-107950000D03*
X54610000Y-44450000D03*
X143510000Y-107950000D03*
X143510000Y-44450000D03*
D42*
X59055000Y-85090000D03*
X72698723Y-100927059D03*
X70848310Y-58982101D03*
X80645000Y-69850000D03*
X89800244Y-80137446D03*
X109303584Y-106654913D03*
X86227500Y-66404702D03*
X100033666Y-93832719D03*
X93840250Y-98624465D03*
X81312144Y-92035926D03*
X87497500Y-51799702D03*
X81312144Y-95452343D03*
X89991560Y-66266791D03*
X80645000Y-73660000D03*
X84516084Y-78276118D03*
X102527847Y-107829366D03*
%TO.N,-15V*%
X51435000Y-99060000D03*
X89025432Y-77936106D03*
X59055000Y-88900000D03*
X92444068Y-95498944D03*
X125072639Y-71116674D03*
X91005237Y-63905037D03*
X51492084Y-97762990D03*
X130770594Y-80744331D03*
X51435000Y-96520000D03*
%TO.N,+15V*%
X110490000Y-109855000D03*
X87511303Y-57933453D03*
X51435000Y-70485000D03*
X51548215Y-71800196D03*
X51435000Y-73025000D03*
X59055000Y-81280000D03*
X132780844Y-69976223D03*
X86995000Y-72390000D03*
%TO.N,Laser_supply*%
X94690832Y-80472118D03*
X99120948Y-73188492D03*
X94615000Y-85454702D03*
X102737500Y-94344702D03*
X96387500Y-84184702D03*
X93980000Y-86724702D03*
X102737500Y-90534702D03*
X97657500Y-82914702D03*
X133350000Y-67519777D03*
X123947363Y-67463952D03*
X96387500Y-82914702D03*
X97657500Y-84184702D03*
X102737500Y-93074702D03*
X102737500Y-91804702D03*
%TO.N,Net-(U3-VI)*%
X74438298Y-82036500D03*
X70374298Y-86608500D03*
X72406298Y-82036500D03*
X74438298Y-86608500D03*
X68580000Y-81915000D03*
X70374298Y-82036500D03*
X68342298Y-86608500D03*
X74438298Y-84068500D03*
X72406298Y-86608500D03*
X68342298Y-84576500D03*
%TO.N,Net-(D2-K)*%
X68580000Y-76200000D03*
X71120000Y-74295000D03*
X69850000Y-79375000D03*
X69850000Y-75565000D03*
X73660000Y-77470000D03*
X72390000Y-79375000D03*
X74295000Y-79375000D03*
X74930000Y-78105000D03*
X67310000Y-78740000D03*
X72390000Y-75565000D03*
%TO.N,Net-(R14-Pad1)*%
X95752500Y-77446494D03*
X101340500Y-101329702D03*
X102857292Y-77453702D03*
%TD*%
D43*
%TO.N,/Modulation Input*%
X73660000Y-50800000D02*
X85725000Y-50800000D01*
X89273199Y-50701968D02*
X88818115Y-50246885D01*
X88736230Y-50165000D02*
X88818115Y-50246885D01*
X85725000Y-50800000D02*
X86360000Y-50165000D01*
X86360000Y-50165000D02*
X88736230Y-50165000D01*
X89273199Y-52410085D02*
X89273199Y-50701968D01*
D44*
%TO.N,/connecting to laser diode*%
X99060000Y-50475000D02*
X99060000Y-53006752D01*
X99060000Y-53006752D02*
X100485725Y-54432477D01*
D43*
%TO.N,Net-(R11-Pad1)*%
X109211051Y-85733949D02*
X116522500Y-78422500D01*
X117420000Y-53915000D02*
X117420000Y-77525000D01*
X117420000Y-77525000D02*
X116522500Y-78422500D01*
%TO.N,Net-(R40-Pad2)*%
X124460000Y-48215000D02*
X124460000Y-57994777D01*
X124460000Y-57994777D02*
X127635000Y-61169777D01*
%TO.N,Net-(D3-A)*%
X97692995Y-98631642D02*
X97692995Y-96658106D01*
X96475089Y-95440200D02*
X96386283Y-95440200D01*
X97692995Y-96658106D02*
X96475089Y-95440200D01*
D45*
%TO.N,Net-(U11-+)*%
X101277687Y-98644558D02*
X101277687Y-94037682D01*
X101277687Y-94037682D02*
X99922511Y-92682506D01*
X99922511Y-92682506D02*
X99922511Y-91079411D01*
D46*
%TO.N,Net-(Q3-S)*%
X99922511Y-86889411D02*
X100330000Y-86481922D01*
X100330000Y-86481922D02*
X100330000Y-80496202D01*
X100330000Y-80496202D02*
X100832500Y-79993702D01*
D45*
%TO.N,Laser_supply*%
X93980000Y-86724702D02*
X94150260Y-86894962D01*
X94150260Y-86894962D02*
X96486960Y-86894962D01*
X96486960Y-86894962D02*
X96492511Y-86889411D01*
X94609500Y-85454702D02*
X93720500Y-84565702D01*
X94615000Y-85454702D02*
X94609500Y-85454702D01*
X93720500Y-84565702D02*
X93720500Y-80501702D01*
D46*
%TO.N,Net-(D4-K)*%
X73664923Y-90167691D02*
X73593459Y-90239155D01*
X73593459Y-90239155D02*
X73593459Y-93938661D01*
X73593459Y-93938661D02*
X73629298Y-93974500D01*
D43*
%TO.N,Net-(Q2-E)*%
X69064923Y-90167691D02*
X69064923Y-92030125D01*
X69739298Y-92704500D02*
X69739298Y-93974500D01*
X69064923Y-92030125D02*
X69739298Y-92704500D01*
%TO.N,/connecting to laser diode*%
X100485725Y-56682106D02*
X96315456Y-56682106D01*
X88969371Y-74405702D02*
X88485370Y-74889703D01*
X96315456Y-56682106D02*
X96260500Y-56737062D01*
X96260500Y-63991702D02*
X93212500Y-67039702D01*
X95244500Y-56117702D02*
X96260500Y-56117702D01*
X93212500Y-73643702D02*
X92450500Y-74405702D01*
X96260500Y-56737062D02*
X96260500Y-59347839D01*
X95037500Y-62213702D02*
X96260500Y-62213702D01*
X96260500Y-56117702D02*
X96260500Y-56737062D01*
X96260500Y-59347839D02*
X96260500Y-62213702D01*
X93212500Y-67039702D02*
X93212500Y-73643702D01*
X92450500Y-74405702D02*
X88969371Y-74405702D01*
X96260500Y-62213702D02*
X96260500Y-63991702D01*
D44*
X100485725Y-54432477D02*
X100485725Y-56682106D01*
D43*
X88485370Y-74889703D02*
X88485370Y-75864702D01*
D47*
X95244500Y-62006702D02*
X95037500Y-62213702D01*
D45*
%TO.N,Net-(D2-A)*%
X73488332Y-63394455D02*
X72929568Y-63394455D01*
D47*
X73488332Y-63394455D02*
X73488332Y-59161955D01*
D45*
X73604548Y-65307407D02*
X73604548Y-63510671D01*
D47*
X71109323Y-61574210D02*
X69741682Y-61574210D01*
X72929568Y-63394455D02*
X71109323Y-61574210D01*
D43*
%TO.N,GND*%
X108224862Y-106655034D02*
X109303463Y-106655034D01*
D45*
X71763332Y-58986955D02*
X70853164Y-58986955D01*
D43*
X109303463Y-106655034D02*
X109303584Y-106654913D01*
D45*
X70853164Y-58986955D02*
X70848310Y-58982101D01*
D44*
X79580000Y-69850000D02*
X80645000Y-69850000D01*
D43*
X85419873Y-78276118D02*
X84516084Y-78276118D01*
X90048116Y-65392340D02*
X90048116Y-66394086D01*
X71423578Y-101957366D02*
X72563204Y-101957366D01*
X72698723Y-101821847D02*
X72698723Y-100927059D01*
X80120177Y-95423071D02*
X80120177Y-92085379D01*
X93847427Y-98631642D02*
X93840250Y-98624465D01*
X72563204Y-101957366D02*
X72698723Y-101821847D01*
X87624500Y-66277702D02*
X87624500Y-65562702D01*
X71763332Y-59991163D02*
X71763332Y-58986955D01*
X80104298Y-92069500D02*
X81278570Y-92069500D01*
X87497500Y-66404702D02*
X86227500Y-66404702D01*
X94742995Y-98631642D02*
X93847427Y-98631642D01*
X87451835Y-52743839D02*
X87451835Y-51845367D01*
D44*
X79580000Y-73660000D02*
X80645000Y-73660000D01*
D43*
X87055889Y-67293931D02*
X87055889Y-66846313D01*
X90037500Y-66404702D02*
X89991560Y-66358762D01*
X87497500Y-66404702D02*
X87624500Y-66277702D01*
X81282872Y-95423071D02*
X81312144Y-95452343D01*
X71826798Y-99374500D02*
X71826798Y-100055134D01*
D44*
X79580000Y-73660000D02*
X79580000Y-69850000D01*
D43*
X87055889Y-66846313D02*
X87497500Y-66404702D01*
D44*
X59055000Y-83960000D02*
X59055000Y-85090000D01*
D43*
X89991560Y-66358762D02*
X89991560Y-66266791D01*
X87451835Y-51845367D02*
X87497500Y-51799702D01*
X100022640Y-93843745D02*
X100033666Y-93832719D01*
X100022640Y-94791900D02*
X100022640Y-93843745D01*
X81278570Y-92069500D02*
X81312144Y-92035926D01*
X71826798Y-100055134D02*
X72698723Y-100927059D01*
X102535191Y-107267397D02*
X102535191Y-107822022D01*
X102535191Y-107822022D02*
X102527847Y-107829366D01*
X80120177Y-95423071D02*
X81282872Y-95423071D01*
X72538332Y-61119455D02*
X71636824Y-60217947D01*
X80120177Y-92085379D02*
X80104298Y-92069500D01*
X90048116Y-66394086D02*
X90037500Y-66404702D01*
X84322500Y-78469702D02*
X84516084Y-78276118D01*
D44*
X59055000Y-86220000D02*
X59055000Y-85090000D01*
D43*
X89800244Y-79486106D02*
X89800244Y-80137446D01*
D44*
%TO.N,-15V*%
X52311273Y-96520000D02*
X53568534Y-97777261D01*
X59055000Y-87770000D02*
X59055000Y-88900000D01*
X51435000Y-96520000D02*
X52311273Y-96520000D01*
D43*
X90048116Y-63842340D02*
X90942540Y-63842340D01*
X89024064Y-77934738D02*
X89025432Y-77936106D01*
X125095000Y-71094313D02*
X125072639Y-71116674D01*
X90037500Y-61640702D02*
X90037500Y-63831724D01*
X130701051Y-80674788D02*
X130770594Y-80744331D01*
D44*
X51506355Y-97777261D02*
X51492084Y-97762990D01*
D43*
X90942540Y-63842340D02*
X91005237Y-63905037D01*
X89800244Y-77936106D02*
X89800244Y-75909576D01*
D44*
X52285795Y-99060000D02*
X53568534Y-97777261D01*
X51435000Y-99060000D02*
X52285795Y-99060000D01*
D43*
X92502812Y-95440200D02*
X92444068Y-95498944D01*
D46*
X54249620Y-97096175D02*
X53568534Y-97777261D01*
D44*
X53568534Y-97777261D02*
X51506355Y-97777261D01*
D45*
X90037500Y-63831724D02*
X90048116Y-63842340D01*
D43*
X125095000Y-70059777D02*
X125095000Y-71094313D01*
X130701051Y-79584777D02*
X130701051Y-80674788D01*
X93586283Y-95440200D02*
X92502812Y-95440200D01*
X89800244Y-77936106D02*
X89025432Y-77936106D01*
D44*
%TO.N,+15V*%
X51435000Y-73025000D02*
X52429245Y-73025000D01*
X59055000Y-82410000D02*
X59055000Y-81280000D01*
D46*
X54249620Y-72393943D02*
X53654961Y-71799284D01*
D43*
X87497500Y-57919650D02*
X87511303Y-57933453D01*
D46*
X87215370Y-72169630D02*
X86995000Y-72390000D01*
D44*
X52340677Y-70485000D02*
X53654961Y-71799284D01*
D43*
X87215370Y-70914702D02*
X87215370Y-69003412D01*
D44*
X53654961Y-71799284D02*
X51549127Y-71799284D01*
D43*
X87497500Y-56690702D02*
X87497500Y-54339504D01*
X131722500Y-70059777D02*
X132697290Y-70059777D01*
D44*
X51549127Y-71799284D02*
X51548215Y-71800196D01*
X51435000Y-70485000D02*
X52340677Y-70485000D01*
D46*
X110441737Y-109806737D02*
X110490000Y-109855000D01*
X108936723Y-109806737D02*
X110441737Y-109806737D01*
D43*
X87497500Y-56690702D02*
X87497500Y-57919650D01*
D44*
X52429245Y-73025000D02*
X53654961Y-71799284D01*
D46*
X87215370Y-70914702D02*
X87215370Y-72169630D01*
D43*
X87497500Y-54339504D02*
X87451835Y-54293839D01*
X132697290Y-70059777D02*
X132780844Y-69976223D01*
D45*
%TO.N,Laser_supply*%
X99110802Y-74370445D02*
X99110802Y-73198638D01*
D43*
X125108956Y-67463952D02*
X123947363Y-67463952D01*
X131722500Y-67519777D02*
X133350000Y-67519777D01*
X93720500Y-80501702D02*
X94661248Y-80501702D01*
D45*
X99110802Y-73198638D02*
X99120948Y-73188492D01*
D43*
X94661248Y-80501702D02*
X94690832Y-80472118D01*
D45*
%TO.N,Net-(C22-Pad1)*%
X105417500Y-91529308D02*
X105413895Y-91532913D01*
X106282703Y-89899702D02*
X105417500Y-89899702D01*
X106547500Y-89634905D02*
X106282703Y-89899702D01*
X107242893Y-91578209D02*
X105459191Y-91578209D01*
X106452938Y-87900140D02*
X106547500Y-87994702D01*
X105767127Y-87900140D02*
X106452938Y-87900140D01*
X105459191Y-91578209D02*
X105413895Y-91532913D01*
X105417500Y-89899702D02*
X105417500Y-91529308D01*
X106547500Y-87994702D02*
X106547500Y-89634905D01*
%TO.N,Net-(U11--)*%
X105477893Y-96049309D02*
X105277500Y-96249702D01*
X103372500Y-96249702D02*
X102547687Y-97074515D01*
X105277500Y-96249702D02*
X103372500Y-96249702D01*
X105477893Y-95030709D02*
X105477893Y-96049309D01*
X105466076Y-93411797D02*
X105466076Y-95018892D01*
X105474664Y-93403209D02*
X105466076Y-93411797D01*
X105466076Y-95018892D02*
X105477893Y-95030709D01*
X107242893Y-93403209D02*
X105474664Y-93403209D01*
X102547687Y-97074515D02*
X102547687Y-98644558D01*
D46*
%TO.N,Net-(U1-VI)*%
X68762555Y-71410164D02*
X63944081Y-71410164D01*
X63500000Y-81200000D02*
X63500000Y-72895000D01*
X63944081Y-71410164D02*
X63554961Y-71799284D01*
D44*
%TO.N,Net-(C7-Pad2)*%
X63500000Y-86280000D02*
X63500000Y-83900000D01*
D46*
%TO.N,Net-(U3-VI)*%
X63500000Y-88980000D02*
X65970798Y-88980000D01*
X63468534Y-97777261D02*
X63468534Y-89011466D01*
X65970798Y-88980000D02*
X68342298Y-86608500D01*
X63468534Y-89011466D02*
X63500000Y-88980000D01*
D45*
%TO.N,Net-(C9-Pad2)*%
X100869526Y-76068548D02*
X99258905Y-76068548D01*
X99258905Y-76068548D02*
X99110802Y-75920445D01*
D43*
%TO.N,Net-(D1-K)*%
X102547687Y-105704901D02*
X102535191Y-105717397D01*
X102547687Y-103594558D02*
X102547687Y-105704901D01*
X105274862Y-106655034D02*
X103472828Y-106655034D01*
X103472828Y-106655034D02*
X102535191Y-105717397D01*
X105274862Y-108944876D02*
X106136723Y-109806737D01*
X105274862Y-106655034D02*
X105274862Y-108944876D01*
D45*
%TO.N,Net-(R11-Pad2)*%
X103012030Y-87751369D02*
X103160801Y-87900140D01*
X103160801Y-87900140D02*
X103942127Y-87900140D01*
X103012030Y-85885817D02*
X103012030Y-87751369D01*
X103163898Y-85733949D02*
X103012030Y-85885817D01*
X103950058Y-85733949D02*
X103163898Y-85733949D01*
%TO.N,Net-(U9-+)*%
X88767500Y-60562702D02*
X88767500Y-61640702D01*
X91688500Y-60181702D02*
X89148500Y-60181702D01*
D47*
X88767500Y-67373702D02*
X88767500Y-61640702D01*
D45*
X91688500Y-60181702D02*
X93720500Y-60181702D01*
X89148500Y-60181702D02*
X88767500Y-60562702D01*
D47*
X88640500Y-67500702D02*
X88767500Y-67373702D01*
D45*
%TO.N,Net-(C12-Pad1)*%
X88767500Y-56690702D02*
X88767500Y-57652500D01*
X91688500Y-58631702D02*
X93445500Y-58631702D01*
X89746702Y-58631702D02*
X91688500Y-58631702D01*
X89273199Y-54235085D02*
X89273199Y-54572003D01*
X88767500Y-57652500D02*
X89746702Y-58631702D01*
X88767500Y-55077702D02*
X88767500Y-56690702D01*
X93445500Y-58631702D02*
X93720500Y-58356702D01*
X89273199Y-54572003D02*
X88767500Y-55077702D01*
D43*
%TO.N,Net-(D3-A)*%
X100022640Y-98629605D02*
X100007687Y-98644558D01*
X100022640Y-96341900D02*
X100022640Y-98629605D01*
X97705911Y-98644558D02*
X97692995Y-98631642D01*
X100007687Y-98644558D02*
X97705911Y-98644558D01*
D45*
%TO.N,Net-(D4-A)*%
X72908111Y-98619106D02*
X73623528Y-98619106D01*
D43*
X67838459Y-100682657D02*
X68196616Y-100324500D01*
D45*
X70755298Y-100197500D02*
X70628298Y-100324500D01*
X71644298Y-96514500D02*
X72279298Y-96514500D01*
X72669787Y-98380782D02*
X72908111Y-98619106D01*
X71302016Y-98380782D02*
X70755298Y-98927500D01*
D43*
X68196616Y-100324500D02*
X69551798Y-100324500D01*
D45*
X72669787Y-98380782D02*
X71302016Y-98380782D01*
X70755298Y-98927500D02*
X70755298Y-100197500D01*
X70628298Y-100324500D02*
X69551798Y-100324500D01*
D43*
X67838459Y-101495284D02*
X67838459Y-100682657D01*
D45*
X72279298Y-96514500D02*
X72669787Y-96904989D01*
D43*
X68300541Y-101957366D02*
X67838459Y-101495284D01*
D45*
X73623528Y-97807690D02*
X73623528Y-98619106D01*
X72669787Y-96904989D02*
X72669787Y-98380782D01*
D43*
X69873578Y-101957366D02*
X68300541Y-101957366D01*
D48*
%TO.N,V_laser+*%
X76617116Y-73672884D02*
X76630000Y-73660000D01*
D44*
X83334763Y-82064763D02*
X76630000Y-75360000D01*
D43*
X87779763Y-82064763D02*
X90805000Y-85090000D01*
D44*
X76477500Y-69850000D02*
X73937500Y-67310000D01*
X76630000Y-69850000D02*
X76477500Y-69850000D01*
X76630000Y-73660000D02*
X76630000Y-69850000D01*
X76630000Y-75360000D02*
X76630000Y-73660000D01*
D43*
X83334763Y-82064763D02*
X87779763Y-82064763D01*
X90805000Y-85090000D02*
X90805000Y-87987500D01*
D45*
%TO.N,Net-(C21-Pad2)*%
X93712421Y-76945702D02*
X93712421Y-78943623D01*
X93712421Y-78943623D02*
X93720500Y-78951702D01*
D43*
%TO.N,V_laser-*%
X88265000Y-86360000D02*
X88265000Y-87987500D01*
D44*
X77154298Y-90115500D02*
X77154298Y-92069500D01*
D46*
X77170177Y-95423071D02*
X77170177Y-93974500D01*
D43*
X82672586Y-84597212D02*
X86502212Y-84597212D01*
D46*
X76023884Y-93991116D02*
X76040500Y-93974500D01*
X75454298Y-93974500D02*
X76007268Y-93974500D01*
X76007268Y-93974500D02*
X76023884Y-93991116D01*
X76040500Y-93974500D02*
X77170177Y-93974500D01*
D43*
X86502212Y-84597212D02*
X88265000Y-86360000D01*
D46*
X77170177Y-93974500D02*
X77170177Y-92085379D01*
D44*
X82672586Y-84597212D02*
X77154298Y-90115500D01*
D46*
X77170177Y-92085379D02*
X77154298Y-92069500D01*
D45*
%TO.N,Net-(D2-K)*%
X71120000Y-71352719D02*
X71062555Y-71410164D01*
D43*
X72112500Y-65815359D02*
X71604548Y-65307407D01*
D44*
X72112500Y-67310000D02*
X72112500Y-69215000D01*
X71062555Y-70264945D02*
X72112500Y-69215000D01*
D43*
X72112500Y-67310000D02*
X72112500Y-65815359D01*
D44*
X71062555Y-71410164D02*
X71062555Y-70264945D01*
D45*
%TO.N,Net-(D4-K)*%
X73629298Y-93974500D02*
X71564298Y-93974500D01*
X73629298Y-95801920D02*
X73623528Y-95807690D01*
X73629298Y-93974500D02*
X73629298Y-95801920D01*
%TO.N,/Modulation Input*%
X91688500Y-55863702D02*
X91688500Y-53323702D01*
X91688500Y-53323702D02*
X90774883Y-52410085D01*
X90774883Y-52410085D02*
X89273199Y-52410085D01*
X91942500Y-56117702D02*
X91688500Y-55863702D01*
X93419500Y-56117702D02*
X91942500Y-56117702D01*
D43*
%TO.N,Net-(L2-Pad1)*%
X100197500Y-64499702D02*
X100485725Y-64211477D01*
X97657500Y-64499702D02*
X96840260Y-65316942D01*
X100197500Y-64499702D02*
X97657500Y-64499702D01*
X100485725Y-64211477D02*
X100485725Y-62282106D01*
X103829042Y-64956244D02*
X103372500Y-64499702D01*
X103372500Y-64499702D02*
X100197500Y-64499702D01*
X96840260Y-65316942D02*
X96840260Y-66438893D01*
X103829042Y-66400072D02*
X103829042Y-64956244D01*
D45*
%TO.N,Net-(Q1-E)*%
X73025000Y-65909029D02*
X73025000Y-66040000D01*
X71588332Y-63394455D02*
X72329548Y-64135671D01*
X77470000Y-60325000D02*
X78740000Y-60325000D01*
X73025000Y-66040000D02*
X73025000Y-68302500D01*
X75565000Y-64770000D02*
X75565000Y-62230000D01*
D47*
X71588332Y-63394455D02*
X69746437Y-63394455D01*
X69746437Y-63394455D02*
X69741682Y-63399210D01*
D45*
X72329548Y-65213577D02*
X73025000Y-65909029D01*
X73025000Y-66040000D02*
X74295000Y-66040000D01*
D43*
X73362555Y-71768164D02*
X73362555Y-71410164D01*
D44*
X73362555Y-71410164D02*
X73362555Y-69789945D01*
D45*
X72329548Y-64135671D02*
X72329548Y-65213577D01*
X74295000Y-66040000D02*
X75565000Y-64770000D01*
X75565000Y-62230000D02*
X77470000Y-60325000D01*
X73025000Y-68302500D02*
X73937500Y-69215000D01*
D44*
X73362555Y-69789945D02*
X73937500Y-69215000D01*
D43*
%TO.N,Net-(Q2-E)*%
X69819298Y-98157000D02*
X69551798Y-98424500D01*
D45*
X67580298Y-103372500D02*
X72660298Y-103372500D01*
X75835298Y-100197500D02*
X77105298Y-100197500D01*
D43*
X69739298Y-93974500D02*
X69739298Y-96434500D01*
D45*
X66945298Y-99562500D02*
X66945298Y-102737500D01*
D43*
X69739298Y-96434500D02*
X69819298Y-96514500D01*
X69819298Y-96514500D02*
X69819298Y-98157000D01*
D45*
X68083298Y-98424500D02*
X66945298Y-99562500D01*
X66945298Y-102737500D02*
X67580298Y-103372500D01*
X69551798Y-98424500D02*
X68083298Y-98424500D01*
X72660298Y-103372500D02*
X75835298Y-100197500D01*
%TO.N,Net-(Q3-G)*%
X102872105Y-72403090D02*
X102872105Y-74275407D01*
X100908990Y-74283012D02*
X100869526Y-74243548D01*
X102864500Y-74283012D02*
X100908990Y-74283012D01*
X102872105Y-74275407D02*
X102864500Y-74283012D01*
D46*
%TO.N,Net-(Q3-S)*%
X104764897Y-79102097D02*
X103873292Y-79993702D01*
X104764897Y-73748780D02*
X104764897Y-79102097D01*
X104772105Y-72403090D02*
X104772105Y-73741572D01*
X103873292Y-79993702D02*
X100832500Y-79993702D01*
X97777292Y-72373702D02*
X97777292Y-73712184D01*
X97770084Y-73719392D02*
X97770084Y-78462494D01*
X99301292Y-79993702D02*
X100832500Y-79993702D01*
X104772105Y-73741572D02*
X104764897Y-73748780D01*
X97777292Y-73712184D02*
X97770084Y-73719392D01*
X97770084Y-78462494D02*
X99301292Y-79993702D01*
D43*
%TO.N,Net-(Q3-D)*%
X103822105Y-70128090D02*
X103822105Y-68232009D01*
X103822105Y-68232009D02*
X103829042Y-68225072D01*
D45*
%TO.N,Net-(Q4-G)*%
X93712421Y-74413781D02*
X93712421Y-75120702D01*
X95877292Y-72373702D02*
X95877292Y-74158220D01*
X93843190Y-74283012D02*
X93712421Y-74413781D01*
X95877292Y-74158220D02*
X95752500Y-74283012D01*
X95752500Y-74283012D02*
X93843190Y-74283012D01*
D43*
%TO.N,Net-(Q4-D)*%
X96827292Y-70098702D02*
X96827292Y-68276861D01*
X96827292Y-68276861D02*
X96840260Y-68263893D01*
%TO.N,Net-(R10-Pad2)*%
X126920000Y-70059777D02*
X126920000Y-67477908D01*
X126920000Y-70059777D02*
X126920000Y-75803726D01*
X126998379Y-67399529D02*
X126933956Y-67463952D01*
X126920000Y-67477908D02*
X126933956Y-67463952D01*
X126998379Y-64887442D02*
X126998379Y-67399529D01*
X126920000Y-75803726D02*
X128905000Y-77788726D01*
%TO.N,Net-(R11-Pad1)*%
X105775058Y-85733949D02*
X109211051Y-85733949D01*
D45*
%TO.N,Net-(R14-Pad1)*%
X95745292Y-77453702D02*
X95752500Y-77446494D01*
X101277687Y-103594558D02*
X101277687Y-101392515D01*
X101277687Y-101392515D02*
X101340500Y-101329702D01*
X95752500Y-76108012D02*
X95752500Y-77446494D01*
X102864500Y-76108012D02*
X102864500Y-77446494D01*
X102864500Y-77446494D02*
X102857292Y-77453702D01*
D43*
%TO.N,Net-(U9--)*%
X87497500Y-61640702D02*
X87497500Y-63610702D01*
X87497500Y-63610702D02*
X87624500Y-63737702D01*
%TO.N,Net-(R26-Pad2)*%
X88485370Y-70914702D02*
X88485370Y-69939703D01*
D47*
X93212500Y-64753702D02*
X93212500Y-62213702D01*
D43*
X91688500Y-70953202D02*
X91688500Y-70232320D01*
X90727191Y-69271011D02*
X90727191Y-67422943D01*
X91688500Y-70232320D02*
X90727191Y-69271011D01*
X89099371Y-69325702D02*
X90672500Y-69325702D01*
D47*
X90672500Y-67293702D02*
X93212500Y-64753702D01*
D43*
X90672500Y-69325702D02*
X90727191Y-69271011D01*
X88485370Y-69939703D02*
X89099371Y-69325702D01*
%TO.N,Net-(U10--)*%
X87244873Y-78276118D02*
X87244873Y-75894205D01*
X87244873Y-75894205D02*
X87215370Y-75864702D01*
D47*
X87215370Y-74889703D02*
X87215370Y-75864702D01*
X89326871Y-72778202D02*
X87215370Y-74889703D01*
X91688500Y-72778202D02*
X89326871Y-72778202D01*
D43*
%TO.N,Net-(R33-Pad1)*%
X129897500Y-75497277D02*
X130701051Y-76300828D01*
X129897500Y-70059777D02*
X129897500Y-75497277D01*
X129897500Y-67519777D02*
X129897500Y-70059777D01*
X130701051Y-76300828D02*
X130701051Y-77788726D01*
X129897500Y-64979777D02*
X129897500Y-67519777D01*
%TO.N,Net-(R40-Pad2)*%
X126998379Y-61806398D02*
X127635000Y-61169777D01*
X127635000Y-61169777D02*
X129897500Y-61169777D01*
X126998379Y-63062442D02*
X126998379Y-61806398D01*
X129897500Y-61169777D02*
X129897500Y-63154777D01*
D45*
X129860990Y-63118267D02*
X129897500Y-63154777D01*
%TD*%
%TA.AperFunction,Conductor*%
%TO.N,Laser_supply*%
G36*
X103388177Y-89284387D02*
G01*
X103408819Y-89301021D01*
X103971181Y-89863383D01*
X104004666Y-89924706D01*
X104007500Y-89951064D01*
X104007500Y-94928340D01*
X103987815Y-94995379D01*
X103971181Y-95016021D01*
X103408819Y-95578383D01*
X103347496Y-95611868D01*
X103321138Y-95614702D01*
X102226500Y-95614702D01*
X102159461Y-95595017D01*
X102113706Y-95542213D01*
X102102500Y-95490702D01*
X102102500Y-89388702D01*
X102122185Y-89321663D01*
X102174989Y-89275908D01*
X102226500Y-89264702D01*
X103321138Y-89264702D01*
X103388177Y-89284387D01*
G37*
%TD.AperFunction*%
%TD*%
%TA.AperFunction,Conductor*%
%TO.N,Laser_supply*%
G36*
X92688039Y-78616387D02*
G01*
X92733794Y-78669191D01*
X92745000Y-78720702D01*
X92745000Y-79225039D01*
X92745001Y-79225057D01*
X92755150Y-79324409D01*
X92755151Y-79324412D01*
X92808496Y-79485396D01*
X92808501Y-79485407D01*
X92897529Y-79629742D01*
X92897532Y-79629746D01*
X93017455Y-79749669D01*
X93017459Y-79749672D01*
X93161794Y-79838700D01*
X93161797Y-79838701D01*
X93161803Y-79838705D01*
X93322792Y-79892051D01*
X93422155Y-79902202D01*
X94018844Y-79902201D01*
X94018852Y-79902200D01*
X94018855Y-79902200D01*
X94073260Y-79896642D01*
X94118208Y-79892051D01*
X94279197Y-79838705D01*
X94423544Y-79749670D01*
X94543468Y-79629746D01*
X94632503Y-79485399D01*
X94685849Y-79324410D01*
X94696000Y-79225047D01*
X94695999Y-78720701D01*
X94715683Y-78653663D01*
X94768487Y-78607908D01*
X94819999Y-78596702D01*
X96664950Y-78596702D01*
X96731989Y-78616387D01*
X96777744Y-78669191D01*
X96783610Y-78684706D01*
X96833843Y-78850299D01*
X96927485Y-79025492D01*
X96927489Y-79025499D01*
X97053514Y-79179061D01*
X97087297Y-79206785D01*
X97096314Y-79214958D01*
X98256181Y-80374825D01*
X98289666Y-80436148D01*
X98292500Y-80462506D01*
X98292500Y-87870702D01*
X98272815Y-87937741D01*
X98220011Y-87983496D01*
X98168500Y-87994702D01*
X92129500Y-87994702D01*
X92062461Y-87975017D01*
X92016706Y-87922213D01*
X92005500Y-87870703D01*
X92005499Y-87674999D01*
X92005498Y-87674980D01*
X91994999Y-87572203D01*
X91994998Y-87572200D01*
X91948794Y-87432764D01*
X91942500Y-87393760D01*
X91942500Y-78720702D01*
X91962185Y-78653663D01*
X92014989Y-78607908D01*
X92066500Y-78596702D01*
X92621000Y-78596702D01*
X92688039Y-78616387D01*
G37*
%TD.AperFunction*%
%TD*%
%TA.AperFunction,Conductor*%
%TO.N,Net-(R22-Pad2)*%
G36*
X97600539Y-89919387D02*
G01*
X97646294Y-89972191D01*
X97657500Y-90023702D01*
X97657500Y-93585702D01*
X97637815Y-93652741D01*
X97585011Y-93698496D01*
X97533500Y-93709702D01*
X91942500Y-93709702D01*
X87621500Y-93709702D01*
X87554461Y-93690017D01*
X87508706Y-93637213D01*
X87497500Y-93585702D01*
X87497500Y-90023702D01*
X87517185Y-89956663D01*
X87569989Y-89910908D01*
X87621500Y-89899702D01*
X97533500Y-89899702D01*
X97600539Y-89919387D01*
G37*
%TD.AperFunction*%
%TD*%
%TA.AperFunction,Conductor*%
%TO.N,Net-(D2-K)*%
G36*
X71698039Y-70504685D02*
G01*
X71743794Y-70557489D01*
X71755000Y-70609000D01*
X71755000Y-73660000D01*
X75480212Y-74901737D01*
X75537587Y-74941611D01*
X75564295Y-75006175D01*
X75565000Y-75019374D01*
X75565000Y-79886000D01*
X75545315Y-79953039D01*
X75492511Y-79998794D01*
X75441000Y-80010000D01*
X66799000Y-80010000D01*
X66731961Y-79990315D01*
X66686206Y-79937511D01*
X66675000Y-79886000D01*
X66675000Y-75019374D01*
X66694685Y-74952335D01*
X66747489Y-74906580D01*
X66759782Y-74901739D01*
X70485000Y-73660000D01*
X70485000Y-70609000D01*
X70504685Y-70541961D01*
X70557489Y-70496206D01*
X70609000Y-70485000D01*
X71631000Y-70485000D01*
X71698039Y-70504685D01*
G37*
%TD.AperFunction*%
%TD*%
%TA.AperFunction,Conductor*%
%TO.N,Net-(U3-VI)*%
G36*
X75397337Y-81294185D02*
G01*
X75443092Y-81346989D01*
X75454298Y-81398500D01*
X75454298Y-87526481D01*
X75434613Y-87593520D01*
X75381809Y-87639275D01*
X75358928Y-87647131D01*
X72006474Y-88442669D01*
X72006069Y-91309771D01*
X71986375Y-91376807D01*
X71933564Y-91422555D01*
X71882458Y-91433752D01*
X71644404Y-91434499D01*
X71644318Y-91434499D01*
X71644298Y-91434500D01*
X71486522Y-91436228D01*
X70702994Y-91444814D01*
X70635742Y-91425865D01*
X70589412Y-91373565D01*
X70577635Y-91321138D01*
X70570472Y-88498875D01*
X70570471Y-88498874D01*
X67292166Y-87648586D01*
X67232216Y-87612701D01*
X67201184Y-87550101D01*
X67199298Y-87528558D01*
X67199298Y-81398500D01*
X67218983Y-81331461D01*
X67271787Y-81285706D01*
X67323298Y-81274500D01*
X75330298Y-81274500D01*
X75397337Y-81294185D01*
G37*
%TD.AperFunction*%
%TD*%
M02*
