%TF.GenerationSoftware,KiCad,Pcbnew,7.0.10*%
%TF.CreationDate,2024-03-12T19:05:43-04:00*%
%TF.ProjectId,current_controller,63757272-656e-4745-9f63-6f6e74726f6c,rev?*%
%TF.SameCoordinates,Original*%
%TF.FileFunction,Copper,L4,Bot*%
%TF.FilePolarity,Positive*%
%FSLAX46Y46*%
G04 Gerber Fmt 4.6, Leading zero omitted, Abs format (unit mm)*
G04 Created by KiCad (PCBNEW 7.0.10) date 2024-03-12 19:05:43*
%MOMM*%
%LPD*%
G01*
G04 APERTURE LIST*
G04 Aperture macros list*
%AMHorizOval*
0 Thick line with rounded ends*
0 $1 width*
0 $2 $3 position (X,Y) of the first rounded end (center of the circle)*
0 $4 $5 position (X,Y) of the second rounded end (center of the circle)*
0 Add line between two ends*
20,1,$1,$2,$3,$4,$5,0*
0 Add two circle primitives to create the rounded ends*
1,1,$1,$2,$3*
1,1,$1,$4,$5*%
G04 Aperture macros list end*
%TA.AperFunction,ComponentPad*%
%ADD10C,1.440000*%
%TD*%
%TA.AperFunction,ComponentPad*%
%ADD11O,1.600000X2.500000*%
%TD*%
%TA.AperFunction,ComponentPad*%
%ADD12O,3.500000X7.000000*%
%TD*%
%TA.AperFunction,ComponentPad*%
%ADD13O,6.000000X4.000000*%
%TD*%
%TA.AperFunction,ComponentPad*%
%ADD14R,2.400000X2.400000*%
%TD*%
%TA.AperFunction,ComponentPad*%
%ADD15C,2.400000*%
%TD*%
%TA.AperFunction,ComponentPad*%
%ADD16HorizOval,1.200000X-0.141421X-0.141421X0.141421X0.141421X0*%
%TD*%
%TA.AperFunction,ComponentPad*%
%ADD17C,1.200000*%
%TD*%
%TA.AperFunction,ViaPad*%
%ADD18C,6.096000*%
%TD*%
%TA.AperFunction,ViaPad*%
%ADD19C,0.800000*%
%TD*%
%TA.AperFunction,Conductor*%
%ADD20C,0.250000*%
%TD*%
G04 APERTURE END LIST*
D10*
%TO.P,R44,1,1*%
%TO.N,Net-(Q2-E)*%
X77105298Y-100197500D03*
%TO.P,R44,2,2*%
%TO.N,GND*%
X77105298Y-102737500D03*
%TO.P,R44,3,3*%
X77105298Y-105277500D03*
%TD*%
D11*
%TO.P,J6,1,In*%
%TO.N,/connecting to laser diode*%
X99060000Y-50800000D03*
D12*
%TO.P,J6,2,Ext*%
%TO.N,GND*%
X93980000Y-45720000D03*
D11*
X96520000Y-50800000D03*
D12*
X104140000Y-45720000D03*
%TD*%
D13*
%TO.P,R42,3,3*%
%TO.N,Net-(R40-Pad2)*%
X124460000Y-47346141D03*
%TO.P,R42,2,2*%
%TO.N,Net-(R11-Pad1)*%
X117420000Y-53046141D03*
%TO.P,R42,1,1*%
%TO.N,Laser_supply*%
X124460000Y-41046141D03*
%TD*%
D14*
%TO.P,J2,1,Pin_1*%
%TO.N,+15V*%
X87615000Y-107950000D03*
D15*
%TO.P,J2,2,Pin_2*%
%TO.N,GND*%
X91115000Y-107950000D03*
%TO.P,J2,3,Pin_3*%
%TO.N,-15V*%
X94615000Y-107950000D03*
%TD*%
D16*
%TO.P,U5,1*%
%TO.N,Net-(R33-Pad1)*%
X130701051Y-77788726D03*
D17*
%TO.P,U5,2*%
%TO.N,Net-(R10-Pad2)*%
X128905000Y-77788726D03*
%TO.P,U5,3*%
%TO.N,+15V*%
X128905000Y-79584777D03*
%TO.P,U5,4*%
%TO.N,-15V*%
X130701051Y-79584777D03*
%TD*%
D12*
%TO.P,J4,2,Ext*%
%TO.N,GND*%
X78740000Y-45720000D03*
D11*
X71120000Y-50800000D03*
D12*
X68580000Y-45720000D03*
D11*
%TO.P,J4,1,In*%
%TO.N,/Modulation Input*%
X73660000Y-50800000D03*
%TD*%
D10*
%TO.P,R43,1,1*%
%TO.N,Net-(Q1-E)*%
X78740000Y-60325000D03*
%TO.P,R43,2,2*%
%TO.N,GND*%
X78740000Y-62865000D03*
%TO.P,R43,3,3*%
X78740000Y-65405000D03*
%TD*%
D18*
%TO.N,GND*%
X54610000Y-107950000D03*
X54610000Y-44450000D03*
X143510000Y-107950000D03*
X143510000Y-44450000D03*
D19*
X59055000Y-85090000D03*
X72698723Y-100927059D03*
X70848310Y-58982101D03*
X80645000Y-69850000D03*
X89800244Y-80137446D03*
X109303584Y-106654913D03*
X86227500Y-66404702D03*
X100033666Y-93832719D03*
X93840250Y-98624465D03*
X81312144Y-92035926D03*
X87497500Y-51799702D03*
X81312144Y-95452343D03*
X89991560Y-66266791D03*
X80645000Y-73660000D03*
X84516084Y-78276118D03*
X102527847Y-107829366D03*
%TO.N,-15V*%
X51435000Y-99060000D03*
X89025432Y-77936106D03*
X59055000Y-88900000D03*
X92444068Y-95498944D03*
X125072639Y-71116674D03*
X91005237Y-63905037D03*
X51492084Y-97762990D03*
X130770594Y-80744331D03*
X51435000Y-96520000D03*
%TO.N,+15V*%
X110490000Y-109855000D03*
X87511303Y-57933453D03*
X51435000Y-70485000D03*
X51548215Y-71800196D03*
X51435000Y-73025000D03*
X59055000Y-81280000D03*
X132780844Y-69976223D03*
X86995000Y-72390000D03*
%TO.N,Laser_supply*%
X94690832Y-80472118D03*
X99120948Y-73188492D03*
X94615000Y-85454702D03*
X102737500Y-94344702D03*
X96387500Y-84184702D03*
X93980000Y-86724702D03*
X102737500Y-90534702D03*
X97657500Y-82914702D03*
X133350000Y-67519777D03*
X123947363Y-67463952D03*
X96387500Y-82914702D03*
X97657500Y-84184702D03*
X102737500Y-93074702D03*
X102737500Y-91804702D03*
%TO.N,Net-(U3-VI)*%
X74438298Y-82036500D03*
X70374298Y-86608500D03*
X72406298Y-82036500D03*
X74438298Y-86608500D03*
X68580000Y-81915000D03*
X70374298Y-82036500D03*
X68342298Y-86608500D03*
X74438298Y-84068500D03*
X72406298Y-86608500D03*
X68342298Y-84576500D03*
%TO.N,Net-(D2-K)*%
X68580000Y-76200000D03*
X71120000Y-74295000D03*
X69850000Y-79375000D03*
X69850000Y-75565000D03*
X73660000Y-77470000D03*
X72390000Y-79375000D03*
X74295000Y-79375000D03*
X74930000Y-78105000D03*
X67310000Y-78740000D03*
X72390000Y-75565000D03*
%TO.N,Net-(R14-Pad1)*%
X95752500Y-77446494D03*
X101340500Y-101329702D03*
X102857292Y-77453702D03*
%TD*%
D20*
%TO.N,Net-(R14-Pad1)*%
X101340500Y-82533702D02*
X99816500Y-81009702D01*
X101340500Y-101329702D02*
X101340500Y-82533702D01*
X99809292Y-77446494D02*
X99816500Y-77453702D01*
X95752500Y-77446494D02*
X98278084Y-77446494D01*
X98278084Y-77446494D02*
X98285292Y-77453702D01*
X99816500Y-77453702D02*
X102857292Y-77453702D01*
X98278084Y-77446494D02*
X99809292Y-77446494D01*
X99816500Y-81009702D02*
X99816500Y-77453702D01*
%TD*%
%TA.AperFunction,Conductor*%
%TO.N,Net-(U3-VI)*%
G36*
X75397337Y-81294185D02*
G01*
X75443092Y-81346989D01*
X75454298Y-81398500D01*
X75454298Y-87526481D01*
X75434613Y-87593520D01*
X75381809Y-87639275D01*
X75358928Y-87647131D01*
X72006474Y-88442669D01*
X72006069Y-91309771D01*
X71986375Y-91376807D01*
X71933564Y-91422555D01*
X71882458Y-91433752D01*
X71644404Y-91434499D01*
X71644318Y-91434499D01*
X71644298Y-91434500D01*
X71486522Y-91436228D01*
X70702994Y-91444814D01*
X70635742Y-91425865D01*
X70589412Y-91373565D01*
X70577635Y-91321138D01*
X70570472Y-88498875D01*
X70570471Y-88498874D01*
X67292166Y-87648586D01*
X67232216Y-87612701D01*
X67201184Y-87550101D01*
X67199298Y-87528558D01*
X67199298Y-81398500D01*
X67218983Y-81331461D01*
X67271787Y-81285706D01*
X67323298Y-81274500D01*
X75330298Y-81274500D01*
X75397337Y-81294185D01*
G37*
%TD.AperFunction*%
%TD*%
%TA.AperFunction,Conductor*%
%TO.N,-15V*%
G36*
X51183166Y-43199685D02*
G01*
X51228921Y-43252489D01*
X51238865Y-43321647D01*
X51231892Y-43348434D01*
X51230548Y-43351933D01*
X51230546Y-43351941D01*
X51134280Y-43711211D01*
X51134279Y-43711218D01*
X51076096Y-44078570D01*
X51056630Y-44449999D01*
X51056630Y-44450000D01*
X51076096Y-44821429D01*
X51134279Y-45188781D01*
X51134280Y-45188788D01*
X51230545Y-45548056D01*
X51363836Y-45895289D01*
X51532693Y-46226689D01*
X51735261Y-46538616D01*
X51735263Y-46538618D01*
X51969331Y-46827669D01*
X52232331Y-47090669D01*
X52232335Y-47090672D01*
X52521383Y-47324738D01*
X52796586Y-47503457D01*
X52833315Y-47527309D01*
X53164714Y-47696165D01*
X53511948Y-47829456D01*
X53871213Y-47925720D01*
X54238572Y-47983904D01*
X54589456Y-48002293D01*
X54609999Y-48003370D01*
X54610000Y-48003370D01*
X54610001Y-48003370D01*
X54629467Y-48002349D01*
X54981428Y-47983904D01*
X55348787Y-47925720D01*
X55708052Y-47829456D01*
X56055286Y-47696165D01*
X56386685Y-47527309D01*
X56698618Y-47324737D01*
X56987669Y-47090669D01*
X57250669Y-46827669D01*
X57484737Y-46538618D01*
X57687309Y-46226685D01*
X57856165Y-45895286D01*
X57989456Y-45548052D01*
X58085720Y-45188787D01*
X58143904Y-44821428D01*
X58163370Y-44450000D01*
X58143904Y-44078572D01*
X58085720Y-43711213D01*
X57989456Y-43351948D01*
X57989452Y-43351938D01*
X57989451Y-43351933D01*
X57988108Y-43348434D01*
X57982462Y-43278793D01*
X58015364Y-43217155D01*
X58076366Y-43183089D01*
X58103873Y-43180000D01*
X66300460Y-43180000D01*
X66367499Y-43199685D01*
X66413254Y-43252489D01*
X66423198Y-43321647D01*
X66420054Y-43336760D01*
X66369660Y-43520727D01*
X66329500Y-43819350D01*
X66329500Y-47545252D01*
X66344587Y-47770631D01*
X66344589Y-47770640D01*
X66404604Y-48065905D01*
X66503439Y-48350535D01*
X66503441Y-48350540D01*
X66639328Y-48619453D01*
X66639331Y-48619458D01*
X66639332Y-48619459D01*
X66809856Y-48867869D01*
X66809858Y-48867871D01*
X66809860Y-48867874D01*
X67011969Y-49091334D01*
X67063440Y-49134850D01*
X67242061Y-49285865D01*
X67496030Y-49447993D01*
X67769342Y-49574823D01*
X68057121Y-49664093D01*
X68354230Y-49714209D01*
X68655369Y-49724277D01*
X68955162Y-49694118D01*
X69248261Y-49624269D01*
X69529434Y-49515977D01*
X69793665Y-49371175D01*
X70036238Y-49192446D01*
X70252824Y-48982980D01*
X70439558Y-48746515D01*
X70593109Y-48487270D01*
X70710736Y-48209872D01*
X70790340Y-47919271D01*
X70830500Y-47620653D01*
X70830500Y-43894756D01*
X70830500Y-43894747D01*
X70815412Y-43669368D01*
X70815412Y-43669366D01*
X70755396Y-43374097D01*
X70755394Y-43374091D01*
X70745180Y-43344674D01*
X70741785Y-43274887D01*
X70776659Y-43214343D01*
X70838729Y-43182265D01*
X70862319Y-43180000D01*
X76460460Y-43180000D01*
X76527499Y-43199685D01*
X76573254Y-43252489D01*
X76583198Y-43321647D01*
X76580054Y-43336760D01*
X76529660Y-43520727D01*
X76489500Y-43819350D01*
X76489500Y-47545252D01*
X76504587Y-47770631D01*
X76504589Y-47770640D01*
X76564604Y-48065905D01*
X76663439Y-48350535D01*
X76663441Y-48350540D01*
X76799328Y-48619453D01*
X76799331Y-48619458D01*
X76799332Y-48619459D01*
X76969856Y-48867869D01*
X76969858Y-48867871D01*
X76969860Y-48867874D01*
X77171969Y-49091334D01*
X77223440Y-49134850D01*
X77402061Y-49285865D01*
X77656030Y-49447993D01*
X77929342Y-49574823D01*
X78217121Y-49664093D01*
X78514230Y-49714209D01*
X78815369Y-49724277D01*
X79115162Y-49694118D01*
X79408261Y-49624269D01*
X79689434Y-49515977D01*
X79953665Y-49371175D01*
X80196238Y-49192446D01*
X80412824Y-48982980D01*
X80599558Y-48746515D01*
X80753109Y-48487270D01*
X80870736Y-48209872D01*
X80950340Y-47919271D01*
X80990500Y-47620653D01*
X80990500Y-43894756D01*
X80990500Y-43894747D01*
X80975412Y-43669368D01*
X80975412Y-43669366D01*
X80915396Y-43374097D01*
X80915394Y-43374091D01*
X80905180Y-43344674D01*
X80901785Y-43274887D01*
X80936659Y-43214343D01*
X80998729Y-43182265D01*
X81022319Y-43180000D01*
X91700460Y-43180000D01*
X91767499Y-43199685D01*
X91813254Y-43252489D01*
X91823198Y-43321647D01*
X91820054Y-43336760D01*
X91769660Y-43520727D01*
X91729500Y-43819350D01*
X91729500Y-47545252D01*
X91744587Y-47770631D01*
X91744589Y-47770640D01*
X91804604Y-48065905D01*
X91903439Y-48350535D01*
X91903441Y-48350540D01*
X92039328Y-48619453D01*
X92039331Y-48619458D01*
X92039332Y-48619459D01*
X92209856Y-48867869D01*
X92209858Y-48867871D01*
X92209860Y-48867874D01*
X92411969Y-49091334D01*
X92463440Y-49134850D01*
X92642061Y-49285865D01*
X92896030Y-49447993D01*
X93169342Y-49574823D01*
X93457121Y-49664093D01*
X93754230Y-49714209D01*
X94055369Y-49724277D01*
X94355162Y-49694118D01*
X94648261Y-49624269D01*
X94929434Y-49515977D01*
X95193665Y-49371175D01*
X95436238Y-49192446D01*
X95652824Y-48982980D01*
X95839558Y-48746515D01*
X95993109Y-48487270D01*
X96110736Y-48209872D01*
X96190340Y-47919271D01*
X96230500Y-47620653D01*
X96230500Y-43894756D01*
X96230500Y-43894747D01*
X96215412Y-43669368D01*
X96215412Y-43669366D01*
X96155396Y-43374097D01*
X96155394Y-43374091D01*
X96145180Y-43344674D01*
X96141785Y-43274887D01*
X96176659Y-43214343D01*
X96238729Y-43182265D01*
X96262319Y-43180000D01*
X101860460Y-43180000D01*
X101927499Y-43199685D01*
X101973254Y-43252489D01*
X101983198Y-43321647D01*
X101980054Y-43336760D01*
X101929660Y-43520727D01*
X101889500Y-43819350D01*
X101889500Y-47545252D01*
X101904587Y-47770631D01*
X101904589Y-47770640D01*
X101964604Y-48065905D01*
X102063439Y-48350535D01*
X102063441Y-48350540D01*
X102199328Y-48619453D01*
X102199331Y-48619458D01*
X102199332Y-48619459D01*
X102369856Y-48867869D01*
X102369858Y-48867871D01*
X102369860Y-48867874D01*
X102571969Y-49091334D01*
X102623440Y-49134850D01*
X102802061Y-49285865D01*
X103056030Y-49447993D01*
X103329342Y-49574823D01*
X103617121Y-49664093D01*
X103914230Y-49714209D01*
X104215369Y-49724277D01*
X104515162Y-49694118D01*
X104808261Y-49624269D01*
X105089434Y-49515977D01*
X105353665Y-49371175D01*
X105596238Y-49192446D01*
X105812824Y-48982980D01*
X105999558Y-48746515D01*
X106153109Y-48487270D01*
X106270736Y-48209872D01*
X106350340Y-47919271D01*
X106390500Y-47620653D01*
X106390500Y-47503470D01*
X120959500Y-47503470D01*
X120998932Y-47815604D01*
X120998934Y-47815617D01*
X121077180Y-48120366D01*
X121077181Y-48120369D01*
X121193001Y-48412898D01*
X121193002Y-48412899D01*
X121193004Y-48412904D01*
X121193006Y-48412907D01*
X121344584Y-48688625D01*
X121344586Y-48688629D01*
X121344591Y-48688636D01*
X121529515Y-48943162D01*
X121529522Y-48943171D01*
X121698636Y-49123258D01*
X121744907Y-49172532D01*
X121744909Y-49172534D01*
X121987334Y-49373086D01*
X121987338Y-49373089D01*
X122105370Y-49447994D01*
X122252993Y-49541678D01*
X122323430Y-49574823D01*
X122537678Y-49675641D01*
X122537682Y-49675642D01*
X122537685Y-49675644D01*
X122836921Y-49772872D01*
X123145985Y-49831829D01*
X123145990Y-49831829D01*
X123145995Y-49831830D01*
X123381406Y-49846641D01*
X123381417Y-49846641D01*
X125538594Y-49846641D01*
X125774004Y-49831830D01*
X125774007Y-49831829D01*
X125774015Y-49831829D01*
X126083079Y-49772872D01*
X126382315Y-49675644D01*
X126667007Y-49541678D01*
X126932663Y-49373088D01*
X127175094Y-49172531D01*
X127390478Y-48943171D01*
X127575416Y-48688625D01*
X127726994Y-48412907D01*
X127842819Y-48120366D01*
X127921066Y-47815614D01*
X127952451Y-47567174D01*
X127960499Y-47503470D01*
X127960500Y-47503457D01*
X127960500Y-47188824D01*
X127960499Y-47188811D01*
X127921067Y-46876677D01*
X127921065Y-46876664D01*
X127842819Y-46571915D01*
X127842818Y-46571912D01*
X127726998Y-46279383D01*
X127726997Y-46279382D01*
X127726996Y-46279380D01*
X127726994Y-46279375D01*
X127575416Y-46003657D01*
X127575410Y-46003650D01*
X127575408Y-46003645D01*
X127390484Y-45749119D01*
X127390476Y-45749109D01*
X127175092Y-45519749D01*
X127175090Y-45519747D01*
X126932665Y-45319195D01*
X126932661Y-45319192D01*
X126667009Y-45150605D01*
X126667003Y-45150602D01*
X126382321Y-45016640D01*
X126382316Y-45016638D01*
X126083083Y-44919411D01*
X126083080Y-44919410D01*
X126083079Y-44919410D01*
X125928547Y-44889931D01*
X125774011Y-44860452D01*
X125774004Y-44860451D01*
X125538594Y-44845641D01*
X125538583Y-44845641D01*
X123381417Y-44845641D01*
X123381406Y-44845641D01*
X123145995Y-44860451D01*
X123145988Y-44860452D01*
X122836916Y-44919411D01*
X122537683Y-45016638D01*
X122537678Y-45016640D01*
X122252996Y-45150602D01*
X122252990Y-45150605D01*
X121987338Y-45319192D01*
X121987334Y-45319195D01*
X121744909Y-45519747D01*
X121744907Y-45519749D01*
X121529523Y-45749109D01*
X121529515Y-45749119D01*
X121344591Y-46003645D01*
X121344584Y-46003657D01*
X121193002Y-46279382D01*
X121193001Y-46279383D01*
X121077181Y-46571912D01*
X121077180Y-46571915D01*
X120998934Y-46876664D01*
X120998932Y-46876677D01*
X120959500Y-47188811D01*
X120959500Y-47503470D01*
X106390500Y-47503470D01*
X106390500Y-43894756D01*
X106390500Y-43894747D01*
X106375412Y-43669368D01*
X106375412Y-43669366D01*
X106315396Y-43374097D01*
X106315394Y-43374091D01*
X106305180Y-43344674D01*
X106301785Y-43274887D01*
X106336659Y-43214343D01*
X106398729Y-43182265D01*
X106422319Y-43180000D01*
X122119778Y-43180000D01*
X122186220Y-43199303D01*
X122186822Y-43199685D01*
X122252993Y-43241678D01*
X122383016Y-43302862D01*
X122537678Y-43375641D01*
X122537682Y-43375642D01*
X122537685Y-43375644D01*
X122836921Y-43472872D01*
X123145985Y-43531829D01*
X123145990Y-43531829D01*
X123145995Y-43531830D01*
X123381406Y-43546641D01*
X123381417Y-43546641D01*
X125538594Y-43546641D01*
X125774004Y-43531830D01*
X125774007Y-43531829D01*
X125774015Y-43531829D01*
X126083079Y-43472872D01*
X126382315Y-43375644D01*
X126667007Y-43241678D01*
X126733178Y-43199685D01*
X126733780Y-43199303D01*
X126800222Y-43180000D01*
X140016127Y-43180000D01*
X140083166Y-43199685D01*
X140128921Y-43252489D01*
X140138865Y-43321647D01*
X140131892Y-43348434D01*
X140130548Y-43351933D01*
X140130546Y-43351941D01*
X140034280Y-43711211D01*
X140034279Y-43711218D01*
X139976096Y-44078570D01*
X139956630Y-44449999D01*
X139956630Y-44450000D01*
X139976096Y-44821429D01*
X140034279Y-45188781D01*
X140034280Y-45188788D01*
X140130545Y-45548056D01*
X140263836Y-45895289D01*
X140432693Y-46226689D01*
X140635261Y-46538616D01*
X140635263Y-46538618D01*
X140869331Y-46827669D01*
X141132331Y-47090669D01*
X141132335Y-47090672D01*
X141421383Y-47324738D01*
X141696586Y-47503457D01*
X141733315Y-47527309D01*
X142064714Y-47696165D01*
X142411948Y-47829456D01*
X142771213Y-47925720D01*
X143138572Y-47983904D01*
X143489456Y-48002293D01*
X143509999Y-48003370D01*
X143510000Y-48003370D01*
X143510001Y-48003370D01*
X143529467Y-48002349D01*
X143881428Y-47983904D01*
X144248787Y-47925720D01*
X144608052Y-47829456D01*
X144955286Y-47696165D01*
X145234705Y-47553793D01*
X145303374Y-47540898D01*
X145368115Y-47567174D01*
X145408372Y-47624281D01*
X145415000Y-47664279D01*
X145415000Y-104735720D01*
X145395315Y-104802759D01*
X145342511Y-104848514D01*
X145273353Y-104858458D01*
X145234706Y-104846205D01*
X144955293Y-104703838D01*
X144955288Y-104703836D01*
X144955286Y-104703835D01*
X144827210Y-104654671D01*
X144608056Y-104570545D01*
X144248788Y-104474280D01*
X144248781Y-104474279D01*
X143881429Y-104416096D01*
X143510001Y-104396630D01*
X143509999Y-104396630D01*
X143138570Y-104416096D01*
X142771218Y-104474279D01*
X142771211Y-104474280D01*
X142411943Y-104570545D01*
X142064710Y-104703836D01*
X141733310Y-104872693D01*
X141421383Y-105075261D01*
X141132335Y-105309327D01*
X141132327Y-105309334D01*
X140869334Y-105572327D01*
X140869327Y-105572335D01*
X140635261Y-105861383D01*
X140432693Y-106173310D01*
X140263836Y-106504710D01*
X140130545Y-106851943D01*
X140034280Y-107211211D01*
X140034279Y-107211218D01*
X139976096Y-107578570D01*
X139956630Y-107949999D01*
X139956630Y-107950000D01*
X139976096Y-108321429D01*
X140034279Y-108688781D01*
X140034280Y-108688788D01*
X140130545Y-109048056D01*
X140263836Y-109395289D01*
X140432693Y-109726689D01*
X140635261Y-110038616D01*
X140639021Y-110043259D01*
X140869331Y-110327669D01*
X141132331Y-110590669D01*
X141132335Y-110590672D01*
X141421383Y-110824738D01*
X141733310Y-111027306D01*
X141733315Y-111027309D01*
X142064714Y-111196165D01*
X142411948Y-111329456D01*
X142771213Y-111425720D01*
X143138572Y-111483904D01*
X143489456Y-111502293D01*
X143509999Y-111503370D01*
X143510000Y-111503370D01*
X143510001Y-111503370D01*
X143529467Y-111502349D01*
X143881428Y-111483904D01*
X144248787Y-111425720D01*
X144608052Y-111329456D01*
X144955286Y-111196165D01*
X145234705Y-111053793D01*
X145303374Y-111040898D01*
X145368115Y-111067174D01*
X145408372Y-111124281D01*
X145415000Y-111164279D01*
X145415000Y-112271000D01*
X145395315Y-112338039D01*
X145342511Y-112383794D01*
X145291000Y-112395000D01*
X50290143Y-112395000D01*
X50223104Y-112375315D01*
X50177349Y-112322511D01*
X50166148Y-112269862D01*
X50174776Y-111329454D01*
X50205780Y-107950000D01*
X51056630Y-107950000D01*
X51076096Y-108321429D01*
X51134279Y-108688781D01*
X51134280Y-108688788D01*
X51230545Y-109048056D01*
X51363836Y-109395289D01*
X51532693Y-109726689D01*
X51735261Y-110038616D01*
X51739021Y-110043259D01*
X51969331Y-110327669D01*
X52232331Y-110590669D01*
X52232335Y-110590672D01*
X52521383Y-110824738D01*
X52833310Y-111027306D01*
X52833315Y-111027309D01*
X53164714Y-111196165D01*
X53511948Y-111329456D01*
X53871213Y-111425720D01*
X54238572Y-111483904D01*
X54589456Y-111502293D01*
X54609999Y-111503370D01*
X54610000Y-111503370D01*
X54610001Y-111503370D01*
X54629467Y-111502349D01*
X54981428Y-111483904D01*
X55348787Y-111425720D01*
X55708052Y-111329456D01*
X56055286Y-111196165D01*
X56386685Y-111027309D01*
X56698618Y-110824737D01*
X56987669Y-110590669D01*
X57250669Y-110327669D01*
X57484737Y-110038618D01*
X57603980Y-109855000D01*
X109584540Y-109855000D01*
X109604326Y-110043256D01*
X109604327Y-110043259D01*
X109662818Y-110223277D01*
X109662821Y-110223284D01*
X109757467Y-110387216D01*
X109884129Y-110527888D01*
X110037265Y-110639148D01*
X110037270Y-110639151D01*
X110210192Y-110716142D01*
X110210197Y-110716144D01*
X110395354Y-110755500D01*
X110395355Y-110755500D01*
X110584644Y-110755500D01*
X110584646Y-110755500D01*
X110769803Y-110716144D01*
X110942730Y-110639151D01*
X111095871Y-110527888D01*
X111222533Y-110387216D01*
X111317179Y-110223284D01*
X111375674Y-110043256D01*
X111395460Y-109855000D01*
X111375674Y-109666744D01*
X111317179Y-109486716D01*
X111222533Y-109322784D01*
X111095871Y-109182112D01*
X111095870Y-109182111D01*
X110942734Y-109070851D01*
X110942729Y-109070848D01*
X110769807Y-108993857D01*
X110769802Y-108993855D01*
X110624001Y-108962865D01*
X110584646Y-108954500D01*
X110395354Y-108954500D01*
X110362897Y-108961398D01*
X110210197Y-108993855D01*
X110210192Y-108993857D01*
X110037270Y-109070848D01*
X110037265Y-109070851D01*
X109884129Y-109182111D01*
X109757466Y-109322785D01*
X109662821Y-109486715D01*
X109662818Y-109486722D01*
X109609604Y-109650499D01*
X109604326Y-109666744D01*
X109584540Y-109855000D01*
X57603980Y-109855000D01*
X57687309Y-109726685D01*
X57856165Y-109395286D01*
X57931946Y-109197870D01*
X85914500Y-109197870D01*
X85914501Y-109197876D01*
X85920908Y-109257483D01*
X85971202Y-109392328D01*
X85971206Y-109392335D01*
X86057452Y-109507544D01*
X86057455Y-109507547D01*
X86172664Y-109593793D01*
X86172671Y-109593797D01*
X86307517Y-109644091D01*
X86307516Y-109644091D01*
X86314444Y-109644835D01*
X86367127Y-109650500D01*
X88862872Y-109650499D01*
X88922483Y-109644091D01*
X89057331Y-109593796D01*
X89172546Y-109507546D01*
X89258796Y-109392331D01*
X89309091Y-109257483D01*
X89315500Y-109197873D01*
X89315499Y-108674854D01*
X89335183Y-108607818D01*
X89387987Y-108562063D01*
X89457146Y-108552119D01*
X89520702Y-108581144D01*
X89554927Y-108629553D01*
X89578607Y-108689888D01*
X89706041Y-108910612D01*
X89864950Y-109109877D01*
X90051783Y-109283232D01*
X90262366Y-109426805D01*
X90262371Y-109426807D01*
X90262372Y-109426808D01*
X90262373Y-109426809D01*
X90384328Y-109485538D01*
X90491992Y-109537387D01*
X90491993Y-109537387D01*
X90491996Y-109537389D01*
X90735542Y-109612513D01*
X90987565Y-109650500D01*
X91242435Y-109650500D01*
X91494458Y-109612513D01*
X91738004Y-109537389D01*
X91967634Y-109426805D01*
X92178217Y-109283232D01*
X92365050Y-109109877D01*
X92523959Y-108910612D01*
X92651393Y-108689888D01*
X92744508Y-108452637D01*
X92744510Y-108452624D01*
X92745878Y-108448196D01*
X92747008Y-108448544D01*
X92778464Y-108392295D01*
X92840121Y-108359430D01*
X92909759Y-108365117D01*
X92965268Y-108407551D01*
X92983868Y-108448269D01*
X92984600Y-108448044D01*
X92985973Y-108452494D01*
X93079058Y-108689671D01*
X93079057Y-108689671D01*
X93206454Y-108910327D01*
X93206461Y-108910338D01*
X93248452Y-108962991D01*
X93248453Y-108962992D01*
X94052226Y-108159219D01*
X94090901Y-108252588D01*
X94187075Y-108377925D01*
X94312412Y-108474099D01*
X94405779Y-108512772D01*
X93601813Y-109316738D01*
X93762616Y-109426371D01*
X93762624Y-109426376D01*
X93992176Y-109536921D01*
X93992174Y-109536921D01*
X94235652Y-109612024D01*
X94235658Y-109612026D01*
X94487595Y-109649999D01*
X94487604Y-109650000D01*
X94742396Y-109650000D01*
X94742404Y-109649999D01*
X94994341Y-109612026D01*
X94994347Y-109612024D01*
X95237824Y-109536921D01*
X95467376Y-109426376D01*
X95467377Y-109426375D01*
X95628185Y-109316738D01*
X94824220Y-108512772D01*
X94917588Y-108474099D01*
X95042925Y-108377925D01*
X95139099Y-108252589D01*
X95177773Y-108159220D01*
X95981544Y-108962992D01*
X95981546Y-108962991D01*
X96023544Y-108910330D01*
X96150941Y-108689671D01*
X96244026Y-108452494D01*
X96244031Y-108452477D01*
X96300726Y-108204079D01*
X96319767Y-107950004D01*
X96319767Y-107949995D01*
X96310727Y-107829366D01*
X101622387Y-107829366D01*
X101642173Y-108017622D01*
X101642174Y-108017625D01*
X101700665Y-108197643D01*
X101700668Y-108197650D01*
X101795314Y-108361582D01*
X101877172Y-108452494D01*
X101921976Y-108502254D01*
X102075112Y-108613514D01*
X102075117Y-108613517D01*
X102248039Y-108690508D01*
X102248044Y-108690510D01*
X102433201Y-108729866D01*
X102433202Y-108729866D01*
X102622491Y-108729866D01*
X102622493Y-108729866D01*
X102807650Y-108690510D01*
X102980577Y-108613517D01*
X103133718Y-108502254D01*
X103260380Y-108361582D01*
X103355026Y-108197650D01*
X103413521Y-108017622D01*
X103433307Y-107829366D01*
X103413521Y-107641110D01*
X103355026Y-107461082D01*
X103260380Y-107297150D01*
X103133718Y-107156478D01*
X103133717Y-107156477D01*
X102980581Y-107045217D01*
X102980576Y-107045214D01*
X102807654Y-106968223D01*
X102807649Y-106968221D01*
X102660789Y-106937006D01*
X102622493Y-106928866D01*
X102433201Y-106928866D01*
X102400744Y-106935764D01*
X102248044Y-106968221D01*
X102248039Y-106968223D01*
X102075117Y-107045214D01*
X102075112Y-107045217D01*
X101921976Y-107156477D01*
X101795313Y-107297151D01*
X101700668Y-107461081D01*
X101700665Y-107461088D01*
X101656685Y-107596446D01*
X101642173Y-107641110D01*
X101622387Y-107829366D01*
X96310727Y-107829366D01*
X96300726Y-107695920D01*
X96244031Y-107447522D01*
X96244026Y-107447505D01*
X96150941Y-107210328D01*
X96150942Y-107210328D01*
X96023545Y-106989672D01*
X95981545Y-106937006D01*
X95177772Y-107740779D01*
X95139099Y-107647412D01*
X95042925Y-107522075D01*
X94917588Y-107425901D01*
X94824219Y-107387226D01*
X95556532Y-106654913D01*
X108398124Y-106654913D01*
X108417910Y-106843169D01*
X108417911Y-106843172D01*
X108476402Y-107023190D01*
X108476405Y-107023197D01*
X108571051Y-107187129D01*
X108646071Y-107270447D01*
X108697713Y-107327801D01*
X108850849Y-107439061D01*
X108850854Y-107439064D01*
X109023776Y-107516055D01*
X109023781Y-107516057D01*
X109208938Y-107555413D01*
X109208939Y-107555413D01*
X109398228Y-107555413D01*
X109398230Y-107555413D01*
X109583387Y-107516057D01*
X109756314Y-107439064D01*
X109909455Y-107327801D01*
X110036117Y-107187129D01*
X110130763Y-107023197D01*
X110189258Y-106843169D01*
X110209044Y-106654913D01*
X110189258Y-106466657D01*
X110130763Y-106286629D01*
X110036117Y-106122697D01*
X109909455Y-105982025D01*
X109909454Y-105982024D01*
X109756318Y-105870764D01*
X109756313Y-105870761D01*
X109583391Y-105793770D01*
X109583386Y-105793768D01*
X109437585Y-105762778D01*
X109398230Y-105754413D01*
X109208938Y-105754413D01*
X109176481Y-105761311D01*
X109023781Y-105793768D01*
X109023776Y-105793770D01*
X108850854Y-105870761D01*
X108850849Y-105870764D01*
X108697713Y-105982024D01*
X108571050Y-106122698D01*
X108476405Y-106286628D01*
X108476402Y-106286635D01*
X108417911Y-106466653D01*
X108417910Y-106466657D01*
X108398124Y-106654913D01*
X95556532Y-106654913D01*
X95628185Y-106583260D01*
X95467384Y-106473628D01*
X95467376Y-106473623D01*
X95237823Y-106363078D01*
X95237825Y-106363078D01*
X94994347Y-106287975D01*
X94994341Y-106287973D01*
X94742404Y-106250000D01*
X94487595Y-106250000D01*
X94235658Y-106287973D01*
X94235652Y-106287975D01*
X93992175Y-106363078D01*
X93762622Y-106473625D01*
X93762609Y-106473632D01*
X93601813Y-106583259D01*
X94405780Y-107387226D01*
X94312412Y-107425901D01*
X94187075Y-107522075D01*
X94090901Y-107647411D01*
X94052226Y-107740780D01*
X93248452Y-106937006D01*
X93206457Y-106989667D01*
X93079058Y-107210328D01*
X92985973Y-107447505D01*
X92984600Y-107451956D01*
X92983432Y-107451595D01*
X92952026Y-107507726D01*
X92890360Y-107540575D01*
X92820724Y-107534871D01*
X92765226Y-107492423D01*
X92746581Y-107451587D01*
X92745878Y-107451804D01*
X92744509Y-107447371D01*
X92744508Y-107447363D01*
X92651393Y-107210112D01*
X92523959Y-106989388D01*
X92365050Y-106790123D01*
X92178217Y-106616768D01*
X91967634Y-106473195D01*
X91967630Y-106473193D01*
X91967627Y-106473191D01*
X91967626Y-106473190D01*
X91738006Y-106362612D01*
X91738008Y-106362612D01*
X91494466Y-106287489D01*
X91494462Y-106287488D01*
X91494458Y-106287487D01*
X91373231Y-106269214D01*
X91242440Y-106249500D01*
X91242435Y-106249500D01*
X90987565Y-106249500D01*
X90987559Y-106249500D01*
X90830609Y-106273157D01*
X90735542Y-106287487D01*
X90735539Y-106287488D01*
X90735533Y-106287489D01*
X90491992Y-106362612D01*
X90262373Y-106473190D01*
X90262372Y-106473191D01*
X90051782Y-106616768D01*
X89864952Y-106790121D01*
X89864950Y-106790123D01*
X89706041Y-106989388D01*
X89578608Y-107210109D01*
X89554927Y-107270447D01*
X89512110Y-107325661D01*
X89446240Y-107348961D01*
X89378230Y-107332950D01*
X89329672Y-107282711D01*
X89315499Y-107225144D01*
X89315499Y-106702129D01*
X89315498Y-106702123D01*
X89315497Y-106702116D01*
X89309091Y-106642517D01*
X89299487Y-106616768D01*
X89258797Y-106507671D01*
X89258793Y-106507664D01*
X89172547Y-106392455D01*
X89172544Y-106392452D01*
X89057335Y-106306206D01*
X89057328Y-106306202D01*
X88922482Y-106255908D01*
X88922483Y-106255908D01*
X88862883Y-106249501D01*
X88862881Y-106249500D01*
X88862873Y-106249500D01*
X88862864Y-106249500D01*
X86367129Y-106249500D01*
X86367123Y-106249501D01*
X86307516Y-106255908D01*
X86172671Y-106306202D01*
X86172664Y-106306206D01*
X86057455Y-106392452D01*
X86057452Y-106392455D01*
X85971206Y-106507664D01*
X85971202Y-106507671D01*
X85920908Y-106642517D01*
X85914501Y-106702116D01*
X85914501Y-106702123D01*
X85914500Y-106702135D01*
X85914500Y-109197870D01*
X57931946Y-109197870D01*
X57989456Y-109048052D01*
X58085720Y-108688787D01*
X58143904Y-108321428D01*
X58163370Y-107950000D01*
X58143904Y-107578572D01*
X58085720Y-107211213D01*
X57989456Y-106851948D01*
X57856165Y-106504714D01*
X57687309Y-106173315D01*
X57563083Y-105982024D01*
X57484738Y-105861383D01*
X57351243Y-105696530D01*
X57250669Y-105572331D01*
X56987669Y-105309331D01*
X56948362Y-105277501D01*
X75880136Y-105277501D01*
X75898748Y-105490241D01*
X75898750Y-105490252D01*
X75954019Y-105696522D01*
X75954021Y-105696526D01*
X75954022Y-105696530D01*
X75996469Y-105787558D01*
X76044275Y-105890078D01*
X76166770Y-106065021D01*
X76317776Y-106216027D01*
X76317779Y-106216029D01*
X76492717Y-106338521D01*
X76492719Y-106338522D01*
X76492718Y-106338522D01*
X76544378Y-106362611D01*
X76686268Y-106428776D01*
X76892551Y-106484049D01*
X77044513Y-106497344D01*
X77105296Y-106502662D01*
X77105298Y-106502662D01*
X77105300Y-106502662D01*
X77158484Y-106498008D01*
X77318045Y-106484049D01*
X77524328Y-106428776D01*
X77717879Y-106338521D01*
X77892817Y-106216029D01*
X78043827Y-106065019D01*
X78166319Y-105890081D01*
X78256574Y-105696530D01*
X78311847Y-105490247D01*
X78330460Y-105277500D01*
X78311847Y-105064753D01*
X78260385Y-104872693D01*
X78256576Y-104858477D01*
X78256575Y-104858476D01*
X78256574Y-104858470D01*
X78166319Y-104664919D01*
X78043827Y-104489981D01*
X78043825Y-104489978D01*
X77892819Y-104338972D01*
X77717876Y-104216477D01*
X77717877Y-104216477D01*
X77588845Y-104156309D01*
X77524328Y-104126224D01*
X77524321Y-104126222D01*
X77519234Y-104124370D01*
X77520007Y-104122246D01*
X77468603Y-104090924D01*
X77438064Y-104028081D01*
X77446348Y-103958704D01*
X77490826Y-103904820D01*
X77519613Y-103891672D01*
X77519234Y-103890630D01*
X77524311Y-103888780D01*
X77524328Y-103888776D01*
X77717879Y-103798521D01*
X77892817Y-103676029D01*
X78043827Y-103525019D01*
X78166319Y-103350081D01*
X78256574Y-103156530D01*
X78311847Y-102950247D01*
X78330460Y-102737500D01*
X78311847Y-102524753D01*
X78256574Y-102318470D01*
X78166319Y-102124919D01*
X78043827Y-101949981D01*
X78043825Y-101949978D01*
X77892819Y-101798972D01*
X77717876Y-101676477D01*
X77717877Y-101676477D01*
X77588845Y-101616309D01*
X77524328Y-101586224D01*
X77524321Y-101586222D01*
X77519234Y-101584370D01*
X77520007Y-101582246D01*
X77468603Y-101550924D01*
X77438064Y-101488081D01*
X77446348Y-101418704D01*
X77490826Y-101364820D01*
X77519613Y-101351672D01*
X77519234Y-101350630D01*
X77524311Y-101348780D01*
X77524328Y-101348776D01*
X77717879Y-101258521D01*
X77892817Y-101136029D01*
X78043827Y-100985019D01*
X78166319Y-100810081D01*
X78256574Y-100616530D01*
X78311847Y-100410247D01*
X78330460Y-100197500D01*
X78311847Y-99984753D01*
X78256574Y-99778470D01*
X78166319Y-99584919D01*
X78043827Y-99409981D01*
X78043825Y-99409978D01*
X77892819Y-99258972D01*
X77717876Y-99136477D01*
X77717877Y-99136477D01*
X77588845Y-99076309D01*
X77524328Y-99046224D01*
X77524324Y-99046223D01*
X77524320Y-99046221D01*
X77318050Y-98990952D01*
X77318046Y-98990951D01*
X77318045Y-98990951D01*
X77318044Y-98990950D01*
X77318039Y-98990950D01*
X77105300Y-98972338D01*
X77105296Y-98972338D01*
X76892556Y-98990950D01*
X76892545Y-98990952D01*
X76686275Y-99046221D01*
X76686266Y-99046225D01*
X76492719Y-99136477D01*
X76317776Y-99258972D01*
X76166770Y-99409978D01*
X76044275Y-99584921D01*
X75954023Y-99778468D01*
X75954019Y-99778477D01*
X75898750Y-99984747D01*
X75898748Y-99984758D01*
X75880136Y-100197498D01*
X75880136Y-100197501D01*
X75898748Y-100410241D01*
X75898750Y-100410252D01*
X75954019Y-100616522D01*
X75954021Y-100616526D01*
X75954022Y-100616530D01*
X75992037Y-100698053D01*
X76044275Y-100810078D01*
X76166770Y-100985021D01*
X76317776Y-101136027D01*
X76317779Y-101136029D01*
X76492717Y-101258521D01*
X76492719Y-101258522D01*
X76492718Y-101258522D01*
X76557234Y-101288606D01*
X76686268Y-101348776D01*
X76686281Y-101348779D01*
X76691362Y-101350630D01*
X76690590Y-101352750D01*
X76742008Y-101384094D01*
X76772535Y-101446942D01*
X76764237Y-101516317D01*
X76719750Y-101570193D01*
X76690983Y-101583330D01*
X76691362Y-101584370D01*
X76686270Y-101586223D01*
X76686268Y-101586224D01*
X76686266Y-101586225D01*
X76492719Y-101676477D01*
X76317776Y-101798972D01*
X76166770Y-101949978D01*
X76044275Y-102124921D01*
X75954023Y-102318468D01*
X75954019Y-102318477D01*
X75898750Y-102524747D01*
X75898748Y-102524758D01*
X75880136Y-102737498D01*
X75880136Y-102737501D01*
X75898748Y-102950241D01*
X75898750Y-102950252D01*
X75954019Y-103156522D01*
X75954021Y-103156526D01*
X75954022Y-103156530D01*
X75996469Y-103247558D01*
X76044275Y-103350078D01*
X76166770Y-103525021D01*
X76317776Y-103676027D01*
X76317779Y-103676029D01*
X76492717Y-103798521D01*
X76492719Y-103798522D01*
X76492718Y-103798522D01*
X76557234Y-103828606D01*
X76686268Y-103888776D01*
X76686281Y-103888779D01*
X76691362Y-103890630D01*
X76690590Y-103892750D01*
X76742008Y-103924094D01*
X76772535Y-103986942D01*
X76764237Y-104056317D01*
X76719750Y-104110193D01*
X76690983Y-104123330D01*
X76691362Y-104124370D01*
X76686270Y-104126223D01*
X76686268Y-104126224D01*
X76686266Y-104126225D01*
X76492719Y-104216477D01*
X76317776Y-104338972D01*
X76166770Y-104489978D01*
X76044275Y-104664921D01*
X75954023Y-104858468D01*
X75954019Y-104858477D01*
X75898750Y-105064747D01*
X75898748Y-105064758D01*
X75880136Y-105277498D01*
X75880136Y-105277501D01*
X56948362Y-105277501D01*
X56698618Y-105075263D01*
X56698616Y-105075261D01*
X56386689Y-104872693D01*
X56055289Y-104703836D01*
X55708056Y-104570545D01*
X55348788Y-104474280D01*
X55348781Y-104474279D01*
X54981429Y-104416096D01*
X54610001Y-104396630D01*
X54609999Y-104396630D01*
X54238570Y-104416096D01*
X53871218Y-104474279D01*
X53871211Y-104474280D01*
X53511943Y-104570545D01*
X53164710Y-104703836D01*
X52833310Y-104872693D01*
X52521383Y-105075261D01*
X52232335Y-105309327D01*
X52232327Y-105309334D01*
X51969334Y-105572327D01*
X51969327Y-105572335D01*
X51735261Y-105861383D01*
X51532693Y-106173310D01*
X51363836Y-106504710D01*
X51230545Y-106851943D01*
X51134280Y-107211211D01*
X51134279Y-107211218D01*
X51076096Y-107578570D01*
X51056630Y-107949999D01*
X51056630Y-107950000D01*
X50205780Y-107950000D01*
X50270210Y-100927059D01*
X71793263Y-100927059D01*
X71813049Y-101115315D01*
X71813050Y-101115318D01*
X71871541Y-101295336D01*
X71871544Y-101295343D01*
X71966190Y-101459275D01*
X72066061Y-101570193D01*
X72092852Y-101599947D01*
X72245988Y-101711207D01*
X72245993Y-101711210D01*
X72418915Y-101788201D01*
X72418920Y-101788203D01*
X72604077Y-101827559D01*
X72604078Y-101827559D01*
X72793367Y-101827559D01*
X72793369Y-101827559D01*
X72978526Y-101788203D01*
X73151453Y-101711210D01*
X73304594Y-101599947D01*
X73431256Y-101459275D01*
X73525902Y-101295343D01*
X73584397Y-101115315D01*
X73604183Y-100927059D01*
X73584397Y-100738803D01*
X73525902Y-100558775D01*
X73431256Y-100394843D01*
X73304594Y-100254171D01*
X73304593Y-100254170D01*
X73151457Y-100142910D01*
X73151452Y-100142907D01*
X72978530Y-100065916D01*
X72978525Y-100065914D01*
X72832724Y-100034924D01*
X72793369Y-100026559D01*
X72604077Y-100026559D01*
X72571620Y-100033457D01*
X72418920Y-100065914D01*
X72418915Y-100065916D01*
X72245993Y-100142907D01*
X72245988Y-100142910D01*
X72092852Y-100254170D01*
X71966189Y-100394844D01*
X71871544Y-100558774D01*
X71871541Y-100558781D01*
X71813050Y-100738799D01*
X71813049Y-100738803D01*
X71793263Y-100927059D01*
X50270210Y-100927059D01*
X50291335Y-98624465D01*
X92934790Y-98624465D01*
X92954576Y-98812721D01*
X92954577Y-98812724D01*
X93013068Y-98992742D01*
X93013071Y-98992749D01*
X93107717Y-99156681D01*
X93234379Y-99297353D01*
X93387515Y-99408613D01*
X93387520Y-99408616D01*
X93560442Y-99485607D01*
X93560447Y-99485609D01*
X93745604Y-99524965D01*
X93745605Y-99524965D01*
X93934894Y-99524965D01*
X93934896Y-99524965D01*
X94120053Y-99485609D01*
X94292980Y-99408616D01*
X94446121Y-99297353D01*
X94572783Y-99156681D01*
X94667429Y-98992749D01*
X94725924Y-98812721D01*
X94745710Y-98624465D01*
X94725924Y-98436209D01*
X94667429Y-98256181D01*
X94572783Y-98092249D01*
X94446121Y-97951577D01*
X94446120Y-97951576D01*
X94292984Y-97840316D01*
X94292979Y-97840313D01*
X94120057Y-97763322D01*
X94120052Y-97763320D01*
X93974251Y-97732330D01*
X93934896Y-97723965D01*
X93745604Y-97723965D01*
X93713147Y-97730863D01*
X93560447Y-97763320D01*
X93560442Y-97763322D01*
X93387520Y-97840313D01*
X93387515Y-97840316D01*
X93234379Y-97951576D01*
X93107716Y-98092250D01*
X93013071Y-98256180D01*
X93013068Y-98256187D01*
X92954577Y-98436205D01*
X92954576Y-98436209D01*
X92934790Y-98624465D01*
X50291335Y-98624465D01*
X50320437Y-95452343D01*
X80406684Y-95452343D01*
X80426470Y-95640599D01*
X80426471Y-95640602D01*
X80484962Y-95820620D01*
X80484965Y-95820627D01*
X80579611Y-95984559D01*
X80706273Y-96125231D01*
X80859409Y-96236491D01*
X80859414Y-96236494D01*
X81032336Y-96313485D01*
X81032341Y-96313487D01*
X81217498Y-96352843D01*
X81217499Y-96352843D01*
X81406788Y-96352843D01*
X81406790Y-96352843D01*
X81591947Y-96313487D01*
X81764874Y-96236494D01*
X81918015Y-96125231D01*
X82044677Y-95984559D01*
X82139323Y-95820627D01*
X82197818Y-95640599D01*
X82217604Y-95452343D01*
X82197818Y-95264087D01*
X82139323Y-95084059D01*
X82044677Y-94920127D01*
X81918015Y-94779455D01*
X81918014Y-94779454D01*
X81764878Y-94668194D01*
X81764873Y-94668191D01*
X81591951Y-94591200D01*
X81591946Y-94591198D01*
X81446145Y-94560208D01*
X81406790Y-94551843D01*
X81217498Y-94551843D01*
X81185041Y-94558741D01*
X81032341Y-94591198D01*
X81032336Y-94591200D01*
X80859414Y-94668191D01*
X80859409Y-94668194D01*
X80706273Y-94779454D01*
X80579610Y-94920128D01*
X80484965Y-95084058D01*
X80484962Y-95084065D01*
X80432606Y-95245202D01*
X80426470Y-95264087D01*
X80406684Y-95452343D01*
X50320437Y-95452343D01*
X50351780Y-92035926D01*
X80406684Y-92035926D01*
X80426470Y-92224182D01*
X80426471Y-92224185D01*
X80484962Y-92404203D01*
X80484965Y-92404210D01*
X80579611Y-92568142D01*
X80704115Y-92706417D01*
X80706273Y-92708814D01*
X80859409Y-92820074D01*
X80859414Y-92820077D01*
X81032336Y-92897068D01*
X81032341Y-92897070D01*
X81217498Y-92936426D01*
X81217499Y-92936426D01*
X81406788Y-92936426D01*
X81406790Y-92936426D01*
X81591947Y-92897070D01*
X81764874Y-92820077D01*
X81918015Y-92708814D01*
X82044677Y-92568142D01*
X82139323Y-92404210D01*
X82197818Y-92224182D01*
X82217604Y-92035926D01*
X82197818Y-91847670D01*
X82139323Y-91667642D01*
X82044677Y-91503710D01*
X81918015Y-91363038D01*
X81886276Y-91339978D01*
X81764878Y-91251777D01*
X81764873Y-91251774D01*
X81591951Y-91174783D01*
X81591946Y-91174781D01*
X81446145Y-91143791D01*
X81406790Y-91135426D01*
X81217498Y-91135426D01*
X81185041Y-91142324D01*
X81032341Y-91174781D01*
X81032336Y-91174783D01*
X80859414Y-91251774D01*
X80859409Y-91251777D01*
X80706273Y-91363037D01*
X80579610Y-91503711D01*
X80484965Y-91667641D01*
X80484962Y-91667648D01*
X80440431Y-91804702D01*
X80426470Y-91847670D01*
X80406684Y-92035926D01*
X50351780Y-92035926D01*
X50393132Y-87528555D01*
X66693798Y-87528555D01*
X66695724Y-87572649D01*
X66697610Y-87594187D01*
X66703369Y-87637913D01*
X66703373Y-87637932D01*
X66748275Y-87774608D01*
X66748277Y-87774614D01*
X66748278Y-87774615D01*
X66779310Y-87837215D01*
X66779311Y-87837217D01*
X66799693Y-87866817D01*
X66860910Y-87955721D01*
X66941657Y-88021309D01*
X66972591Y-88046435D01*
X67032541Y-88082320D01*
X67165255Y-88137895D01*
X67165260Y-88137896D01*
X67165262Y-88137897D01*
X69973337Y-88866222D01*
X70033287Y-88902107D01*
X70064319Y-88964707D01*
X70066205Y-88985935D01*
X70072137Y-91322419D01*
X70084425Y-91431925D01*
X70084427Y-91431938D01*
X70096202Y-91484354D01*
X70096204Y-91484363D01*
X70131919Y-91588577D01*
X70211026Y-91708758D01*
X70246295Y-91748572D01*
X70256113Y-91759655D01*
X70257081Y-91760782D01*
X70257358Y-91761061D01*
X70257359Y-91761062D01*
X70257361Y-91761064D01*
X70339683Y-91830832D01*
X70367125Y-91854089D01*
X70498645Y-91912418D01*
X70498647Y-91912419D01*
X70498649Y-91912419D01*
X70498650Y-91912420D01*
X70565902Y-91931369D01*
X70708533Y-91950284D01*
X71647495Y-91939994D01*
X71648385Y-91939989D01*
X71884046Y-91939250D01*
X71990644Y-91927540D01*
X72029454Y-91919036D01*
X72041742Y-91916345D01*
X72041744Y-91916344D01*
X72041750Y-91916343D01*
X72143492Y-91882403D01*
X72264542Y-91804633D01*
X72317353Y-91758885D01*
X72411589Y-91650162D01*
X72471378Y-91519292D01*
X72487947Y-91462891D01*
X72490462Y-91456502D01*
X72511568Y-91309849D01*
X72511568Y-91309848D01*
X72511569Y-91309842D01*
X72511903Y-88940268D01*
X72531597Y-88873232D01*
X72584407Y-88827484D01*
X72607263Y-88819639D01*
X75475642Y-88138973D01*
X75523081Y-88125236D01*
X75545962Y-88117380D01*
X75591802Y-88099094D01*
X75712841Y-88021306D01*
X75765645Y-87975551D01*
X75859865Y-87866817D01*
X75919636Y-87735940D01*
X75939321Y-87668901D01*
X75939322Y-87668897D01*
X75959798Y-87526481D01*
X75959798Y-86724702D01*
X93074540Y-86724702D01*
X93094326Y-86912958D01*
X93094327Y-86912961D01*
X93152818Y-87092979D01*
X93152821Y-87092986D01*
X93247467Y-87256918D01*
X93374129Y-87397590D01*
X93527265Y-87508850D01*
X93527270Y-87508853D01*
X93700192Y-87585844D01*
X93700197Y-87585846D01*
X93885354Y-87625202D01*
X93885355Y-87625202D01*
X94074644Y-87625202D01*
X94074646Y-87625202D01*
X94259803Y-87585846D01*
X94432730Y-87508853D01*
X94585871Y-87397590D01*
X94712533Y-87256918D01*
X94807179Y-87092986D01*
X94865674Y-86912958D01*
X94885460Y-86724702D01*
X94865674Y-86536446D01*
X94841237Y-86461240D01*
X94839243Y-86391400D01*
X94875323Y-86331567D01*
X94908733Y-86309644D01*
X94940516Y-86295493D01*
X95067730Y-86238853D01*
X95220871Y-86127590D01*
X95347533Y-85986918D01*
X95442179Y-85822986D01*
X95500674Y-85642958D01*
X95520460Y-85454702D01*
X95500674Y-85266446D01*
X95442179Y-85086418D01*
X95347533Y-84922486D01*
X95220871Y-84781814D01*
X95220870Y-84781813D01*
X95067734Y-84670553D01*
X95067729Y-84670550D01*
X94894807Y-84593559D01*
X94894802Y-84593557D01*
X94749001Y-84562567D01*
X94709646Y-84554202D01*
X94520354Y-84554202D01*
X94487897Y-84561100D01*
X94335197Y-84593557D01*
X94335192Y-84593559D01*
X94162270Y-84670550D01*
X94162265Y-84670553D01*
X94009129Y-84781813D01*
X93882466Y-84922487D01*
X93787821Y-85086417D01*
X93787818Y-85086424D01*
X93729327Y-85266442D01*
X93729326Y-85266446D01*
X93709540Y-85454702D01*
X93729326Y-85642958D01*
X93729327Y-85642961D01*
X93753761Y-85718162D01*
X93755756Y-85788003D01*
X93719675Y-85847836D01*
X93686267Y-85869759D01*
X93527267Y-85940552D01*
X93527265Y-85940553D01*
X93374129Y-86051813D01*
X93247466Y-86192487D01*
X93152821Y-86356417D01*
X93152818Y-86356424D01*
X93118761Y-86461242D01*
X93094326Y-86536446D01*
X93074540Y-86724702D01*
X75959798Y-86724702D01*
X75959798Y-84184702D01*
X95482040Y-84184702D01*
X95501826Y-84372958D01*
X95501827Y-84372961D01*
X95560318Y-84552979D01*
X95560321Y-84552986D01*
X95654967Y-84716918D01*
X95659293Y-84721722D01*
X95781629Y-84857590D01*
X95934765Y-84968850D01*
X95934770Y-84968853D01*
X96107692Y-85045844D01*
X96107697Y-85045846D01*
X96292854Y-85085202D01*
X96292855Y-85085202D01*
X96482144Y-85085202D01*
X96482146Y-85085202D01*
X96667303Y-85045846D01*
X96840230Y-84968853D01*
X96949617Y-84889378D01*
X97015420Y-84865900D01*
X97083474Y-84881725D01*
X97095371Y-84889370D01*
X97204766Y-84968850D01*
X97204770Y-84968853D01*
X97377692Y-85045844D01*
X97377697Y-85045846D01*
X97562854Y-85085202D01*
X97562855Y-85085202D01*
X97752144Y-85085202D01*
X97752146Y-85085202D01*
X97937303Y-85045846D01*
X98110230Y-84968853D01*
X98263371Y-84857590D01*
X98390033Y-84716918D01*
X98484679Y-84552986D01*
X98543174Y-84372958D01*
X98562960Y-84184702D01*
X98543174Y-83996446D01*
X98484679Y-83816418D01*
X98390033Y-83652486D01*
X98372193Y-83632673D01*
X98341964Y-83569683D01*
X98350589Y-83500348D01*
X98372194Y-83466730D01*
X98390033Y-83446918D01*
X98484679Y-83282986D01*
X98543174Y-83102958D01*
X98562960Y-82914702D01*
X98543174Y-82726446D01*
X98484679Y-82546418D01*
X98390033Y-82382486D01*
X98263371Y-82241814D01*
X98251932Y-82233503D01*
X98110234Y-82130553D01*
X98110229Y-82130550D01*
X97937307Y-82053559D01*
X97937302Y-82053557D01*
X97791501Y-82022567D01*
X97752146Y-82014202D01*
X97562854Y-82014202D01*
X97530397Y-82021100D01*
X97377697Y-82053557D01*
X97377692Y-82053559D01*
X97204770Y-82130550D01*
X97204765Y-82130553D01*
X97095385Y-82210023D01*
X97029579Y-82233503D01*
X96961525Y-82217677D01*
X96949615Y-82210023D01*
X96840234Y-82130553D01*
X96840229Y-82130550D01*
X96667307Y-82053559D01*
X96667302Y-82053557D01*
X96521501Y-82022567D01*
X96482146Y-82014202D01*
X96292854Y-82014202D01*
X96260397Y-82021100D01*
X96107697Y-82053557D01*
X96107692Y-82053559D01*
X95934770Y-82130550D01*
X95934765Y-82130553D01*
X95781629Y-82241813D01*
X95654966Y-82382487D01*
X95560321Y-82546417D01*
X95560318Y-82546424D01*
X95501827Y-82726442D01*
X95501826Y-82726446D01*
X95482040Y-82914702D01*
X95501826Y-83102958D01*
X95501827Y-83102961D01*
X95560318Y-83282979D01*
X95560321Y-83282986D01*
X95654967Y-83446918D01*
X95665306Y-83458401D01*
X95672807Y-83466732D01*
X95703035Y-83529724D01*
X95694409Y-83599059D01*
X95672807Y-83632672D01*
X95654966Y-83652487D01*
X95560321Y-83816417D01*
X95560318Y-83816424D01*
X95501827Y-83996442D01*
X95501826Y-83996446D01*
X95482040Y-84184702D01*
X75959798Y-84184702D01*
X75959798Y-81398500D01*
X75948245Y-81291044D01*
X75937039Y-81239533D01*
X75936935Y-81239222D01*
X75902914Y-81137002D01*
X75902911Y-81136996D01*
X75848953Y-81053037D01*
X75825123Y-81015957D01*
X75815050Y-81004332D01*
X75779374Y-80963159D01*
X75779370Y-80963156D01*
X75779368Y-80963153D01*
X75670634Y-80868933D01*
X75670631Y-80868931D01*
X75670629Y-80868930D01*
X75539763Y-80809164D01*
X75539758Y-80809162D01*
X75539757Y-80809162D01*
X75472718Y-80789477D01*
X75472720Y-80789477D01*
X75472715Y-80789476D01*
X75410645Y-80780552D01*
X75330298Y-80769000D01*
X67323298Y-80769000D01*
X67323289Y-80769000D01*
X67323288Y-80769001D01*
X67215847Y-80780552D01*
X67215835Y-80780554D01*
X67164325Y-80791760D01*
X67061800Y-80825883D01*
X67061794Y-80825886D01*
X66940760Y-80903671D01*
X66940749Y-80903679D01*
X66887957Y-80949423D01*
X66793731Y-81058164D01*
X66793728Y-81058168D01*
X66733962Y-81189034D01*
X66714274Y-81256082D01*
X66709247Y-81291049D01*
X66693800Y-81398490D01*
X66693798Y-81398501D01*
X66693798Y-87528555D01*
X50393132Y-87528555D01*
X50415504Y-85090000D01*
X58149540Y-85090000D01*
X58169326Y-85278256D01*
X58169327Y-85278259D01*
X58227818Y-85458277D01*
X58227821Y-85458284D01*
X58322467Y-85622216D01*
X58449129Y-85762888D01*
X58602265Y-85874148D01*
X58602270Y-85874151D01*
X58775192Y-85951142D01*
X58775197Y-85951144D01*
X58960354Y-85990500D01*
X58960355Y-85990500D01*
X59149644Y-85990500D01*
X59149646Y-85990500D01*
X59334803Y-85951144D01*
X59507730Y-85874151D01*
X59660871Y-85762888D01*
X59787533Y-85622216D01*
X59882179Y-85458284D01*
X59940674Y-85278256D01*
X59960460Y-85090000D01*
X59940674Y-84901744D01*
X59882179Y-84721716D01*
X59787533Y-84557784D01*
X59660871Y-84417112D01*
X59660870Y-84417111D01*
X59507734Y-84305851D01*
X59507729Y-84305848D01*
X59334807Y-84228857D01*
X59334802Y-84228855D01*
X59189001Y-84197865D01*
X59149646Y-84189500D01*
X58960354Y-84189500D01*
X58927897Y-84196398D01*
X58775197Y-84228855D01*
X58775192Y-84228857D01*
X58602270Y-84305848D01*
X58602265Y-84305851D01*
X58449129Y-84417111D01*
X58322466Y-84557785D01*
X58227821Y-84721715D01*
X58227818Y-84721722D01*
X58173343Y-84889380D01*
X58169326Y-84901744D01*
X58149540Y-85090000D01*
X50415504Y-85090000D01*
X50450458Y-81280000D01*
X58149540Y-81280000D01*
X58169326Y-81468256D01*
X58169327Y-81468259D01*
X58227818Y-81648277D01*
X58227821Y-81648284D01*
X58322467Y-81812216D01*
X58449129Y-81952888D01*
X58602265Y-82064148D01*
X58602270Y-82064151D01*
X58775192Y-82141142D01*
X58775197Y-82141144D01*
X58960354Y-82180500D01*
X58960355Y-82180500D01*
X59149644Y-82180500D01*
X59149646Y-82180500D01*
X59334803Y-82141144D01*
X59507730Y-82064151D01*
X59660871Y-81952888D01*
X59787533Y-81812216D01*
X59882179Y-81648284D01*
X59940674Y-81468256D01*
X59960460Y-81280000D01*
X59940674Y-81091744D01*
X59882179Y-80911716D01*
X59787533Y-80747784D01*
X59660871Y-80607112D01*
X59660870Y-80607111D01*
X59507734Y-80495851D01*
X59507729Y-80495848D01*
X59334807Y-80418857D01*
X59334802Y-80418855D01*
X59189001Y-80387865D01*
X59149646Y-80379500D01*
X58960354Y-80379500D01*
X58927897Y-80386398D01*
X58775197Y-80418855D01*
X58775192Y-80418857D01*
X58602270Y-80495848D01*
X58602265Y-80495851D01*
X58449129Y-80607111D01*
X58322466Y-80747785D01*
X58227821Y-80911715D01*
X58227818Y-80911722D01*
X58178123Y-81064669D01*
X58169326Y-81091744D01*
X58149540Y-81280000D01*
X50450458Y-81280000D01*
X50473761Y-78740000D01*
X66404540Y-78740000D01*
X66424326Y-78928256D01*
X66424327Y-78928259D01*
X66482818Y-79108277D01*
X66482821Y-79108284D01*
X66577467Y-79272216D01*
X66704129Y-79412888D01*
X66857265Y-79524148D01*
X66857270Y-79524151D01*
X67030192Y-79601142D01*
X67030197Y-79601144D01*
X67215354Y-79640500D01*
X67215355Y-79640500D01*
X67404644Y-79640500D01*
X67404646Y-79640500D01*
X67589803Y-79601144D01*
X67762730Y-79524151D01*
X67915871Y-79412888D01*
X67949986Y-79375000D01*
X68944540Y-79375000D01*
X68964326Y-79563256D01*
X68964327Y-79563259D01*
X69022818Y-79743277D01*
X69022821Y-79743284D01*
X69117467Y-79907216D01*
X69244129Y-80047888D01*
X69397265Y-80159148D01*
X69397270Y-80159151D01*
X69570192Y-80236142D01*
X69570197Y-80236144D01*
X69755354Y-80275500D01*
X69755355Y-80275500D01*
X69944644Y-80275500D01*
X69944646Y-80275500D01*
X70129803Y-80236144D01*
X70302730Y-80159151D01*
X70455871Y-80047888D01*
X70582533Y-79907216D01*
X70677179Y-79743284D01*
X70735674Y-79563256D01*
X70755460Y-79375000D01*
X71484540Y-79375000D01*
X71504326Y-79563256D01*
X71504327Y-79563259D01*
X71562818Y-79743277D01*
X71562821Y-79743284D01*
X71657467Y-79907216D01*
X71784129Y-80047888D01*
X71937265Y-80159148D01*
X71937270Y-80159151D01*
X72110192Y-80236142D01*
X72110197Y-80236144D01*
X72295354Y-80275500D01*
X72295355Y-80275500D01*
X72484644Y-80275500D01*
X72484646Y-80275500D01*
X72669803Y-80236144D01*
X72842730Y-80159151D01*
X72995871Y-80047888D01*
X73122533Y-79907216D01*
X73217179Y-79743284D01*
X73224569Y-79720541D01*
X73264006Y-79662865D01*
X73328364Y-79635666D01*
X73397210Y-79647580D01*
X73448687Y-79694824D01*
X73460431Y-79720541D01*
X73467817Y-79743275D01*
X73467821Y-79743284D01*
X73562467Y-79907216D01*
X73689129Y-80047888D01*
X73842265Y-80159148D01*
X73842270Y-80159151D01*
X74015192Y-80236142D01*
X74015197Y-80236144D01*
X74200354Y-80275500D01*
X74200355Y-80275500D01*
X74389644Y-80275500D01*
X74389646Y-80275500D01*
X74574803Y-80236144D01*
X74747730Y-80159151D01*
X74777604Y-80137446D01*
X88894784Y-80137446D01*
X88914570Y-80325702D01*
X88914571Y-80325705D01*
X88973062Y-80505723D01*
X88973065Y-80505730D01*
X89067711Y-80669662D01*
X89167557Y-80780552D01*
X89194373Y-80810334D01*
X89347509Y-80921594D01*
X89347514Y-80921597D01*
X89520436Y-80998588D01*
X89520441Y-80998590D01*
X89705598Y-81037946D01*
X89705599Y-81037946D01*
X89894888Y-81037946D01*
X89894890Y-81037946D01*
X90080047Y-80998590D01*
X90252974Y-80921597D01*
X90406115Y-80810334D01*
X90532777Y-80669662D01*
X90627423Y-80505730D01*
X90638344Y-80472118D01*
X93785372Y-80472118D01*
X93805158Y-80660374D01*
X93805159Y-80660377D01*
X93863650Y-80840395D01*
X93863653Y-80840402D01*
X93958299Y-81004334D01*
X94012625Y-81064669D01*
X94084961Y-81145006D01*
X94238097Y-81256266D01*
X94238102Y-81256269D01*
X94411024Y-81333260D01*
X94411029Y-81333262D01*
X94596186Y-81372618D01*
X94596187Y-81372618D01*
X94785476Y-81372618D01*
X94785478Y-81372618D01*
X94970635Y-81333262D01*
X95143562Y-81256269D01*
X95296703Y-81145006D01*
X95423365Y-81004334D01*
X95518011Y-80840402D01*
X95576506Y-80660374D01*
X95596292Y-80472118D01*
X95576506Y-80283862D01*
X95518011Y-80103834D01*
X95423365Y-79939902D01*
X95296703Y-79799230D01*
X95296702Y-79799229D01*
X95143566Y-79687969D01*
X95143561Y-79687966D01*
X94970639Y-79610975D01*
X94970634Y-79610973D01*
X94824833Y-79579983D01*
X94785478Y-79571618D01*
X94596186Y-79571618D01*
X94563729Y-79578516D01*
X94411029Y-79610973D01*
X94411024Y-79610975D01*
X94238102Y-79687966D01*
X94238097Y-79687969D01*
X94084961Y-79799229D01*
X93958298Y-79939903D01*
X93863653Y-80103833D01*
X93863650Y-80103840D01*
X93807875Y-80275500D01*
X93805158Y-80283862D01*
X93785372Y-80472118D01*
X90638344Y-80472118D01*
X90685918Y-80325702D01*
X90705704Y-80137446D01*
X90685918Y-79949190D01*
X90627423Y-79769162D01*
X90532777Y-79605230D01*
X90406115Y-79464558D01*
X90406114Y-79464557D01*
X90252978Y-79353297D01*
X90252973Y-79353294D01*
X90080051Y-79276303D01*
X90080046Y-79276301D01*
X89934245Y-79245311D01*
X89894890Y-79236946D01*
X89705598Y-79236946D01*
X89673141Y-79243844D01*
X89520441Y-79276301D01*
X89520436Y-79276303D01*
X89347514Y-79353294D01*
X89347509Y-79353297D01*
X89194373Y-79464557D01*
X89067710Y-79605231D01*
X88973065Y-79769161D01*
X88973062Y-79769168D01*
X88914571Y-79949186D01*
X88914570Y-79949190D01*
X88894784Y-80137446D01*
X74777604Y-80137446D01*
X74900871Y-80047888D01*
X75027533Y-79907216D01*
X75122179Y-79743284D01*
X75180674Y-79563256D01*
X75200460Y-79375000D01*
X75180674Y-79186744D01*
X75156237Y-79111538D01*
X75154243Y-79041698D01*
X75190323Y-78981865D01*
X75223733Y-78959942D01*
X75294893Y-78928259D01*
X75382730Y-78889151D01*
X75535871Y-78777888D01*
X75662533Y-78637216D01*
X75757179Y-78473284D01*
X75815674Y-78293256D01*
X75817475Y-78276118D01*
X83610624Y-78276118D01*
X83630410Y-78464374D01*
X83630411Y-78464377D01*
X83688902Y-78644395D01*
X83688905Y-78644402D01*
X83783551Y-78808334D01*
X83888181Y-78924537D01*
X83910213Y-78949006D01*
X84063349Y-79060266D01*
X84063354Y-79060269D01*
X84236276Y-79137260D01*
X84236281Y-79137262D01*
X84421438Y-79176618D01*
X84421439Y-79176618D01*
X84610728Y-79176618D01*
X84610730Y-79176618D01*
X84795887Y-79137262D01*
X84968814Y-79060269D01*
X85121955Y-78949006D01*
X85248617Y-78808334D01*
X85343263Y-78644402D01*
X85401758Y-78464374D01*
X85421544Y-78276118D01*
X85401758Y-78087862D01*
X85343263Y-77907834D01*
X85248617Y-77743902D01*
X85121955Y-77603230D01*
X85121954Y-77603229D01*
X84968818Y-77491969D01*
X84968813Y-77491966D01*
X84866683Y-77446494D01*
X94847040Y-77446494D01*
X94866826Y-77634750D01*
X94866827Y-77634753D01*
X94925318Y-77814771D01*
X94925321Y-77814778D01*
X95019967Y-77978710D01*
X95113412Y-78082491D01*
X95146629Y-78119382D01*
X95299765Y-78230642D01*
X95299770Y-78230645D01*
X95472692Y-78307636D01*
X95472697Y-78307638D01*
X95657854Y-78346994D01*
X95657855Y-78346994D01*
X95847144Y-78346994D01*
X95847146Y-78346994D01*
X96032303Y-78307638D01*
X96205230Y-78230645D01*
X96358371Y-78119382D01*
X96361288Y-78116141D01*
X96364100Y-78113020D01*
X96423587Y-78076373D01*
X96456248Y-78071994D01*
X98180798Y-78071994D01*
X98200196Y-78073521D01*
X98265488Y-78083862D01*
X98373263Y-78073674D01*
X98385219Y-78072544D01*
X98396888Y-78071994D01*
X99067000Y-78071994D01*
X99134039Y-78091679D01*
X99179794Y-78144483D01*
X99191000Y-78195994D01*
X99191000Y-80926957D01*
X99189275Y-80942574D01*
X99189561Y-80942601D01*
X99188826Y-80950367D01*
X99190939Y-81017574D01*
X99191000Y-81021469D01*
X99191000Y-81049059D01*
X99191503Y-81053037D01*
X99192418Y-81064669D01*
X99193790Y-81108326D01*
X99193791Y-81108329D01*
X99199380Y-81127569D01*
X99203324Y-81146613D01*
X99205836Y-81166494D01*
X99221914Y-81207105D01*
X99225697Y-81218154D01*
X99237881Y-81260090D01*
X99248080Y-81277336D01*
X99256638Y-81294805D01*
X99264014Y-81313434D01*
X99289681Y-81348762D01*
X99296093Y-81358523D01*
X99318328Y-81396119D01*
X99318333Y-81396126D01*
X99332490Y-81410282D01*
X99345128Y-81425078D01*
X99356905Y-81441288D01*
X99356906Y-81441289D01*
X99390557Y-81469127D01*
X99399198Y-81476990D01*
X100678681Y-82756473D01*
X100712166Y-82817796D01*
X100715000Y-82844154D01*
X100715000Y-92971294D01*
X100695315Y-93038333D01*
X100642511Y-93084088D01*
X100573353Y-93094032D01*
X100518116Y-93071613D01*
X100486399Y-93048570D01*
X100486395Y-93048567D01*
X100313473Y-92971576D01*
X100313468Y-92971574D01*
X100167667Y-92940584D01*
X100128312Y-92932219D01*
X99939020Y-92932219D01*
X99906563Y-92939117D01*
X99753863Y-92971574D01*
X99753858Y-92971576D01*
X99580936Y-93048567D01*
X99580931Y-93048570D01*
X99427795Y-93159830D01*
X99301132Y-93300504D01*
X99206487Y-93464434D01*
X99206484Y-93464441D01*
X99147993Y-93644459D01*
X99147992Y-93644463D01*
X99128206Y-93832719D01*
X99147992Y-94020975D01*
X99147993Y-94020978D01*
X99206484Y-94200996D01*
X99206487Y-94201003D01*
X99301133Y-94364935D01*
X99352332Y-94421797D01*
X99427795Y-94505607D01*
X99580931Y-94616867D01*
X99580936Y-94616870D01*
X99753858Y-94693861D01*
X99753863Y-94693863D01*
X99939020Y-94733219D01*
X99939021Y-94733219D01*
X100128310Y-94733219D01*
X100128312Y-94733219D01*
X100313469Y-94693863D01*
X100486396Y-94616870D01*
X100518115Y-94593824D01*
X100583920Y-94570345D01*
X100651974Y-94586170D01*
X100700669Y-94636276D01*
X100715000Y-94694143D01*
X100715000Y-100631014D01*
X100695315Y-100698053D01*
X100683150Y-100713986D01*
X100607966Y-100797486D01*
X100513321Y-100961417D01*
X100513318Y-100961424D01*
X100456586Y-101136029D01*
X100454826Y-101141446D01*
X100435040Y-101329702D01*
X100454826Y-101517958D01*
X100454827Y-101517961D01*
X100513318Y-101697979D01*
X100513321Y-101697986D01*
X100607967Y-101861918D01*
X100687257Y-101949978D01*
X100734629Y-102002590D01*
X100887765Y-102113850D01*
X100887770Y-102113853D01*
X101060692Y-102190844D01*
X101060697Y-102190846D01*
X101245854Y-102230202D01*
X101245855Y-102230202D01*
X101435144Y-102230202D01*
X101435146Y-102230202D01*
X101620303Y-102190846D01*
X101793230Y-102113853D01*
X101946371Y-102002590D01*
X102073033Y-101861918D01*
X102167679Y-101697986D01*
X102226174Y-101517958D01*
X102245960Y-101329702D01*
X102226174Y-101141446D01*
X102167679Y-100961418D01*
X102073033Y-100797486D01*
X102020195Y-100738803D01*
X101997850Y-100713986D01*
X101967620Y-100650994D01*
X101966000Y-100631014D01*
X101966000Y-95140616D01*
X101985685Y-95073577D01*
X102038489Y-95027822D01*
X102107647Y-95017878D01*
X102162881Y-95040296D01*
X102284766Y-95128850D01*
X102284770Y-95128853D01*
X102457692Y-95205844D01*
X102457697Y-95205846D01*
X102642854Y-95245202D01*
X102642855Y-95245202D01*
X102832144Y-95245202D01*
X102832146Y-95245202D01*
X103017303Y-95205846D01*
X103190230Y-95128853D01*
X103343371Y-95017590D01*
X103470033Y-94876918D01*
X103564679Y-94712986D01*
X103623174Y-94532958D01*
X103642960Y-94344702D01*
X103623174Y-94156446D01*
X103564679Y-93976418D01*
X103470033Y-93812486D01*
X103452193Y-93792673D01*
X103421964Y-93729683D01*
X103430589Y-93660348D01*
X103452194Y-93626730D01*
X103470033Y-93606918D01*
X103564679Y-93442986D01*
X103623174Y-93262958D01*
X103642960Y-93074702D01*
X103623174Y-92886446D01*
X103564679Y-92706418D01*
X103470033Y-92542486D01*
X103452193Y-92522673D01*
X103421964Y-92459683D01*
X103430589Y-92390348D01*
X103452194Y-92356730D01*
X103470033Y-92336918D01*
X103564679Y-92172986D01*
X103623174Y-91992958D01*
X103642960Y-91804702D01*
X103623174Y-91616446D01*
X103564679Y-91436418D01*
X103470033Y-91272486D01*
X103452193Y-91252673D01*
X103421964Y-91189683D01*
X103430589Y-91120348D01*
X103452194Y-91086730D01*
X103470033Y-91066918D01*
X103564679Y-90902986D01*
X103623174Y-90722958D01*
X103642960Y-90534702D01*
X103623174Y-90346446D01*
X103564679Y-90166418D01*
X103470033Y-90002486D01*
X103343371Y-89861814D01*
X103343370Y-89861813D01*
X103190234Y-89750553D01*
X103190229Y-89750550D01*
X103017307Y-89673559D01*
X103017302Y-89673557D01*
X102871501Y-89642567D01*
X102832146Y-89634202D01*
X102642854Y-89634202D01*
X102610397Y-89641100D01*
X102457697Y-89673557D01*
X102457692Y-89673559D01*
X102284770Y-89750550D01*
X102284765Y-89750553D01*
X102162885Y-89839105D01*
X102097079Y-89862585D01*
X102029025Y-89846759D01*
X101980330Y-89796654D01*
X101966000Y-89738787D01*
X101966000Y-82616439D01*
X101967724Y-82600825D01*
X101967438Y-82600798D01*
X101968172Y-82593035D01*
X101966061Y-82525845D01*
X101966000Y-82521951D01*
X101966000Y-82494353D01*
X101966000Y-82494352D01*
X101965497Y-82490372D01*
X101964580Y-82478723D01*
X101963209Y-82435076D01*
X101963209Y-82435074D01*
X101957620Y-82415839D01*
X101953674Y-82396786D01*
X101951164Y-82376910D01*
X101935078Y-82336283D01*
X101931303Y-82325256D01*
X101919117Y-82283312D01*
X101908921Y-82266071D01*
X101900360Y-82248595D01*
X101897675Y-82241813D01*
X101892986Y-82229970D01*
X101867309Y-82194628D01*
X101860912Y-82184892D01*
X101838670Y-82147281D01*
X101838667Y-82147278D01*
X101838665Y-82147275D01*
X101824505Y-82133115D01*
X101811870Y-82118322D01*
X101800093Y-82102114D01*
X101766445Y-82074278D01*
X101757804Y-82066415D01*
X100478319Y-80786930D01*
X100444834Y-80725607D01*
X100442000Y-80699249D01*
X100442000Y-79584777D01*
X127799785Y-79584777D01*
X127818602Y-79787859D01*
X127874417Y-79984024D01*
X127874422Y-79984037D01*
X127965327Y-80166598D01*
X128088237Y-80329358D01*
X128238958Y-80466757D01*
X128238960Y-80466759D01*
X128285946Y-80495851D01*
X128412363Y-80574125D01*
X128602544Y-80647801D01*
X128803024Y-80685277D01*
X128803026Y-80685277D01*
X129006974Y-80685277D01*
X129006976Y-80685277D01*
X129207456Y-80647801D01*
X129397637Y-80574125D01*
X129571041Y-80466758D01*
X129719860Y-80331091D01*
X129782662Y-80300476D01*
X129852049Y-80308673D01*
X129886934Y-80331093D01*
X130035311Y-80466355D01*
X130208635Y-80573674D01*
X130398729Y-80647316D01*
X130451051Y-80657097D01*
X130451051Y-79833715D01*
X130532166Y-79896849D01*
X130642646Y-79934777D01*
X130730056Y-79934777D01*
X130816267Y-79920391D01*
X130918998Y-79864796D01*
X130946632Y-79834777D01*
X130951051Y-79834777D01*
X130951051Y-80657097D01*
X131003372Y-80647316D01*
X131193466Y-80573674D01*
X131366790Y-80466355D01*
X131517442Y-80329019D01*
X131640296Y-80166333D01*
X131731160Y-79983855D01*
X131731165Y-79983842D01*
X131773579Y-79834777D01*
X130951051Y-79834777D01*
X130946632Y-79834777D01*
X130998111Y-79778856D01*
X131045033Y-79671885D01*
X131054679Y-79555475D01*
X131026004Y-79442239D01*
X130962115Y-79344450D01*
X130949687Y-79334777D01*
X131773579Y-79334777D01*
X131773579Y-79334776D01*
X131731165Y-79185711D01*
X131731160Y-79185698D01*
X131640296Y-79003220D01*
X131517442Y-78840534D01*
X131450275Y-78779304D01*
X131413993Y-78719593D01*
X131415754Y-78649746D01*
X131446130Y-78599988D01*
X131657713Y-78388406D01*
X131757996Y-78266950D01*
X131858720Y-78082487D01*
X131922714Y-77882297D01*
X131947664Y-77673614D01*
X131932672Y-77463978D01*
X131878276Y-77260970D01*
X131876947Y-77258234D01*
X131786445Y-77071927D01*
X131786443Y-77071924D01*
X131660493Y-76903675D01*
X131504977Y-76762301D01*
X131504975Y-76762300D01*
X131504976Y-76762300D01*
X131325520Y-76652916D01*
X131325512Y-76652913D01*
X131128599Y-76579468D01*
X131128590Y-76579466D01*
X130921347Y-76544617D01*
X130921339Y-76544616D01*
X130921338Y-76544616D01*
X130863455Y-76545994D01*
X130711226Y-76549618D01*
X130711218Y-76549619D01*
X130505869Y-76594289D01*
X130505858Y-76594292D01*
X130312662Y-76677024D01*
X130138613Y-76794822D01*
X130138610Y-76794825D01*
X129893119Y-77040315D01*
X129831796Y-77073799D01*
X129762104Y-77068815D01*
X129721900Y-77044270D01*
X129571041Y-76906745D01*
X129571039Y-76906743D01*
X129397642Y-76799381D01*
X129397635Y-76799377D01*
X129301927Y-76762300D01*
X129207456Y-76725702D01*
X129006976Y-76688226D01*
X128803024Y-76688226D01*
X128602544Y-76725702D01*
X128602541Y-76725702D01*
X128602541Y-76725703D01*
X128412364Y-76799377D01*
X128412357Y-76799381D01*
X128238960Y-76906743D01*
X128238958Y-76906745D01*
X128088237Y-77044144D01*
X127965327Y-77206904D01*
X127874422Y-77389465D01*
X127874417Y-77389478D01*
X127818602Y-77585643D01*
X127799785Y-77788725D01*
X127799785Y-77788726D01*
X127818602Y-77991808D01*
X127874417Y-78187973D01*
X127874422Y-78187986D01*
X127965327Y-78370547D01*
X128088237Y-78533307D01*
X128156037Y-78595114D01*
X128192319Y-78654825D01*
X128190558Y-78724672D01*
X128156038Y-78778388D01*
X128088235Y-78840198D01*
X127965327Y-79002955D01*
X127874422Y-79185516D01*
X127874417Y-79185529D01*
X127818602Y-79381694D01*
X127799785Y-79584776D01*
X127799785Y-79584777D01*
X100442000Y-79584777D01*
X100442000Y-78203202D01*
X100461685Y-78136163D01*
X100514489Y-78090408D01*
X100566000Y-78079202D01*
X102153544Y-78079202D01*
X102220583Y-78098887D01*
X102245692Y-78120228D01*
X102251418Y-78126587D01*
X102251422Y-78126591D01*
X102404557Y-78237850D01*
X102404562Y-78237853D01*
X102577484Y-78314844D01*
X102577489Y-78314846D01*
X102762646Y-78354202D01*
X102762647Y-78354202D01*
X102951936Y-78354202D01*
X102951938Y-78354202D01*
X103137095Y-78314846D01*
X103310022Y-78237853D01*
X103463163Y-78126590D01*
X103589825Y-77985918D01*
X103684471Y-77821986D01*
X103742966Y-77641958D01*
X103762752Y-77453702D01*
X103742966Y-77265446D01*
X103684471Y-77085418D01*
X103589825Y-76921486D01*
X103463163Y-76780814D01*
X103463162Y-76780813D01*
X103310026Y-76669553D01*
X103310021Y-76669550D01*
X103137099Y-76592559D01*
X103137094Y-76592557D01*
X102991293Y-76561567D01*
X102951938Y-76553202D01*
X102762646Y-76553202D01*
X102730189Y-76560100D01*
X102577489Y-76592557D01*
X102577484Y-76592559D01*
X102404562Y-76669550D01*
X102404557Y-76669553D01*
X102251422Y-76780812D01*
X102251418Y-76780816D01*
X102245692Y-76787176D01*
X102186205Y-76823823D01*
X102153544Y-76828202D01*
X99932048Y-76828202D01*
X99901216Y-76824307D01*
X99888311Y-76820994D01*
X99888309Y-76820994D01*
X99868276Y-76820994D01*
X99848878Y-76819467D01*
X99841454Y-76818291D01*
X99829097Y-76816334D01*
X99829096Y-76816334D01*
X99785617Y-76820444D01*
X99773948Y-76820994D01*
X98337068Y-76820994D01*
X98317670Y-76819467D01*
X98310246Y-76818291D01*
X98297889Y-76816334D01*
X98297888Y-76816334D01*
X98254409Y-76820444D01*
X98242740Y-76820994D01*
X96456248Y-76820994D01*
X96389209Y-76801309D01*
X96364100Y-76779968D01*
X96358373Y-76773608D01*
X96358369Y-76773604D01*
X96205234Y-76662345D01*
X96205229Y-76662342D01*
X96032307Y-76585351D01*
X96032302Y-76585349D01*
X95864200Y-76549619D01*
X95847146Y-76545994D01*
X95657854Y-76545994D01*
X95640800Y-76549619D01*
X95472697Y-76585349D01*
X95472692Y-76585351D01*
X95299770Y-76662342D01*
X95299765Y-76662345D01*
X95146629Y-76773605D01*
X95019966Y-76914279D01*
X94925321Y-77078209D01*
X94925318Y-77078216D01*
X94866827Y-77258234D01*
X94866826Y-77258238D01*
X94847040Y-77446494D01*
X84866683Y-77446494D01*
X84795891Y-77414975D01*
X84795886Y-77414973D01*
X84650085Y-77383983D01*
X84610730Y-77375618D01*
X84421438Y-77375618D01*
X84388981Y-77382516D01*
X84236281Y-77414973D01*
X84236276Y-77414975D01*
X84063354Y-77491966D01*
X84063349Y-77491969D01*
X83910213Y-77603229D01*
X83783550Y-77743903D01*
X83688905Y-77907833D01*
X83688902Y-77907840D01*
X83630411Y-78087858D01*
X83630410Y-78087862D01*
X83610624Y-78276118D01*
X75817475Y-78276118D01*
X75835460Y-78105000D01*
X75815674Y-77916744D01*
X75757179Y-77736716D01*
X75662533Y-77572784D01*
X75535871Y-77432112D01*
X75512284Y-77414975D01*
X75382734Y-77320851D01*
X75382729Y-77320848D01*
X75209807Y-77243857D01*
X75209802Y-77243855D01*
X75064001Y-77212865D01*
X75024646Y-77204500D01*
X74835354Y-77204500D01*
X74727990Y-77227320D01*
X74650121Y-77243872D01*
X74580453Y-77238556D01*
X74524720Y-77196419D01*
X74506409Y-77160899D01*
X74487182Y-77101724D01*
X74487180Y-77101720D01*
X74487179Y-77101716D01*
X74392533Y-76937784D01*
X74265871Y-76797112D01*
X74265870Y-76797111D01*
X74112734Y-76685851D01*
X74112729Y-76685848D01*
X73939807Y-76608857D01*
X73939802Y-76608855D01*
X73794001Y-76577865D01*
X73754646Y-76569500D01*
X73565354Y-76569500D01*
X73532897Y-76576398D01*
X73380197Y-76608855D01*
X73380192Y-76608857D01*
X73207270Y-76685848D01*
X73207265Y-76685851D01*
X73054129Y-76797111D01*
X72927466Y-76937785D01*
X72832821Y-77101715D01*
X72832818Y-77101722D01*
X72774327Y-77281740D01*
X72774326Y-77281744D01*
X72754540Y-77470000D01*
X72774326Y-77658256D01*
X72774327Y-77658259D01*
X72832818Y-77838277D01*
X72832821Y-77838284D01*
X72927467Y-78002216D01*
X73039454Y-78126590D01*
X73054129Y-78142888D01*
X73207265Y-78254148D01*
X73207270Y-78254151D01*
X73380192Y-78331142D01*
X73380197Y-78331144D01*
X73565354Y-78370500D01*
X73565355Y-78370500D01*
X73761145Y-78370500D01*
X73761145Y-78372620D01*
X73820131Y-78383392D01*
X73871167Y-78431111D01*
X73888302Y-78498847D01*
X73866097Y-78565094D01*
X73837277Y-78594476D01*
X73689127Y-78702113D01*
X73562466Y-78842785D01*
X73467821Y-79006715D01*
X73467818Y-79006722D01*
X73460431Y-79029459D01*
X73420993Y-79087135D01*
X73356635Y-79114333D01*
X73287789Y-79102418D01*
X73236313Y-79055174D01*
X73224569Y-79029459D01*
X73217181Y-79006722D01*
X73217180Y-79006721D01*
X73217179Y-79006716D01*
X73122533Y-78842784D01*
X72995871Y-78702112D01*
X72995870Y-78702111D01*
X72842734Y-78590851D01*
X72842729Y-78590848D01*
X72669807Y-78513857D01*
X72669802Y-78513855D01*
X72524001Y-78482865D01*
X72484646Y-78474500D01*
X72295354Y-78474500D01*
X72262897Y-78481398D01*
X72110197Y-78513855D01*
X72110192Y-78513857D01*
X71937270Y-78590848D01*
X71937265Y-78590851D01*
X71784129Y-78702111D01*
X71657466Y-78842785D01*
X71562821Y-79006715D01*
X71562818Y-79006722D01*
X71504327Y-79186740D01*
X71504326Y-79186744D01*
X71484540Y-79375000D01*
X70755460Y-79375000D01*
X70735674Y-79186744D01*
X70677179Y-79006716D01*
X70582533Y-78842784D01*
X70455871Y-78702112D01*
X70455870Y-78702111D01*
X70302734Y-78590851D01*
X70302729Y-78590848D01*
X70129807Y-78513857D01*
X70129802Y-78513855D01*
X69984001Y-78482865D01*
X69944646Y-78474500D01*
X69755354Y-78474500D01*
X69722897Y-78481398D01*
X69570197Y-78513855D01*
X69570192Y-78513857D01*
X69397270Y-78590848D01*
X69397265Y-78590851D01*
X69244129Y-78702111D01*
X69117466Y-78842785D01*
X69022821Y-79006715D01*
X69022818Y-79006722D01*
X68964327Y-79186740D01*
X68964326Y-79186744D01*
X68944540Y-79375000D01*
X67949986Y-79375000D01*
X68042533Y-79272216D01*
X68137179Y-79108284D01*
X68195674Y-78928256D01*
X68215460Y-78740000D01*
X68195674Y-78551744D01*
X68137179Y-78371716D01*
X68042533Y-78207784D01*
X67915871Y-78067112D01*
X67915870Y-78067111D01*
X67762734Y-77955851D01*
X67762729Y-77955848D01*
X67589807Y-77878857D01*
X67589802Y-77878855D01*
X67444001Y-77847865D01*
X67404646Y-77839500D01*
X67215354Y-77839500D01*
X67182897Y-77846398D01*
X67030197Y-77878855D01*
X67030192Y-77878857D01*
X66857270Y-77955848D01*
X66857265Y-77955851D01*
X66704129Y-78067111D01*
X66577466Y-78207785D01*
X66482821Y-78371715D01*
X66482818Y-78371722D01*
X66424327Y-78551740D01*
X66424326Y-78551744D01*
X66404540Y-78740000D01*
X50473761Y-78740000D01*
X50497064Y-76200000D01*
X67674540Y-76200000D01*
X67694326Y-76388256D01*
X67694327Y-76388259D01*
X67752818Y-76568277D01*
X67752821Y-76568284D01*
X67847467Y-76732216D01*
X67974129Y-76872888D01*
X68127265Y-76984148D01*
X68127270Y-76984151D01*
X68300192Y-77061142D01*
X68300197Y-77061144D01*
X68485354Y-77100500D01*
X68485355Y-77100500D01*
X68674644Y-77100500D01*
X68674646Y-77100500D01*
X68859803Y-77061144D01*
X69032730Y-76984151D01*
X69185871Y-76872888D01*
X69312533Y-76732216D01*
X69407179Y-76568284D01*
X69407182Y-76568275D01*
X69426409Y-76509101D01*
X69465846Y-76451425D01*
X69530204Y-76424226D01*
X69570121Y-76426128D01*
X69647990Y-76442679D01*
X69755354Y-76465500D01*
X69755355Y-76465500D01*
X69944644Y-76465500D01*
X69944646Y-76465500D01*
X70129803Y-76426144D01*
X70302730Y-76349151D01*
X70455871Y-76237888D01*
X70582533Y-76097216D01*
X70677179Y-75933284D01*
X70735674Y-75753256D01*
X70755460Y-75565000D01*
X70735674Y-75376744D01*
X70717292Y-75320173D01*
X70715298Y-75250335D01*
X70751378Y-75190502D01*
X70814078Y-75159673D01*
X70861005Y-75160567D01*
X70931774Y-75175609D01*
X71025354Y-75195500D01*
X71025355Y-75195500D01*
X71214644Y-75195500D01*
X71214646Y-75195500D01*
X71378994Y-75160567D01*
X71448661Y-75165883D01*
X71504395Y-75208020D01*
X71528500Y-75273600D01*
X71522706Y-75320174D01*
X71504327Y-75376739D01*
X71504327Y-75376740D01*
X71504326Y-75376744D01*
X71484540Y-75565000D01*
X71504326Y-75753256D01*
X71504327Y-75753259D01*
X71562818Y-75933277D01*
X71562821Y-75933284D01*
X71657467Y-76097216D01*
X71784129Y-76237888D01*
X71937265Y-76349148D01*
X71937270Y-76349151D01*
X72110192Y-76426142D01*
X72110197Y-76426144D01*
X72295354Y-76465500D01*
X72295355Y-76465500D01*
X72484644Y-76465500D01*
X72484646Y-76465500D01*
X72669803Y-76426144D01*
X72842730Y-76349151D01*
X72995871Y-76237888D01*
X73122533Y-76097216D01*
X73217179Y-75933284D01*
X73275674Y-75753256D01*
X73295460Y-75565000D01*
X73275674Y-75376744D01*
X73217179Y-75196716D01*
X73122533Y-75032784D01*
X72995871Y-74892112D01*
X72995870Y-74892111D01*
X72842734Y-74780851D01*
X72842729Y-74780848D01*
X72669807Y-74703857D01*
X72669802Y-74703855D01*
X72508160Y-74669498D01*
X72484646Y-74664500D01*
X72295354Y-74664500D01*
X72181148Y-74688774D01*
X72131004Y-74699433D01*
X72061337Y-74694116D01*
X72005604Y-74651978D01*
X71981499Y-74586398D01*
X71987294Y-74539822D01*
X71993363Y-74521144D01*
X72005674Y-74483256D01*
X72025460Y-74295000D01*
X72005674Y-74106744D01*
X71947179Y-73926716D01*
X71852533Y-73762784D01*
X71759986Y-73660000D01*
X79739540Y-73660000D01*
X79759326Y-73848256D01*
X79759327Y-73848259D01*
X79817818Y-74028277D01*
X79817821Y-74028284D01*
X79912467Y-74192216D01*
X80039129Y-74332888D01*
X80192265Y-74444148D01*
X80192270Y-74444151D01*
X80365192Y-74521142D01*
X80365197Y-74521144D01*
X80550354Y-74560500D01*
X80550355Y-74560500D01*
X80739644Y-74560500D01*
X80739646Y-74560500D01*
X80924803Y-74521144D01*
X81097730Y-74444151D01*
X81250871Y-74332888D01*
X81377533Y-74192216D01*
X81472179Y-74028284D01*
X81530674Y-73848256D01*
X81550460Y-73660000D01*
X81530674Y-73471744D01*
X81472179Y-73291716D01*
X81377533Y-73127784D01*
X81250871Y-72987112D01*
X81250870Y-72987111D01*
X81097734Y-72875851D01*
X81097729Y-72875848D01*
X80924807Y-72798857D01*
X80924802Y-72798855D01*
X80779001Y-72767865D01*
X80739646Y-72759500D01*
X80550354Y-72759500D01*
X80517897Y-72766398D01*
X80365197Y-72798855D01*
X80365192Y-72798857D01*
X80192270Y-72875848D01*
X80192265Y-72875851D01*
X80039129Y-72987111D01*
X79912466Y-73127785D01*
X79817821Y-73291715D01*
X79817818Y-73291722D01*
X79771636Y-73433857D01*
X79759326Y-73471744D01*
X79739540Y-73660000D01*
X71759986Y-73660000D01*
X71725871Y-73622112D01*
X71725870Y-73622111D01*
X71572734Y-73510851D01*
X71572729Y-73510848D01*
X71399807Y-73433857D01*
X71399802Y-73433855D01*
X71254001Y-73402865D01*
X71214646Y-73394500D01*
X71025354Y-73394500D01*
X70992897Y-73401398D01*
X70840197Y-73433855D01*
X70840192Y-73433857D01*
X70667270Y-73510848D01*
X70667265Y-73510851D01*
X70514129Y-73622111D01*
X70387466Y-73762785D01*
X70292821Y-73926715D01*
X70292818Y-73926722D01*
X70240094Y-74088992D01*
X70234326Y-74106744D01*
X70214540Y-74295000D01*
X70234326Y-74483256D01*
X70234327Y-74483259D01*
X70252706Y-74539824D01*
X70254701Y-74609665D01*
X70218621Y-74669498D01*
X70155920Y-74700326D01*
X70108995Y-74699433D01*
X70082862Y-74693878D01*
X69944646Y-74664500D01*
X69755354Y-74664500D01*
X69731840Y-74669498D01*
X69570197Y-74703855D01*
X69570192Y-74703857D01*
X69397270Y-74780848D01*
X69397265Y-74780851D01*
X69244129Y-74892111D01*
X69117466Y-75032785D01*
X69022821Y-75196715D01*
X69022820Y-75196717D01*
X69003590Y-75255901D01*
X68964151Y-75313576D01*
X68899792Y-75340773D01*
X68859879Y-75338871D01*
X68674647Y-75299500D01*
X68674646Y-75299500D01*
X68485354Y-75299500D01*
X68452897Y-75306398D01*
X68300197Y-75338855D01*
X68300192Y-75338857D01*
X68127270Y-75415848D01*
X68127265Y-75415851D01*
X67974129Y-75527111D01*
X67847466Y-75667785D01*
X67752821Y-75831715D01*
X67752818Y-75831722D01*
X67719819Y-75933284D01*
X67694326Y-76011744D01*
X67674540Y-76200000D01*
X50497064Y-76200000D01*
X50520213Y-73676686D01*
X50540512Y-73609833D01*
X50593733Y-73564565D01*
X50662980Y-73555256D01*
X50726267Y-73584863D01*
X50736352Y-73594849D01*
X50810039Y-73676686D01*
X50829129Y-73697888D01*
X50982265Y-73809148D01*
X50982270Y-73809151D01*
X51155192Y-73886142D01*
X51155197Y-73886144D01*
X51340354Y-73925500D01*
X51340355Y-73925500D01*
X51529644Y-73925500D01*
X51529646Y-73925500D01*
X51714803Y-73886144D01*
X51887730Y-73809151D01*
X52040871Y-73697888D01*
X52167533Y-73557216D01*
X52262179Y-73393284D01*
X52320674Y-73213256D01*
X52340460Y-73025000D01*
X52320674Y-72836744D01*
X52262179Y-72656716D01*
X52200393Y-72549700D01*
X52183921Y-72481802D01*
X52206774Y-72415775D01*
X52215621Y-72404742D01*
X52228895Y-72390000D01*
X86089540Y-72390000D01*
X86109326Y-72578256D01*
X86109327Y-72578259D01*
X86167818Y-72758277D01*
X86167821Y-72758284D01*
X86262467Y-72922216D01*
X86389129Y-73062888D01*
X86542265Y-73174148D01*
X86542270Y-73174151D01*
X86715192Y-73251142D01*
X86715197Y-73251144D01*
X86900354Y-73290500D01*
X86900355Y-73290500D01*
X87089644Y-73290500D01*
X87089646Y-73290500D01*
X87274803Y-73251144D01*
X87415520Y-73188492D01*
X98215488Y-73188492D01*
X98235274Y-73376748D01*
X98235275Y-73376751D01*
X98293766Y-73556769D01*
X98293769Y-73556776D01*
X98388415Y-73720708D01*
X98468047Y-73809148D01*
X98515077Y-73861380D01*
X98668213Y-73972640D01*
X98668218Y-73972643D01*
X98841140Y-74049634D01*
X98841145Y-74049636D01*
X99026302Y-74088992D01*
X99026303Y-74088992D01*
X99215592Y-74088992D01*
X99215594Y-74088992D01*
X99400751Y-74049636D01*
X99573678Y-73972643D01*
X99726819Y-73861380D01*
X99853481Y-73720708D01*
X99948127Y-73556776D01*
X100006622Y-73376748D01*
X100026408Y-73188492D01*
X100006622Y-73000236D01*
X99948127Y-72820208D01*
X99853481Y-72656276D01*
X99726819Y-72515604D01*
X99695410Y-72492784D01*
X99573682Y-72404343D01*
X99573677Y-72404340D01*
X99400755Y-72327349D01*
X99400750Y-72327347D01*
X99254949Y-72296357D01*
X99215594Y-72287992D01*
X99026302Y-72287992D01*
X98993845Y-72294890D01*
X98841145Y-72327347D01*
X98841140Y-72327349D01*
X98668218Y-72404340D01*
X98668213Y-72404343D01*
X98515077Y-72515603D01*
X98388414Y-72656277D01*
X98293769Y-72820207D01*
X98293766Y-72820214D01*
X98239538Y-72987112D01*
X98235274Y-73000236D01*
X98215488Y-73188492D01*
X87415520Y-73188492D01*
X87447730Y-73174151D01*
X87600871Y-73062888D01*
X87727533Y-72922216D01*
X87822179Y-72758284D01*
X87880674Y-72578256D01*
X87900460Y-72390000D01*
X87880674Y-72201744D01*
X87822179Y-72021716D01*
X87727533Y-71857784D01*
X87600871Y-71717112D01*
X87600870Y-71717111D01*
X87447734Y-71605851D01*
X87447729Y-71605848D01*
X87274807Y-71528857D01*
X87274802Y-71528855D01*
X87129001Y-71497865D01*
X87089646Y-71489500D01*
X86900354Y-71489500D01*
X86867897Y-71496398D01*
X86715197Y-71528855D01*
X86715192Y-71528857D01*
X86542270Y-71605848D01*
X86542265Y-71605851D01*
X86389129Y-71717111D01*
X86262466Y-71857785D01*
X86167821Y-72021715D01*
X86167818Y-72021722D01*
X86120136Y-72168473D01*
X86109326Y-72201744D01*
X86089540Y-72390000D01*
X52228895Y-72390000D01*
X52280748Y-72332412D01*
X52375394Y-72168480D01*
X52433889Y-71988452D01*
X52453675Y-71800196D01*
X52433889Y-71611940D01*
X52375394Y-71431912D01*
X52280748Y-71267980D01*
X52183833Y-71160345D01*
X52153603Y-71097354D01*
X52162228Y-71028018D01*
X52168588Y-71015387D01*
X52262179Y-70853284D01*
X52320674Y-70673256D01*
X52340460Y-70485000D01*
X52320674Y-70296744D01*
X52262179Y-70116716D01*
X52167533Y-69952784D01*
X52074986Y-69850000D01*
X79739540Y-69850000D01*
X79759326Y-70038256D01*
X79759327Y-70038259D01*
X79817818Y-70218277D01*
X79817821Y-70218284D01*
X79912467Y-70382216D01*
X80026117Y-70508437D01*
X80039129Y-70522888D01*
X80192265Y-70634148D01*
X80192270Y-70634151D01*
X80365192Y-70711142D01*
X80365197Y-70711144D01*
X80550354Y-70750500D01*
X80550355Y-70750500D01*
X80739644Y-70750500D01*
X80739646Y-70750500D01*
X80924803Y-70711144D01*
X81097730Y-70634151D01*
X81250871Y-70522888D01*
X81377533Y-70382216D01*
X81472179Y-70218284D01*
X81530674Y-70038256D01*
X81537194Y-69976223D01*
X131875384Y-69976223D01*
X131895170Y-70164479D01*
X131895171Y-70164482D01*
X131953662Y-70344500D01*
X131953665Y-70344507D01*
X132048311Y-70508439D01*
X132161500Y-70634148D01*
X132174973Y-70649111D01*
X132328109Y-70760371D01*
X132328114Y-70760374D01*
X132501036Y-70837365D01*
X132501041Y-70837367D01*
X132686198Y-70876723D01*
X132686199Y-70876723D01*
X132875488Y-70876723D01*
X132875490Y-70876723D01*
X133060647Y-70837367D01*
X133233574Y-70760374D01*
X133386715Y-70649111D01*
X133513377Y-70508439D01*
X133608023Y-70344507D01*
X133666518Y-70164479D01*
X133686304Y-69976223D01*
X133666518Y-69787967D01*
X133608023Y-69607939D01*
X133513377Y-69444007D01*
X133386715Y-69303335D01*
X133386714Y-69303334D01*
X133233578Y-69192074D01*
X133233573Y-69192071D01*
X133060651Y-69115080D01*
X133060646Y-69115078D01*
X132914845Y-69084088D01*
X132875490Y-69075723D01*
X132686198Y-69075723D01*
X132653741Y-69082621D01*
X132501041Y-69115078D01*
X132501036Y-69115080D01*
X132328114Y-69192071D01*
X132328109Y-69192074D01*
X132174973Y-69303334D01*
X132048310Y-69444008D01*
X131953665Y-69607938D01*
X131953662Y-69607945D01*
X131895171Y-69787963D01*
X131895170Y-69787967D01*
X131875384Y-69976223D01*
X81537194Y-69976223D01*
X81550460Y-69850000D01*
X81530674Y-69661744D01*
X81472179Y-69481716D01*
X81377533Y-69317784D01*
X81250871Y-69177112D01*
X81250870Y-69177111D01*
X81097734Y-69065851D01*
X81097729Y-69065848D01*
X80924807Y-68988857D01*
X80924802Y-68988855D01*
X80779001Y-68957865D01*
X80739646Y-68949500D01*
X80550354Y-68949500D01*
X80517897Y-68956398D01*
X80365197Y-68988855D01*
X80365192Y-68988857D01*
X80192270Y-69065848D01*
X80192265Y-69065851D01*
X80039129Y-69177111D01*
X79912466Y-69317785D01*
X79817821Y-69481715D01*
X79817818Y-69481722D01*
X79771636Y-69623857D01*
X79759326Y-69661744D01*
X79739540Y-69850000D01*
X52074986Y-69850000D01*
X52040871Y-69812112D01*
X52040870Y-69812111D01*
X51887734Y-69700851D01*
X51887729Y-69700848D01*
X51714807Y-69623857D01*
X51714802Y-69623855D01*
X51569001Y-69592865D01*
X51529646Y-69584500D01*
X51340354Y-69584500D01*
X51307897Y-69591398D01*
X51155197Y-69623855D01*
X51155192Y-69623857D01*
X50982270Y-69700848D01*
X50982265Y-69700851D01*
X50829129Y-69812111D01*
X50829128Y-69812112D01*
X50772001Y-69875558D01*
X50712514Y-69912206D01*
X50642657Y-69910875D01*
X50584609Y-69871988D01*
X50556800Y-69807891D01*
X50555858Y-69791466D01*
X50577211Y-67463952D01*
X123041903Y-67463952D01*
X123061689Y-67652208D01*
X123061690Y-67652211D01*
X123120181Y-67832229D01*
X123120184Y-67832236D01*
X123214830Y-67996168D01*
X123341492Y-68136840D01*
X123494628Y-68248100D01*
X123494633Y-68248103D01*
X123667555Y-68325094D01*
X123667560Y-68325096D01*
X123852717Y-68364452D01*
X123852718Y-68364452D01*
X124042007Y-68364452D01*
X124042009Y-68364452D01*
X124227166Y-68325096D01*
X124400093Y-68248103D01*
X124553234Y-68136840D01*
X124679896Y-67996168D01*
X124774542Y-67832236D01*
X124833037Y-67652208D01*
X124846956Y-67519777D01*
X132444540Y-67519777D01*
X132464326Y-67708033D01*
X132464327Y-67708036D01*
X132522818Y-67888054D01*
X132522821Y-67888061D01*
X132617467Y-68051993D01*
X132693864Y-68136840D01*
X132744129Y-68192665D01*
X132897265Y-68303925D01*
X132897270Y-68303928D01*
X133070192Y-68380919D01*
X133070197Y-68380921D01*
X133255354Y-68420277D01*
X133255355Y-68420277D01*
X133444644Y-68420277D01*
X133444646Y-68420277D01*
X133629803Y-68380921D01*
X133802730Y-68303928D01*
X133955871Y-68192665D01*
X134082533Y-68051993D01*
X134177179Y-67888061D01*
X134235674Y-67708033D01*
X134255460Y-67519777D01*
X134235674Y-67331521D01*
X134177179Y-67151493D01*
X134082533Y-66987561D01*
X133955871Y-66846889D01*
X133955870Y-66846888D01*
X133802734Y-66735628D01*
X133802729Y-66735625D01*
X133629807Y-66658634D01*
X133629802Y-66658632D01*
X133484001Y-66627642D01*
X133444646Y-66619277D01*
X133255354Y-66619277D01*
X133222897Y-66626175D01*
X133070197Y-66658632D01*
X133070192Y-66658634D01*
X132897270Y-66735625D01*
X132897265Y-66735628D01*
X132744129Y-66846888D01*
X132617466Y-66987562D01*
X132522821Y-67151492D01*
X132522818Y-67151499D01*
X132464327Y-67331517D01*
X132464326Y-67331521D01*
X132444540Y-67519777D01*
X124846956Y-67519777D01*
X124852823Y-67463952D01*
X124833037Y-67275696D01*
X124774542Y-67095668D01*
X124679896Y-66931736D01*
X124553234Y-66791064D01*
X124528352Y-66772986D01*
X124400097Y-66679803D01*
X124400092Y-66679800D01*
X124227170Y-66602809D01*
X124227165Y-66602807D01*
X124081364Y-66571817D01*
X124042009Y-66563452D01*
X123852717Y-66563452D01*
X123820260Y-66570350D01*
X123667560Y-66602807D01*
X123667555Y-66602809D01*
X123494633Y-66679800D01*
X123494628Y-66679803D01*
X123341492Y-66791063D01*
X123214829Y-66931737D01*
X123120184Y-67095667D01*
X123120181Y-67095674D01*
X123089906Y-67188853D01*
X123061689Y-67275696D01*
X123041903Y-67463952D01*
X50577211Y-67463952D01*
X50596101Y-65405001D01*
X77514838Y-65405001D01*
X77533450Y-65617741D01*
X77533452Y-65617752D01*
X77588721Y-65824022D01*
X77588723Y-65824026D01*
X77588724Y-65824030D01*
X77623456Y-65898513D01*
X77678977Y-66017578D01*
X77801472Y-66192521D01*
X77952478Y-66343527D01*
X77952481Y-66343529D01*
X78127419Y-66466021D01*
X78127421Y-66466022D01*
X78127420Y-66466022D01*
X78191936Y-66496106D01*
X78320970Y-66556276D01*
X78527253Y-66611549D01*
X78679215Y-66624844D01*
X78739998Y-66630162D01*
X78740000Y-66630162D01*
X78740002Y-66630162D01*
X78793186Y-66625508D01*
X78952747Y-66611549D01*
X79159030Y-66556276D01*
X79352581Y-66466021D01*
X79440154Y-66404702D01*
X85322040Y-66404702D01*
X85341826Y-66592958D01*
X85341827Y-66592961D01*
X85400318Y-66772979D01*
X85400321Y-66772986D01*
X85494967Y-66936918D01*
X85597632Y-67050939D01*
X85621629Y-67077590D01*
X85774765Y-67188850D01*
X85774770Y-67188853D01*
X85947692Y-67265844D01*
X85947697Y-67265846D01*
X86132854Y-67305202D01*
X86132855Y-67305202D01*
X86322144Y-67305202D01*
X86322146Y-67305202D01*
X86507303Y-67265846D01*
X86680230Y-67188853D01*
X86833371Y-67077590D01*
X86960033Y-66936918D01*
X87054679Y-66772986D01*
X87113174Y-66592958D01*
X87132960Y-66404702D01*
X87118465Y-66266791D01*
X89086100Y-66266791D01*
X89105886Y-66455047D01*
X89105887Y-66455050D01*
X89164378Y-66635068D01*
X89164381Y-66635075D01*
X89259027Y-66799007D01*
X89378537Y-66931736D01*
X89385689Y-66939679D01*
X89538825Y-67050939D01*
X89538830Y-67050942D01*
X89711752Y-67127933D01*
X89711757Y-67127935D01*
X89896914Y-67167291D01*
X89896915Y-67167291D01*
X90086204Y-67167291D01*
X90086206Y-67167291D01*
X90271363Y-67127935D01*
X90444290Y-67050942D01*
X90597431Y-66939679D01*
X90724093Y-66799007D01*
X90818739Y-66635075D01*
X90877234Y-66455047D01*
X90897020Y-66266791D01*
X90877234Y-66078535D01*
X90818739Y-65898507D01*
X90724093Y-65734575D01*
X90597431Y-65593903D01*
X90597430Y-65593902D01*
X90444294Y-65482642D01*
X90444289Y-65482639D01*
X90271367Y-65405648D01*
X90271362Y-65405646D01*
X90125561Y-65374656D01*
X90086206Y-65366291D01*
X89896914Y-65366291D01*
X89864457Y-65373189D01*
X89711757Y-65405646D01*
X89711752Y-65405648D01*
X89538830Y-65482639D01*
X89538825Y-65482642D01*
X89385689Y-65593902D01*
X89259026Y-65734576D01*
X89164381Y-65898506D01*
X89164378Y-65898513D01*
X89105887Y-66078531D01*
X89105886Y-66078535D01*
X89086100Y-66266791D01*
X87118465Y-66266791D01*
X87113174Y-66216446D01*
X87054679Y-66036418D01*
X86960033Y-65872486D01*
X86833371Y-65731814D01*
X86833370Y-65731813D01*
X86680234Y-65620553D01*
X86680229Y-65620550D01*
X86507307Y-65543559D01*
X86507302Y-65543557D01*
X86361501Y-65512567D01*
X86322146Y-65504202D01*
X86132854Y-65504202D01*
X86100397Y-65511100D01*
X85947697Y-65543557D01*
X85947692Y-65543559D01*
X85774770Y-65620550D01*
X85774765Y-65620553D01*
X85621629Y-65731813D01*
X85494966Y-65872487D01*
X85400321Y-66036417D01*
X85400318Y-66036424D01*
X85341827Y-66216442D01*
X85341826Y-66216446D01*
X85322040Y-66404702D01*
X79440154Y-66404702D01*
X79527519Y-66343529D01*
X79678529Y-66192519D01*
X79801021Y-66017581D01*
X79891276Y-65824030D01*
X79946549Y-65617747D01*
X79965105Y-65405647D01*
X79965162Y-65405001D01*
X79965162Y-65404998D01*
X79946549Y-65192258D01*
X79946549Y-65192253D01*
X79891276Y-64985970D01*
X79801021Y-64792419D01*
X79678529Y-64617481D01*
X79678527Y-64617478D01*
X79527521Y-64466472D01*
X79352578Y-64343977D01*
X79352579Y-64343977D01*
X79223547Y-64283809D01*
X79159030Y-64253724D01*
X79159023Y-64253722D01*
X79153936Y-64251870D01*
X79154709Y-64249746D01*
X79103305Y-64218424D01*
X79072766Y-64155581D01*
X79081050Y-64086204D01*
X79125528Y-64032320D01*
X79154315Y-64019172D01*
X79153936Y-64018130D01*
X79159013Y-64016280D01*
X79159030Y-64016276D01*
X79352581Y-63926021D01*
X79527519Y-63803529D01*
X79678529Y-63652519D01*
X79801021Y-63477581D01*
X79891276Y-63284030D01*
X79946549Y-63077747D01*
X79965162Y-62865000D01*
X79946549Y-62652253D01*
X79891276Y-62445970D01*
X79801021Y-62252419D01*
X79678529Y-62077481D01*
X79678527Y-62077478D01*
X79527521Y-61926472D01*
X79352578Y-61803977D01*
X79352579Y-61803977D01*
X79223547Y-61743809D01*
X79159030Y-61713724D01*
X79159023Y-61713722D01*
X79153936Y-61711870D01*
X79154709Y-61709746D01*
X79103305Y-61678424D01*
X79072766Y-61615581D01*
X79081050Y-61546204D01*
X79125528Y-61492320D01*
X79154315Y-61479172D01*
X79153936Y-61478130D01*
X79159013Y-61476280D01*
X79159030Y-61476276D01*
X79352581Y-61386021D01*
X79527519Y-61263529D01*
X79678529Y-61112519D01*
X79801021Y-60937581D01*
X79891276Y-60744030D01*
X79946549Y-60537747D01*
X79965162Y-60325000D01*
X79946549Y-60112253D01*
X79891276Y-59905970D01*
X79801021Y-59712419D01*
X79678529Y-59537481D01*
X79678527Y-59537478D01*
X79527521Y-59386472D01*
X79352578Y-59263977D01*
X79352579Y-59263977D01*
X79223547Y-59203809D01*
X79159030Y-59173724D01*
X79159026Y-59173723D01*
X79159022Y-59173721D01*
X78952752Y-59118452D01*
X78952748Y-59118451D01*
X78952747Y-59118451D01*
X78952746Y-59118450D01*
X78952741Y-59118450D01*
X78740002Y-59099838D01*
X78739998Y-59099838D01*
X78527258Y-59118450D01*
X78527247Y-59118452D01*
X78320977Y-59173721D01*
X78320968Y-59173725D01*
X78127421Y-59263977D01*
X77952478Y-59386472D01*
X77801472Y-59537478D01*
X77678977Y-59712421D01*
X77588725Y-59905968D01*
X77588721Y-59905977D01*
X77533452Y-60112247D01*
X77533450Y-60112258D01*
X77514838Y-60324998D01*
X77514838Y-60325001D01*
X77533450Y-60537741D01*
X77533452Y-60537752D01*
X77588721Y-60744022D01*
X77588723Y-60744026D01*
X77588724Y-60744030D01*
X77631171Y-60835058D01*
X77678977Y-60937578D01*
X77801472Y-61112521D01*
X77952478Y-61263527D01*
X77952481Y-61263529D01*
X78127419Y-61386021D01*
X78127421Y-61386022D01*
X78127420Y-61386022D01*
X78191936Y-61416106D01*
X78320970Y-61476276D01*
X78320983Y-61476279D01*
X78326064Y-61478130D01*
X78325292Y-61480250D01*
X78376710Y-61511594D01*
X78407237Y-61574442D01*
X78398939Y-61643817D01*
X78354452Y-61697693D01*
X78325685Y-61710830D01*
X78326064Y-61711870D01*
X78320972Y-61713723D01*
X78320970Y-61713724D01*
X78320968Y-61713725D01*
X78127421Y-61803977D01*
X77952478Y-61926472D01*
X77801472Y-62077478D01*
X77678977Y-62252421D01*
X77588725Y-62445968D01*
X77588721Y-62445977D01*
X77533452Y-62652247D01*
X77533450Y-62652258D01*
X77514838Y-62864998D01*
X77514838Y-62865001D01*
X77533450Y-63077741D01*
X77533452Y-63077752D01*
X77588721Y-63284022D01*
X77588723Y-63284026D01*
X77588724Y-63284030D01*
X77631171Y-63375058D01*
X77678977Y-63477578D01*
X77801472Y-63652521D01*
X77952478Y-63803527D01*
X77952481Y-63803529D01*
X78127419Y-63926021D01*
X78127421Y-63926022D01*
X78127420Y-63926022D01*
X78191936Y-63956106D01*
X78320970Y-64016276D01*
X78320983Y-64016279D01*
X78326064Y-64018130D01*
X78325292Y-64020250D01*
X78376710Y-64051594D01*
X78407237Y-64114442D01*
X78398939Y-64183817D01*
X78354452Y-64237693D01*
X78325685Y-64250830D01*
X78326064Y-64251870D01*
X78320972Y-64253723D01*
X78320970Y-64253724D01*
X78320968Y-64253725D01*
X78127421Y-64343977D01*
X77952478Y-64466472D01*
X77801472Y-64617478D01*
X77678977Y-64792421D01*
X77588725Y-64985968D01*
X77588721Y-64985977D01*
X77533452Y-65192247D01*
X77533450Y-65192258D01*
X77514838Y-65404998D01*
X77514838Y-65405001D01*
X50596101Y-65405001D01*
X50655027Y-58982101D01*
X69942850Y-58982101D01*
X69962636Y-59170357D01*
X69962637Y-59170360D01*
X70021128Y-59350378D01*
X70021131Y-59350385D01*
X70115777Y-59514317D01*
X70242439Y-59654989D01*
X70395575Y-59766249D01*
X70395580Y-59766252D01*
X70568502Y-59843243D01*
X70568507Y-59843245D01*
X70753664Y-59882601D01*
X70753665Y-59882601D01*
X70942954Y-59882601D01*
X70942956Y-59882601D01*
X71128113Y-59843245D01*
X71301040Y-59766252D01*
X71454181Y-59654989D01*
X71580843Y-59514317D01*
X71675489Y-59350385D01*
X71733984Y-59170357D01*
X71753770Y-58982101D01*
X71733984Y-58793845D01*
X71675489Y-58613817D01*
X71580843Y-58449885D01*
X71454181Y-58309213D01*
X71454180Y-58309212D01*
X71301044Y-58197952D01*
X71301039Y-58197949D01*
X71128117Y-58120958D01*
X71128112Y-58120956D01*
X70982311Y-58089966D01*
X70942956Y-58081601D01*
X70753664Y-58081601D01*
X70721207Y-58088499D01*
X70568507Y-58120956D01*
X70568502Y-58120958D01*
X70395580Y-58197949D01*
X70395575Y-58197952D01*
X70242439Y-58309212D01*
X70115776Y-58449886D01*
X70021131Y-58613816D01*
X70021128Y-58613823D01*
X69987409Y-58717601D01*
X69962636Y-58793845D01*
X69942850Y-58982101D01*
X50655027Y-58982101D01*
X50664648Y-57933453D01*
X86605843Y-57933453D01*
X86625629Y-58121709D01*
X86625630Y-58121712D01*
X86684121Y-58301730D01*
X86684124Y-58301737D01*
X86778770Y-58465669D01*
X86905432Y-58606341D01*
X87058568Y-58717601D01*
X87058573Y-58717604D01*
X87231495Y-58794595D01*
X87231500Y-58794597D01*
X87416657Y-58833953D01*
X87416658Y-58833953D01*
X87605947Y-58833953D01*
X87605949Y-58833953D01*
X87791106Y-58794597D01*
X87964033Y-58717604D01*
X88117174Y-58606341D01*
X88243836Y-58465669D01*
X88338482Y-58301737D01*
X88396977Y-58121709D01*
X88416763Y-57933453D01*
X88396977Y-57745197D01*
X88338482Y-57565169D01*
X88243836Y-57401237D01*
X88117174Y-57260565D01*
X88117173Y-57260564D01*
X87964037Y-57149304D01*
X87964032Y-57149301D01*
X87791110Y-57072310D01*
X87791105Y-57072308D01*
X87645304Y-57041318D01*
X87605949Y-57032953D01*
X87416657Y-57032953D01*
X87384200Y-57039851D01*
X87231500Y-57072308D01*
X87231495Y-57072310D01*
X87058573Y-57149301D01*
X87058568Y-57149304D01*
X86905432Y-57260564D01*
X86778769Y-57401238D01*
X86684124Y-57565168D01*
X86684121Y-57565175D01*
X86625630Y-57745193D01*
X86625629Y-57745197D01*
X86605843Y-57933453D01*
X50664648Y-57933453D01*
X50708042Y-53203470D01*
X113919500Y-53203470D01*
X113958932Y-53515604D01*
X113958934Y-53515617D01*
X114037180Y-53820366D01*
X114037181Y-53820369D01*
X114153001Y-54112898D01*
X114153002Y-54112899D01*
X114153004Y-54112904D01*
X114153006Y-54112907D01*
X114304584Y-54388625D01*
X114304586Y-54388629D01*
X114304591Y-54388636D01*
X114489515Y-54643162D01*
X114489523Y-54643172D01*
X114704907Y-54872532D01*
X114704909Y-54872534D01*
X114947334Y-55073086D01*
X114947338Y-55073089D01*
X115157648Y-55206555D01*
X115212993Y-55241678D01*
X115379087Y-55319836D01*
X115497678Y-55375641D01*
X115497682Y-55375642D01*
X115497685Y-55375644D01*
X115796921Y-55472872D01*
X116105985Y-55531829D01*
X116105990Y-55531829D01*
X116105995Y-55531830D01*
X116341406Y-55546641D01*
X116341417Y-55546641D01*
X118498594Y-55546641D01*
X118734004Y-55531830D01*
X118734007Y-55531829D01*
X118734015Y-55531829D01*
X119043079Y-55472872D01*
X119342315Y-55375644D01*
X119627007Y-55241678D01*
X119892663Y-55073088D01*
X120135094Y-54872531D01*
X120350478Y-54643171D01*
X120535416Y-54388625D01*
X120686994Y-54112907D01*
X120802819Y-53820366D01*
X120881066Y-53515614D01*
X120920500Y-53203459D01*
X120920500Y-52888823D01*
X120920499Y-52888821D01*
X120920499Y-52888811D01*
X120881067Y-52576677D01*
X120881065Y-52576664D01*
X120802819Y-52271915D01*
X120802818Y-52271912D01*
X120686998Y-51979383D01*
X120686997Y-51979382D01*
X120686996Y-51979380D01*
X120686994Y-51979375D01*
X120535416Y-51703657D01*
X120535410Y-51703650D01*
X120535408Y-51703645D01*
X120350484Y-51449119D01*
X120350476Y-51449109D01*
X120216825Y-51306785D01*
X120135094Y-51219751D01*
X120135092Y-51219749D01*
X120135090Y-51219747D01*
X119892665Y-51019195D01*
X119892661Y-51019192D01*
X119627009Y-50850605D01*
X119627003Y-50850602D01*
X119342321Y-50716640D01*
X119342316Y-50716638D01*
X119043083Y-50619411D01*
X119043080Y-50619410D01*
X119043079Y-50619410D01*
X118888547Y-50589931D01*
X118734011Y-50560452D01*
X118734004Y-50560451D01*
X118498594Y-50545641D01*
X118498583Y-50545641D01*
X116341417Y-50545641D01*
X116341406Y-50545641D01*
X116105995Y-50560451D01*
X116105988Y-50560452D01*
X115796916Y-50619411D01*
X115497683Y-50716638D01*
X115497678Y-50716640D01*
X115212996Y-50850602D01*
X115212990Y-50850605D01*
X114947338Y-51019192D01*
X114947334Y-51019195D01*
X114704909Y-51219747D01*
X114704907Y-51219749D01*
X114489523Y-51449109D01*
X114489515Y-51449119D01*
X114304591Y-51703645D01*
X114304584Y-51703657D01*
X114153002Y-51979382D01*
X114153001Y-51979383D01*
X114037181Y-52271912D01*
X114037180Y-52271915D01*
X113958934Y-52576664D01*
X113958932Y-52576677D01*
X113919500Y-52888811D01*
X113919500Y-53203470D01*
X50708042Y-53203470D01*
X50725443Y-51306785D01*
X69819500Y-51306785D01*
X69834364Y-51476687D01*
X69834366Y-51476697D01*
X69893258Y-51696488D01*
X69893261Y-51696497D01*
X69989431Y-51902732D01*
X69989432Y-51902734D01*
X70119954Y-52089141D01*
X70280858Y-52250045D01*
X70280861Y-52250047D01*
X70467266Y-52380568D01*
X70673504Y-52476739D01*
X70893308Y-52535635D01*
X71055230Y-52549801D01*
X71119998Y-52555468D01*
X71120000Y-52555468D01*
X71120002Y-52555468D01*
X71176673Y-52550509D01*
X71346692Y-52535635D01*
X71566496Y-52476739D01*
X71772734Y-52380568D01*
X71959139Y-52250047D01*
X72120047Y-52089139D01*
X72250568Y-51902734D01*
X72277618Y-51844724D01*
X72323790Y-51792285D01*
X72390983Y-51773133D01*
X72457865Y-51793348D01*
X72502382Y-51844725D01*
X72529429Y-51902728D01*
X72529432Y-51902734D01*
X72659954Y-52089141D01*
X72820858Y-52250045D01*
X72820861Y-52250047D01*
X73007266Y-52380568D01*
X73213504Y-52476739D01*
X73433308Y-52535635D01*
X73595230Y-52549801D01*
X73659998Y-52555468D01*
X73660000Y-52555468D01*
X73660002Y-52555468D01*
X73716673Y-52550509D01*
X73886692Y-52535635D01*
X74106496Y-52476739D01*
X74312734Y-52380568D01*
X74499139Y-52250047D01*
X74660047Y-52089139D01*
X74790568Y-51902734D01*
X74838613Y-51799702D01*
X86592040Y-51799702D01*
X86611826Y-51987958D01*
X86611827Y-51987961D01*
X86670318Y-52167979D01*
X86670321Y-52167986D01*
X86764967Y-52331918D01*
X86808771Y-52380567D01*
X86891629Y-52472590D01*
X87044765Y-52583850D01*
X87044770Y-52583853D01*
X87217692Y-52660844D01*
X87217697Y-52660846D01*
X87402854Y-52700202D01*
X87402855Y-52700202D01*
X87592144Y-52700202D01*
X87592146Y-52700202D01*
X87777303Y-52660846D01*
X87950230Y-52583853D01*
X88103371Y-52472590D01*
X88230033Y-52331918D01*
X88324679Y-52167986D01*
X88383174Y-51987958D01*
X88402960Y-51799702D01*
X88383174Y-51611446D01*
X88324679Y-51431418D01*
X88252722Y-51306785D01*
X95219500Y-51306785D01*
X95234364Y-51476687D01*
X95234366Y-51476697D01*
X95293258Y-51696488D01*
X95293261Y-51696497D01*
X95389431Y-51902732D01*
X95389432Y-51902734D01*
X95519954Y-52089141D01*
X95680858Y-52250045D01*
X95680861Y-52250047D01*
X95867266Y-52380568D01*
X96073504Y-52476739D01*
X96293308Y-52535635D01*
X96455230Y-52549801D01*
X96519998Y-52555468D01*
X96520000Y-52555468D01*
X96520002Y-52555468D01*
X96576673Y-52550509D01*
X96746692Y-52535635D01*
X96966496Y-52476739D01*
X97172734Y-52380568D01*
X97359139Y-52250047D01*
X97520047Y-52089139D01*
X97650568Y-51902734D01*
X97677618Y-51844724D01*
X97723790Y-51792285D01*
X97790983Y-51773133D01*
X97857865Y-51793348D01*
X97902382Y-51844725D01*
X97929429Y-51902728D01*
X97929432Y-51902734D01*
X98059954Y-52089141D01*
X98220858Y-52250045D01*
X98220861Y-52250047D01*
X98407266Y-52380568D01*
X98613504Y-52476739D01*
X98833308Y-52535635D01*
X98995230Y-52549801D01*
X99059998Y-52555468D01*
X99060000Y-52555468D01*
X99060002Y-52555468D01*
X99116673Y-52550509D01*
X99286692Y-52535635D01*
X99506496Y-52476739D01*
X99712734Y-52380568D01*
X99899139Y-52250047D01*
X100060047Y-52089139D01*
X100190568Y-51902734D01*
X100286739Y-51696496D01*
X100345635Y-51476692D01*
X100360500Y-51306784D01*
X100360500Y-50293216D01*
X100345635Y-50123308D01*
X100286739Y-49903504D01*
X100190568Y-49697266D01*
X100060047Y-49510861D01*
X100060045Y-49510858D01*
X99899141Y-49349954D01*
X99712734Y-49219432D01*
X99712732Y-49219431D01*
X99506497Y-49123261D01*
X99506488Y-49123258D01*
X99286697Y-49064366D01*
X99286693Y-49064365D01*
X99286692Y-49064365D01*
X99286691Y-49064364D01*
X99286686Y-49064364D01*
X99060002Y-49044532D01*
X99059998Y-49044532D01*
X98833313Y-49064364D01*
X98833302Y-49064366D01*
X98613511Y-49123258D01*
X98613502Y-49123261D01*
X98407267Y-49219431D01*
X98407265Y-49219432D01*
X98220858Y-49349954D01*
X98059954Y-49510858D01*
X97929432Y-49697265D01*
X97929431Y-49697267D01*
X97902382Y-49755275D01*
X97856209Y-49807714D01*
X97789016Y-49826866D01*
X97722135Y-49806650D01*
X97677618Y-49755275D01*
X97650568Y-49697266D01*
X97520047Y-49510861D01*
X97520045Y-49510858D01*
X97359141Y-49349954D01*
X97172734Y-49219432D01*
X97172732Y-49219431D01*
X96966497Y-49123261D01*
X96966488Y-49123258D01*
X96746697Y-49064366D01*
X96746693Y-49064365D01*
X96746692Y-49064365D01*
X96746691Y-49064364D01*
X96746686Y-49064364D01*
X96520002Y-49044532D01*
X96519998Y-49044532D01*
X96293313Y-49064364D01*
X96293302Y-49064366D01*
X96073511Y-49123258D01*
X96073502Y-49123261D01*
X95867267Y-49219431D01*
X95867265Y-49219432D01*
X95680858Y-49349954D01*
X95519954Y-49510858D01*
X95389432Y-49697265D01*
X95389431Y-49697267D01*
X95293261Y-49903502D01*
X95293258Y-49903511D01*
X95234366Y-50123302D01*
X95234364Y-50123312D01*
X95219500Y-50293214D01*
X95219500Y-51306785D01*
X88252722Y-51306785D01*
X88230033Y-51267486D01*
X88103371Y-51126814D01*
X88103370Y-51126813D01*
X87950234Y-51015553D01*
X87950229Y-51015550D01*
X87777307Y-50938559D01*
X87777302Y-50938557D01*
X87631501Y-50907567D01*
X87592146Y-50899202D01*
X87402854Y-50899202D01*
X87370397Y-50906100D01*
X87217697Y-50938557D01*
X87217692Y-50938559D01*
X87044770Y-51015550D01*
X87044765Y-51015553D01*
X86891629Y-51126813D01*
X86764966Y-51267487D01*
X86670321Y-51431417D01*
X86670318Y-51431424D01*
X86636651Y-51535042D01*
X86611826Y-51611446D01*
X86592040Y-51799702D01*
X74838613Y-51799702D01*
X74886739Y-51696496D01*
X74945635Y-51476692D01*
X74960500Y-51306784D01*
X74960500Y-50293216D01*
X74945635Y-50123308D01*
X74886739Y-49903504D01*
X74790568Y-49697266D01*
X74660047Y-49510861D01*
X74660045Y-49510858D01*
X74499141Y-49349954D01*
X74312734Y-49219432D01*
X74312732Y-49219431D01*
X74106497Y-49123261D01*
X74106488Y-49123258D01*
X73886697Y-49064366D01*
X73886693Y-49064365D01*
X73886692Y-49064365D01*
X73886691Y-49064364D01*
X73886686Y-49064364D01*
X73660002Y-49044532D01*
X73659998Y-49044532D01*
X73433313Y-49064364D01*
X73433302Y-49064366D01*
X73213511Y-49123258D01*
X73213502Y-49123261D01*
X73007267Y-49219431D01*
X73007265Y-49219432D01*
X72820858Y-49349954D01*
X72659954Y-49510858D01*
X72529432Y-49697265D01*
X72529431Y-49697267D01*
X72502382Y-49755275D01*
X72456209Y-49807714D01*
X72389016Y-49826866D01*
X72322135Y-49806650D01*
X72277618Y-49755275D01*
X72250568Y-49697266D01*
X72120047Y-49510861D01*
X72120045Y-49510858D01*
X71959141Y-49349954D01*
X71772734Y-49219432D01*
X71772732Y-49219431D01*
X71566497Y-49123261D01*
X71566488Y-49123258D01*
X71346697Y-49064366D01*
X71346693Y-49064365D01*
X71346692Y-49064365D01*
X71346691Y-49064364D01*
X71346686Y-49064364D01*
X71120002Y-49044532D01*
X71119998Y-49044532D01*
X70893313Y-49064364D01*
X70893302Y-49064366D01*
X70673511Y-49123258D01*
X70673502Y-49123261D01*
X70467267Y-49219431D01*
X70467265Y-49219432D01*
X70280858Y-49349954D01*
X70119954Y-49510858D01*
X69989432Y-49697265D01*
X69989431Y-49697267D01*
X69893261Y-49903502D01*
X69893258Y-49903511D01*
X69834366Y-50123302D01*
X69834364Y-50123312D01*
X69819500Y-50293214D01*
X69819500Y-51306785D01*
X50725443Y-51306785D01*
X50793443Y-43894747D01*
X50798873Y-43302862D01*
X50819172Y-43236006D01*
X50872393Y-43190738D01*
X50922868Y-43180000D01*
X51116127Y-43180000D01*
X51183166Y-43199685D01*
G37*
%TD.AperFunction*%
%TD*%
M02*
